<svg width="79" height="78" viewBox="0 0 79 78" fill="none" xmlns="http://www.w3.org/2000/svg">
<g clip-path="url(#clip0_30_5278)">
<path d="M59.9729 0.422852H18.7761C8.73832 0.422852 0.601074 8.56009 0.601074 18.5979V59.7946C0.601074 69.8324 8.73832 77.9697 18.7761 77.9697H59.9729C70.0107 77.9697 78.1479 69.8324 78.1479 59.7946V18.5979C78.1479 8.56009 70.0107 0.422852 59.9729 0.422852Z" fill="#00005B"/>
<path d="M32.455 47.7145H20.4353L17.9795 55.3398C17.915 55.6306 17.6566 55.8245 17.3658 55.7924H11.2911C10.9358 55.7924 10.8389 55.5985 10.9358 55.2108L21.3398 25.3874C21.4367 25.0645 21.5337 24.7737 21.663 24.3859C21.7923 23.7074 21.8569 22.9964 21.8569 22.2855C21.8248 22.124 21.9538 21.9626 22.1153 21.9302H30.484C30.7102 21.9302 30.8717 22.0271 30.9041 22.1886L42.6976 55.146C42.7945 55.5016 42.6976 55.663 42.3747 55.663H35.6214C35.3955 55.6955 35.1692 55.5337 35.1047 55.3077L32.455 47.553V47.7145ZM22.3094 41.2845H30.5164C30.3225 40.6059 30.0638 39.7984 29.773 38.9581C29.4822 38.0857 29.1914 37.1487 28.9006 36.1794C28.5777 35.1777 28.2869 34.2083 27.9637 33.2069C27.6405 32.2051 27.35 31.2682 27.0913 30.331C26.8329 29.4265 26.6066 28.5862 26.3803 27.8107H26.3158C26.025 29.2002 25.6697 30.5897 25.2171 31.9788C24.7325 33.5298 24.2478 35.1455 23.731 36.761C23.3109 38.4089 22.7941 39.9274 22.3094 41.2845ZM61.729 44.8065H51.4864C51.6155 45.8082 51.9387 46.8097 52.4879 47.6821C53.0695 48.5545 53.8773 49.233 54.8467 49.6208C56.1392 50.1702 57.5608 50.461 58.9824 50.4286C60.1135 50.3962 61.2443 50.2993 62.343 50.0733C63.3283 49.9442 64.2941 49.6946 65.2186 49.33C65.38 49.2009 65.477 49.2654 65.477 49.5886V54.5323C65.477 54.6613 65.4449 54.7906 65.4124 54.92C65.3479 55.0169 65.2831 55.0814 65.1862 55.146C64.1528 55.5999 63.0678 55.9254 61.9552 56.1153C60.4438 56.406 58.9058 56.536 57.367 56.503C54.9112 56.503 52.8435 56.1153 51.1632 55.3722C49.5799 54.6937 48.1907 53.6274 47.092 52.3028C46.069 51.0579 45.3104 49.6176 44.8625 48.0698C44.4103 46.5513 44.184 44.9679 44.184 43.3525C44.184 41.6077 44.4424 39.8953 44.9919 38.215C45.507 36.5972 46.3299 35.0941 47.4152 33.7885C48.4815 32.4959 49.8061 31.4621 51.3247 30.7187C52.8435 29.9757 54.6528 29.7173 56.7208 29.7173C58.4332 29.6849 60.1456 30.0081 61.729 30.7187C63.0536 31.3003 64.2168 32.1727 65.1216 33.3038C65.9616 34.4022 66.6402 35.6302 67.0603 36.9873C67.4805 38.2795 67.6743 39.6045 67.6743 40.9291C67.6743 41.7046 67.6419 42.3831 67.6095 42.9972C67.545 43.6109 67.5126 44.0634 67.4805 44.3542C67.448 44.5802 67.2542 44.7741 67.0279 44.7741C66.834 44.7741 66.4787 44.8065 65.9616 44.8389C65.4449 44.9034 64.8308 44.9358 64.0878 44.9358C63.3444 44.9358 62.569 44.8065 61.729 44.8065ZM51.4864 40.0892H58.3039C59.1442 40.0892 59.7579 40.0892 60.1456 40.0567C60.4043 40.0243 60.6627 39.9598 60.889 39.7984V39.4751C60.8902 39.0687 60.8247 38.6648 60.6951 38.2795C60.1135 36.4702 58.4008 35.2425 56.4946 35.307C55.6176 35.2579 54.7452 35.4636 53.9827 35.8994C53.2201 36.3351 52.5999 36.9823 52.1971 37.7628C51.8093 38.5058 51.5834 39.2813 51.4864 40.0892Z" fill="#9999FF"/>
</g>
<defs>
<clipPath id="clip0_30_5278">
<rect width="77.5468" height="77.5468" fill="white" transform="translate(0.601074 0.422852)"/>
</clipPath>
</defs>
</svg>
