<svg width="82" height="83" viewBox="0 0 82 83" fill="none" xmlns="http://www.w3.org/2000/svg">
<g clip-path="url(#clip0_30_5270)">
<path d="M62.6076 0.894287H19.1718C8.58852 0.894287 0.0090332 9.47377 0.0090332 20.0571V63.4928C0.0090332 74.0761 8.58852 82.6556 19.1718 82.6556H62.6076C73.1909 82.6556 81.7704 74.0761 81.7704 63.4928V20.0571C81.7704 9.47377 73.1909 0.894287 62.6076 0.894287Z" fill="#330000"/>
<path d="M39.5271 49.5466H26.8541L24.2649 57.5525C24.1969 57.8591 23.9244 58.0635 23.6178 58.0293H17.213C16.8383 58.0293 16.7361 57.8249 16.8383 57.4161L27.8081 25.8358C27.9103 25.4953 28.0125 25.1204 28.1486 24.7116C28.2849 23.9961 28.353 23.2469 28.353 22.4973C28.3191 22.3271 28.4552 22.1565 28.6257 22.1227H37.4489C37.7217 22.1227 37.8577 22.2249 37.8919 22.3951L50.3263 57.4844C50.4285 57.8591 50.3263 58.0293 49.9859 58.0293H42.8656C42.6273 58.0635 42.3888 57.8932 42.3207 57.6547L39.5271 49.5466ZM28.8301 42.631H37.4831C37.2787 41.9156 37.0062 41.0638 36.6996 40.1782C36.393 39.2584 36.0864 38.2705 35.7798 37.2485C35.4391 36.1923 35.1324 35.1703 34.7917 34.1141C34.4512 33.0582 34.1446 32.0701 33.8719 31.0822C33.5994 30.1286 33.3608 29.2426 33.1226 28.425H33.0542C32.7476 29.89 32.373 31.355 31.8962 32.8197C31.3852 34.4549 30.8741 36.1581 30.329 37.8617C29.889 39.4696 29.389 41.0605 28.8301 42.631ZM57.9234 28.0842C56.7992 28.1184 55.7092 27.6754 54.8915 26.892C54.1081 26.0402 53.6993 24.916 53.7331 23.7579C53.6993 22.5995 54.142 21.5095 54.9596 20.7257C55.7772 19.9423 56.8675 19.5334 57.9918 19.5334C59.3204 19.5334 60.3424 19.9423 61.0917 20.7257C61.8467 21.5516 62.25 22.6394 62.2159 23.7579C62.2501 24.916 61.8413 26.0402 61.0236 26.892C60.2402 27.7096 59.0818 28.1526 57.9234 28.0842ZM54.1081 57.6547V31.423C54.1081 31.0822 54.2442 30.9459 54.5508 30.9459H61.2961C61.6027 30.9459 61.7391 31.1164 61.7391 31.423V57.6547C61.7391 58.0293 61.6027 58.1998 61.2961 58.1998H54.6191C54.2783 58.1998 54.1081 57.9954 54.1081 57.6547Z" fill="#FF9A00"/>
</g>
<defs>
<clipPath id="clip0_30_5270">
<rect width="81.7613" height="81.7613" fill="white" transform="translate(0.0090332 0.894287)"/>
</clipPath>
</defs>
</svg>
