<svg width="85" height="69" viewBox="0 0 85 69" fill="none" xmlns="http://www.w3.org/2000/svg">
<g clip-path="url(#clip0_30_5282)">
<path d="M33.5478 38.2716C33.8543 32.8039 36.5315 27.9872 40.5708 24.5725C44.5318 21.2187 49.8631 19.1687 55.6805 19.1687C61.4919 19.1687 66.8235 21.2187 70.7875 24.5725C74.8235 27.9869 77.501 32.8039 77.8105 38.2656C78.1167 43.8834 75.8587 49.1022 71.8977 52.9706C67.8587 56.9056 62.1135 59.3747 55.6805 59.3747C49.2474 59.3747 43.491 56.9056 39.4546 52.9706C35.4907 49.1018 33.2383 43.8831 33.5478 38.2716Z" fill="white"/>
<path d="M44.327 38.7589C44.484 35.9537 45.858 33.4819 47.9304 31.73C49.9629 30.0093 52.6983 28.9573 55.6834 28.9573C58.6652 28.9573 61.401 30.0093 63.4348 31.73C65.5058 33.4819 66.8795 35.9537 67.0382 38.7563C67.1956 41.6386 66.0372 44.3165 64.0044 46.3013C61.932 48.3203 58.9842 49.5872 55.6834 49.5872C52.3826 49.5872 49.4288 48.3203 47.3578 46.3013C45.324 44.3165 44.1683 41.6386 44.327 38.7589Z" fill="#265787"/>
<path d="M26.2974 44.5223C26.3171 45.6221 26.6678 47.7603 27.1943 49.4296C28.3002 52.9635 30.1764 56.233 32.787 59.114C35.4662 62.0757 38.765 64.4546 42.5759 66.1434C46.581 67.9171 50.9206 68.8209 55.4281 68.8136C59.9284 68.8074 64.2683 67.8858 68.2734 66.0986C72.0839 64.3934 75.3798 62.0043 78.0547 59.0413C80.6637 56.1481 82.5369 52.873 83.6461 49.339C84.2036 47.5535 84.5559 45.7412 84.6971 43.9228C84.8354 42.1289 84.7771 40.3252 84.5233 38.544C84.0268 35.0502 82.8177 31.7722 80.9564 28.7838C79.2542 26.0378 77.06 23.6339 74.4506 21.6103L74.4566 21.606L48.1258 1.38793C48.1018 1.37015 48.0824 1.35105 48.057 1.33459C46.3297 0.00833765 43.4244 0.0129473 41.5245 1.34183C39.6037 2.68586 39.3837 4.90868 41.0932 6.31033L41.086 6.3179L52.0684 15.2487L18.595 15.2842H18.5503C15.7835 15.2875 13.1241 17.1027 12.5973 19.3967C12.0563 21.7337 13.9357 23.6724 16.8124 23.683L16.8078 23.6932L33.7745 23.6602L3.49858 46.8996C3.46006 46.9279 3.41824 46.9575 3.38268 46.9858C0.526699 49.1728 -0.396539 52.8094 1.4022 55.1106C3.22793 57.451 7.10988 57.4552 9.99549 55.1241L26.519 41.6012C26.519 41.6012 26.2779 43.4266 26.2974 44.5223ZM68.7568 50.6353C65.3523 54.1041 60.5856 56.0707 55.4284 56.0813C50.2634 56.0901 45.497 54.1409 42.0925 50.6785C40.4288 48.991 39.2069 47.0494 38.4529 44.9813C37.7118 42.9461 37.4267 40.773 37.6176 38.6154C37.7974 36.4878 38.4308 34.4586 39.4417 32.6223C40.4347 30.8176 41.8024 29.1865 43.4915 27.8069C46.8006 25.1103 51.0141 23.65 55.4205 23.6441C59.8319 23.6382 64.0421 25.0849 67.3548 27.773C69.0406 29.1463 70.407 30.7715 71.4001 32.5736C72.4243 34.4195 73.0484 36.4604 73.2317 38.5634C73.4197 40.7196 73.1335 42.8909 72.3931 44.9247C71.6378 46.999 70.4202 48.9406 68.7568 50.6353Z" fill="#EA7600"/>
</g>
<defs>
<clipPath id="clip0_30_5282">
<rect width="84.29" height="68.4856" fill="white" transform="translate(0.480469 0.342529)"/>
</clipPath>
</defs>
</svg>
