<svg width="75" height="60" viewBox="0 0 75 60" fill="none" xmlns="http://www.w3.org/2000/svg">
<g clip-path="url(#clip0_30_5298)">
<path d="M15.8083 0.14502C11.5759 0.14502 8.44407 3.84943 8.58431 7.86678C8.71904 11.7262 8.54403 16.7252 7.28566 20.8017C6.02353 24.89 3.88867 27.4797 0.401855 27.8124V31.5663C3.88867 31.899 6.02353 34.4887 7.28566 38.5773C8.54403 42.6538 8.71904 47.6522 8.58431 51.5119C8.44407 55.5287 11.5759 59.2337 15.8089 59.2337H59.1762C63.4088 59.2337 66.5398 55.5293 66.3995 51.5119C66.2651 47.6525 66.4398 42.6538 67.6982 38.5773C68.9612 34.489 71.0903 31.8987 74.5771 31.5663V27.8124C71.0903 27.4797 68.9612 24.89 67.6985 20.8017C66.4398 16.7258 66.2651 11.7265 66.3995 7.86678C66.5398 3.85001 63.4088 0.14502 59.1762 0.14502H15.8077H15.8083ZM50.6903 36.5178C50.6903 42.0497 46.5643 45.4044 39.717 45.4044H28.0605C27.7271 45.4043 27.4074 45.2718 27.1717 45.036C26.936 44.8003 26.8036 44.4805 26.8036 44.1472V15.2316C26.8036 15.0664 26.8361 14.9029 26.8992 14.7504C26.9624 14.5978 27.055 14.4592 27.1717 14.3424C27.2885 14.2256 27.4271 14.133 27.5796 14.0698C27.7322 14.0066 27.8957 13.9741 28.0608 13.9741H39.6504C45.3599 13.9741 49.1069 17.0671 49.1069 21.8155C49.1069 25.1484 46.5861 28.1323 43.3748 28.6547V28.8288C47.7468 29.3083 50.6903 32.3359 50.6903 36.5178ZM38.4456 17.9595H31.7997V27.3473H37.3976C41.7247 27.3473 44.1111 25.6048 44.1111 22.49C44.1111 19.5714 42.0588 17.9595 38.4456 17.9595ZM31.7997 31.0723V41.4177H38.6905C43.1955 41.4177 45.5824 39.61 45.5824 36.2124C45.5824 32.8143 43.1291 31.0717 38.4007 31.0717H31.7997V31.0723Z" fill="#7E13F8"/>
</g>
<defs>
<clipPath id="clip0_30_5298">
<rect width="74.1752" height="59.1084" fill="white" transform="translate(0.401855 0.14502)"/>
</clipPath>
</defs>
</svg>
