<svg width="18" height="21" viewBox="0 0 18 21" fill="none" xmlns="http://www.w3.org/2000/svg">
<path d="M13.711 13.948C13.4674 13.6915 13.289 13.3802 13.1911 13.0402C13.0931 12.7003 13.0783 12.3418 13.148 11.995H2.248C1.6517 11.9953 1.07992 12.2323 0.658363 12.6541C0.23681 13.0758 -5.89461e-08 13.6477 0 14.244V15.164C0 15.736 0.178 16.294 0.51 16.76C2.052 18.924 4.576 19.995 7.996 19.995C8.386 19.995 8.763 19.981 9.129 19.953C8.99932 19.5927 8.96368 19.2052 9.02545 18.8272C9.08722 18.4493 9.24435 18.0933 9.482 17.793L10.282 16.783C10.5425 16.4542 10.8917 16.207 11.2883 16.0705C11.685 15.9341 12.1124 15.9141 12.52 16.013L13.358 16.216C13.878 15.779 14.188 15.241 14.306 14.572L13.711 13.947V13.948ZM7.996 0C8.65261 -9.78424e-09 9.30279 0.129329 9.90942 0.380602C10.516 0.631876 11.0672 1.00017 11.5315 1.46447C11.9958 1.92876 12.3641 2.47995 12.6154 3.08658C12.8667 3.69321 12.996 4.34339 12.996 5C12.996 5.65661 12.8667 6.30679 12.6154 6.91342C12.3641 7.52004 11.9958 8.07124 11.5315 8.53553C11.0672 8.99983 10.516 9.36812 9.90942 9.6194C9.30279 9.87067 8.65261 10 7.996 10C6.66992 10 5.39815 9.47322 4.46047 8.53553C3.52278 7.59785 2.996 6.32608 2.996 5C2.996 3.67392 3.52278 2.40215 4.46047 1.46447C5.39815 0.526784 6.66992 0 7.996 0ZM14.188 11.99L14.664 10.785C14.906 10.171 15.584 9.852 16.212 10.057L16.643 10.198C17.367 10.435 17.969 11.004 17.993 11.767C18.093 14.877 15.517 19.35 12.78 20.822C12.107 21.184 11.312 20.945 10.745 20.431L10.408 20.126C10.1724 19.9127 10.0266 19.6178 10.0002 19.301C9.97387 18.9843 10.0689 18.6693 10.266 18.42L11.066 17.41C11.356 17.043 11.833 16.88 12.286 16.99L13.578 17.303C14.681 16.573 15.272 15.547 15.352 14.224L14.435 13.26C14.2771 13.0938 14.17 12.886 14.1262 12.661C14.0825 12.436 14.1039 12.2032 14.188 11.99Z" fill="#565656"/>
</svg>
