<svg width="47" height="66" viewBox="0 0 47 66" fill="none" xmlns="http://www.w3.org/2000/svg">
<g clip-path="url(#clip0_30_5292)">
<path d="M23.7373 64.8844L5.00665 59.6846L0.83252 12.8679H46.6981L42.5197 59.6774L23.7373 64.8844Z" fill="#264DE4"/>
<path d="M38.9423 56.697L42.5128 16.696H23.7651V60.9046L38.9423 56.697Z" fill="#2965F1"/>
<path d="M10.4013 34.0594L10.9159 39.8013H23.7651V34.0594H10.4013ZM9.36719 22.4377L9.88911 28.1796H23.7651V22.4377H9.36719ZM23.7651 48.9717L23.7399 48.9784L17.3453 47.2517L16.9364 42.6723H11.1724L11.9768 51.6879L23.7387 54.9529L23.7651 54.9457V48.9717Z" fill="#EBEBEB"/>
<path d="M11.6267 0.14502H18.5809V3.05326H14.535V5.96151H18.5813V8.86957H11.6267V0.14502ZM19.9719 0.14502H26.9263V2.67391H22.8802V3.17965H26.9263V8.99614H19.9721V6.3405H24.0182V5.83476H19.9717L19.9719 0.14502ZM28.3173 0.14502H35.2717V2.67391H31.2255V3.17965H35.2717V8.99614H28.3173V6.3405H32.3634V5.83476H28.3175V0.14502H28.3173Z" fill="black"/>
<path d="M37.0922 34.0594L38.1287 22.4377H23.7453V28.1796H31.8361L31.3136 34.0594H23.7453V39.8013H30.8158L30.1492 47.2481L23.7451 48.9766V54.9502L35.5164 51.6879L35.6026 50.7178L36.9521 35.6013L37.0922 34.0594Z" fill="white"/>
</g>
<defs>
<clipPath id="clip0_30_5292">
<rect width="46.0256" height="64.9033" fill="white" transform="translate(0.752441 0.14502)"/>
</clipPath>
</defs>
</svg>
