<svg width="30" height="38" viewBox="0 0 30 38" fill="none" xmlns="http://www.w3.org/2000/svg">
<path d="M24.5065 10.5974H15.8961V23.2952L20.2584 18.9338C20.5089 18.6958 20.8424 18.5651 21.1878 18.5695C21.5332 18.574 21.8632 18.7132 22.1075 18.9574C22.3518 19.2017 22.491 19.5317 22.4954 19.8772C22.4998 20.2226 22.3691 20.5561 22.1312 20.8065L15.5078 27.4299C15.2594 27.6781 14.9226 27.8176 14.5714 27.8176C14.2203 27.8176 13.8834 27.6781 13.635 27.4299L7.01167 20.8065C6.77373 20.5561 6.64304 20.2226 6.64747 19.8772C6.65189 19.5317 6.79107 19.2017 7.03535 18.9574C7.27962 18.7132 7.60965 18.574 7.95507 18.5695C8.3005 18.5651 8.63399 18.6958 8.88443 18.9338L13.2468 23.2952V10.5974H4.63636C3.40713 10.5987 2.22861 11.0876 1.35941 11.9568C0.49021 12.826 0.00131493 14.0045 0 15.2338V32.4545C0.00131493 33.6838 0.49021 34.8623 1.35941 35.7315C2.22861 36.6007 3.40713 37.0896 4.63636 37.0909H24.5065C25.7357 37.0896 26.9142 36.6007 27.7834 35.7315C28.6526 34.8623 29.1415 33.6838 29.1429 32.4545V15.2338C29.1415 14.0045 28.6526 12.826 27.7834 11.9568C26.9142 11.0876 25.7357 10.5987 24.5065 10.5974ZM15.8961 1.32468C15.8961 0.97335 15.7565 0.636413 15.5081 0.387988C15.2597 0.139564 14.9228 0 14.5714 0C14.2201 0 13.8832 0.139564 13.6347 0.387988C13.3863 0.636413 13.2468 0.97335 13.2468 1.32468V10.5974H15.8961V1.32468Z" fill="#565656"/>
</svg>
