<svg width="55" height="81" viewBox="0 0 55 81" fill="none" xmlns="http://www.w3.org/2000/svg">
<path d="M14.0285 80.9909C21.3955 80.9909 27.3745 75.0119 27.3745 67.645V54.2991H14.0285C6.66159 54.2991 0.682617 60.278 0.682617 67.645C0.682617 75.0119 6.66159 80.9909 14.0285 80.9909Z" fill="#0ACF83"/>
<path d="M0.682617 40.9533C0.682617 33.5864 6.66159 27.6074 14.0285 27.6074H27.3745V54.2993H14.0285C6.66159 54.2993 0.682617 48.3203 0.682617 40.9533Z" fill="#A259FF"/>
<path d="M0.682617 14.2614C0.682617 6.8945 6.66159 0.915527 14.0285 0.915527H27.3745V27.6074H14.0285C6.66159 27.6074 0.682617 21.6284 0.682617 14.2614Z" fill="#F24E1E"/>
<path d="M27.3745 0.915527H40.7204C48.0874 0.915527 54.0664 6.8945 54.0664 14.2614C54.0664 21.6284 48.0874 27.6074 40.7204 27.6074H27.3745V0.915527Z" fill="#FF7262"/>
<path d="M54.0664 40.9533C54.0664 48.3203 48.0874 54.2993 40.7204 54.2993C33.3535 54.2993 27.3745 48.3203 27.3745 40.9533C27.3745 33.5864 33.3535 27.6074 40.7204 27.6074C48.0874 27.6074 54.0664 33.5864 54.0664 40.9533Z" fill="#1ABCFE"/>
</svg>
