<svg width="47" height="66" viewBox="0 0 47 66" fill="none" xmlns="http://www.w3.org/2000/svg">
<g clip-path="url(#clip0_30_5286)">
<path d="M46.7506 12.9202L42.555 59.922L23.6954 65.1504L4.88781 59.9292L0.696533 12.9202H46.7506Z" fill="#E44D26"/>
<path d="M23.7236 61.154L38.9631 56.9292L42.5484 16.7639H23.7236V61.154Z" fill="#F16529"/>
<path d="M15.5675 28.2948H23.7237V22.5293H9.2666L9.40452 24.076L10.8217 39.9642H23.7237V34.1987H16.0945L15.5675 28.2948ZM16.8669 42.847H11.0793L11.8869 51.8996L23.6971 55.178L23.7237 55.1708V49.1723L23.6984 49.1789L17.2775 47.4452L16.8669 42.847Z" fill="#EBEBEB"/>
<path d="M4.98145 0.14502H7.91139V3.03976H10.5917V0.14502H13.5218V8.91101H10.5918V5.97566H7.91157V8.91101H4.98163L4.98145 0.14502ZM17.3746 3.05203H14.7956V0.14502H22.8857V3.05203H20.305V8.91101H17.3751V3.05203H17.3746ZM24.1696 0.14502H27.2246L29.1039 3.22516L30.9814 0.14502H34.0377V8.91101H31.1197V4.56611L29.1039 7.68289H29.0533L27.0363 4.56611V8.91101H24.1696V0.14502ZM35.4958 0.14502H38.4266V6.01357H42.547V8.91101H35.4956V0.14502H35.4958Z" fill="black"/>
<path d="M23.7035 39.9642H30.8031L30.1337 47.4416L23.7034 49.1771V55.1753L35.523 51.8996L35.6096 50.9255L36.9646 35.7469L37.1053 34.1987H23.7035V39.9642ZM23.7035 28.2807V28.2948H37.6299L37.7454 26.9989L38.0083 24.076L38.146 22.5293H23.7035V28.2807Z" fill="white"/>
</g>
<defs>
<clipPath id="clip0_30_5286">
<rect width="46.2147" height="65.17" fill="white" transform="translate(0.616211 0.14502)"/>
</clipPath>
</defs>
</svg>
