<svg width="34" height="33" viewBox="0 0 34 33" fill="none" xmlns="http://www.w3.org/2000/svg">
<path d="M17.2 10.9998C15.7413 10.9998 14.3423 11.5792 13.3109 12.6107C12.2794 13.6421 11.7 15.0411 11.7 16.4998C11.7 17.9584 12.2794 19.3574 13.3109 20.3888C14.3423 21.4203 15.7413 21.9998 17.2 21.9998C18.6586 21.9998 20.0576 21.4203 21.089 20.3888C22.1205 19.3574 22.7 17.9584 22.7 16.4998C22.7 15.0411 22.1205 13.6421 21.089 12.6107C20.0576 11.5792 18.6586 10.9998 17.2 10.9998Z" fill="#565656"/>
<path fill-rule="evenodd" clip-rule="evenodd" d="M10.6002 0C7.97455 0 5.45645 1.04303 3.59984 2.89964C1.74323 4.75625 0.700195 7.27436 0.700195 9.9L0.700195 23.1C0.700195 25.7256 1.74323 28.2437 3.59984 30.1004C5.45645 31.957 7.97455 33 10.6002 33H23.8002C26.4258 33 28.9439 31.957 30.8006 30.1004C32.6572 28.2437 33.7002 25.7256 33.7002 23.1V9.9C33.7002 7.27436 32.6572 4.75625 30.8006 2.89964C28.9439 1.04303 26.4258 0 23.8002 0L10.6002 0ZM9.5002 16.5C9.5002 14.4578 10.3114 12.4993 11.7555 11.0553C13.1995 9.61125 15.158 8.8 17.2002 8.8C19.2424 8.8 21.2009 9.61125 22.6449 11.0553C24.0889 12.4993 24.9002 14.4578 24.9002 16.5C24.9002 18.5422 24.0889 20.5007 22.6449 21.9447C21.2009 23.3888 19.2424 24.2 17.2002 24.2C15.158 24.2 13.1995 23.3888 11.7555 21.9447C10.3114 20.5007 9.5002 18.5422 9.5002 16.5ZM24.9002 8.8H27.1002V6.6H24.9002V8.8Z" fill="#565656"/>
</svg>
