<svg width="95" height="95" viewBox="0 0 95 95" fill="none" xmlns="http://www.w3.org/2000/svg">
<path opacity="0.5" d="M27.8217 70.9759C26.7785 70.9759 25.778 70.5614 25.0403 69.8238C24.3026 69.0861 23.8882 68.0856 23.8882 67.0423C23.8882 65.9991 24.3026 64.9986 25.0403 64.2609C25.778 63.5232 26.7785 63.1088 27.8217 63.1088C34.3514 63.1088 39.0559 54.5455 44.0436 45.4787C49.9124 34.807 55.9819 23.7734 67.1571 23.7734C68.2003 23.7734 69.2008 24.1879 69.9385 24.9255C70.6762 25.6632 71.0906 26.6637 71.0906 27.707C71.0906 28.7502 70.6762 29.7507 69.9385 30.4884C69.2008 31.2261 68.2003 31.6405 67.1571 31.6405C60.6274 31.6405 55.9229 40.2038 50.9352 49.2706C45.0663 59.9423 38.9969 70.9759 27.8217 70.9759Z" fill="black"/>
<path d="M75.0241 8.03931H19.9547C16.8259 8.04243 13.8262 9.28671 11.6138 11.4991C9.40145 13.7114 8.15718 16.7112 8.15405 19.8399V74.9094C8.15718 78.0382 9.40145 81.0379 11.6138 83.2502C13.8262 85.4626 16.8259 86.7069 19.9547 86.71H75.0241C78.1529 86.7069 81.1526 85.4626 83.365 83.2502C85.5774 81.0379 86.8216 78.0382 86.8248 74.9094V19.8399C86.8216 16.7112 85.5774 13.7114 83.365 11.4991C81.1526 9.28671 78.1529 8.04243 75.0241 8.03931ZM67.1571 31.6405C60.6274 31.6405 55.9229 40.2038 50.9352 49.2706C45.0663 59.9423 38.9969 70.9759 27.8217 70.9759C26.7785 70.9759 25.778 70.5614 25.0403 69.8238C24.3026 69.0861 23.8882 68.0856 23.8882 67.0423C23.8882 65.9991 24.3026 64.9986 25.0403 64.2609C25.778 63.5232 26.7785 63.1088 27.8217 63.1088C34.3514 63.1088 39.0559 54.5455 44.0436 45.4787C49.9125 34.807 55.9819 23.7734 67.1571 23.7734C68.2003 23.7734 69.2008 24.1879 69.9385 24.9256C70.6762 25.6632 71.0906 26.6637 71.0906 27.707C71.0906 28.7502 70.6762 29.7507 69.9385 30.4884C69.2008 31.2261 68.2003 31.6405 67.1571 31.6405Z" fill="black"/>
</svg>
