<svg width="345" height="567" viewBox="0 0 345 567" fill="none" xmlns="http://www.w3.org/2000/svg">
<mask id="mask0_25_4816" style="mask-type:alpha" maskUnits="userSpaceOnUse" x="0" y="0" width="345" height="567">
<rect x="0.5" y="0.5" width="344" height="566" fill="#D9D9D9" stroke="#3E3E3E"/>
</mask>
<g mask="url(#mask0_25_4816)">
<path fill-rule="evenodd" clip-rule="evenodd" d="M-32.0315 -5.30244C-28.1761 -8.10352 -22.9556 -8.10352 -19.1002 -5.30244L-5.69477 4.43719C-1.83941 7.23828 -0.226172 12.2033 -1.69879 16.7356L-6.81921 32.4946C-8.29183 37.0269 -12.5154 40.0954 -17.2808 40.0954H-33.8509C-38.6164 40.0954 -42.8399 37.0269 -44.3125 32.4946L-49.4329 16.7356C-50.9056 12.2033 -49.2923 7.23827 -45.4369 4.43719L-32.0315 -5.30244ZM-44.1823 18.4416C-45.6549 13.9094 -44.0417 8.94431 -40.1863 6.14323L-32.0315 0.218414C-28.1761 -2.58267 -22.9556 -2.58267 -19.1002 0.218412L-10.9454 6.14323C-7.09005 8.94431 -5.47681 13.9094 -6.94943 18.4416L-10.0643 28.0282C-11.5369 32.5604 -15.7604 35.629 -20.5259 35.629H-30.6058C-35.3713 35.629 -39.5948 32.5604 -41.0674 28.0282L-44.1823 18.4416Z" fill="#2A2A2A"/>
<path fill-rule="evenodd" clip-rule="evenodd" d="M-32.0314 230.527C-28.1761 227.726 -22.9555 227.726 -19.1002 230.527L-5.69471 240.266C-1.83935 243.068 -0.226114 248.033 -1.69873 252.565L-6.81915 268.324C-8.29177 272.856 -12.5153 275.925 -17.2808 275.925H-33.8508C-38.6163 275.925 -42.8398 272.856 -44.3124 268.324L-49.4329 252.565C-50.9055 248.033 -49.2922 243.068 -45.4369 240.266L-32.0314 230.527ZM-44.1822 254.271C-45.6548 249.739 -44.0416 244.774 -40.1862 241.972L-32.0314 236.048C-28.1761 233.247 -22.9555 233.247 -19.1002 236.048L-10.9454 241.972C-7.08999 244.774 -5.47675 249.739 -6.94937 254.271L-10.0642 263.857C-11.5368 268.39 -15.7604 271.458 -20.5258 271.458H-30.6057C-35.3712 271.458 -39.5948 268.39 -41.0674 263.857L-44.1822 254.271Z" fill="#2A2A2A"/>
<path fill-rule="evenodd" clip-rule="evenodd" d="M-1.69873 134.65C-0.226113 130.118 -1.83936 125.153 -5.69472 122.352L-19.1002 112.612C-22.9555 109.811 -28.1761 109.811 -32.0314 112.612L-45.4369 122.352C-49.2923 125.153 -50.9055 130.118 -49.4329 134.65L-44.3124 150.409C-42.8398 154.941 -38.6163 158.01 -33.8508 158.01H-17.2808C-12.5153 158.01 -8.29177 154.941 -6.81915 150.409L-1.69873 134.65ZM-19.1002 118.133C-22.9555 115.332 -28.1761 115.332 -32.0314 118.133L-40.1862 124.058C-44.0416 126.859 -45.6548 131.824 -44.1822 136.356L-41.0674 145.943C-39.5948 150.475 -35.3712 153.544 -30.6058 153.544H-20.5259C-15.7604 153.544 -11.5368 150.475 -10.0642 145.943L-6.94937 136.356C-5.47675 131.824 -7.08999 126.859 -10.9454 124.058L-19.1002 118.133Z" fill="#2A2A2A"/>
<path fill-rule="evenodd" clip-rule="evenodd" d="M-32.0314 348.442C-28.1761 345.641 -22.9555 345.641 -19.1002 348.442L-5.69471 358.181C-1.83935 360.982 -0.226114 365.947 -1.69873 370.48L-6.81915 386.239C-8.29177 390.771 -12.5153 393.84 -17.2808 393.84H-33.8508C-38.6163 393.84 -42.8398 390.771 -44.3124 386.239L-49.4329 370.48C-50.9055 365.947 -49.2923 360.982 -45.4369 358.181L-32.0314 348.442ZM-44.1822 372.186C-45.6548 367.653 -44.0416 362.688 -40.1863 359.887L-32.0314 353.962C-28.1761 351.161 -22.9555 351.161 -19.1002 353.962L-10.9453 359.887C-7.08999 362.688 -5.47675 367.653 -6.94937 372.186L-10.0642 381.772C-11.5368 386.304 -15.7604 389.373 -20.5258 389.373H-30.6057C-35.3712 389.373 -39.5948 386.304 -41.0674 381.772L-44.1822 372.186Z" fill="#2A2A2A"/>
<path fill-rule="evenodd" clip-rule="evenodd" d="M-1.69873 488.394C-0.226112 483.862 -1.83935 478.897 -5.69471 476.096L-19.1002 466.356C-22.9555 463.555 -28.1761 463.555 -32.0314 466.356L-45.4369 476.096C-49.2923 478.897 -50.9055 483.862 -49.4329 488.394L-44.3124 504.153C-42.8398 508.685 -38.6163 511.754 -33.8508 511.754H-17.2808C-12.5153 511.754 -8.29177 508.685 -6.81916 504.153L-1.69873 488.394ZM-19.1002 471.877C-22.9555 469.076 -28.1761 469.076 -32.0314 471.877L-40.1862 477.802C-44.0416 480.603 -45.6548 485.568 -44.1822 490.1L-41.0674 499.687C-39.5948 504.219 -35.3712 507.287 -30.6058 507.287H-20.5259C-15.7604 507.287 -11.5368 504.219 -10.0642 499.687L-6.94937 490.1C-5.47675 485.568 -7.08999 480.603 -10.9453 477.802L-19.1002 471.877Z" fill="#2A2A2A"/>
<path fill-rule="evenodd" clip-rule="evenodd" d="M194.865 -5.30244C198.72 -8.10352 203.941 -8.10352 207.796 -5.30243L221.202 4.43719C225.057 7.23828 226.67 12.2033 225.198 16.7356L220.077 32.4946C218.605 37.0269 214.381 40.0954 209.616 40.0954H193.045C188.28 40.0954 184.056 37.0269 182.584 32.4946L177.463 16.7356C175.991 12.2033 177.604 7.23828 181.459 4.43719L194.865 -5.30244ZM182.714 18.4416C181.241 13.9094 182.855 8.94431 186.71 6.14323L194.865 0.218413C198.72 -2.58267 203.941 -2.58267 207.796 0.218412L215.951 6.14323C219.806 8.94431 221.42 13.9094 219.947 18.4416L216.832 28.0282C215.359 32.5604 211.136 35.629 206.37 35.629H196.291C191.525 35.629 187.302 32.5604 185.829 28.0282L182.714 18.4416Z" fill="#2A2A2A"/>
<path fill-rule="evenodd" clip-rule="evenodd" d="M225.198 252.565C226.67 248.033 225.057 243.068 221.202 240.266L207.796 230.527C203.941 227.726 198.72 227.726 194.865 230.527L181.459 240.266C177.604 243.068 175.991 248.033 177.463 252.565L182.584 268.324C184.056 272.856 188.28 275.925 193.045 275.925H209.616C214.381 275.925 218.605 272.856 220.077 268.324L225.198 252.565ZM207.796 236.048C203.941 233.247 198.72 233.247 194.865 236.048L186.71 241.972C182.855 244.774 181.241 249.739 182.714 254.271L185.829 263.857C187.302 268.39 191.525 271.458 196.291 271.458H206.37C211.136 271.458 215.359 268.39 216.832 263.857L219.947 254.271C221.42 249.739 219.806 244.774 215.951 241.972L207.796 236.048Z" fill="#2A2A2A"/>
<path fill-rule="evenodd" clip-rule="evenodd" d="M194.865 112.612C198.72 109.811 203.941 109.811 207.796 112.612L221.202 122.352C225.057 125.153 226.67 130.118 225.198 134.65L220.077 150.409C218.605 154.941 214.381 158.01 209.616 158.01H193.045C188.28 158.01 184.056 154.941 182.584 150.409L177.463 134.65C175.991 130.118 177.604 125.153 181.459 122.352L194.865 112.612ZM182.714 136.356C181.241 131.824 182.855 126.859 186.71 124.058L194.865 118.133C198.72 115.332 203.941 115.332 207.796 118.133L215.951 124.058C219.806 126.859 221.42 131.824 219.947 136.356L216.832 145.943C215.359 150.475 211.136 153.544 206.37 153.544H196.291C191.525 153.544 187.302 150.475 185.829 145.943L182.714 136.356Z" fill="#2A2A2A"/>
<path fill-rule="evenodd" clip-rule="evenodd" d="M225.198 370.48C226.67 365.947 225.057 360.982 221.202 358.181L207.796 348.442C203.941 345.641 198.72 345.641 194.865 348.442L181.459 358.181C177.604 360.982 175.991 365.947 177.463 370.48L182.584 386.239C184.056 390.771 188.28 393.84 193.045 393.84H209.616C214.381 393.84 218.605 390.771 220.077 386.239L225.198 370.48ZM207.796 353.962C203.941 351.161 198.72 351.161 194.865 353.962L186.71 359.887C182.855 362.688 181.241 367.653 182.714 372.186L185.829 381.772C187.302 386.304 191.525 389.373 196.291 389.373H206.37C211.136 389.373 215.359 386.304 216.832 381.772L219.947 372.186C221.42 367.653 219.806 362.688 215.951 359.887L207.796 353.962Z" fill="#2A2A2A"/>
<path fill-rule="evenodd" clip-rule="evenodd" d="M194.865 466.356C198.72 463.555 203.941 463.555 207.796 466.356L221.202 476.096C225.057 478.897 226.67 483.862 225.198 488.394L220.077 504.153C218.605 508.685 214.381 511.754 209.616 511.754H193.045C188.28 511.754 184.056 508.685 182.584 504.153L177.463 488.394C175.991 483.862 177.604 478.897 181.459 476.096L194.865 466.356ZM182.714 490.1C181.241 485.568 182.855 480.603 186.71 477.802L194.865 471.877C198.72 469.076 203.941 469.076 207.796 471.877L215.951 477.802C219.806 480.603 221.42 485.568 219.947 490.1L216.832 499.687C215.359 504.219 211.136 507.287 206.37 507.287H196.291C191.525 507.287 187.302 504.219 185.829 499.687L182.714 490.1Z" fill="#2A2A2A"/>
<path fill-rule="evenodd" clip-rule="evenodd" d="M111.749 16.7356C113.222 12.2033 111.609 7.23828 107.753 4.43719L94.348 -5.30244C90.4926 -8.10352 85.2721 -8.10352 81.4167 -5.30244L68.0113 4.43719C64.1559 7.23828 62.5427 12.2033 64.0153 16.7356L69.1357 32.4946C70.6083 37.0269 74.8318 40.0954 79.5973 40.0954H96.1674C100.933 40.0954 105.156 37.0269 106.629 32.4946L111.749 16.7356ZM94.348 0.218412C90.4926 -2.58267 85.2721 -2.58267 81.4167 0.218411L73.2619 6.14323C69.4065 8.94431 67.7933 13.9094 69.2659 18.4416L72.3808 28.0282C73.8534 32.5604 78.0769 35.629 82.8424 35.629H92.9223C97.6878 35.629 101.911 32.5604 103.384 28.0282L106.499 18.4416C107.971 13.9094 106.358 8.94431 102.503 6.14323L94.348 0.218412Z" fill="#2A2A2A"/>
<path fill-rule="evenodd" clip-rule="evenodd" d="M81.4167 230.527C85.2721 227.726 90.4926 227.726 94.348 230.527L107.753 240.266C111.609 243.068 113.222 248.033 111.749 252.565L106.629 268.324C105.156 272.856 100.933 275.925 96.1674 275.925H79.5973C74.8318 275.925 70.6083 272.856 69.1357 268.324L64.0153 252.565C62.5427 248.033 64.1559 243.068 68.0113 240.266L81.4167 230.527ZM69.2659 254.271C67.7933 249.739 69.4065 244.774 73.2619 241.972L81.4167 236.048C85.2721 233.247 90.4926 233.247 94.348 236.048L102.503 241.972C106.358 244.774 107.971 249.739 106.499 254.271L103.384 263.857C101.911 268.39 97.6878 271.458 92.9223 271.458H82.8424C78.0769 271.458 73.8534 268.39 72.3808 263.857L69.2659 254.271Z" fill="#2A2A2A"/>
<path fill-rule="evenodd" clip-rule="evenodd" d="M111.749 134.65C113.222 130.118 111.609 125.153 107.753 122.352L94.348 112.612C90.4926 109.811 85.2721 109.811 81.4167 112.612L68.0113 122.352C64.1559 125.153 62.5427 130.118 64.0153 134.65L69.1357 150.409C70.6083 154.941 74.8318 158.01 79.5973 158.01H96.1674C100.933 158.01 105.156 154.941 106.629 150.409L111.749 134.65ZM94.348 118.133C90.4926 115.332 85.2721 115.332 81.4167 118.133L73.2619 124.058C69.4065 126.859 67.7933 131.824 69.2659 136.356L72.3808 145.943C73.8534 150.475 78.0769 153.544 82.8424 153.544H92.9223C97.6878 153.544 101.911 150.475 103.384 145.943L106.499 136.356C107.971 131.824 106.358 126.859 102.503 124.058L94.348 118.133Z" fill="#2A2A2A"/>
<path fill-rule="evenodd" clip-rule="evenodd" d="M81.4167 348.442C85.2721 345.641 90.4926 345.641 94.348 348.442L107.753 358.181C111.609 360.982 113.222 365.947 111.749 370.48L106.629 386.239C105.156 390.771 100.933 393.84 96.1674 393.84H79.5973C74.8318 393.84 70.6083 390.771 69.1357 386.239L64.0153 370.48C62.5427 365.947 64.1559 360.982 68.0112 358.181L81.4167 348.442ZM69.2659 372.186C67.7933 367.653 69.4065 362.688 73.2619 359.887L81.4167 353.962C85.2721 351.161 90.4926 351.161 94.348 353.962L102.503 359.887C106.358 362.688 107.971 367.653 106.499 372.186L103.384 381.772C101.911 386.304 97.6878 389.373 92.9223 389.373H82.8424C78.0769 389.373 73.8534 386.304 72.3808 381.772L69.2659 372.186Z" fill="#2A2A2A"/>
<path fill-rule="evenodd" clip-rule="evenodd" d="M111.749 488.394C113.222 483.862 111.609 478.897 107.753 476.096L94.348 466.356C90.4926 463.555 85.2721 463.555 81.4167 466.356L68.0112 476.096C64.1559 478.897 62.5427 483.862 64.0153 488.394L69.1357 504.153C70.6083 508.685 74.8318 511.754 79.5973 511.754H96.1674C100.933 511.754 105.156 508.685 106.629 504.153L111.749 488.394ZM94.348 471.877C90.4926 469.076 85.2721 469.076 81.4167 471.877L73.2619 477.802C69.4065 480.603 67.7933 485.568 69.2659 490.1L72.3808 499.687C73.8534 504.219 78.0769 507.287 82.8424 507.287H92.9223C97.6878 507.287 101.911 504.219 103.384 499.687L106.499 490.1C107.971 485.568 106.358 480.603 102.503 477.802L94.348 471.877Z" fill="#2A2A2A"/>
<path fill-rule="evenodd" clip-rule="evenodd" d="M308.313 -5.30244C312.168 -8.10352 317.389 -8.10353 321.244 -5.30244L334.65 4.43719C338.505 7.23827 340.118 12.2033 338.646 16.7356L333.525 32.4946C332.053 37.0269 327.829 40.0954 323.064 40.0954H306.494C301.728 40.0954 297.505 37.0269 296.032 32.4946L290.912 16.7356C289.439 12.2033 291.052 7.23828 294.908 4.4372L308.313 -5.30244ZM296.162 18.4416C294.69 13.9094 296.303 8.94431 300.158 6.14323L308.313 0.218411C312.168 -2.58267 317.389 -2.58267 321.244 0.21841L329.399 6.14323C333.254 8.94431 334.868 13.9094 333.395 18.4416L330.28 28.0282C328.808 32.5604 324.584 35.629 319.819 35.629H309.739C304.973 35.629 300.75 32.5604 299.277 28.0282L296.162 18.4416Z" fill="#2A2A2A"/>
<path fill-rule="evenodd" clip-rule="evenodd" d="M338.646 252.565C340.118 248.033 338.505 243.068 334.65 240.266L321.244 230.527C317.389 227.726 312.168 227.726 308.313 230.527L294.908 240.266C291.052 243.068 289.439 248.033 290.912 252.565L296.032 268.324C297.505 272.856 301.728 275.925 306.494 275.925H323.064C327.829 275.925 332.053 272.856 333.525 268.324L338.646 252.565ZM321.244 236.048C317.389 233.247 312.168 233.247 308.313 236.048L300.158 241.972C296.303 244.774 294.69 249.739 296.162 254.271L299.277 263.857C300.75 268.39 304.973 271.458 309.739 271.458H319.819C324.584 271.458 328.808 268.39 330.28 263.857L333.395 254.271C334.868 249.739 333.254 244.774 329.399 241.972L321.244 236.048Z" fill="#2A2A2A"/>
<path fill-rule="evenodd" clip-rule="evenodd" d="M308.313 112.612C312.168 109.811 317.389 109.811 321.244 112.612L334.65 122.352C338.505 125.153 340.118 130.118 338.646 134.65L333.525 150.409C332.053 154.941 327.829 158.01 323.064 158.01H306.494C301.728 158.01 297.505 154.941 296.032 150.409L290.912 134.65C289.439 130.118 291.052 125.153 294.908 122.352L308.313 112.612ZM296.162 136.356C294.69 131.824 296.303 126.859 300.158 124.058L308.313 118.133C312.168 115.332 317.389 115.332 321.244 118.133L329.399 124.058C333.254 126.859 334.868 131.824 333.395 136.356L330.28 145.943C328.808 150.475 324.584 153.544 319.819 153.544H309.739C304.973 153.544 300.75 150.475 299.277 145.943L296.162 136.356Z" fill="#2A2A2A"/>
<path fill-rule="evenodd" clip-rule="evenodd" d="M338.646 370.48C340.118 365.947 338.505 360.982 334.65 358.181L321.244 348.442C317.389 345.641 312.168 345.641 308.313 348.442L294.908 358.181C291.052 360.982 289.439 365.947 290.912 370.48L296.032 386.239C297.505 390.771 301.728 393.84 306.494 393.84H323.064C327.829 393.84 332.053 390.771 333.525 386.239L338.646 370.48ZM321.244 353.962C317.389 351.161 312.168 351.161 308.313 353.962L300.158 359.887C296.303 362.688 294.69 367.653 296.162 372.186L299.277 381.772C300.75 386.304 304.973 389.373 309.739 389.373H319.819C324.584 389.373 328.808 386.304 330.28 381.772L333.395 372.186C334.868 367.653 333.254 362.688 329.399 359.887L321.244 353.962Z" fill="#2A2A2A"/>
<path fill-rule="evenodd" clip-rule="evenodd" d="M308.313 466.356C312.168 463.555 317.389 463.555 321.244 466.356L334.65 476.096C338.505 478.897 340.118 483.862 338.646 488.394L333.525 504.153C332.053 508.685 327.829 511.754 323.064 511.754H306.494C301.728 511.754 297.505 508.685 296.032 504.153L290.912 488.394C289.439 483.862 291.052 478.897 294.908 476.096L308.313 466.356ZM296.162 490.1C294.69 485.568 296.303 480.603 300.158 477.802L308.313 471.877C312.168 469.076 317.389 469.076 321.244 471.877L329.399 477.802C333.254 480.603 334.868 485.568 333.395 490.1L330.28 499.687C328.808 504.219 324.584 507.287 319.819 507.287H309.739C304.973 507.287 300.75 504.219 299.277 499.687L296.162 490.1Z" fill="#2A2A2A"/>
<path fill-rule="evenodd" clip-rule="evenodd" d="M-1.69873 77.6059C-0.226112 82.1382 -1.83936 87.1032 -5.69472 89.9043L-19.1002 99.6439C-22.9555 102.445 -28.1761 102.445 -32.0314 99.6439L-45.4369 89.9043C-49.2923 87.1032 -50.9055 82.1382 -49.4329 77.6059L-44.3124 61.8469C-42.8398 57.3146 -38.6163 54.246 -33.8508 54.246H-17.2808C-12.5153 54.246 -8.29177 57.3146 -6.81916 61.8469L-1.69873 77.6059ZM-19.1002 94.1231C-22.9555 96.9242 -28.1761 96.9242 -32.0314 94.1231L-40.1862 88.1983C-44.0416 85.3972 -45.6548 80.4321 -44.1822 75.8999L-41.0674 66.3133C-39.5948 61.7811 -35.3712 58.7125 -30.6058 58.7125H-20.5259C-15.7604 58.7125 -11.5368 61.7811 -10.0642 66.3133L-6.94937 75.8999C-5.47675 80.4321 -7.08999 85.3972 -10.9454 88.1983L-19.1002 94.1231Z" fill="#2A2A2A"/>
<path fill-rule="evenodd" clip-rule="evenodd" d="M-32.0314 335.473C-28.1761 338.274 -22.9555 338.274 -19.1002 335.473L-5.69471 325.734C-1.83935 322.932 -0.226114 317.967 -1.69873 313.435L-6.81915 297.676C-8.29177 293.144 -12.5153 290.075 -17.2808 290.075H-33.8508C-38.6163 290.075 -42.8398 293.144 -44.3124 297.676L-49.4329 313.435C-50.9055 317.967 -49.2923 322.932 -45.4369 325.734L-32.0314 335.473ZM-44.1822 311.729C-45.6548 316.261 -44.0416 321.226 -40.1863 324.028L-32.0314 329.952C-28.1761 332.753 -22.9555 332.753 -19.1002 329.952L-10.9453 324.028C-7.08999 321.226 -5.47675 316.261 -6.94937 311.729L-10.0642 302.143C-11.5368 297.61 -15.7604 294.542 -20.5258 294.542H-30.6057C-35.3712 294.542 -39.5948 297.61 -41.0674 302.143L-44.1822 311.729Z" fill="#2A2A2A"/>
<path fill-rule="evenodd" clip-rule="evenodd" d="M-1.69873 195.52C-0.226113 200.053 -1.83936 205.018 -5.69472 207.819L-19.1002 217.558C-22.9555 220.359 -28.1761 220.359 -32.0314 217.558L-45.4369 207.819C-49.2923 205.018 -50.9055 200.053 -49.4329 195.52L-44.3124 179.761C-42.8398 175.229 -38.6163 172.16 -33.8508 172.16H-17.2808C-12.5153 172.16 -8.29177 175.229 -6.81915 179.761L-1.69873 195.52ZM-19.1002 212.037C-22.9555 214.839 -28.1761 214.839 -32.0314 212.037L-40.1862 206.113C-44.0416 203.312 -45.6548 198.347 -44.1822 193.814L-41.0674 184.228C-39.5948 179.696 -35.3712 176.627 -30.6058 176.627H-20.5259C-15.7604 176.627 -11.5368 179.695 -10.0642 184.228L-6.94937 193.814C-5.47675 198.347 -7.08999 203.312 -10.9454 206.113L-19.1002 212.037Z" fill="#2A2A2A"/>
<path fill-rule="evenodd" clip-rule="evenodd" d="M-32.0314 453.388C-28.1761 456.189 -22.9555 456.189 -19.1002 453.388L-5.69471 443.648C-1.83935 440.847 -0.226114 435.882 -1.69873 431.35L-6.81915 415.591C-8.29177 411.058 -12.5153 407.99 -17.2808 407.99H-33.8508C-38.6163 407.99 -42.8398 411.058 -44.3124 415.591L-49.4329 431.35C-50.9055 435.882 -49.2923 440.847 -45.4369 443.648L-32.0314 453.388ZM-44.1822 429.644C-45.6548 434.176 -44.0416 439.141 -40.1863 441.942L-32.0314 447.867C-28.1761 450.668 -22.9555 450.668 -19.1002 447.867L-10.9453 441.942C-7.08999 439.141 -5.47675 434.176 -6.94937 429.644L-10.0642 420.057C-11.5368 415.525 -15.7604 412.456 -20.5258 412.456H-30.6057C-35.3712 412.456 -39.5948 415.525 -41.0674 420.057L-44.1822 429.644Z" fill="#2A2A2A"/>
<path fill-rule="evenodd" clip-rule="evenodd" d="M-1.69873 549.264C-0.226112 553.797 -1.83935 558.762 -5.69471 561.563L-19.1002 571.302C-22.9555 574.104 -28.1761 574.104 -32.0314 571.302L-45.4369 561.563C-49.2923 558.762 -50.9055 553.797 -49.4329 549.264L-44.3124 533.505C-42.8398 528.973 -38.6163 525.905 -33.8508 525.905H-17.2808C-12.5153 525.905 -8.29177 528.973 -6.81916 533.505L-1.69873 549.264ZM-19.1002 565.782C-22.9555 568.583 -28.1761 568.583 -32.0314 565.782L-40.1862 559.857C-44.0416 557.056 -45.6548 552.091 -44.1822 547.558L-41.0674 537.972C-39.5948 533.44 -35.3712 530.371 -30.6058 530.371H-20.5258C-15.7604 530.371 -11.5368 533.44 -10.0642 537.972L-6.94937 547.558C-5.47676 552.091 -7.08999 557.056 -10.9454 559.857L-19.1002 565.782Z" fill="#2A2A2A"/>
<path fill-rule="evenodd" clip-rule="evenodd" d="M194.865 99.6439C198.72 102.445 203.941 102.445 207.796 99.6439L221.202 89.9043C225.057 87.1032 226.67 82.1382 225.198 77.6059L220.077 61.8469C218.605 57.3146 214.381 54.246 209.616 54.246H193.045C188.28 54.246 184.056 57.3146 182.584 61.8469L177.463 77.6059C175.991 82.1382 177.604 87.1032 181.459 89.9043L194.865 99.6439ZM182.714 75.8999C181.241 80.4321 182.855 85.3972 186.71 88.1983L194.865 94.1231C198.72 96.9242 203.941 96.9242 207.796 94.1231L215.951 88.1983C219.806 85.3972 221.42 80.4321 219.947 75.8999L216.832 66.3133C215.359 61.7811 211.136 58.7125 206.37 58.7125H196.291C191.525 58.7125 187.302 61.7811 185.829 66.3133L182.714 75.8999Z" fill="#2A2A2A"/>
<path fill-rule="evenodd" clip-rule="evenodd" d="M225.198 313.435C226.67 317.967 225.057 322.932 221.202 325.734L207.796 335.473C203.941 338.274 198.72 338.274 194.865 335.473L181.459 325.734C177.604 322.932 175.991 317.967 177.463 313.435L182.584 297.676C184.056 293.144 188.28 290.075 193.045 290.075H209.616C214.381 290.075 218.605 293.144 220.077 297.676L225.198 313.435ZM207.796 329.952C203.941 332.753 198.72 332.753 194.865 329.952L186.71 324.028C182.855 321.226 181.241 316.261 182.714 311.729L185.829 302.143C187.302 297.61 191.525 294.542 196.291 294.542H206.37C211.136 294.542 215.359 297.61 216.832 302.143L219.947 311.729C221.42 316.261 219.806 321.226 215.951 324.028L207.796 329.952Z" fill="#2A2A2A"/>
<path fill-rule="evenodd" clip-rule="evenodd" d="M194.865 217.558C198.72 220.359 203.941 220.359 207.796 217.558L221.202 207.819C225.057 205.018 226.67 200.053 225.198 195.52L220.077 179.761C218.605 175.229 214.381 172.16 209.616 172.16H193.045C188.28 172.16 184.056 175.229 182.584 179.761L177.463 195.52C175.991 200.053 177.604 205.018 181.459 207.819L194.865 217.558ZM182.714 193.814C181.241 198.347 182.855 203.312 186.71 206.113L194.865 212.037C198.72 214.839 203.941 214.839 207.796 212.037L215.951 206.113C219.806 203.312 221.42 198.347 219.947 193.814L216.832 184.228C215.359 179.696 211.136 176.627 206.37 176.627H196.291C191.525 176.627 187.302 179.695 185.829 184.228L182.714 193.814Z" fill="#2A2A2A"/>
<path fill-rule="evenodd" clip-rule="evenodd" d="M225.198 431.35C226.67 435.882 225.057 440.847 221.202 443.648L207.796 453.388C203.941 456.189 198.72 456.189 194.865 453.388L181.459 443.648C177.604 440.847 175.991 435.882 177.463 431.35L182.584 415.591C184.056 411.058 188.28 407.99 193.045 407.99H209.616C214.381 407.99 218.605 411.058 220.077 415.591L225.198 431.35ZM207.796 447.867C203.941 450.668 198.72 450.668 194.865 447.867L186.71 441.942C182.855 439.141 181.241 434.176 182.714 429.644L185.829 420.057C187.302 415.525 191.525 412.456 196.291 412.456H206.37C211.136 412.456 215.359 415.525 216.832 420.057L219.947 429.644C221.42 434.176 219.806 439.141 215.951 441.942L207.796 447.867Z" fill="#2A2A2A"/>
<path fill-rule="evenodd" clip-rule="evenodd" d="M194.865 571.302C198.72 574.104 203.941 574.104 207.796 571.302L221.202 561.563C225.057 558.762 226.67 553.797 225.198 549.264L220.077 533.505C218.605 528.973 214.381 525.905 209.616 525.905H193.045C188.28 525.905 184.056 528.973 182.584 533.505L177.463 549.264C175.991 553.797 177.604 558.762 181.459 561.563L194.865 571.302ZM182.714 547.558C181.241 552.091 182.855 557.056 186.71 559.857L194.865 565.782C198.72 568.583 203.941 568.583 207.796 565.782L215.951 559.857C219.806 557.056 221.42 552.091 219.947 547.558L216.832 537.972C215.359 533.44 211.136 530.371 206.37 530.371H196.291C191.525 530.371 187.302 533.44 185.829 537.972L182.714 547.558Z" fill="#2A2A2A"/>
<path fill-rule="evenodd" clip-rule="evenodd" d="M111.749 77.6059C113.222 82.1382 111.609 87.1032 107.753 89.9043L94.348 99.6439C90.4926 102.445 85.2721 102.445 81.4167 99.6439L68.0113 89.9043C64.1559 87.1032 62.5427 82.1382 64.0153 77.6059L69.1357 61.8469C70.6083 57.3146 74.8318 54.246 79.5973 54.246H96.1674C100.933 54.246 105.156 57.3146 106.629 61.8469L111.749 77.6059ZM94.348 94.1231C90.4926 96.9242 85.2721 96.9242 81.4167 94.1231L73.2619 88.1983C69.4065 85.3972 67.7933 80.4321 69.2659 75.8999L72.3808 66.3133C73.8534 61.7811 78.0769 58.7125 82.8424 58.7125H92.9223C97.6878 58.7125 101.911 61.7811 103.384 66.3133L106.499 75.8999C107.971 80.4321 106.358 85.3972 102.503 88.1983L94.348 94.1231Z" fill="#2A2A2A"/>
<path fill-rule="evenodd" clip-rule="evenodd" d="M81.4167 335.473C85.2721 338.274 90.4926 338.274 94.348 335.473L107.753 325.734C111.609 322.932 113.222 317.967 111.749 313.435L106.629 297.676C105.156 293.144 100.933 290.075 96.1674 290.075H79.5973C74.8318 290.075 70.6083 293.144 69.1357 297.676L64.0153 313.435C62.5427 317.967 64.1559 322.932 68.0112 325.734L81.4167 335.473ZM69.2659 311.729C67.7933 316.261 69.4065 321.226 73.2619 324.028L81.4167 329.952C85.2721 332.753 90.4926 332.753 94.348 329.952L102.503 324.028C106.358 321.226 107.971 316.261 106.499 311.729L103.384 302.143C101.911 297.61 97.6878 294.542 92.9223 294.542H82.8424C78.0769 294.542 73.8534 297.61 72.3808 302.143L69.2659 311.729Z" fill="#2A2A2A"/>
<path fill-rule="evenodd" clip-rule="evenodd" d="M111.749 195.52C113.222 200.053 111.609 205.018 107.753 207.819L94.348 217.558C90.4926 220.359 85.2721 220.359 81.4167 217.558L68.0113 207.819C64.1559 205.018 62.5427 200.053 64.0153 195.52L69.1357 179.761C70.6083 175.229 74.8318 172.16 79.5973 172.16H96.1674C100.933 172.16 105.156 175.229 106.629 179.761L111.749 195.52ZM94.348 212.037C90.4926 214.839 85.2721 214.839 81.4167 212.037L73.2619 206.113C69.4065 203.312 67.7933 198.347 69.2659 193.814L72.3808 184.228C73.8534 179.696 78.0769 176.627 82.8424 176.627H92.9223C97.6878 176.627 101.911 179.695 103.384 184.228L106.499 193.814C107.971 198.347 106.358 203.312 102.503 206.113L94.348 212.037Z" fill="#2A2A2A"/>
<path fill-rule="evenodd" clip-rule="evenodd" d="M81.4167 453.388C85.2721 456.189 90.4926 456.189 94.348 453.388L107.753 443.648C111.609 440.847 113.222 435.882 111.749 431.35L106.629 415.591C105.156 411.058 100.933 407.99 96.1674 407.99H79.5973C74.8318 407.99 70.6083 411.058 69.1357 415.591L64.0153 431.35C62.5427 435.882 64.1559 440.847 68.0112 443.648L81.4167 453.388ZM69.2659 429.644C67.7933 434.176 69.4065 439.141 73.2619 441.942L81.4167 447.867C85.2721 450.668 90.4926 450.668 94.348 447.867L102.503 441.942C106.358 439.141 107.971 434.176 106.499 429.644L103.384 420.057C101.911 415.525 97.6878 412.456 92.9223 412.456H82.8424C78.0769 412.456 73.8534 415.525 72.3808 420.057L69.2659 429.644Z" fill="#2A2A2A"/>
<path fill-rule="evenodd" clip-rule="evenodd" d="M111.749 549.264C113.222 553.797 111.609 558.762 107.753 561.563L94.348 571.302C90.4926 574.104 85.2721 574.104 81.4167 571.302L68.0112 561.563C64.1559 558.762 62.5427 553.797 64.0153 549.264L69.1357 533.505C70.6083 528.973 74.8318 525.905 79.5973 525.905H96.1674C100.933 525.905 105.156 528.973 106.629 533.505L111.749 549.264ZM94.348 565.782C90.4926 568.583 85.2721 568.583 81.4167 565.782L73.2619 559.857C69.4065 557.056 67.7933 552.091 69.2659 547.558L72.3808 537.972C73.8534 533.44 78.0769 530.371 82.8424 530.371H92.9223C97.6878 530.371 101.911 533.44 103.384 537.972L106.499 547.558C107.971 552.091 106.358 557.056 102.503 559.857L94.348 565.782Z" fill="#2A2A2A"/>
<path fill-rule="evenodd" clip-rule="evenodd" d="M308.313 99.6439C312.168 102.445 317.389 102.445 321.244 99.6439L334.65 89.9043C338.505 87.1032 340.118 82.1382 338.646 77.6059L333.525 61.8469C332.053 57.3146 327.829 54.246 323.064 54.246H306.494C301.728 54.246 297.505 57.3146 296.032 61.8469L290.912 77.6059C289.439 82.1382 291.052 87.1032 294.908 89.9043L308.313 99.6439ZM296.162 75.8999C294.69 80.4321 296.303 85.3972 300.158 88.1983L308.313 94.1231C312.168 96.9242 317.389 96.9242 321.244 94.1231L329.399 88.1983C333.254 85.3972 334.868 80.4321 333.395 75.8999L330.28 66.3133C328.808 61.7811 324.584 58.7125 319.819 58.7125H309.739C304.973 58.7125 300.75 61.7811 299.277 66.3133L296.162 75.8999Z" fill="#2A2A2A"/>
<path fill-rule="evenodd" clip-rule="evenodd" d="M338.646 313.435C340.118 317.967 338.505 322.932 334.65 325.734L321.244 335.473C317.389 338.274 312.168 338.274 308.313 335.473L294.908 325.734C291.052 322.932 289.439 317.967 290.912 313.435L296.032 297.676C297.505 293.144 301.728 290.075 306.494 290.075H323.064C327.829 290.075 332.053 293.144 333.525 297.676L338.646 313.435ZM321.244 329.952C317.389 332.753 312.168 332.753 308.313 329.952L300.158 324.028C296.303 321.226 294.69 316.261 296.162 311.729L299.277 302.143C300.75 297.61 304.973 294.542 309.739 294.542H319.819C324.584 294.542 328.808 297.61 330.28 302.143L333.395 311.729C334.868 316.261 333.254 321.226 329.399 324.028L321.244 329.952Z" fill="#2A2A2A"/>
<path fill-rule="evenodd" clip-rule="evenodd" d="M308.313 217.558C312.168 220.359 317.389 220.359 321.244 217.558L334.65 207.819C338.505 205.018 340.118 200.053 338.646 195.52L333.525 179.761C332.053 175.229 327.829 172.16 323.064 172.16H306.494C301.728 172.16 297.505 175.229 296.032 179.761L290.912 195.52C289.439 200.053 291.052 205.018 294.908 207.819L308.313 217.558ZM296.162 193.814C294.69 198.347 296.303 203.312 300.158 206.113L308.313 212.037C312.168 214.839 317.389 214.839 321.244 212.037L329.399 206.113C333.254 203.312 334.868 198.347 333.395 193.814L330.28 184.228C328.808 179.696 324.584 176.627 319.819 176.627H309.739C304.973 176.627 300.75 179.695 299.277 184.228L296.162 193.814Z" fill="#2A2A2A"/>
<path fill-rule="evenodd" clip-rule="evenodd" d="M338.646 431.35C340.118 435.882 338.505 440.847 334.65 443.648L321.244 453.388C317.389 456.189 312.168 456.189 308.313 453.388L294.908 443.648C291.052 440.847 289.439 435.882 290.912 431.35L296.032 415.591C297.505 411.058 301.728 407.99 306.494 407.99H323.064C327.829 407.99 332.053 411.058 333.525 415.591L338.646 431.35ZM321.244 447.867C317.389 450.668 312.168 450.668 308.313 447.867L300.158 441.942C296.303 439.141 294.69 434.176 296.162 429.644L299.277 420.057C300.75 415.525 304.973 412.456 309.739 412.456H319.819C324.584 412.456 328.808 415.525 330.28 420.057L333.395 429.644C334.868 434.176 333.254 439.141 329.399 441.942L321.244 447.867Z" fill="#2A2A2A"/>
<path fill-rule="evenodd" clip-rule="evenodd" d="M308.313 571.302C312.168 574.104 317.389 574.104 321.244 571.302L334.65 561.563C338.505 558.762 340.118 553.797 338.646 549.264L333.525 533.505C332.053 528.973 327.829 525.905 323.064 525.905H306.494C301.728 525.905 297.505 528.973 296.032 533.505L290.912 549.264C289.439 553.797 291.052 558.762 294.908 561.563L308.313 571.302ZM296.162 547.558C294.69 552.091 296.303 557.056 300.158 559.857L308.313 565.782C312.168 568.583 317.389 568.583 321.244 565.782L329.399 559.857C333.254 557.056 334.868 552.091 333.395 547.558L330.28 537.972C328.808 533.44 324.584 530.371 319.819 530.371H309.739C304.973 530.371 300.75 533.44 299.277 537.972L296.162 547.558Z" fill="#2A2A2A"/>
<path fill-rule="evenodd" clip-rule="evenodd" d="M55.0252 18.6487C56.4979 23.181 54.8846 28.146 51.0293 30.9471L37.6238 40.6867C33.7684 43.4878 28.5479 43.4878 24.6925 40.6867L11.2871 30.9471C7.43172 28.146 5.81848 23.181 7.29109 18.6487L12.4115 2.88965C13.8841 -1.6426 18.1077 -4.71116 22.8732 -4.71116H39.4432C44.2087 -4.71116 48.4322 -1.64259 49.9048 2.88966L55.0252 18.6487ZM37.6238 35.1659C33.7684 37.9669 28.5479 37.9669 24.6925 35.1659L16.5377 29.241C12.6824 26.44 11.0691 21.4749 12.5417 16.9427L15.6566 7.35612C17.1292 2.82387 21.3527 -0.244698 26.1182 -0.244698H36.1981C40.9636 -0.244698 45.1871 2.82387 46.6597 7.35612L49.7746 16.9427C51.2472 21.4749 49.634 26.44 45.7786 29.241L37.6238 35.1659Z" fill="#2A2A2A"/>
<path fill-rule="evenodd" clip-rule="evenodd" d="M24.6925 276.516C28.5479 279.317 33.7684 279.317 37.6238 276.516L51.0293 266.776C54.8846 263.975 56.4979 259.01 55.0252 254.478L49.9048 238.719C48.4322 234.186 44.2087 231.118 39.4432 231.118H22.8731C18.1077 231.118 13.8841 234.186 12.4115 238.719L7.2911 254.478C5.81848 259.01 7.43171 263.975 11.2871 266.776L24.6925 276.516ZM12.5417 252.772C11.0691 257.304 12.6824 262.269 16.5377 265.07L24.6925 270.995C28.5479 273.796 33.7684 273.796 37.6238 270.995L45.7786 265.07C49.634 262.269 51.2472 257.304 49.7746 252.772L46.6597 243.185C45.1871 238.653 40.9636 235.584 36.1981 235.584H26.1182C21.3527 235.584 17.1292 238.653 15.6566 243.185L12.5417 252.772Z" fill="#2A2A2A"/>
<path fill-rule="evenodd" clip-rule="evenodd" d="M55.0252 136.563C56.4979 141.096 54.8846 146.061 51.0293 148.862L37.6238 158.601C33.7684 161.402 28.5479 161.402 24.6925 158.601L11.2871 148.862C7.43172 146.061 5.81848 141.096 7.2911 136.563L12.4115 120.804C13.8841 116.272 18.1077 113.203 22.8732 113.203H39.4432C44.2087 113.203 48.4322 116.272 49.9048 120.804L55.0252 136.563ZM37.6238 153.08C33.7684 155.882 28.5479 155.882 24.6925 153.08L16.5377 147.156C12.6824 144.355 11.0691 139.39 12.5417 134.857L15.6566 125.271C17.1292 120.738 21.3527 117.67 26.1182 117.67H36.1981C40.9636 117.67 45.1871 120.738 46.6597 125.271L49.7746 134.857C51.2472 139.39 49.634 144.355 45.7786 147.156L37.6238 153.08Z" fill="#2A2A2A"/>
<path fill-rule="evenodd" clip-rule="evenodd" d="M24.6925 394.43C28.5479 397.231 33.7684 397.231 37.6238 394.43L51.0293 384.691C54.8846 381.89 56.4979 376.925 55.0252 372.392L49.9048 356.633C48.4322 352.101 44.2087 349.033 39.4432 349.033H22.8731C18.1077 349.033 13.8841 352.101 12.4115 356.633L7.2911 372.392C5.81848 376.925 7.43171 381.89 11.2871 384.691L24.6925 394.43ZM12.5417 370.686C11.0691 375.219 12.6824 380.184 16.5377 382.985L24.6925 388.91C28.5479 391.711 33.7684 391.711 37.6238 388.91L45.7786 382.985C49.634 380.184 51.2472 375.219 49.7746 370.686L46.6597 361.1C45.1871 356.568 40.9636 353.499 36.1981 353.499H26.1182C21.3527 353.499 17.1292 356.568 15.6566 361.1L12.5417 370.686Z" fill="#2A2A2A"/>
<path fill-rule="evenodd" clip-rule="evenodd" d="M55.0252 490.307C56.4979 494.839 54.8846 499.804 51.0293 502.606L37.6238 512.345C33.7685 515.146 28.5479 515.146 24.6925 512.345L11.2871 502.606C7.43172 499.804 5.81848 494.839 7.2911 490.307L12.4115 474.548C13.8841 470.016 18.1077 466.947 22.8732 466.947H39.4432C44.2087 466.947 48.4322 470.016 49.9048 474.548L55.0252 490.307ZM37.6238 506.824C33.7684 509.625 28.5479 509.625 24.6925 506.824L16.5377 500.9C12.6824 498.098 11.0691 493.133 12.5417 488.601L15.6566 479.015C17.1292 474.482 21.3527 471.414 26.1182 471.414H36.1981C40.9636 471.414 45.1871 474.482 46.6597 479.015L49.7746 488.601C51.2472 493.133 49.634 498.098 45.7786 500.9L37.6238 506.824Z" fill="#2A2A2A"/>
<path fill-rule="evenodd" clip-rule="evenodd" d="M251.589 40.6867C255.444 43.4878 260.665 43.4878 264.52 40.6867L277.926 30.9471C281.781 28.146 283.394 23.181 281.922 18.6487L276.801 2.88965C275.329 -1.6426 271.105 -4.71116 266.34 -4.71116H249.77C245.004 -4.71116 240.781 -1.64259 239.308 2.88966L234.188 18.6487C232.715 23.181 234.328 28.146 238.184 30.9471L251.589 40.6867ZM239.438 16.9427C237.966 21.4749 239.579 26.44 243.434 29.241L251.589 35.1659C255.444 37.9669 260.665 37.9669 264.52 35.1659L272.675 29.241C276.53 26.44 278.144 21.4749 276.671 16.9427L273.556 7.35611C272.084 2.82387 267.86 -0.244698 263.095 -0.244698H253.015C248.249 -0.244698 244.026 2.82386 242.553 7.35611L239.438 16.9427Z" fill="#2A2A2A"/>
<path fill-rule="evenodd" clip-rule="evenodd" d="M281.922 254.478C283.394 259.01 281.781 263.975 277.926 266.776L264.52 276.516C260.665 279.317 255.444 279.317 251.589 276.516L238.184 266.776C234.328 263.975 232.715 259.01 234.188 254.478L239.308 238.719C240.781 234.186 245.004 231.118 249.77 231.118H266.34C271.105 231.118 275.329 234.186 276.801 238.719L281.922 254.478ZM264.52 270.995C260.665 273.796 255.444 273.796 251.589 270.995L243.434 265.07C239.579 262.269 237.966 257.304 239.438 252.772L242.553 243.185C244.026 238.653 248.249 235.584 253.015 235.584H263.095C267.86 235.584 272.084 238.653 273.556 243.185L276.671 252.772C278.144 257.304 276.53 262.269 272.675 265.07L264.52 270.995Z" fill="#2A2A2A"/>
<path fill-rule="evenodd" clip-rule="evenodd" d="M251.589 158.601C255.444 161.402 260.665 161.402 264.52 158.601L277.926 148.862C281.781 146.061 283.394 141.096 281.922 136.563L276.801 120.804C275.329 116.272 271.105 113.203 266.34 113.203H249.77C245.004 113.203 240.781 116.272 239.308 120.804L234.188 136.563C232.715 141.096 234.328 146.061 238.184 148.862L251.589 158.601ZM239.438 134.857C237.966 139.39 239.579 144.355 243.434 147.156L251.589 153.08C255.444 155.882 260.665 155.882 264.52 153.08L272.675 147.156C276.53 144.355 278.144 139.39 276.671 134.857L273.556 125.271C272.084 120.738 267.86 117.67 263.095 117.67H253.015C248.249 117.67 244.026 120.738 242.553 125.271L239.438 134.857Z" fill="#2A2A2A"/>
<path fill-rule="evenodd" clip-rule="evenodd" d="M281.922 372.392C283.394 376.925 281.781 381.89 277.926 384.691L264.52 394.43C260.665 397.231 255.444 397.231 251.589 394.43L238.184 384.691C234.328 381.89 232.715 376.925 234.188 372.392L239.308 356.633C240.781 352.101 245.004 349.033 249.77 349.033H266.34C271.105 349.033 275.329 352.101 276.801 356.633L281.922 372.392ZM264.52 388.91C260.665 391.711 255.444 391.711 251.589 388.91L243.434 382.985C239.579 380.184 237.966 375.219 239.438 370.686L242.553 361.1C244.026 356.568 248.249 353.499 253.015 353.499H263.095C267.86 353.499 272.084 356.568 273.556 361.1L276.671 370.686C278.144 375.219 276.53 380.184 272.675 382.985L264.52 388.91Z" fill="#2A2A2A"/>
<path fill-rule="evenodd" clip-rule="evenodd" d="M251.589 512.345C255.444 515.146 260.665 515.146 264.52 512.345L277.926 502.606C281.781 499.804 283.394 494.839 281.922 490.307L276.801 474.548C275.329 470.016 271.105 466.947 266.34 466.947H249.77C245.004 466.947 240.781 470.016 239.308 474.548L234.188 490.307C232.715 494.839 234.328 499.804 238.184 502.606L251.589 512.345ZM239.438 488.601C237.966 493.133 239.579 498.098 243.434 500.9L251.589 506.824C255.444 509.625 260.665 509.625 264.52 506.824L272.675 500.9C276.53 498.098 278.144 493.133 276.671 488.601L273.556 479.015C272.084 474.482 267.86 471.414 263.095 471.414H253.015C248.249 471.414 244.026 474.482 242.553 479.015L239.438 488.601Z" fill="#2A2A2A"/>
<path fill-rule="evenodd" clip-rule="evenodd" d="M168.473 18.6487C169.946 23.181 168.333 28.146 164.477 30.9471L151.072 40.6867C147.217 43.4878 141.996 43.4878 138.141 40.6867L124.735 30.9471C120.88 28.146 119.267 23.181 120.739 18.6487L125.86 2.88965C127.332 -1.6426 131.556 -4.71116 136.321 -4.71116H152.891C157.657 -4.71116 161.88 -1.64259 163.353 2.88966L168.473 18.6487ZM151.072 35.1659C147.217 37.9669 141.996 37.9669 138.141 35.1659L129.986 29.241C126.131 26.44 124.517 21.4749 125.99 16.9427L129.105 7.35611C130.577 2.82387 134.801 -0.244698 139.566 -0.244698H149.646C154.412 -0.244698 158.635 2.82386 160.108 7.35611L163.223 16.9427C164.695 21.4749 163.082 26.44 159.227 29.241L151.072 35.1659Z" fill="#2A2A2A"/>
<path fill-rule="evenodd" clip-rule="evenodd" d="M138.141 276.516C141.996 279.317 147.217 279.317 151.072 276.516L164.477 266.776C168.333 263.975 169.946 259.01 168.473 254.478L163.353 238.719C161.88 234.186 157.657 231.118 152.891 231.118H136.321C131.556 231.118 127.332 234.186 125.86 238.719L120.739 254.478C119.267 259.01 120.88 263.975 124.735 266.776L138.141 276.516ZM125.99 252.772C124.517 257.304 126.131 262.269 129.986 265.07L138.141 270.995C141.996 273.796 147.217 273.796 151.072 270.995L159.227 265.07C163.082 262.269 164.695 257.304 163.223 252.772L160.108 243.185C158.635 238.653 154.412 235.584 149.646 235.584H139.566C134.801 235.584 130.577 238.653 129.105 243.185L125.99 252.772Z" fill="#2A2A2A"/>
<path fill-rule="evenodd" clip-rule="evenodd" d="M168.473 136.563C169.946 141.096 168.333 146.061 164.477 148.862L151.072 158.601C147.217 161.402 141.996 161.402 138.141 158.601L124.735 148.862C120.88 146.061 119.267 141.096 120.739 136.563L125.86 120.804C127.332 116.272 131.556 113.203 136.321 113.203H152.891C157.657 113.203 161.88 116.272 163.353 120.804L168.473 136.563ZM151.072 153.08C147.217 155.882 141.996 155.882 138.141 153.08L129.986 147.156C126.131 144.355 124.517 139.39 125.99 134.857L129.105 125.271C130.577 120.738 134.801 117.67 139.566 117.67H149.646C154.412 117.67 158.635 120.738 160.108 125.271L163.223 134.857C164.695 139.39 163.082 144.355 159.227 147.156L151.072 153.08Z" fill="#2A2A2A"/>
<path fill-rule="evenodd" clip-rule="evenodd" d="M138.141 394.43C141.996 397.231 147.217 397.231 151.072 394.43L164.477 384.691C168.333 381.89 169.946 376.925 168.473 372.392L163.353 356.633C161.88 352.101 157.657 349.033 152.891 349.033H136.321C131.556 349.033 127.332 352.101 125.86 356.633L120.739 372.392C119.267 376.925 120.88 381.89 124.735 384.691L138.141 394.43ZM125.99 370.686C124.517 375.219 126.131 380.184 129.986 382.985L138.141 388.91C141.996 391.711 147.217 391.711 151.072 388.91L159.227 382.985C163.082 380.184 164.695 375.219 163.223 370.686L160.108 361.1C158.635 356.568 154.412 353.499 149.646 353.499H139.566C134.801 353.499 130.577 356.568 129.105 361.1L125.99 370.686Z" fill="#2A2A2A"/>
<path fill-rule="evenodd" clip-rule="evenodd" d="M168.473 490.307C169.946 494.839 168.333 499.804 164.477 502.606L151.072 512.345C147.217 515.146 141.996 515.146 138.141 512.345L124.735 502.606C120.88 499.804 119.267 494.839 120.739 490.307L125.86 474.548C127.332 470.016 131.556 466.947 136.321 466.947H152.891C157.657 466.947 161.88 470.016 163.353 474.548L168.473 490.307ZM151.072 506.824C147.217 509.625 141.996 509.625 138.141 506.824L129.986 500.9C126.131 498.098 124.517 493.133 125.99 488.601L129.105 479.015C130.577 474.482 134.801 471.414 139.566 471.414H149.646C154.412 471.414 158.635 474.482 160.108 479.015L163.223 488.601C164.695 493.133 163.082 498.098 159.227 500.9L151.072 506.824Z" fill="#2A2A2A"/>
<path fill-rule="evenodd" clip-rule="evenodd" d="M365.037 40.6867C368.892 43.4878 374.113 43.4878 377.968 40.6867L391.374 30.9471C395.229 28.146 396.842 23.181 395.37 18.6487L390.249 2.88965C388.777 -1.6426 384.553 -4.71116 379.788 -4.71116H363.218C358.452 -4.71116 354.229 -1.64259 352.756 2.88966L347.636 18.6487C346.163 23.181 347.776 28.146 351.632 30.9471L365.037 40.6867ZM352.886 16.9427C351.414 21.4749 353.027 26.44 356.882 29.241L365.037 35.1659C368.892 37.9669 374.113 37.9669 377.968 35.1659L386.123 29.241C389.978 26.44 391.592 21.4749 390.119 16.9427L387.004 7.35611C385.532 2.82387 381.308 -0.244698 376.543 -0.244698H366.463C361.697 -0.244698 357.474 2.82386 356.001 7.35611L352.886 16.9427Z" fill="#2A2A2A"/>
<path fill-rule="evenodd" clip-rule="evenodd" d="M395.37 254.478C396.842 259.01 395.229 263.975 391.374 266.776L377.968 276.516C374.113 279.317 368.892 279.317 365.037 276.516L351.632 266.776C347.776 263.975 346.163 259.01 347.636 254.478L352.756 238.719C354.229 234.186 358.452 231.118 363.218 231.118H379.788C384.553 231.118 388.777 234.186 390.249 238.719L395.37 254.478ZM377.968 270.995C374.113 273.796 368.892 273.796 365.037 270.995L356.882 265.07C353.027 262.269 351.414 257.304 352.886 252.772L356.001 243.185C357.474 238.653 361.697 235.584 366.463 235.584H376.543C381.308 235.584 385.532 238.653 387.004 243.185L390.119 252.772C391.592 257.304 389.978 262.269 386.123 265.07L377.968 270.995Z" fill="#2A2A2A"/>
<path fill-rule="evenodd" clip-rule="evenodd" d="M365.037 158.601C368.892 161.402 374.113 161.402 377.968 158.601L391.374 148.862C395.229 146.061 396.842 141.096 395.37 136.563L390.249 120.804C388.777 116.272 384.553 113.203 379.788 113.203H363.218C358.452 113.203 354.229 116.272 352.756 120.804L347.636 136.563C346.163 141.096 347.776 146.061 351.632 148.862L365.037 158.601ZM352.886 134.857C351.414 139.39 353.027 144.355 356.882 147.156L365.037 153.08C368.892 155.882 374.113 155.882 377.968 153.08L386.123 147.156C389.978 144.355 391.592 139.39 390.119 134.857L387.004 125.271C385.532 120.738 381.308 117.67 376.543 117.67H366.463C361.697 117.67 357.474 120.738 356.001 125.271L352.886 134.857Z" fill="#2A2A2A"/>
<path fill-rule="evenodd" clip-rule="evenodd" d="M395.37 372.392C396.842 376.925 395.229 381.89 391.374 384.691L377.968 394.43C374.113 397.231 368.892 397.231 365.037 394.43L351.632 384.691C347.776 381.89 346.163 376.925 347.636 372.392L352.756 356.633C354.229 352.101 358.452 349.033 363.218 349.033H379.788C384.553 349.033 388.777 352.101 390.249 356.633L395.37 372.392ZM377.968 388.91C374.113 391.711 368.892 391.711 365.037 388.91L356.882 382.985C353.027 380.184 351.414 375.219 352.886 370.686L356.001 361.1C357.474 356.568 361.697 353.499 366.463 353.499H376.543C381.308 353.499 385.532 356.568 387.004 361.1L390.119 370.686C391.592 375.219 389.978 380.184 386.123 382.985L377.968 388.91Z" fill="#2A2A2A"/>
<path fill-rule="evenodd" clip-rule="evenodd" d="M365.037 512.345C368.892 515.146 374.113 515.146 377.968 512.345L391.374 502.606C395.229 499.804 396.842 494.839 395.37 490.307L390.249 474.548C388.777 470.016 384.553 466.947 379.788 466.947H363.218C358.452 466.947 354.229 470.016 352.756 474.548L347.636 490.307C346.163 494.839 347.776 499.804 351.632 502.606L365.037 512.345ZM352.886 488.601C351.414 493.133 353.027 498.098 356.882 500.9L365.037 506.824C368.892 509.625 374.113 509.625 377.968 506.824L386.123 500.9C389.978 498.098 391.592 493.133 390.119 488.601L387.004 479.015C385.532 474.482 381.308 471.414 376.543 471.414H366.463C361.697 471.414 357.474 474.482 356.001 479.015L352.886 488.601Z" fill="#2A2A2A"/>
<path fill-rule="evenodd" clip-rule="evenodd" d="M55.0252 75.693C56.4979 71.1607 54.8846 66.1957 51.0293 63.3946L37.6238 53.655C33.7684 50.8539 28.5479 50.8539 24.6925 53.655L11.2871 63.3946C7.43172 66.1957 5.81848 71.1607 7.2911 75.693L12.4115 91.452C13.8841 95.9843 18.1077 99.0528 22.8732 99.0528H39.4432C44.2087 99.0528 48.4322 95.9843 49.9048 91.452L55.0252 75.693ZM37.6238 59.1758C33.7684 56.3747 28.5479 56.3747 24.6925 59.1758L16.5377 65.1007C12.6824 67.9017 11.0691 72.8668 12.5417 77.399L15.6566 86.9856C17.1292 91.5178 21.3527 94.5864 26.1182 94.5864H36.1981C40.9636 94.5864 45.1871 91.5178 46.6597 86.9856L49.7746 77.399C51.2472 72.8668 49.634 67.9017 45.7786 65.1007L37.6238 59.1758Z" fill="#2A2A2A"/>
<path fill-rule="evenodd" clip-rule="evenodd" d="M24.6925 289.484C28.5479 286.683 33.7684 286.683 37.6238 289.484L51.0293 299.224C54.8846 302.025 56.4979 306.99 55.0252 311.522L49.9048 327.281C48.4322 331.814 44.2087 334.882 39.4432 334.882H22.8731C18.1077 334.882 13.8841 331.814 12.4115 327.281L7.2911 311.522C5.81848 306.99 7.43171 302.025 11.2871 299.224L24.6925 289.484ZM12.5417 313.228C11.0691 308.696 12.6824 303.731 16.5377 300.93L24.6925 295.005C28.5479 292.204 33.7684 292.204 37.6238 295.005L45.7786 300.93C49.634 303.731 51.2472 308.696 49.7746 313.228L46.6597 322.815C45.1871 327.347 40.9636 330.416 36.1981 330.416H26.1182C21.3527 330.416 17.1292 327.347 15.6566 322.815L12.5417 313.228Z" fill="#2A2A2A"/>
<path fill-rule="evenodd" clip-rule="evenodd" d="M55.0252 193.608C56.4979 189.075 54.8846 184.11 51.0293 181.309L37.6238 171.57C33.7684 168.769 28.5479 168.769 24.6925 171.57L11.2871 181.309C7.43172 184.11 5.81848 189.075 7.2911 193.608L12.4115 209.367C13.8841 213.899 18.1077 216.967 22.8732 216.967H39.4432C44.2087 216.967 48.4322 213.899 49.9048 209.367L55.0252 193.608ZM37.6238 177.09C33.7684 174.289 28.5479 174.289 24.6925 177.09L16.5377 183.015C12.6824 185.816 11.0691 190.781 12.5417 195.314L15.6566 204.9C17.1292 209.432 21.3527 212.501 26.1182 212.501H36.1981C40.9636 212.501 45.1871 209.432 46.6597 204.9L49.7746 195.314C51.2472 190.781 49.634 185.816 45.7786 183.015L37.6238 177.09Z" fill="#2A2A2A"/>
<path fill-rule="evenodd" clip-rule="evenodd" d="M24.6925 407.399C28.5479 404.598 33.7684 404.598 37.6238 407.399L51.0293 417.138C54.8846 419.939 56.4979 424.904 55.0252 429.437L49.9048 445.196C48.4322 449.728 44.2087 452.797 39.4432 452.797H22.8731C18.1077 452.797 13.8841 449.728 12.4115 445.196L7.2911 429.437C5.81848 424.904 7.43171 419.939 11.2871 417.138L24.6925 407.399ZM12.5417 431.143C11.0691 426.61 12.6824 421.645 16.5377 418.844L24.6925 412.92C28.5479 410.118 33.7684 410.118 37.6238 412.92L45.7786 418.844C49.634 421.645 51.2472 426.61 49.7746 431.143L46.6597 440.729C45.1871 445.262 40.9636 448.33 36.1981 448.33H26.1182C21.3527 448.33 17.1292 445.262 15.6566 440.729L12.5417 431.143Z" fill="#2A2A2A"/>
<path fill-rule="evenodd" clip-rule="evenodd" d="M55.0252 547.351C56.4979 542.819 54.8846 537.854 51.0293 535.053L37.6238 525.313C33.7685 522.512 28.5479 522.512 24.6925 525.313L11.2871 535.053C7.43172 537.854 5.81848 542.819 7.29109 547.351L12.4115 563.111C13.8841 567.643 18.1077 570.711 22.8732 570.711H39.4432C44.2087 570.711 48.4322 567.643 49.9048 563.111L55.0252 547.351ZM37.6238 530.834C33.7685 528.033 28.5479 528.033 24.6925 530.834L16.5377 536.759C12.6824 539.56 11.0691 544.525 12.5417 549.058L15.6566 558.644C17.1292 563.176 21.3527 566.245 26.1182 566.245H36.1981C40.9636 566.245 45.1871 563.176 46.6597 558.644L49.7746 549.058C51.2472 544.525 49.634 539.56 45.7786 536.759L37.6238 530.834Z" fill="#2A2A2A"/>
<path fill-rule="evenodd" clip-rule="evenodd" d="M251.589 53.655C255.444 50.8539 260.665 50.8539 264.52 53.655L277.926 63.3946C281.781 66.1957 283.394 71.1607 281.922 75.693L276.801 91.452C275.329 95.9843 271.105 99.0528 266.34 99.0528H249.77C245.004 99.0528 240.781 95.9843 239.308 91.452L234.188 75.693C232.715 71.1607 234.328 66.1957 238.184 63.3946L251.589 53.655ZM239.438 77.399C237.966 72.8668 239.579 67.9017 243.434 65.1007L251.589 59.1758C255.444 56.3747 260.665 56.3747 264.52 59.1758L272.675 65.1006C276.53 67.9017 278.144 72.8668 276.671 77.399L273.556 86.9856C272.084 91.5178 267.86 94.5864 263.095 94.5864H253.015C248.249 94.5864 244.026 91.5178 242.553 86.9856L239.438 77.399Z" fill="#2A2A2A"/>
<path fill-rule="evenodd" clip-rule="evenodd" d="M281.922 311.522C283.394 306.99 281.781 302.025 277.926 299.224L264.52 289.484C260.665 286.683 255.444 286.683 251.589 289.484L238.184 299.224C234.328 302.025 232.715 306.99 234.188 311.522L239.308 327.281C240.781 331.814 245.004 334.882 249.77 334.882H266.34C271.105 334.882 275.329 331.814 276.801 327.281L281.922 311.522ZM264.52 295.005C260.665 292.204 255.444 292.204 251.589 295.005L243.434 300.93C239.579 303.731 237.966 308.696 239.438 313.228L242.553 322.815C244.026 327.347 248.249 330.416 253.015 330.416H263.095C267.86 330.416 272.084 327.347 273.556 322.815L276.671 313.228C278.144 308.696 276.53 303.731 272.675 300.93L264.52 295.005Z" fill="#2A2A2A"/>
<path fill-rule="evenodd" clip-rule="evenodd" d="M251.589 171.57C255.444 168.769 260.665 168.769 264.52 171.57L277.926 181.309C281.781 184.11 283.394 189.075 281.922 193.608L276.801 209.367C275.329 213.899 271.105 216.967 266.34 216.967H249.77C245.004 216.967 240.781 213.899 239.308 209.367L234.188 193.608C232.715 189.075 234.328 184.11 238.184 181.309L251.589 171.57ZM239.438 195.314C237.966 190.781 239.579 185.816 243.434 183.015L251.589 177.09C255.444 174.289 260.665 174.289 264.52 177.09L272.675 183.015C276.53 185.816 278.144 190.781 276.671 195.314L273.556 204.9C272.084 209.432 267.86 212.501 263.095 212.501H253.015C248.249 212.501 244.026 209.432 242.553 204.9L239.438 195.314Z" fill="#2A2A2A"/>
<path fill-rule="evenodd" clip-rule="evenodd" d="M281.922 429.437C283.394 424.904 281.781 419.939 277.926 417.138L264.52 407.399C260.665 404.598 255.444 404.598 251.589 407.399L238.184 417.138C234.328 419.939 232.715 424.904 234.188 429.437L239.308 445.196C240.781 449.728 245.004 452.797 249.77 452.797H266.34C271.105 452.797 275.329 449.728 276.801 445.196L281.922 429.437ZM264.52 412.92C260.665 410.118 255.444 410.118 251.589 412.92L243.434 418.844C239.579 421.645 237.966 426.61 239.438 431.143L242.553 440.729C244.026 445.262 248.249 448.33 253.015 448.33H263.095C267.86 448.33 272.084 445.262 273.556 440.729L276.671 431.143C278.144 426.61 276.53 421.645 272.675 418.844L264.52 412.92Z" fill="#2A2A2A"/>
<path fill-rule="evenodd" clip-rule="evenodd" d="M251.589 525.313C255.444 522.512 260.665 522.512 264.52 525.313L277.926 535.053C281.781 537.854 283.394 542.819 281.922 547.351L276.801 563.111C275.329 567.643 271.105 570.711 266.34 570.711H249.77C245.004 570.711 240.781 567.643 239.308 563.111L234.188 547.351C232.715 542.819 234.328 537.854 238.184 535.053L251.589 525.313ZM239.438 549.058C237.966 544.525 239.579 539.56 243.434 536.759L251.589 530.834C255.444 528.033 260.665 528.033 264.52 530.834L272.675 536.759C276.53 539.56 278.144 544.525 276.671 549.058L273.556 558.644C272.084 563.176 267.86 566.245 263.095 566.245H253.015C248.249 566.245 244.026 563.176 242.553 558.644L239.438 549.058Z" fill="#2A2A2A"/>
<path fill-rule="evenodd" clip-rule="evenodd" d="M168.473 75.693C169.946 71.1607 168.333 66.1957 164.477 63.3946L151.072 53.655C147.217 50.8539 141.996 50.8539 138.141 53.655L124.735 63.3946C120.88 66.1957 119.267 71.1607 120.739 75.693L125.86 91.452C127.332 95.9843 131.556 99.0528 136.321 99.0528H152.891C157.657 99.0528 161.88 95.9843 163.353 91.452L168.473 75.693ZM151.072 59.1758C147.217 56.3747 141.996 56.3747 138.141 59.1758L129.986 65.1006C126.131 67.9017 124.517 72.8668 125.99 77.399L129.105 86.9856C130.577 91.5178 134.801 94.5864 139.566 94.5864H149.646C154.412 94.5864 158.635 91.5178 160.108 86.9856L163.223 77.399C164.695 72.8668 163.082 67.9017 159.227 65.1007L151.072 59.1758Z" fill="#2A2A2A"/>
<path fill-rule="evenodd" clip-rule="evenodd" d="M138.141 289.484C141.996 286.683 147.217 286.683 151.072 289.484L164.477 299.224C168.333 302.025 169.946 306.99 168.473 311.522L163.353 327.281C161.88 331.814 157.657 334.882 152.891 334.882H136.321C131.556 334.882 127.332 331.814 125.86 327.281L120.739 311.522C119.267 306.99 120.88 302.025 124.735 299.224L138.141 289.484ZM125.99 313.228C124.517 308.696 126.131 303.731 129.986 300.93L138.141 295.005C141.996 292.204 147.217 292.204 151.072 295.005L159.227 300.93C163.082 303.731 164.695 308.696 163.223 313.228L160.108 322.815C158.635 327.347 154.412 330.416 149.646 330.416H139.566C134.801 330.416 130.577 327.347 129.105 322.815L125.99 313.228Z" fill="#2A2A2A"/>
<path fill-rule="evenodd" clip-rule="evenodd" d="M168.473 193.608C169.946 189.075 168.333 184.11 164.477 181.309L151.072 171.57C147.217 168.769 141.996 168.769 138.141 171.57L124.735 181.309C120.88 184.11 119.267 189.075 120.739 193.608L125.86 209.367C127.332 213.899 131.556 216.967 136.321 216.967H152.891C157.657 216.967 161.88 213.899 163.353 209.367L168.473 193.608ZM151.072 177.09C147.217 174.289 141.996 174.289 138.141 177.09L129.986 183.015C126.131 185.816 124.517 190.781 125.99 195.314L129.105 204.9C130.577 209.432 134.801 212.501 139.566 212.501H149.646C154.412 212.501 158.635 209.432 160.108 204.9L163.223 195.314C164.695 190.781 163.082 185.816 159.227 183.015L151.072 177.09Z" fill="#2A2A2A"/>
<path fill-rule="evenodd" clip-rule="evenodd" d="M138.141 407.399C141.996 404.598 147.217 404.598 151.072 407.399L164.477 417.138C168.333 419.939 169.946 424.904 168.473 429.437L163.353 445.196C161.88 449.728 157.657 452.797 152.891 452.797H136.321C131.556 452.797 127.332 449.728 125.86 445.196L120.739 429.437C119.267 424.904 120.88 419.939 124.735 417.138L138.141 407.399ZM125.99 431.143C124.517 426.61 126.131 421.645 129.986 418.844L138.141 412.92C141.996 410.118 147.217 410.118 151.072 412.92L159.227 418.844C163.082 421.645 164.695 426.61 163.223 431.143L160.108 440.729C158.635 445.262 154.412 448.33 149.646 448.33H139.566C134.801 448.33 130.577 445.262 129.105 440.729L125.99 431.143Z" fill="#2A2A2A"/>
<path fill-rule="evenodd" clip-rule="evenodd" d="M168.473 547.351C169.946 542.819 168.333 537.854 164.477 535.053L151.072 525.313C147.217 522.512 141.996 522.512 138.141 525.313L124.735 535.053C120.88 537.854 119.267 542.819 120.739 547.351L125.86 563.111C127.332 567.643 131.556 570.711 136.321 570.711H152.891C157.657 570.711 161.88 567.643 163.353 563.111L168.473 547.351ZM151.072 530.834C147.217 528.033 141.996 528.033 138.141 530.834L129.986 536.759C126.131 539.56 124.517 544.525 125.99 549.058L129.105 558.644C130.577 563.176 134.801 566.245 139.566 566.245H149.646C154.412 566.245 158.635 563.176 160.108 558.644L163.223 549.058C164.695 544.525 163.082 539.56 159.227 536.759L151.072 530.834Z" fill="#2A2A2A"/>
<path fill-rule="evenodd" clip-rule="evenodd" d="M365.037 53.655C368.892 50.8539 374.113 50.8539 377.968 53.655L391.374 63.3946C395.229 66.1957 396.842 71.1607 395.37 75.693L390.249 91.452C388.777 95.9843 384.553 99.0528 379.788 99.0528H363.218C358.452 99.0528 354.229 95.9843 352.756 91.452L347.636 75.693C346.163 71.1607 347.776 66.1957 351.632 63.3946L365.037 53.655ZM352.886 77.399C351.414 72.8668 353.027 67.9017 356.882 65.1007L365.037 59.1758C368.892 56.3747 374.113 56.3747 377.968 59.1758L386.123 65.1006C389.978 67.9017 391.592 72.8668 390.119 77.399L387.004 86.9856C385.532 91.5178 381.308 94.5864 376.543 94.5864H366.463C361.697 94.5864 357.474 91.5178 356.001 86.9856L352.886 77.399Z" fill="#2A2A2A"/>
<path fill-rule="evenodd" clip-rule="evenodd" d="M395.37 311.522C396.842 306.99 395.229 302.025 391.374 299.224L377.968 289.484C374.113 286.683 368.892 286.683 365.037 289.484L351.632 299.224C347.776 302.025 346.163 306.99 347.636 311.522L352.756 327.281C354.229 331.814 358.452 334.882 363.218 334.882H379.788C384.553 334.882 388.777 331.814 390.249 327.281L395.37 311.522ZM377.968 295.005C374.113 292.204 368.892 292.204 365.037 295.005L356.882 300.93C353.027 303.731 351.414 308.696 352.886 313.228L356.001 322.815C357.474 327.347 361.697 330.416 366.463 330.416H376.543C381.308 330.416 385.532 327.347 387.004 322.815L390.119 313.228C391.592 308.696 389.978 303.731 386.123 300.93L377.968 295.005Z" fill="#2A2A2A"/>
<path fill-rule="evenodd" clip-rule="evenodd" d="M365.037 171.57C368.892 168.769 374.113 168.769 377.968 171.57L391.374 181.309C395.229 184.11 396.842 189.075 395.37 193.608L390.249 209.367C388.777 213.899 384.553 216.967 379.788 216.967H363.218C358.452 216.967 354.229 213.899 352.756 209.367L347.636 193.608C346.163 189.075 347.776 184.11 351.632 181.309L365.037 171.57ZM352.886 195.314C351.414 190.781 353.027 185.816 356.882 183.015L365.037 177.09C368.892 174.289 374.113 174.289 377.968 177.09L386.123 183.015C389.978 185.816 391.592 190.781 390.119 195.314L387.004 204.9C385.532 209.432 381.308 212.501 376.543 212.501H366.463C361.697 212.501 357.474 209.432 356.001 204.9L352.886 195.314Z" fill="#2A2A2A"/>
<path fill-rule="evenodd" clip-rule="evenodd" d="M395.37 429.437C396.842 424.904 395.229 419.939 391.374 417.138L377.968 407.399C374.113 404.598 368.892 404.598 365.037 407.399L351.632 417.138C347.776 419.939 346.163 424.904 347.636 429.437L352.756 445.196C354.229 449.728 358.452 452.797 363.218 452.797H379.788C384.553 452.797 388.777 449.728 390.249 445.196L395.37 429.437ZM377.968 412.92C374.113 410.118 368.892 410.118 365.037 412.92L356.882 418.844C353.027 421.645 351.414 426.61 352.886 431.143L356.001 440.729C357.474 445.262 361.697 448.33 366.463 448.33H376.543C381.308 448.33 385.532 445.262 387.004 440.729L390.119 431.143C391.592 426.61 389.978 421.645 386.123 418.844L377.968 412.92Z" fill="#2A2A2A"/>
<path fill-rule="evenodd" clip-rule="evenodd" d="M365.037 525.313C368.892 522.512 374.113 522.512 377.968 525.313L391.374 535.053C395.229 537.854 396.842 542.819 395.37 547.351L390.249 563.111C388.777 567.643 384.553 570.711 379.788 570.711H363.218C358.452 570.711 354.229 567.643 352.756 563.111L347.636 547.351C346.163 542.819 347.776 537.854 351.632 535.053L365.037 525.313ZM352.886 549.058C351.414 544.525 353.027 539.56 356.882 536.759L365.037 530.834C368.892 528.033 374.113 528.033 377.968 530.834L386.123 536.759C389.978 539.56 391.592 544.525 390.119 549.058L387.004 558.644C385.532 563.176 381.308 566.245 376.543 566.245H366.463C361.697 566.245 357.474 563.176 356.001 558.644L352.886 549.058Z" fill="#2A2A2A"/>
</g>
</svg>
