<svg width="345" height="567" viewBox="0 0 345 567" fill="none" xmlns="http://www.w3.org/2000/svg">
<mask id="mask0_25_4570" style="mask-type:alpha" maskUnits="userSpaceOnUse" x="0" y="0" width="345" height="567">
<rect x="0.5" y="0.5" width="344" height="566" fill="#D9D9D9" stroke="#3E3E3E"/>
</mask>
<g mask="url(#mask0_25_4570)">
<path fill-rule="evenodd" clip-rule="evenodd" d="M-65.2629 -125.041L-83.0045 -94.3114L-100.746 -125.041H-65.2629ZM-78.83 -91.9013C-80.6853 -88.6877 -85.3237 -88.6877 -87.179 -91.9013L-104.921 -122.631C-106.776 -125.844 -104.457 -129.861 -100.746 -129.861H-65.2629C-61.5522 -129.861 -59.2331 -125.844 -61.0884 -122.631L-78.83 -91.9013Z" fill="#2B2B2B"/>
<path fill-rule="evenodd" clip-rule="evenodd" d="M88.9866 -125.041L71.2449 -94.3114L53.5033 -125.041H88.9866ZM75.4194 -91.9013C73.5641 -88.6877 68.9258 -88.6877 67.0704 -91.9013L49.3288 -122.631C47.4735 -125.844 49.7927 -129.861 53.5033 -129.861H88.9866C92.6972 -129.861 95.0164 -125.844 93.1611 -122.631L75.4194 -91.9013Z" fill="#2B2B2B"/>
<path fill-rule="evenodd" clip-rule="evenodd" d="M243.236 -125.041L225.494 -94.3114L207.753 -125.041H243.236ZM229.669 -91.9013C227.814 -88.6877 223.175 -88.6877 221.32 -91.9013L203.578 -122.631C201.723 -125.844 204.042 -129.861 207.753 -129.861H243.236C246.947 -129.861 249.266 -125.844 247.411 -122.631L229.669 -91.9013Z" fill="#2B2B2B"/>
<path fill-rule="evenodd" clip-rule="evenodd" d="M397.485 -125.041L379.744 -94.3114L362.002 -125.041H397.485ZM383.918 -91.9013C382.063 -88.6877 377.425 -88.6877 375.569 -91.9013L357.828 -122.631C355.972 -125.844 358.292 -129.861 362.002 -129.861H397.485C401.196 -129.861 403.515 -125.844 401.66 -122.631L383.918 -91.9013Z" fill="#2B2B2B"/>
<path fill-rule="evenodd" clip-rule="evenodd" d="M11.8618 -125.041L-5.87978 -94.3114L-23.6214 -125.041H11.8618ZM-1.70528 -91.9013C-3.56061 -88.6877 -8.19894 -88.6877 -10.0543 -91.9013L-27.7959 -122.631C-29.6512 -125.844 -27.3321 -129.861 -23.6214 -129.861H11.8618C15.5725 -129.861 17.8917 -125.844 16.0363 -122.631L-1.70528 -91.9013Z" fill="#2B2B2B"/>
<path fill-rule="evenodd" clip-rule="evenodd" d="M166.111 -125.041L148.37 -94.3114L130.628 -125.041H166.111ZM152.544 -91.9013C150.689 -88.6877 146.051 -88.6877 144.195 -91.9013L126.454 -122.631C124.598 -125.844 126.917 -129.861 130.628 -129.861H166.111C169.822 -129.861 172.141 -125.844 170.286 -122.631L152.544 -91.9013Z" fill="#2B2B2B"/>
<path fill-rule="evenodd" clip-rule="evenodd" d="M320.361 -125.041L302.619 -94.3114L284.878 -125.041H320.361ZM306.794 -91.9013C304.938 -88.6877 300.3 -88.6877 298.445 -91.9013L280.703 -122.631C278.848 -125.844 281.167 -129.861 284.878 -129.861H320.361C324.071 -129.861 326.391 -125.844 324.535 -122.631L306.794 -91.9013Z" fill="#2B2B2B"/>
<path fill-rule="evenodd" clip-rule="evenodd" d="M474.61 -125.041L456.869 -94.3114L439.127 -125.041H474.61ZM461.043 -91.9013C459.188 -88.6877 454.549 -88.6877 452.694 -91.9013L434.952 -122.631C433.097 -125.844 435.416 -129.861 439.127 -129.861H474.61C478.321 -129.861 480.64 -125.844 478.785 -122.631L461.043 -91.9013Z" fill="#2B2B2B"/>
<path fill-rule="evenodd" clip-rule="evenodd" d="M-26.7005 -92.5041L-44.4421 -123.233L-62.1838 -92.5041H-26.7005ZM-40.2676 -125.644C-42.123 -128.857 -46.7613 -128.857 -48.6166 -125.644L-66.3583 -94.9142C-68.2136 -91.7007 -65.8944 -87.6838 -62.1838 -87.6838H-26.7005C-22.9899 -87.6838 -20.6707 -91.7007 -22.526 -94.9142L-40.2676 -125.644Z" fill="#2B2B2B"/>
<path fill-rule="evenodd" clip-rule="evenodd" d="M127.549 -92.5041L109.807 -123.233L92.0657 -92.5041H127.549ZM113.982 -125.644C112.126 -128.857 107.488 -128.857 105.633 -125.644L87.8912 -94.9142C86.0359 -91.7007 88.355 -87.6838 92.0657 -87.6838H127.549C131.26 -87.6838 133.579 -91.7007 131.723 -94.9142L113.982 -125.644Z" fill="#2B2B2B"/>
<path fill-rule="evenodd" clip-rule="evenodd" d="M281.798 -92.5041L264.057 -123.233L246.315 -92.5041H281.798ZM268.231 -125.644C266.376 -128.857 261.738 -128.857 259.882 -125.644L242.141 -94.9142C240.285 -91.7007 242.605 -87.6838 246.315 -87.6838H281.798C285.509 -87.6838 287.828 -91.7007 285.973 -94.9142L268.231 -125.644Z" fill="#2B2B2B"/>
<path fill-rule="evenodd" clip-rule="evenodd" d="M436.048 -92.5041L418.306 -123.233L400.565 -92.5041H436.048ZM422.481 -125.644C420.625 -128.857 415.987 -128.857 414.132 -125.644L396.39 -94.9142C394.535 -91.7007 396.854 -87.6838 400.565 -87.6838H436.048C439.758 -87.6838 442.078 -91.7007 440.222 -94.9142L422.481 -125.644Z" fill="#2B2B2B"/>
<path fill-rule="evenodd" clip-rule="evenodd" d="M50.4242 -92.5041L32.6826 -123.233L14.941 -92.5041H50.4242ZM36.8571 -125.644C35.0018 -128.857 30.3634 -128.857 28.5081 -125.644L10.7665 -94.9142C8.91114 -91.7007 11.2303 -87.6838 14.941 -87.6838H50.4242C54.1349 -87.6838 56.454 -91.7007 54.5987 -94.9142L36.8571 -125.644Z" fill="#2B2B2B"/>
<path fill-rule="evenodd" clip-rule="evenodd" d="M204.674 -92.5041L186.932 -123.233L169.19 -92.5041H204.674ZM191.107 -125.644C189.251 -128.857 184.613 -128.857 182.758 -125.644L165.016 -94.9142C163.161 -91.7007 165.48 -87.6838 169.19 -87.6838H204.674C208.384 -87.6838 210.703 -91.7007 208.848 -94.9142L191.107 -125.644Z" fill="#2B2B2B"/>
<path fill-rule="evenodd" clip-rule="evenodd" d="M358.923 -92.5041L341.182 -123.233L323.44 -92.5041H358.923ZM345.356 -125.644C343.501 -128.857 338.862 -128.857 337.007 -125.644L319.265 -94.9142C317.41 -91.7007 319.729 -87.6838 323.44 -87.6838H358.923C362.634 -87.6838 364.953 -91.7007 363.098 -94.9142L345.356 -125.644Z" fill="#2B2B2B"/>
<path fill-rule="evenodd" clip-rule="evenodd" d="M513.173 -92.5041L495.431 -123.233L477.689 -92.5041H513.173ZM499.605 -125.644C497.75 -128.857 493.112 -128.857 491.256 -125.644L473.515 -94.9142C471.659 -91.7007 473.979 -87.6838 477.689 -87.6838H513.173C516.883 -87.6838 519.202 -91.7007 517.347 -94.9142L499.605 -125.644Z" fill="#2B2B2B"/>
<path fill-rule="evenodd" clip-rule="evenodd" d="M-65.2629 -44.3012L-83.0045 -75.0306L-100.746 -44.3012H-65.2629ZM-78.83 -77.4407C-80.6853 -80.6543 -85.3237 -80.6543 -87.179 -77.4407L-104.921 -46.7114C-106.776 -43.4978 -104.457 -39.4809 -100.746 -39.4809H-65.2629C-61.5522 -39.4809 -59.2331 -43.4978 -61.0884 -46.7114L-78.83 -77.4407Z" fill="#2B2B2B"/>
<path fill-rule="evenodd" clip-rule="evenodd" d="M-65.2629 355.783L-83.0045 325.054L-100.746 355.783H-65.2629ZM-78.83 322.644C-80.6853 319.43 -85.3237 319.43 -87.179 322.644L-104.921 353.373C-106.776 356.587 -104.457 360.604 -100.746 360.604H-65.2629C-61.5522 360.604 -59.2331 356.587 -61.0884 353.373L-78.83 322.644Z" fill="#2B2B2B"/>
<path fill-rule="evenodd" clip-rule="evenodd" d="M-65.2629 155.741L-83.0045 125.012L-100.746 155.741H-65.2629ZM-78.83 122.602C-80.6853 119.388 -85.3237 119.388 -87.179 122.602L-104.921 153.331C-106.776 156.544 -104.457 160.561 -100.746 160.561H-65.2629C-61.5522 160.561 -59.2331 156.544 -61.0884 153.331L-78.83 122.602Z" fill="#2B2B2B"/>
<path fill-rule="evenodd" clip-rule="evenodd" d="M-65.2629 555.826L-83.0045 525.096L-100.746 555.826H-65.2629ZM-78.83 522.686C-80.6853 519.473 -85.3237 519.473 -87.179 522.686L-104.921 553.415C-106.776 556.629 -104.457 560.646 -100.746 560.646H-65.2629C-61.5522 560.646 -59.2331 556.629 -61.0884 553.415L-78.83 522.686Z" fill="#2B2B2B"/>
<path fill-rule="evenodd" clip-rule="evenodd" d="M-65.2629 56.9252L-83.0045 26.1958L-100.746 56.9252H-65.2629ZM-78.83 23.7857C-80.6853 20.5722 -85.3237 20.5722 -87.179 23.7857L-104.921 54.5151C-106.776 57.7286 -104.457 61.7455 -100.746 61.7455H-65.2629C-61.5522 61.7455 -59.2331 57.7286 -61.0884 54.5151L-78.83 23.7857Z" fill="#2B2B2B"/>
<path fill-rule="evenodd" clip-rule="evenodd" d="M-65.2629 457.01L-83.0045 426.28L-100.746 457.01H-65.2629ZM-78.83 423.87C-80.6853 420.657 -85.3237 420.657 -87.179 423.87L-104.921 454.6C-106.776 457.813 -104.457 461.83 -100.746 461.83H-65.2629C-61.5522 461.83 -59.2331 457.813 -61.0884 454.6L-78.83 423.87Z" fill="#2B2B2B"/>
<path fill-rule="evenodd" clip-rule="evenodd" d="M-65.2629 256.967L-83.0045 226.238L-100.746 256.967H-65.2629ZM-78.83 223.828C-80.6853 220.614 -85.3237 220.614 -87.179 223.828L-104.921 254.557C-106.776 257.771 -104.457 261.788 -100.746 261.788H-65.2629C-61.5522 261.788 -59.2331 257.771 -61.0884 254.557L-78.83 223.828Z" fill="#2B2B2B"/>
<path fill-rule="evenodd" clip-rule="evenodd" d="M-65.2629 657.052L-83.0045 626.323L-100.746 657.052H-65.2629ZM-78.83 623.912C-80.6853 620.699 -85.3237 620.699 -87.179 623.912L-104.921 654.642C-106.776 657.855 -104.457 661.872 -100.746 661.872H-65.2629C-61.5522 661.872 -59.2331 657.855 -61.0884 654.642L-78.83 623.912Z" fill="#2B2B2B"/>
<path fill-rule="evenodd" clip-rule="evenodd" d="M-65.2629 -26.225L-83.0045 4.5044L-100.746 -26.225H-65.2629ZM-78.83 6.91455C-80.6853 10.1281 -85.3237 10.1281 -87.179 6.91455L-104.921 -23.8148C-106.776 -27.0284 -104.457 -31.0453 -100.746 -31.0453H-65.2629C-61.5522 -31.0453 -59.2331 -27.0284 -61.0884 -23.8148L-78.83 6.91455Z" fill="#2B2B2B"/>
<path fill-rule="evenodd" clip-rule="evenodd" d="M-65.2629 373.86L-83.0045 404.589L-100.746 373.86H-65.2629ZM-78.83 406.999C-80.6853 410.213 -85.3237 410.213 -87.179 406.999L-104.921 376.27C-106.776 373.056 -104.457 369.039 -100.746 369.039H-65.2629C-61.5522 369.039 -59.2331 373.056 -61.0884 376.27L-78.83 406.999Z" fill="#2B2B2B"/>
<path fill-rule="evenodd" clip-rule="evenodd" d="M-65.2629 173.817L-83.0045 204.547L-100.746 173.817H-65.2629ZM-78.83 206.957C-80.6853 210.17 -85.3237 210.17 -87.179 206.957L-104.921 176.227C-106.776 173.014 -104.457 168.997 -100.746 168.997H-65.2629C-61.5522 168.997 -59.2331 173.014 -61.0884 176.227L-78.83 206.957Z" fill="#2B2B2B"/>
<path fill-rule="evenodd" clip-rule="evenodd" d="M-65.2629 573.902L-83.0045 604.631L-100.746 573.902H-65.2629ZM-78.83 607.041C-80.6853 610.255 -85.3237 610.255 -87.179 607.041L-104.921 576.312C-106.776 573.098 -104.457 569.082 -100.746 569.082H-65.2629C-61.5522 569.082 -59.2331 573.098 -61.0884 576.312L-78.83 607.041Z" fill="#2B2B2B"/>
<path fill-rule="evenodd" clip-rule="evenodd" d="M-65.2629 75.0012L-83.0045 105.731L-100.746 75.0012H-65.2629ZM-78.83 108.141C-80.6853 111.354 -85.3237 111.354 -87.179 108.141L-104.921 77.4113C-106.776 74.1978 -104.457 70.1809 -100.746 70.1809H-65.2629C-61.5522 70.1809 -59.2331 74.1978 -61.0884 77.4113L-78.83 108.141Z" fill="#2B2B2B"/>
<path fill-rule="evenodd" clip-rule="evenodd" d="M-65.2629 475.086L-83.0045 505.815L-100.746 475.086H-65.2629ZM-78.83 508.225C-80.6853 511.439 -85.3237 511.439 -87.179 508.225L-104.921 477.496C-106.776 474.282 -104.457 470.265 -100.746 470.265H-65.2629C-61.5522 470.265 -59.2331 474.282 -61.0884 477.496L-78.83 508.225Z" fill="#2B2B2B"/>
<path fill-rule="evenodd" clip-rule="evenodd" d="M-65.2629 275.043L-83.0045 305.773L-100.746 275.043H-65.2629ZM-78.83 308.183C-80.6853 311.396 -85.3237 311.396 -87.179 308.183L-104.921 277.454C-106.776 274.24 -104.457 270.223 -100.746 270.223H-65.2629C-61.5522 270.223 -59.2331 274.24 -61.0884 277.454L-78.83 308.183Z" fill="#2B2B2B"/>
<path fill-rule="evenodd" clip-rule="evenodd" d="M-65.2629 675.128L-83.0045 705.858L-100.746 675.128H-65.2629ZM-78.83 708.268C-80.6853 711.481 -85.3237 711.481 -87.179 708.268L-104.921 677.538C-106.776 674.325 -104.457 670.308 -100.746 670.308H-65.2629C-61.5522 670.308 -59.2331 674.325 -61.0884 677.538L-78.83 708.268Z" fill="#2B2B2B"/>
<path fill-rule="evenodd" clip-rule="evenodd" d="M88.9866 -44.3012L71.2449 -75.0306L53.5033 -44.3012H88.9866ZM75.4194 -77.4407C73.5641 -80.6543 68.9258 -80.6543 67.0704 -77.4407L49.3288 -46.7114C47.4735 -43.4978 49.7927 -39.4809 53.5033 -39.4809H88.9866C92.6972 -39.4809 95.0164 -43.4978 93.1611 -46.7114L75.4194 -77.4407Z" fill="#2B2B2B"/>
<path fill-rule="evenodd" clip-rule="evenodd" d="M88.9866 355.783L71.2449 325.054L53.5033 355.783H88.9866ZM75.4194 322.644C73.5641 319.43 68.9258 319.43 67.0704 322.644L49.3288 353.373C47.4735 356.587 49.7927 360.604 53.5033 360.604H88.9866C92.6972 360.604 95.0164 356.587 93.1611 353.373L75.4194 322.644Z" fill="#2B2B2B"/>
<path fill-rule="evenodd" clip-rule="evenodd" d="M88.9866 155.741L71.2449 125.012L53.5033 155.741H88.9866ZM75.4194 122.602C73.5641 119.388 68.9258 119.388 67.0704 122.602L49.3288 153.331C47.4735 156.544 49.7927 160.561 53.5033 160.561H88.9866C92.6972 160.561 95.0164 156.544 93.1611 153.331L75.4194 122.602Z" fill="#2B2B2B"/>
<path fill-rule="evenodd" clip-rule="evenodd" d="M88.9866 555.826L71.2449 525.096L53.5033 555.826H88.9866ZM75.4194 522.686C73.5641 519.473 68.9258 519.473 67.0704 522.686L49.3288 553.415C47.4735 556.629 49.7927 560.646 53.5033 560.646H88.9866C92.6972 560.646 95.0164 556.629 93.1611 553.415L75.4194 522.686Z" fill="#2B2B2B"/>
<path fill-rule="evenodd" clip-rule="evenodd" d="M88.9866 56.9252L71.2449 26.1958L53.5033 56.9252H88.9866ZM75.4194 23.7857C73.5641 20.5722 68.9258 20.5722 67.0704 23.7857L49.3288 54.5151C47.4735 57.7286 49.7927 61.7455 53.5033 61.7455H88.9866C92.6972 61.7455 95.0164 57.7286 93.1611 54.5151L75.4194 23.7857Z" fill="#2B2B2B"/>
<path fill-rule="evenodd" clip-rule="evenodd" d="M88.9866 457.01L71.2449 426.28L53.5033 457.01H88.9866ZM75.4194 423.87C73.5641 420.657 68.9258 420.657 67.0704 423.87L49.3288 454.6C47.4735 457.813 49.7927 461.83 53.5033 461.83H88.9866C92.6972 461.83 95.0164 457.813 93.1611 454.6L75.4194 423.87Z" fill="#2B2B2B"/>
<path fill-rule="evenodd" clip-rule="evenodd" d="M88.9866 256.967L71.2449 226.238L53.5033 256.967H88.9866ZM75.4194 223.828C73.5641 220.614 68.9258 220.614 67.0704 223.828L49.3288 254.557C47.4735 257.771 49.7927 261.788 53.5033 261.788H88.9866C92.6972 261.788 95.0164 257.771 93.1611 254.557L75.4194 223.828Z" fill="#2B2B2B"/>
<path fill-rule="evenodd" clip-rule="evenodd" d="M88.9866 657.052L71.2449 626.323L53.5033 657.052H88.9866ZM75.4194 623.912C73.5641 620.699 68.9258 620.699 67.0704 623.912L49.3288 654.642C47.4735 657.855 49.7927 661.872 53.5033 661.872H88.9866C92.6972 661.872 95.0164 657.855 93.1611 654.642L75.4194 623.912Z" fill="#2B2B2B"/>
<path fill-rule="evenodd" clip-rule="evenodd" d="M88.9866 -26.225L71.2449 4.5044L53.5033 -26.225H88.9866ZM75.4194 6.91455C73.5641 10.1281 68.9258 10.1281 67.0704 6.91455L49.3288 -23.8148C47.4735 -27.0284 49.7927 -31.0453 53.5033 -31.0453H88.9866C92.6972 -31.0453 95.0164 -27.0284 93.1611 -23.8148L75.4194 6.91455Z" fill="#2B2B2B"/>
<path fill-rule="evenodd" clip-rule="evenodd" d="M88.9866 373.86L71.2449 404.589L53.5033 373.86H88.9866ZM75.4194 406.999C73.5641 410.213 68.9258 410.213 67.0704 406.999L49.3288 376.27C47.4735 373.056 49.7927 369.039 53.5033 369.039H88.9866C92.6972 369.039 95.0164 373.056 93.1611 376.27L75.4194 406.999Z" fill="#2B2B2B"/>
<path fill-rule="evenodd" clip-rule="evenodd" d="M88.9866 173.817L71.2449 204.547L53.5033 173.817H88.9866ZM75.4194 206.957C73.5641 210.17 68.9258 210.17 67.0704 206.957L49.3288 176.227C47.4735 173.014 49.7927 168.997 53.5033 168.997H88.9866C92.6972 168.997 95.0164 173.014 93.1611 176.227L75.4194 206.957Z" fill="#2B2B2B"/>
<path fill-rule="evenodd" clip-rule="evenodd" d="M88.9866 573.902L71.2449 604.631L53.5033 573.902H88.9866ZM75.4194 607.041C73.5641 610.255 68.9258 610.255 67.0704 607.041L49.3288 576.312C47.4735 573.098 49.7927 569.082 53.5033 569.082H88.9866C92.6972 569.082 95.0164 573.098 93.1611 576.312L75.4194 607.041Z" fill="#2B2B2B"/>
<path fill-rule="evenodd" clip-rule="evenodd" d="M88.9866 75.0012L71.2449 105.731L53.5033 75.0012H88.9866ZM75.4194 108.141C73.5641 111.354 68.9258 111.354 67.0704 108.141L49.3288 77.4113C47.4735 74.1978 49.7927 70.1809 53.5033 70.1809H88.9866C92.6972 70.1809 95.0164 74.1978 93.1611 77.4113L75.4194 108.141Z" fill="#2B2B2B"/>
<path fill-rule="evenodd" clip-rule="evenodd" d="M88.9866 475.086L71.2449 505.815L53.5033 475.086H88.9866ZM75.4194 508.225C73.5641 511.439 68.9258 511.439 67.0704 508.225L49.3288 477.496C47.4735 474.282 49.7927 470.265 53.5033 470.265H88.9866C92.6972 470.265 95.0164 474.282 93.1611 477.496L75.4194 508.225Z" fill="#2B2B2B"/>
<path fill-rule="evenodd" clip-rule="evenodd" d="M88.9866 275.043L71.2449 305.773L53.5033 275.043H88.9866ZM75.4194 308.183C73.5641 311.396 68.9258 311.396 67.0704 308.183L49.3288 277.454C47.4735 274.24 49.7927 270.223 53.5033 270.223H88.9866C92.6972 270.223 95.0164 274.24 93.1611 277.454L75.4194 308.183Z" fill="#2B2B2B"/>
<path fill-rule="evenodd" clip-rule="evenodd" d="M88.9866 675.128L71.2449 705.858L53.5033 675.128H88.9866ZM75.4194 708.268C73.5641 711.481 68.9258 711.481 67.0704 708.268L49.3288 677.538C47.4735 674.325 49.7927 670.308 53.5033 670.308H88.9866C92.6972 670.308 95.0164 674.325 93.1611 677.538L75.4194 708.268Z" fill="#2B2B2B"/>
<path fill-rule="evenodd" clip-rule="evenodd" d="M243.236 -44.3012L225.494 -75.0306L207.753 -44.3012H243.236ZM229.669 -77.4407C227.814 -80.6543 223.175 -80.6543 221.32 -77.4407L203.578 -46.7114C201.723 -43.4978 204.042 -39.4809 207.753 -39.4809H243.236C246.947 -39.4809 249.266 -43.4978 247.411 -46.7114L229.669 -77.4407Z" fill="#2B2B2B"/>
<path fill-rule="evenodd" clip-rule="evenodd" d="M243.236 355.783L225.494 325.054L207.753 355.783H243.236ZM229.669 322.644C227.814 319.43 223.175 319.43 221.32 322.644L203.578 353.373C201.723 356.587 204.042 360.604 207.753 360.604H243.236C246.947 360.604 249.266 356.587 247.411 353.373L229.669 322.644Z" fill="#2B2B2B"/>
<path fill-rule="evenodd" clip-rule="evenodd" d="M243.236 155.741L225.494 125.012L207.753 155.741H243.236ZM229.669 122.602C227.814 119.388 223.175 119.388 221.32 122.602L203.578 153.331C201.723 156.544 204.042 160.561 207.753 160.561H243.236C246.947 160.561 249.266 156.544 247.411 153.331L229.669 122.602Z" fill="#2B2B2B"/>
<path fill-rule="evenodd" clip-rule="evenodd" d="M243.236 555.826L225.494 525.096L207.753 555.826H243.236ZM229.669 522.686C227.814 519.473 223.175 519.473 221.32 522.686L203.578 553.415C201.723 556.629 204.042 560.646 207.753 560.646H243.236C246.947 560.646 249.266 556.629 247.411 553.415L229.669 522.686Z" fill="#2B2B2B"/>
<path fill-rule="evenodd" clip-rule="evenodd" d="M243.236 56.9252L225.494 26.1958L207.753 56.9252H243.236ZM229.669 23.7857C227.814 20.5722 223.175 20.5722 221.32 23.7857L203.578 54.5151C201.723 57.7286 204.042 61.7455 207.753 61.7455H243.236C246.947 61.7455 249.266 57.7286 247.411 54.5151L229.669 23.7857Z" fill="#2B2B2B"/>
<path fill-rule="evenodd" clip-rule="evenodd" d="M243.236 457.01L225.494 426.28L207.753 457.01H243.236ZM229.669 423.87C227.814 420.657 223.175 420.657 221.32 423.87L203.578 454.6C201.723 457.813 204.042 461.83 207.753 461.83H243.236C246.947 461.83 249.266 457.813 247.411 454.6L229.669 423.87Z" fill="#2B2B2B"/>
<path fill-rule="evenodd" clip-rule="evenodd" d="M243.236 256.967L225.494 226.238L207.753 256.967H243.236ZM229.669 223.828C227.814 220.614 223.175 220.614 221.32 223.828L203.578 254.557C201.723 257.771 204.042 261.788 207.753 261.788H243.236C246.947 261.788 249.266 257.771 247.411 254.557L229.669 223.828Z" fill="#2B2B2B"/>
<path fill-rule="evenodd" clip-rule="evenodd" d="M243.236 657.052L225.494 626.323L207.753 657.052H243.236ZM229.669 623.912C227.814 620.699 223.175 620.699 221.32 623.912L203.578 654.642C201.723 657.855 204.042 661.872 207.753 661.872H243.236C246.947 661.872 249.266 657.855 247.411 654.642L229.669 623.912Z" fill="#2B2B2B"/>
<path fill-rule="evenodd" clip-rule="evenodd" d="M243.236 -26.225L225.494 4.5044L207.753 -26.225H243.236ZM229.669 6.91455C227.814 10.1281 223.175 10.1281 221.32 6.91455L203.578 -23.8148C201.723 -27.0284 204.042 -31.0453 207.753 -31.0453H243.236C246.947 -31.0453 249.266 -27.0284 247.411 -23.8148L229.669 6.91455Z" fill="#2B2B2B"/>
<path fill-rule="evenodd" clip-rule="evenodd" d="M243.236 373.86L225.494 404.589L207.753 373.86H243.236ZM229.669 406.999C227.814 410.213 223.175 410.213 221.32 406.999L203.578 376.27C201.723 373.056 204.042 369.039 207.753 369.039H243.236C246.947 369.039 249.266 373.056 247.411 376.27L229.669 406.999Z" fill="#2B2B2B"/>
<path fill-rule="evenodd" clip-rule="evenodd" d="M243.236 173.817L225.494 204.547L207.753 173.817H243.236ZM229.669 206.957C227.814 210.17 223.175 210.17 221.32 206.957L203.578 176.227C201.723 173.014 204.042 168.997 207.753 168.997H243.236C246.947 168.997 249.266 173.014 247.411 176.227L229.669 206.957Z" fill="#2B2B2B"/>
<path fill-rule="evenodd" clip-rule="evenodd" d="M243.236 573.902L225.494 604.631L207.753 573.902H243.236ZM229.669 607.041C227.814 610.255 223.175 610.255 221.32 607.041L203.578 576.312C201.723 573.098 204.042 569.082 207.753 569.082H243.236C246.947 569.082 249.266 573.098 247.411 576.312L229.669 607.041Z" fill="#2B2B2B"/>
<path fill-rule="evenodd" clip-rule="evenodd" d="M243.236 75.0012L225.494 105.731L207.753 75.0012H243.236ZM229.669 108.141C227.814 111.354 223.175 111.354 221.32 108.141L203.578 77.4113C201.723 74.1978 204.042 70.1809 207.753 70.1809H243.236C246.947 70.1809 249.266 74.1978 247.411 77.4113L229.669 108.141Z" fill="#2B2B2B"/>
<path fill-rule="evenodd" clip-rule="evenodd" d="M243.236 475.086L225.494 505.815L207.753 475.086H243.236ZM229.669 508.225C227.814 511.439 223.175 511.439 221.32 508.225L203.578 477.496C201.723 474.282 204.042 470.265 207.753 470.265H243.236C246.947 470.265 249.266 474.282 247.411 477.496L229.669 508.225Z" fill="#2B2B2B"/>
<path fill-rule="evenodd" clip-rule="evenodd" d="M243.236 275.043L225.494 305.773L207.753 275.043H243.236ZM229.669 308.183C227.814 311.396 223.175 311.396 221.32 308.183L203.578 277.454C201.723 274.24 204.042 270.223 207.753 270.223H243.236C246.947 270.223 249.266 274.24 247.411 277.454L229.669 308.183Z" fill="#2B2B2B"/>
<path fill-rule="evenodd" clip-rule="evenodd" d="M243.236 675.128L225.494 705.858L207.753 675.128H243.236ZM229.669 708.268C227.814 711.481 223.175 711.481 221.32 708.268L203.578 677.538C201.723 674.325 204.042 670.308 207.753 670.308H243.236C246.947 670.308 249.266 674.325 247.411 677.538L229.669 708.268Z" fill="#2B2B2B"/>
<path fill-rule="evenodd" clip-rule="evenodd" d="M397.485 -44.3012L379.744 -75.0306L362.002 -44.3012H397.485ZM383.918 -77.4407C382.063 -80.6543 377.425 -80.6543 375.569 -77.4407L357.828 -46.7114C355.972 -43.4978 358.292 -39.4809 362.002 -39.4809H397.485C401.196 -39.4809 403.515 -43.4978 401.66 -46.7114L383.918 -77.4407Z" fill="#2B2B2B"/>
<path fill-rule="evenodd" clip-rule="evenodd" d="M397.485 355.783L379.744 325.054L362.002 355.783H397.485ZM383.918 322.644C382.063 319.43 377.425 319.43 375.569 322.644L357.828 353.373C355.972 356.587 358.292 360.604 362.002 360.604H397.485C401.196 360.604 403.515 356.587 401.66 353.373L383.918 322.644Z" fill="#2B2B2B"/>
<path fill-rule="evenodd" clip-rule="evenodd" d="M397.485 155.741L379.744 125.012L362.002 155.741H397.485ZM383.918 122.602C382.063 119.388 377.425 119.388 375.569 122.602L357.828 153.331C355.972 156.544 358.292 160.561 362.002 160.561H397.485C401.196 160.561 403.515 156.544 401.66 153.331L383.918 122.602Z" fill="#2B2B2B"/>
<path fill-rule="evenodd" clip-rule="evenodd" d="M397.485 555.826L379.744 525.096L362.002 555.826H397.485ZM383.918 522.686C382.063 519.473 377.425 519.473 375.569 522.686L357.828 553.415C355.972 556.629 358.292 560.646 362.002 560.646H397.485C401.196 560.646 403.515 556.629 401.66 553.415L383.918 522.686Z" fill="#2B2B2B"/>
<path fill-rule="evenodd" clip-rule="evenodd" d="M397.485 56.9252L379.744 26.1958L362.002 56.9252H397.485ZM383.918 23.7857C382.063 20.5722 377.425 20.5722 375.569 23.7857L357.828 54.5151C355.972 57.7286 358.292 61.7455 362.002 61.7455H397.485C401.196 61.7455 403.515 57.7286 401.66 54.5151L383.918 23.7857Z" fill="#2B2B2B"/>
<path fill-rule="evenodd" clip-rule="evenodd" d="M397.485 457.01L379.744 426.28L362.002 457.01H397.485ZM383.918 423.87C382.063 420.657 377.425 420.657 375.569 423.87L357.828 454.6C355.972 457.813 358.292 461.83 362.002 461.83H397.485C401.196 461.83 403.515 457.813 401.66 454.6L383.918 423.87Z" fill="#2B2B2B"/>
<path fill-rule="evenodd" clip-rule="evenodd" d="M397.485 256.967L379.744 226.238L362.002 256.967H397.485ZM383.918 223.828C382.063 220.614 377.425 220.614 375.569 223.828L357.828 254.557C355.972 257.771 358.292 261.788 362.002 261.788H397.485C401.196 261.788 403.515 257.771 401.66 254.557L383.918 223.828Z" fill="#2B2B2B"/>
<path fill-rule="evenodd" clip-rule="evenodd" d="M397.485 657.052L379.744 626.323L362.002 657.052H397.485ZM383.918 623.912C382.063 620.699 377.425 620.699 375.569 623.912L357.828 654.642C355.972 657.855 358.292 661.872 362.002 661.872H397.485C401.196 661.872 403.515 657.855 401.66 654.642L383.918 623.912Z" fill="#2B2B2B"/>
<path fill-rule="evenodd" clip-rule="evenodd" d="M397.485 -26.225L379.744 4.5044L362.002 -26.225H397.485ZM383.918 6.91455C382.063 10.1281 377.425 10.1281 375.569 6.91455L357.828 -23.8148C355.972 -27.0284 358.292 -31.0453 362.002 -31.0453H397.485C401.196 -31.0453 403.515 -27.0284 401.66 -23.8148L383.918 6.91455Z" fill="#2B2B2B"/>
<path fill-rule="evenodd" clip-rule="evenodd" d="M397.485 373.86L379.744 404.589L362.002 373.86H397.485ZM383.918 406.999C382.063 410.213 377.425 410.213 375.569 406.999L357.828 376.27C355.972 373.056 358.292 369.039 362.002 369.039H397.485C401.196 369.039 403.515 373.056 401.66 376.27L383.918 406.999Z" fill="#2B2B2B"/>
<path fill-rule="evenodd" clip-rule="evenodd" d="M397.485 173.817L379.744 204.547L362.002 173.817H397.485ZM383.918 206.957C382.063 210.17 377.425 210.17 375.569 206.957L357.828 176.227C355.972 173.014 358.292 168.997 362.002 168.997H397.485C401.196 168.997 403.515 173.014 401.66 176.227L383.918 206.957Z" fill="#2B2B2B"/>
<path fill-rule="evenodd" clip-rule="evenodd" d="M397.485 573.902L379.744 604.631L362.002 573.902H397.485ZM383.918 607.041C382.063 610.255 377.425 610.255 375.569 607.041L357.828 576.312C355.972 573.098 358.292 569.082 362.002 569.082H397.485C401.196 569.082 403.515 573.098 401.66 576.312L383.918 607.041Z" fill="#2B2B2B"/>
<path fill-rule="evenodd" clip-rule="evenodd" d="M397.485 75.0012L379.744 105.731L362.002 75.0012H397.485ZM383.918 108.141C382.063 111.354 377.425 111.354 375.569 108.141L357.828 77.4113C355.972 74.1978 358.292 70.1809 362.002 70.1809H397.485C401.196 70.1809 403.515 74.1978 401.66 77.4113L383.918 108.141Z" fill="#2B2B2B"/>
<path fill-rule="evenodd" clip-rule="evenodd" d="M397.485 475.086L379.744 505.815L362.002 475.086H397.485ZM383.918 508.225C382.063 511.439 377.425 511.439 375.569 508.225L357.828 477.496C355.972 474.282 358.292 470.265 362.002 470.265H397.485C401.196 470.265 403.515 474.282 401.66 477.496L383.918 508.225Z" fill="#2B2B2B"/>
<path fill-rule="evenodd" clip-rule="evenodd" d="M397.485 275.043L379.744 305.773L362.002 275.043H397.485ZM383.918 308.183C382.063 311.396 377.425 311.396 375.569 308.183L357.828 277.454C355.972 274.24 358.292 270.223 362.002 270.223H397.485C401.196 270.223 403.515 274.24 401.66 277.454L383.918 308.183Z" fill="#2B2B2B"/>
<path fill-rule="evenodd" clip-rule="evenodd" d="M397.485 675.128L379.744 705.858L362.002 675.128H397.485ZM383.918 708.268C382.063 711.481 377.425 711.481 375.569 708.268L357.828 677.538C355.972 674.325 358.292 670.308 362.002 670.308H397.485C401.196 670.308 403.515 674.325 401.66 677.538L383.918 708.268Z" fill="#2B2B2B"/>
<path fill-rule="evenodd" clip-rule="evenodd" d="M11.8618 -44.3012L-5.87978 -75.0306L-23.6214 -44.3012H11.8618ZM-1.70528 -77.4407C-3.56061 -80.6543 -8.19894 -80.6543 -10.0543 -77.4407L-27.7959 -46.7114C-29.6512 -43.4978 -27.3321 -39.4809 -23.6214 -39.4809H11.8618C15.5725 -39.4809 17.8917 -43.4978 16.0363 -46.7114L-1.70528 -77.4407Z" fill="#2B2B2B"/>
<path fill-rule="evenodd" clip-rule="evenodd" d="M11.8618 355.783L-5.87978 325.054L-23.6214 355.783H11.8618ZM-1.70528 322.644C-3.56061 319.43 -8.19894 319.43 -10.0543 322.644L-27.7959 353.373C-29.6512 356.587 -27.3321 360.604 -23.6214 360.604H11.8618C15.5725 360.604 17.8917 356.587 16.0363 353.373L-1.70528 322.644Z" fill="#2B2B2B"/>
<path fill-rule="evenodd" clip-rule="evenodd" d="M11.8618 155.741L-5.87978 125.012L-23.6214 155.741H11.8618ZM-1.70528 122.602C-3.56061 119.388 -8.19894 119.388 -10.0543 122.602L-27.7959 153.331C-29.6512 156.544 -27.3321 160.561 -23.6214 160.561H11.8618C15.5725 160.561 17.8917 156.544 16.0363 153.331L-1.70528 122.602Z" fill="#2B2B2B"/>
<path fill-rule="evenodd" clip-rule="evenodd" d="M11.8618 555.826L-5.87978 525.096L-23.6214 555.826H11.8618ZM-1.70528 522.686C-3.56061 519.473 -8.19894 519.473 -10.0543 522.686L-27.7959 553.415C-29.6512 556.629 -27.3321 560.646 -23.6214 560.646H11.8618C15.5725 560.646 17.8917 556.629 16.0363 553.415L-1.70528 522.686Z" fill="#2B2B2B"/>
<path fill-rule="evenodd" clip-rule="evenodd" d="M11.8618 56.9252L-5.87978 26.1958L-23.6214 56.9252H11.8618ZM-1.70528 23.7857C-3.56061 20.5722 -8.19894 20.5722 -10.0543 23.7857L-27.7959 54.5151C-29.6512 57.7286 -27.3321 61.7455 -23.6214 61.7455H11.8618C15.5725 61.7455 17.8917 57.7286 16.0363 54.5151L-1.70528 23.7857Z" fill="#2B2B2B"/>
<path fill-rule="evenodd" clip-rule="evenodd" d="M11.8618 457.01L-5.87978 426.28L-23.6214 457.01H11.8618ZM-1.70528 423.87C-3.56061 420.657 -8.19894 420.657 -10.0543 423.87L-27.7959 454.6C-29.6512 457.813 -27.3321 461.83 -23.6214 461.83H11.8618C15.5725 461.83 17.8917 457.813 16.0363 454.6L-1.70528 423.87Z" fill="#2B2B2B"/>
<path fill-rule="evenodd" clip-rule="evenodd" d="M11.8618 256.967L-5.87978 226.238L-23.6214 256.967H11.8618ZM-1.70528 223.828C-3.56061 220.614 -8.19894 220.614 -10.0543 223.828L-27.7959 254.557C-29.6512 257.771 -27.3321 261.788 -23.6214 261.788H11.8618C15.5725 261.788 17.8917 257.771 16.0363 254.557L-1.70528 223.828Z" fill="#2B2B2B"/>
<path fill-rule="evenodd" clip-rule="evenodd" d="M11.8618 657.052L-5.87978 626.323L-23.6214 657.052H11.8618ZM-1.70528 623.912C-3.56061 620.699 -8.19894 620.699 -10.0543 623.912L-27.7959 654.642C-29.6512 657.855 -27.3321 661.872 -23.6214 661.872H11.8618C15.5725 661.872 17.8917 657.855 16.0363 654.642L-1.70528 623.912Z" fill="#2B2B2B"/>
<path fill-rule="evenodd" clip-rule="evenodd" d="M11.8618 -26.225L-5.87978 4.5044L-23.6214 -26.225H11.8618ZM-1.70528 6.91455C-3.56061 10.1281 -8.19894 10.1281 -10.0543 6.91455L-27.7959 -23.8148C-29.6512 -27.0284 -27.3321 -31.0453 -23.6214 -31.0453H11.8618C15.5725 -31.0453 17.8917 -27.0284 16.0363 -23.8148L-1.70528 6.91455Z" fill="#2B2B2B"/>
<path fill-rule="evenodd" clip-rule="evenodd" d="M11.8618 373.86L-5.87978 404.589L-23.6214 373.86H11.8618ZM-1.70528 406.999C-3.56061 410.213 -8.19894 410.213 -10.0543 406.999L-27.7959 376.27C-29.6512 373.056 -27.3321 369.039 -23.6214 369.039H11.8618C15.5725 369.039 17.8917 373.056 16.0363 376.27L-1.70528 406.999Z" fill="#2B2B2B"/>
<path fill-rule="evenodd" clip-rule="evenodd" d="M11.8618 173.817L-5.87978 204.547L-23.6214 173.817H11.8618ZM-1.70528 206.957C-3.56061 210.17 -8.19894 210.17 -10.0543 206.957L-27.7959 176.227C-29.6512 173.014 -27.3321 168.997 -23.6214 168.997H11.8618C15.5725 168.997 17.8917 173.014 16.0363 176.227L-1.70528 206.957Z" fill="#2B2B2B"/>
<path fill-rule="evenodd" clip-rule="evenodd" d="M11.8618 573.902L-5.87978 604.631L-23.6214 573.902H11.8618ZM-1.70528 607.041C-3.56061 610.255 -8.19894 610.255 -10.0543 607.041L-27.7959 576.312C-29.6512 573.098 -27.3321 569.082 -23.6214 569.082H11.8618C15.5725 569.082 17.8917 573.098 16.0363 576.312L-1.70528 607.041Z" fill="#2B2B2B"/>
<path fill-rule="evenodd" clip-rule="evenodd" d="M11.8618 75.0012L-5.87978 105.731L-23.6214 75.0012H11.8618ZM-1.70528 108.141C-3.56061 111.354 -8.19894 111.354 -10.0543 108.141L-27.7959 77.4113C-29.6512 74.1978 -27.3321 70.1809 -23.6214 70.1809H11.8618C15.5725 70.1809 17.8917 74.1978 16.0363 77.4113L-1.70528 108.141Z" fill="#2B2B2B"/>
<path fill-rule="evenodd" clip-rule="evenodd" d="M11.8618 475.086L-5.87978 505.815L-23.6214 475.086H11.8618ZM-1.70528 508.225C-3.56061 511.439 -8.19894 511.439 -10.0543 508.225L-27.7959 477.496C-29.6512 474.282 -27.3321 470.265 -23.6214 470.265H11.8618C15.5725 470.265 17.8917 474.282 16.0363 477.496L-1.70528 508.225Z" fill="#2B2B2B"/>
<path fill-rule="evenodd" clip-rule="evenodd" d="M11.8618 275.043L-5.87978 305.773L-23.6214 275.043H11.8618ZM-1.70528 308.183C-3.56061 311.396 -8.19894 311.396 -10.0543 308.183L-27.7959 277.454C-29.6512 274.24 -27.3321 270.223 -23.6214 270.223H11.8618C15.5725 270.223 17.8917 274.24 16.0363 277.454L-1.70528 308.183Z" fill="#2B2B2B"/>
<path fill-rule="evenodd" clip-rule="evenodd" d="M11.8618 675.128L-5.87978 705.858L-23.6214 675.128H11.8618ZM-1.70528 708.268C-3.56061 711.481 -8.19894 711.481 -10.0543 708.268L-27.7959 677.538C-29.6512 674.325 -27.3321 670.308 -23.6214 670.308H11.8618C15.5725 670.308 17.8917 674.325 16.0363 677.538L-1.70528 708.268Z" fill="#2B2B2B"/>
<path fill-rule="evenodd" clip-rule="evenodd" d="M166.111 -44.3012L148.37 -75.0306L130.628 -44.3012H166.111ZM152.544 -77.4407C150.689 -80.6543 146.051 -80.6543 144.195 -77.4407L126.454 -46.7114C124.598 -43.4978 126.917 -39.4809 130.628 -39.4809H166.111C169.822 -39.4809 172.141 -43.4978 170.286 -46.7114L152.544 -77.4407Z" fill="#2B2B2B"/>
<path fill-rule="evenodd" clip-rule="evenodd" d="M166.111 355.783L148.37 325.054L130.628 355.783H166.111ZM152.544 322.644C150.689 319.43 146.051 319.43 144.195 322.644L126.454 353.373C124.598 356.587 126.917 360.604 130.628 360.604H166.111C169.822 360.604 172.141 356.587 170.286 353.373L152.544 322.644Z" fill="#2B2B2B"/>
<path fill-rule="evenodd" clip-rule="evenodd" d="M166.111 155.741L148.37 125.012L130.628 155.741H166.111ZM152.544 122.602C150.689 119.388 146.051 119.388 144.195 122.602L126.454 153.331C124.598 156.544 126.917 160.561 130.628 160.561H166.111C169.822 160.561 172.141 156.544 170.286 153.331L152.544 122.602Z" fill="#2B2B2B"/>
<path fill-rule="evenodd" clip-rule="evenodd" d="M166.111 555.826L148.37 525.096L130.628 555.826H166.111ZM152.544 522.686C150.689 519.473 146.051 519.473 144.195 522.686L126.454 553.415C124.598 556.629 126.917 560.646 130.628 560.646H166.111C169.822 560.646 172.141 556.629 170.286 553.415L152.544 522.686Z" fill="#2B2B2B"/>
<path fill-rule="evenodd" clip-rule="evenodd" d="M166.111 56.9252L148.37 26.1958L130.628 56.9252H166.111ZM152.544 23.7857C150.689 20.5722 146.051 20.5722 144.195 23.7857L126.454 54.5151C124.598 57.7286 126.917 61.7455 130.628 61.7455H166.111C169.822 61.7455 172.141 57.7286 170.286 54.5151L152.544 23.7857Z" fill="#2B2B2B"/>
<path fill-rule="evenodd" clip-rule="evenodd" d="M166.111 457.01L148.37 426.28L130.628 457.01H166.111ZM152.544 423.87C150.689 420.657 146.051 420.657 144.195 423.87L126.454 454.6C124.598 457.813 126.917 461.83 130.628 461.83H166.111C169.822 461.83 172.141 457.813 170.286 454.6L152.544 423.87Z" fill="#2B2B2B"/>
<path fill-rule="evenodd" clip-rule="evenodd" d="M166.111 256.967L148.37 226.238L130.628 256.967H166.111ZM152.544 223.828C150.689 220.614 146.051 220.614 144.195 223.828L126.454 254.557C124.598 257.771 126.917 261.788 130.628 261.788H166.111C169.822 261.788 172.141 257.771 170.286 254.557L152.544 223.828Z" fill="#2B2B2B"/>
<path fill-rule="evenodd" clip-rule="evenodd" d="M166.111 657.052L148.37 626.323L130.628 657.052H166.111ZM152.544 623.912C150.689 620.699 146.051 620.699 144.195 623.912L126.454 654.642C124.598 657.855 126.917 661.872 130.628 661.872H166.111C169.822 661.872 172.141 657.855 170.286 654.642L152.544 623.912Z" fill="#2B2B2B"/>
<path fill-rule="evenodd" clip-rule="evenodd" d="M166.111 -26.225L148.37 4.5044L130.628 -26.225H166.111ZM152.544 6.91455C150.689 10.1281 146.051 10.1281 144.195 6.91455L126.454 -23.8148C124.598 -27.0284 126.917 -31.0453 130.628 -31.0453H166.111C169.822 -31.0453 172.141 -27.0284 170.286 -23.8148L152.544 6.91455Z" fill="#2B2B2B"/>
<path fill-rule="evenodd" clip-rule="evenodd" d="M166.111 373.86L148.37 404.589L130.628 373.86H166.111ZM152.544 406.999C150.689 410.213 146.051 410.213 144.195 406.999L126.454 376.27C124.598 373.056 126.917 369.039 130.628 369.039H166.111C169.822 369.039 172.141 373.056 170.286 376.27L152.544 406.999Z" fill="#2B2B2B"/>
<path fill-rule="evenodd" clip-rule="evenodd" d="M166.111 173.817L148.37 204.547L130.628 173.817H166.111ZM152.544 206.957C150.689 210.17 146.051 210.17 144.195 206.957L126.454 176.227C124.598 173.014 126.917 168.997 130.628 168.997H166.111C169.822 168.997 172.141 173.014 170.286 176.227L152.544 206.957Z" fill="#2B2B2B"/>
<path fill-rule="evenodd" clip-rule="evenodd" d="M166.111 573.902L148.37 604.631L130.628 573.902H166.111ZM152.544 607.041C150.689 610.255 146.051 610.255 144.195 607.041L126.454 576.312C124.598 573.098 126.917 569.082 130.628 569.082H166.111C169.822 569.082 172.141 573.098 170.286 576.312L152.544 607.041Z" fill="#2B2B2B"/>
<path fill-rule="evenodd" clip-rule="evenodd" d="M166.111 75.0012L148.37 105.731L130.628 75.0012H166.111ZM152.544 108.141C150.689 111.354 146.051 111.354 144.195 108.141L126.454 77.4113C124.598 74.1978 126.917 70.1809 130.628 70.1809H166.111C169.822 70.1809 172.141 74.1978 170.286 77.4113L152.544 108.141Z" fill="#2B2B2B"/>
<path fill-rule="evenodd" clip-rule="evenodd" d="M166.111 475.086L148.37 505.815L130.628 475.086H166.111ZM152.544 508.225C150.689 511.439 146.051 511.439 144.195 508.225L126.454 477.496C124.598 474.282 126.917 470.265 130.628 470.265H166.111C169.822 470.265 172.141 474.282 170.286 477.496L152.544 508.225Z" fill="#2B2B2B"/>
<path fill-rule="evenodd" clip-rule="evenodd" d="M166.111 275.043L148.37 305.773L130.628 275.043H166.111ZM152.544 308.183C150.689 311.396 146.051 311.396 144.195 308.183L126.454 277.454C124.598 274.24 126.917 270.223 130.628 270.223H166.111C169.822 270.223 172.141 274.24 170.286 277.454L152.544 308.183Z" fill="#2B2B2B"/>
<path fill-rule="evenodd" clip-rule="evenodd" d="M166.111 675.128L148.37 705.858L130.628 675.128H166.111ZM152.544 708.268C150.689 711.481 146.051 711.481 144.195 708.268L126.454 677.538C124.598 674.325 126.917 670.308 130.628 670.308H166.111C169.822 670.308 172.141 674.325 170.286 677.538L152.544 708.268Z" fill="#2B2B2B"/>
<path fill-rule="evenodd" clip-rule="evenodd" d="M320.361 -44.3012L302.619 -75.0306L284.878 -44.3012H320.361ZM306.794 -77.4407C304.938 -80.6543 300.3 -80.6543 298.445 -77.4407L280.703 -46.7114C278.848 -43.4978 281.167 -39.4809 284.878 -39.4809H320.361C324.071 -39.4809 326.391 -43.4978 324.535 -46.7114L306.794 -77.4407Z" fill="#2B2B2B"/>
<path fill-rule="evenodd" clip-rule="evenodd" d="M320.361 355.783L302.619 325.054L284.878 355.783H320.361ZM306.794 322.644C304.938 319.43 300.3 319.43 298.445 322.644L280.703 353.373C278.848 356.587 281.167 360.604 284.878 360.604H320.361C324.071 360.604 326.391 356.587 324.535 353.373L306.794 322.644Z" fill="#2B2B2B"/>
<path fill-rule="evenodd" clip-rule="evenodd" d="M320.361 155.741L302.619 125.012L284.878 155.741H320.361ZM306.794 122.602C304.938 119.388 300.3 119.388 298.445 122.602L280.703 153.331C278.848 156.544 281.167 160.561 284.878 160.561H320.361C324.071 160.561 326.391 156.544 324.535 153.331L306.794 122.602Z" fill="#2B2B2B"/>
<path fill-rule="evenodd" clip-rule="evenodd" d="M320.361 555.826L302.619 525.096L284.878 555.826H320.361ZM306.794 522.686C304.938 519.473 300.3 519.473 298.445 522.686L280.703 553.415C278.848 556.629 281.167 560.646 284.878 560.646H320.361C324.071 560.646 326.391 556.629 324.535 553.415L306.794 522.686Z" fill="#2B2B2B"/>
<path fill-rule="evenodd" clip-rule="evenodd" d="M320.361 56.9252L302.619 26.1958L284.878 56.9252H320.361ZM306.794 23.7857C304.938 20.5722 300.3 20.5722 298.445 23.7857L280.703 54.5151C278.848 57.7286 281.167 61.7455 284.878 61.7455H320.361C324.071 61.7455 326.391 57.7286 324.535 54.5151L306.794 23.7857Z" fill="#2B2B2B"/>
<path fill-rule="evenodd" clip-rule="evenodd" d="M320.361 457.01L302.619 426.28L284.878 457.01H320.361ZM306.794 423.87C304.938 420.657 300.3 420.657 298.445 423.87L280.703 454.6C278.848 457.813 281.167 461.83 284.878 461.83H320.361C324.071 461.83 326.391 457.813 324.535 454.6L306.794 423.87Z" fill="#2B2B2B"/>
<path fill-rule="evenodd" clip-rule="evenodd" d="M320.361 256.967L302.619 226.238L284.878 256.967H320.361ZM306.794 223.828C304.938 220.614 300.3 220.614 298.445 223.828L280.703 254.557C278.848 257.771 281.167 261.788 284.878 261.788H320.361C324.071 261.788 326.391 257.771 324.535 254.557L306.794 223.828Z" fill="#2B2B2B"/>
<path fill-rule="evenodd" clip-rule="evenodd" d="M320.361 657.052L302.619 626.323L284.878 657.052H320.361ZM306.794 623.912C304.938 620.699 300.3 620.699 298.445 623.912L280.703 654.642C278.848 657.855 281.167 661.872 284.878 661.872H320.361C324.071 661.872 326.391 657.855 324.535 654.642L306.794 623.912Z" fill="#2B2B2B"/>
<path fill-rule="evenodd" clip-rule="evenodd" d="M320.361 -26.225L302.619 4.5044L284.878 -26.225H320.361ZM306.794 6.91455C304.938 10.1281 300.3 10.1281 298.445 6.91455L280.703 -23.8148C278.848 -27.0284 281.167 -31.0453 284.878 -31.0453H320.361C324.071 -31.0453 326.391 -27.0284 324.535 -23.8148L306.794 6.91455Z" fill="#2B2B2B"/>
<path fill-rule="evenodd" clip-rule="evenodd" d="M320.361 373.86L302.619 404.589L284.878 373.86H320.361ZM306.794 406.999C304.938 410.213 300.3 410.213 298.445 406.999L280.703 376.27C278.848 373.056 281.167 369.039 284.878 369.039H320.361C324.071 369.039 326.391 373.056 324.535 376.27L306.794 406.999Z" fill="#2B2B2B"/>
<path fill-rule="evenodd" clip-rule="evenodd" d="M320.361 173.817L302.619 204.547L284.878 173.817H320.361ZM306.794 206.957C304.938 210.17 300.3 210.17 298.445 206.957L280.703 176.227C278.848 173.014 281.167 168.997 284.878 168.997H320.361C324.071 168.997 326.391 173.014 324.535 176.227L306.794 206.957Z" fill="#2B2B2B"/>
<path fill-rule="evenodd" clip-rule="evenodd" d="M320.361 573.902L302.619 604.631L284.878 573.902H320.361ZM306.794 607.041C304.938 610.255 300.3 610.255 298.445 607.041L280.703 576.312C278.848 573.098 281.167 569.082 284.878 569.082H320.361C324.071 569.082 326.391 573.098 324.535 576.312L306.794 607.041Z" fill="#2B2B2B"/>
<path fill-rule="evenodd" clip-rule="evenodd" d="M320.361 75.0012L302.619 105.731L284.878 75.0012H320.361ZM306.794 108.141C304.938 111.354 300.3 111.354 298.445 108.141L280.703 77.4113C278.848 74.1978 281.167 70.1809 284.878 70.1809H320.361C324.071 70.1809 326.391 74.1978 324.535 77.4113L306.794 108.141Z" fill="#2B2B2B"/>
<path fill-rule="evenodd" clip-rule="evenodd" d="M320.361 475.086L302.619 505.815L284.878 475.086H320.361ZM306.794 508.225C304.938 511.439 300.3 511.439 298.445 508.225L280.703 477.496C278.848 474.282 281.167 470.265 284.878 470.265H320.361C324.071 470.265 326.391 474.282 324.535 477.496L306.794 508.225Z" fill="#2B2B2B"/>
<path fill-rule="evenodd" clip-rule="evenodd" d="M320.361 275.043L302.619 305.773L284.878 275.043H320.361ZM306.794 308.183C304.938 311.396 300.3 311.396 298.445 308.183L280.703 277.454C278.848 274.24 281.167 270.223 284.878 270.223H320.361C324.071 270.223 326.391 274.24 324.535 277.454L306.794 308.183Z" fill="#2B2B2B"/>
<path fill-rule="evenodd" clip-rule="evenodd" d="M320.361 675.128L302.619 705.858L284.878 675.128H320.361ZM306.794 708.268C304.938 711.481 300.3 711.481 298.445 708.268L280.703 677.538C278.848 674.325 281.167 670.308 284.878 670.308H320.361C324.071 670.308 326.391 674.325 324.535 677.538L306.794 708.268Z" fill="#2B2B2B"/>
<path fill-rule="evenodd" clip-rule="evenodd" d="M474.61 -44.3012L456.869 -75.0306L439.127 -44.3012H474.61ZM461.043 -77.4407C459.188 -80.6543 454.549 -80.6543 452.694 -77.4407L434.952 -46.7114C433.097 -43.4978 435.416 -39.4809 439.127 -39.4809H474.61C478.321 -39.4809 480.64 -43.4978 478.785 -46.7114L461.043 -77.4407Z" fill="#2B2B2B"/>
<path fill-rule="evenodd" clip-rule="evenodd" d="M474.61 355.783L456.869 325.054L439.127 355.783H474.61ZM461.043 322.644C459.188 319.43 454.549 319.43 452.694 322.644L434.952 353.373C433.097 356.587 435.416 360.604 439.127 360.604H474.61C478.321 360.604 480.64 356.587 478.785 353.373L461.043 322.644Z" fill="#2B2B2B"/>
<path fill-rule="evenodd" clip-rule="evenodd" d="M474.61 155.741L456.869 125.012L439.127 155.741H474.61ZM461.043 122.602C459.188 119.388 454.549 119.388 452.694 122.602L434.952 153.331C433.097 156.544 435.416 160.561 439.127 160.561H474.61C478.321 160.561 480.64 156.544 478.785 153.331L461.043 122.602Z" fill="#2B2B2B"/>
<path fill-rule="evenodd" clip-rule="evenodd" d="M474.61 555.826L456.869 525.096L439.127 555.826H474.61ZM461.043 522.686C459.188 519.473 454.549 519.473 452.694 522.686L434.952 553.415C433.097 556.629 435.416 560.646 439.127 560.646H474.61C478.321 560.646 480.64 556.629 478.785 553.415L461.043 522.686Z" fill="#2B2B2B"/>
<path fill-rule="evenodd" clip-rule="evenodd" d="M474.61 56.9252L456.869 26.1958L439.127 56.9252H474.61ZM461.043 23.7857C459.188 20.5722 454.549 20.5722 452.694 23.7857L434.952 54.5151C433.097 57.7286 435.416 61.7455 439.127 61.7455H474.61C478.321 61.7455 480.64 57.7286 478.785 54.5151L461.043 23.7857Z" fill="#2B2B2B"/>
<path fill-rule="evenodd" clip-rule="evenodd" d="M474.61 457.01L456.869 426.28L439.127 457.01H474.61ZM461.043 423.87C459.188 420.657 454.549 420.657 452.694 423.87L434.952 454.6C433.097 457.813 435.416 461.83 439.127 461.83H474.61C478.321 461.83 480.64 457.813 478.785 454.6L461.043 423.87Z" fill="#2B2B2B"/>
<path fill-rule="evenodd" clip-rule="evenodd" d="M474.61 256.967L456.869 226.238L439.127 256.967H474.61ZM461.043 223.828C459.188 220.614 454.549 220.614 452.694 223.828L434.952 254.557C433.097 257.771 435.416 261.788 439.127 261.788H474.61C478.321 261.788 480.64 257.771 478.785 254.557L461.043 223.828Z" fill="#2B2B2B"/>
<path fill-rule="evenodd" clip-rule="evenodd" d="M474.61 657.052L456.869 626.323L439.127 657.052H474.61ZM461.043 623.912C459.188 620.699 454.549 620.699 452.694 623.912L434.952 654.642C433.097 657.855 435.416 661.872 439.127 661.872H474.61C478.321 661.872 480.64 657.855 478.785 654.642L461.043 623.912Z" fill="#2B2B2B"/>
<path fill-rule="evenodd" clip-rule="evenodd" d="M474.61 -26.225L456.869 4.5044L439.127 -26.225H474.61ZM461.043 6.91455C459.188 10.1281 454.549 10.1281 452.694 6.91455L434.952 -23.8148C433.097 -27.0284 435.416 -31.0453 439.127 -31.0453H474.61C478.321 -31.0453 480.64 -27.0284 478.785 -23.8148L461.043 6.91455Z" fill="#2B2B2B"/>
<path fill-rule="evenodd" clip-rule="evenodd" d="M474.61 373.86L456.869 404.589L439.127 373.86H474.61ZM461.043 406.999C459.188 410.213 454.549 410.213 452.694 406.999L434.952 376.27C433.097 373.056 435.416 369.039 439.127 369.039H474.61C478.321 369.039 480.64 373.056 478.785 376.27L461.043 406.999Z" fill="#2B2B2B"/>
<path fill-rule="evenodd" clip-rule="evenodd" d="M474.61 173.817L456.869 204.547L439.127 173.817H474.61ZM461.043 206.957C459.188 210.17 454.549 210.17 452.694 206.957L434.952 176.227C433.097 173.014 435.416 168.997 439.127 168.997H474.61C478.321 168.997 480.64 173.014 478.785 176.227L461.043 206.957Z" fill="#2B2B2B"/>
<path fill-rule="evenodd" clip-rule="evenodd" d="M474.61 573.902L456.869 604.631L439.127 573.902H474.61ZM461.043 607.041C459.188 610.255 454.549 610.255 452.694 607.041L434.952 576.312C433.097 573.098 435.416 569.082 439.127 569.082H474.61C478.321 569.082 480.64 573.098 478.785 576.312L461.043 607.041Z" fill="#2B2B2B"/>
<path fill-rule="evenodd" clip-rule="evenodd" d="M474.61 75.0012L456.869 105.731L439.127 75.0012H474.61ZM461.043 108.141C459.188 111.354 454.549 111.354 452.694 108.141L434.952 77.4113C433.097 74.1978 435.416 70.1809 439.127 70.1809H474.61C478.321 70.1809 480.64 74.1978 478.785 77.4113L461.043 108.141Z" fill="#2B2B2B"/>
<path fill-rule="evenodd" clip-rule="evenodd" d="M474.61 475.086L456.869 505.815L439.127 475.086H474.61ZM461.043 508.225C459.188 511.439 454.549 511.439 452.694 508.225L434.952 477.496C433.097 474.282 435.416 470.265 439.127 470.265H474.61C478.321 470.265 480.64 474.282 478.785 477.496L461.043 508.225Z" fill="#2B2B2B"/>
<path fill-rule="evenodd" clip-rule="evenodd" d="M474.61 275.043L456.869 305.773L439.127 275.043H474.61ZM461.043 308.183C459.188 311.396 454.549 311.396 452.694 308.183L434.952 277.454C433.097 274.24 435.416 270.223 439.127 270.223H474.61C478.321 270.223 480.64 274.24 478.785 277.454L461.043 308.183Z" fill="#2B2B2B"/>
<path fill-rule="evenodd" clip-rule="evenodd" d="M474.61 675.128L456.869 705.858L439.127 675.128H474.61ZM461.043 708.268C459.188 711.481 454.549 711.481 452.694 708.268L434.952 677.538C433.097 674.325 435.416 670.308 439.127 670.308H474.61C478.321 670.308 480.64 674.325 478.785 677.538L461.043 708.268Z" fill="#2B2B2B"/>
<path fill-rule="evenodd" clip-rule="evenodd" d="M-26.7005 -76.8379L-44.4421 -46.1085L-62.1838 -76.8379H-26.7005ZM-40.2676 -43.6984C-42.123 -40.4849 -46.7613 -40.4849 -48.6166 -43.6984L-66.3583 -74.4278C-68.2136 -77.6413 -65.8944 -81.6582 -62.1838 -81.6582H-26.7005C-22.9899 -81.6582 -20.6707 -77.6413 -22.526 -74.4278L-40.2676 -43.6984Z" fill="#2B2B2B"/>
<path fill-rule="evenodd" clip-rule="evenodd" d="M-26.7005 323.247L-44.4421 353.976L-62.1838 323.247H-26.7005ZM-40.2676 356.386C-42.123 359.6 -46.7613 359.6 -48.6166 356.386L-66.3583 325.657C-68.2136 322.443 -65.8944 318.426 -62.1838 318.426H-26.7005C-22.9899 318.426 -20.6707 322.443 -22.526 325.657L-40.2676 356.386Z" fill="#2B2B2B"/>
<path fill-rule="evenodd" clip-rule="evenodd" d="M-26.7005 123.204L-44.4421 153.934L-62.1838 123.204H-26.7005ZM-40.2676 156.344C-42.123 159.557 -46.7613 159.557 -48.6166 156.344L-66.3583 125.614C-68.2136 122.401 -65.8944 118.384 -62.1838 118.384H-26.7005C-22.9899 118.384 -20.6707 122.401 -22.526 125.614L-40.2676 156.344Z" fill="#2B2B2B"/>
<path fill-rule="evenodd" clip-rule="evenodd" d="M-26.7005 523.289L-44.4421 554.018L-62.1838 523.289H-26.7005ZM-40.2676 556.428C-42.123 559.642 -46.7613 559.642 -48.6166 556.428L-66.3583 525.699C-68.2136 522.485 -65.8944 518.468 -62.1838 518.468H-26.7005C-22.9899 518.468 -20.6707 522.485 -22.526 525.699L-40.2676 556.428Z" fill="#2B2B2B"/>
<path fill-rule="evenodd" clip-rule="evenodd" d="M-26.7005 24.3883L-44.4421 55.1176L-62.1838 24.3883H-26.7005ZM-40.2676 57.5278C-42.123 60.7413 -46.7613 60.7413 -48.6166 57.5278L-66.3583 26.7984C-68.2136 23.5849 -65.8944 19.568 -62.1838 19.568H-26.7005C-22.9899 19.568 -20.6707 23.5849 -22.526 26.7984L-40.2676 57.5278Z" fill="#2B2B2B"/>
<path fill-rule="evenodd" clip-rule="evenodd" d="M-26.7005 424.472L-44.4421 455.202L-62.1838 424.472H-26.7005ZM-40.2676 457.612C-42.123 460.826 -46.7613 460.826 -48.6166 457.612L-66.3583 426.883C-68.2136 423.669 -65.8944 419.652 -62.1838 419.652H-26.7005C-22.9899 419.652 -20.6707 423.669 -22.526 426.883L-40.2676 457.612Z" fill="#2B2B2B"/>
<path fill-rule="evenodd" clip-rule="evenodd" d="M-26.7005 224.43L-44.4421 255.16L-62.1838 224.43H-26.7005ZM-40.2676 257.57C-42.123 260.783 -46.7613 260.783 -48.6166 257.57L-66.3583 226.84C-68.2136 223.627 -65.8944 219.61 -62.1838 219.61H-26.7005C-22.9899 219.61 -20.6707 223.627 -22.526 226.84L-40.2676 257.57Z" fill="#2B2B2B"/>
<path fill-rule="evenodd" clip-rule="evenodd" d="M-26.7005 624.515L-44.4421 655.244L-62.1838 624.515H-26.7005ZM-40.2676 657.654C-42.123 660.868 -46.7613 660.868 -48.6166 657.654L-66.3583 626.925C-68.2136 623.711 -65.8944 619.694 -62.1838 619.694H-26.7005C-22.9899 619.694 -20.6707 623.711 -22.526 626.925L-40.2676 657.654Z" fill="#2B2B2B"/>
<path fill-rule="evenodd" clip-rule="evenodd" d="M-26.7005 6.31201L-44.4421 -24.4174L-62.1838 6.31201H-26.7005ZM-40.2676 -26.8275C-42.123 -30.041 -46.7613 -30.041 -48.6166 -26.8275L-66.3583 3.90186C-68.2136 7.11539 -65.8944 11.1323 -62.1838 11.1323H-26.7005C-22.9899 11.1323 -20.6707 7.11539 -22.526 3.90186L-40.2676 -26.8275Z" fill="#2B2B2B"/>
<path fill-rule="evenodd" clip-rule="evenodd" d="M-26.7005 406.397L-44.4421 375.667L-62.1838 406.397H-26.7005ZM-40.2676 373.257C-42.123 370.043 -46.7613 370.043 -48.6166 373.257L-66.3583 403.986C-68.2136 407.2 -65.8944 411.217 -62.1838 411.217H-26.7005C-22.9899 411.217 -20.6707 407.2 -22.526 403.986L-40.2676 373.257Z" fill="#2B2B2B"/>
<path fill-rule="evenodd" clip-rule="evenodd" d="M-26.7005 206.354L-44.4421 175.625L-62.1838 206.354H-26.7005ZM-40.2676 173.215C-42.123 170.001 -46.7613 170.001 -48.6166 173.215L-66.3583 203.944C-68.2136 207.158 -65.8944 211.175 -62.1838 211.175H-26.7005C-22.9899 211.175 -20.6707 207.158 -22.526 203.944L-40.2676 173.215Z" fill="#2B2B2B"/>
<path fill-rule="evenodd" clip-rule="evenodd" d="M-26.7005 606.438L-44.4421 575.709L-62.1838 606.438H-26.7005ZM-40.2676 573.299C-42.123 570.085 -46.7613 570.085 -48.6166 573.299L-66.3583 604.028C-68.2136 607.242 -65.8944 611.259 -62.1838 611.259H-26.7005C-22.9899 611.259 -20.6707 607.242 -22.526 604.028L-40.2676 573.299Z" fill="#2B2B2B"/>
<path fill-rule="evenodd" clip-rule="evenodd" d="M-26.7005 107.538L-44.4421 76.8088L-62.1838 107.538H-26.7005ZM-40.2676 74.3986C-42.123 71.1851 -46.7613 71.1851 -48.6166 74.3987L-66.3583 105.128C-68.2136 108.342 -65.8944 112.358 -62.1838 112.358H-26.7005C-22.9899 112.358 -20.6707 108.342 -22.526 105.128L-40.2676 74.3986Z" fill="#2B2B2B"/>
<path fill-rule="evenodd" clip-rule="evenodd" d="M-26.7005 507.623L-44.4421 476.893L-62.1838 507.623H-26.7005ZM-40.2676 474.483C-42.123 471.27 -46.7613 471.27 -48.6166 474.483L-66.3583 505.213C-68.2136 508.426 -65.8944 512.443 -62.1838 512.443H-26.7005C-22.9899 512.443 -20.6707 508.426 -22.526 505.213L-40.2676 474.483Z" fill="#2B2B2B"/>
<path fill-rule="evenodd" clip-rule="evenodd" d="M-26.7005 307.58L-44.4421 276.851L-62.1838 307.58H-26.7005ZM-40.2676 274.441C-42.123 271.227 -46.7613 271.227 -48.6166 274.441L-66.3583 305.17C-68.2136 308.384 -65.8944 312.401 -62.1838 312.401H-26.7005C-22.9899 312.401 -20.6707 308.384 -22.526 305.17L-40.2676 274.441Z" fill="#2B2B2B"/>
<path fill-rule="evenodd" clip-rule="evenodd" d="M-26.7005 707.665L-44.4421 676.936L-62.1838 707.665H-26.7005ZM-40.2676 674.525C-42.123 671.312 -46.7613 671.312 -48.6166 674.525L-66.3583 705.255C-68.2136 708.468 -65.8944 712.485 -62.1838 712.485H-26.7005C-22.9899 712.485 -20.6707 708.468 -22.526 705.255L-40.2676 674.525Z" fill="#2B2B2B"/>
<path fill-rule="evenodd" clip-rule="evenodd" d="M127.549 -76.8379L109.807 -46.1085L92.0657 -76.8379H127.549ZM113.982 -43.6984C112.126 -40.4849 107.488 -40.4849 105.633 -43.6984L87.8912 -74.4278C86.0359 -77.6413 88.355 -81.6582 92.0657 -81.6582H127.549C131.26 -81.6582 133.579 -77.6413 131.723 -74.4278L113.982 -43.6984Z" fill="#2B2B2B"/>
<path fill-rule="evenodd" clip-rule="evenodd" d="M127.549 323.247L109.807 353.976L92.0657 323.247H127.549ZM113.982 356.386C112.126 359.6 107.488 359.6 105.633 356.386L87.8912 325.657C86.0359 322.443 88.355 318.426 92.0657 318.426H127.549C131.26 318.426 133.579 322.443 131.723 325.657L113.982 356.386Z" fill="#2B2B2B"/>
<path fill-rule="evenodd" clip-rule="evenodd" d="M127.549 123.204L109.807 153.934L92.0657 123.204H127.549ZM113.982 156.344C112.126 159.557 107.488 159.557 105.633 156.344L87.8912 125.614C86.0359 122.401 88.355 118.384 92.0657 118.384H127.549C131.26 118.384 133.579 122.401 131.723 125.614L113.982 156.344Z" fill="#2B2B2B"/>
<path fill-rule="evenodd" clip-rule="evenodd" d="M127.549 523.289L109.807 554.018L92.0657 523.289H127.549ZM113.982 556.428C112.126 559.642 107.488 559.642 105.633 556.428L87.8912 525.699C86.0359 522.485 88.355 518.468 92.0657 518.468H127.549C131.26 518.468 133.579 522.485 131.723 525.699L113.982 556.428Z" fill="#2B2B2B"/>
<path fill-rule="evenodd" clip-rule="evenodd" d="M127.549 24.3883L109.807 55.1176L92.0657 24.3883H127.549ZM113.982 57.5278C112.126 60.7413 107.488 60.7413 105.633 57.5278L87.8912 26.7984C86.0359 23.5849 88.355 19.568 92.0657 19.568H127.549C131.26 19.568 133.579 23.5849 131.723 26.7984L113.982 57.5278Z" fill="#2B2B2B"/>
<path fill-rule="evenodd" clip-rule="evenodd" d="M127.549 424.472L109.807 455.202L92.0657 424.472H127.549ZM113.982 457.612C112.126 460.826 107.488 460.826 105.633 457.612L87.8912 426.883C86.0359 423.669 88.355 419.652 92.0657 419.652H127.549C131.26 419.652 133.579 423.669 131.723 426.883L113.982 457.612Z" fill="#2B2B2B"/>
<path fill-rule="evenodd" clip-rule="evenodd" d="M127.549 224.43L109.807 255.16L92.0657 224.43H127.549ZM113.982 257.57C112.126 260.783 107.488 260.783 105.633 257.57L87.8912 226.84C86.0359 223.627 88.355 219.61 92.0657 219.61H127.549C131.26 219.61 133.579 223.627 131.723 226.84L113.982 257.57Z" fill="#2B2B2B"/>
<path fill-rule="evenodd" clip-rule="evenodd" d="M127.549 624.515L109.807 655.244L92.0657 624.515H127.549ZM113.982 657.654C112.126 660.868 107.488 660.868 105.633 657.654L87.8912 626.925C86.0359 623.711 88.355 619.694 92.0657 619.694H127.549C131.26 619.694 133.579 623.711 131.723 626.925L113.982 657.654Z" fill="#2B2B2B"/>
<path fill-rule="evenodd" clip-rule="evenodd" d="M127.549 6.31201L109.807 -24.4174L92.0657 6.31201H127.549ZM113.982 -26.8275C112.126 -30.041 107.488 -30.041 105.633 -26.8275L87.8912 3.90186C86.0359 7.11539 88.355 11.1323 92.0657 11.1323H127.549C131.26 11.1323 133.579 7.11539 131.723 3.90186L113.982 -26.8275Z" fill="#2B2B2B"/>
<path fill-rule="evenodd" clip-rule="evenodd" d="M127.549 406.397L109.807 375.667L92.0657 406.397H127.549ZM113.982 373.257C112.126 370.043 107.488 370.043 105.633 373.257L87.8912 403.986C86.0359 407.2 88.355 411.217 92.0657 411.217H127.549C131.26 411.217 133.579 407.2 131.723 403.986L113.982 373.257Z" fill="#2B2B2B"/>
<path fill-rule="evenodd" clip-rule="evenodd" d="M127.549 206.354L109.807 175.625L92.0657 206.354H127.549ZM113.982 173.215C112.126 170.001 107.488 170.001 105.633 173.215L87.8912 203.944C86.0359 207.158 88.355 211.175 92.0657 211.175H127.549C131.26 211.175 133.579 207.158 131.723 203.944L113.982 173.215Z" fill="#2B2B2B"/>
<path fill-rule="evenodd" clip-rule="evenodd" d="M127.549 606.438L109.807 575.709L92.0657 606.438H127.549ZM113.982 573.299C112.126 570.085 107.488 570.085 105.633 573.299L87.8912 604.028C86.0359 607.242 88.355 611.259 92.0657 611.259H127.549C131.26 611.259 133.579 607.242 131.723 604.028L113.982 573.299Z" fill="#2B2B2B"/>
<path fill-rule="evenodd" clip-rule="evenodd" d="M127.549 107.538L109.807 76.8088L92.0657 107.538H127.549ZM113.982 74.3986C112.126 71.1851 107.488 71.1851 105.633 74.3987L87.8912 105.128C86.0359 108.342 88.355 112.358 92.0657 112.358H127.549C131.26 112.358 133.579 108.342 131.723 105.128L113.982 74.3986Z" fill="#2B2B2B"/>
<path fill-rule="evenodd" clip-rule="evenodd" d="M127.549 507.623L109.807 476.893L92.0657 507.623H127.549ZM113.982 474.483C112.126 471.27 107.488 471.27 105.633 474.483L87.8912 505.213C86.0359 508.426 88.355 512.443 92.0657 512.443H127.549C131.26 512.443 133.579 508.426 131.723 505.213L113.982 474.483Z" fill="#2B2B2B"/>
<path fill-rule="evenodd" clip-rule="evenodd" d="M127.549 307.58L109.807 276.851L92.0657 307.58H127.549ZM113.982 274.441C112.126 271.227 107.488 271.227 105.633 274.441L87.8912 305.17C86.0359 308.384 88.355 312.401 92.0657 312.401H127.549C131.26 312.401 133.579 308.384 131.723 305.17L113.982 274.441Z" fill="#2B2B2B"/>
<path fill-rule="evenodd" clip-rule="evenodd" d="M127.549 707.665L109.807 676.936L92.0657 707.665H127.549ZM113.982 674.525C112.126 671.312 107.488 671.312 105.633 674.525L87.8912 705.255C86.0359 708.468 88.355 712.485 92.0657 712.485H127.549C131.26 712.485 133.579 708.468 131.723 705.255L113.982 674.525Z" fill="#2B2B2B"/>
<path fill-rule="evenodd" clip-rule="evenodd" d="M281.798 -76.8379L264.057 -46.1085L246.315 -76.8379H281.798ZM268.231 -43.6984C266.376 -40.4849 261.738 -40.4849 259.882 -43.6984L242.141 -74.4278C240.285 -77.6413 242.605 -81.6582 246.315 -81.6582H281.798C285.509 -81.6582 287.828 -77.6413 285.973 -74.4278L268.231 -43.6984Z" fill="#2B2B2B"/>
<path fill-rule="evenodd" clip-rule="evenodd" d="M281.798 323.247L264.057 353.976L246.315 323.247H281.798ZM268.231 356.386C266.376 359.6 261.738 359.6 259.882 356.386L242.141 325.657C240.285 322.443 242.605 318.426 246.315 318.426H281.798C285.509 318.426 287.828 322.443 285.973 325.657L268.231 356.386Z" fill="#2B2B2B"/>
<path fill-rule="evenodd" clip-rule="evenodd" d="M281.798 123.204L264.057 153.934L246.315 123.204H281.798ZM268.231 156.344C266.376 159.557 261.738 159.557 259.882 156.344L242.141 125.614C240.285 122.401 242.605 118.384 246.315 118.384H281.798C285.509 118.384 287.828 122.401 285.973 125.614L268.231 156.344Z" fill="#2B2B2B"/>
<path fill-rule="evenodd" clip-rule="evenodd" d="M281.798 523.289L264.057 554.018L246.315 523.289H281.798ZM268.231 556.428C266.376 559.642 261.738 559.642 259.882 556.428L242.141 525.699C240.285 522.485 242.605 518.468 246.315 518.468H281.798C285.509 518.468 287.828 522.485 285.973 525.699L268.231 556.428Z" fill="#2B2B2B"/>
<path fill-rule="evenodd" clip-rule="evenodd" d="M281.798 24.3883L264.057 55.1176L246.315 24.3883H281.798ZM268.231 57.5278C266.376 60.7413 261.738 60.7413 259.882 57.5278L242.141 26.7984C240.285 23.5849 242.605 19.568 246.315 19.568H281.798C285.509 19.568 287.828 23.5849 285.973 26.7984L268.231 57.5278Z" fill="#2B2B2B"/>
<path fill-rule="evenodd" clip-rule="evenodd" d="M281.798 424.472L264.057 455.202L246.315 424.472H281.798ZM268.231 457.612C266.376 460.826 261.738 460.826 259.882 457.612L242.141 426.883C240.285 423.669 242.605 419.652 246.315 419.652H281.798C285.509 419.652 287.828 423.669 285.973 426.883L268.231 457.612Z" fill="#2B2B2B"/>
<path fill-rule="evenodd" clip-rule="evenodd" d="M281.798 224.43L264.057 255.16L246.315 224.43H281.798ZM268.231 257.57C266.376 260.783 261.738 260.783 259.882 257.57L242.141 226.84C240.285 223.627 242.605 219.61 246.315 219.61H281.798C285.509 219.61 287.828 223.627 285.973 226.84L268.231 257.57Z" fill="#2B2B2B"/>
<path fill-rule="evenodd" clip-rule="evenodd" d="M281.798 624.515L264.057 655.244L246.315 624.515H281.798ZM268.231 657.654C266.376 660.868 261.738 660.868 259.882 657.654L242.141 626.925C240.285 623.711 242.605 619.694 246.315 619.694H281.798C285.509 619.694 287.828 623.711 285.973 626.925L268.231 657.654Z" fill="#2B2B2B"/>
<path fill-rule="evenodd" clip-rule="evenodd" d="M281.798 6.31201L264.057 -24.4174L246.315 6.31201H281.798ZM268.231 -26.8275C266.376 -30.041 261.738 -30.041 259.882 -26.8275L242.141 3.90186C240.285 7.11539 242.605 11.1323 246.315 11.1323H281.798C285.509 11.1323 287.828 7.11539 285.973 3.90186L268.231 -26.8275Z" fill="#2B2B2B"/>
<path fill-rule="evenodd" clip-rule="evenodd" d="M281.798 406.397L264.057 375.667L246.315 406.397H281.798ZM268.231 373.257C266.376 370.043 261.738 370.043 259.882 373.257L242.141 403.986C240.285 407.2 242.605 411.217 246.315 411.217H281.798C285.509 411.217 287.828 407.2 285.973 403.986L268.231 373.257Z" fill="#2B2B2B"/>
<path fill-rule="evenodd" clip-rule="evenodd" d="M281.798 206.354L264.057 175.625L246.315 206.354H281.798ZM268.231 173.215C266.376 170.001 261.738 170.001 259.882 173.215L242.141 203.944C240.285 207.158 242.605 211.175 246.315 211.175H281.798C285.509 211.175 287.828 207.158 285.973 203.944L268.231 173.215Z" fill="#2B2B2B"/>
<path fill-rule="evenodd" clip-rule="evenodd" d="M281.798 606.438L264.057 575.709L246.315 606.438H281.798ZM268.231 573.299C266.376 570.085 261.738 570.085 259.882 573.299L242.141 604.028C240.285 607.242 242.605 611.259 246.315 611.259H281.798C285.509 611.259 287.828 607.242 285.973 604.028L268.231 573.299Z" fill="#2B2B2B"/>
<path fill-rule="evenodd" clip-rule="evenodd" d="M281.798 107.538L264.057 76.8088L246.315 107.538H281.798ZM268.231 74.3986C266.376 71.1851 261.738 71.1851 259.882 74.3987L242.141 105.128C240.285 108.342 242.605 112.358 246.315 112.358H281.798C285.509 112.358 287.828 108.342 285.973 105.128L268.231 74.3986Z" fill="#2B2B2B"/>
<path fill-rule="evenodd" clip-rule="evenodd" d="M281.798 507.623L264.057 476.893L246.315 507.623H281.798ZM268.231 474.483C266.376 471.27 261.738 471.27 259.882 474.483L242.141 505.213C240.285 508.426 242.605 512.443 246.315 512.443H281.798C285.509 512.443 287.828 508.426 285.973 505.213L268.231 474.483Z" fill="#2B2B2B"/>
<path fill-rule="evenodd" clip-rule="evenodd" d="M281.798 307.58L264.057 276.851L246.315 307.58H281.798ZM268.231 274.441C266.376 271.227 261.738 271.227 259.882 274.441L242.141 305.17C240.285 308.384 242.605 312.401 246.315 312.401H281.798C285.509 312.401 287.828 308.384 285.973 305.17L268.231 274.441Z" fill="#2B2B2B"/>
<path fill-rule="evenodd" clip-rule="evenodd" d="M281.798 707.665L264.057 676.936L246.315 707.665H281.798ZM268.231 674.525C266.376 671.312 261.738 671.312 259.882 674.525L242.141 705.255C240.285 708.468 242.605 712.485 246.315 712.485H281.798C285.509 712.485 287.828 708.468 285.973 705.255L268.231 674.525Z" fill="#2B2B2B"/>
<path fill-rule="evenodd" clip-rule="evenodd" d="M436.048 -76.8379L418.306 -46.1085L400.565 -76.8379H436.048ZM422.481 -43.6984C420.625 -40.4849 415.987 -40.4849 414.132 -43.6984L396.39 -74.4278C394.535 -77.6413 396.854 -81.6582 400.565 -81.6582H436.048C439.758 -81.6582 442.078 -77.6413 440.222 -74.4278L422.481 -43.6984Z" fill="#2B2B2B"/>
<path fill-rule="evenodd" clip-rule="evenodd" d="M436.048 323.247L418.306 353.976L400.565 323.247H436.048ZM422.481 356.386C420.625 359.6 415.987 359.6 414.132 356.386L396.39 325.657C394.535 322.443 396.854 318.426 400.565 318.426H436.048C439.758 318.426 442.078 322.443 440.222 325.657L422.481 356.386Z" fill="#2B2B2B"/>
<path fill-rule="evenodd" clip-rule="evenodd" d="M436.048 123.204L418.306 153.934L400.565 123.204H436.048ZM422.481 156.344C420.625 159.557 415.987 159.557 414.132 156.344L396.39 125.614C394.535 122.401 396.854 118.384 400.565 118.384H436.048C439.758 118.384 442.078 122.401 440.222 125.614L422.481 156.344Z" fill="#2B2B2B"/>
<path fill-rule="evenodd" clip-rule="evenodd" d="M436.048 523.289L418.306 554.018L400.565 523.289H436.048ZM422.481 556.428C420.625 559.642 415.987 559.642 414.132 556.428L396.39 525.699C394.535 522.485 396.854 518.468 400.565 518.468H436.048C439.758 518.468 442.078 522.485 440.222 525.699L422.481 556.428Z" fill="#2B2B2B"/>
<path fill-rule="evenodd" clip-rule="evenodd" d="M436.048 24.3883L418.306 55.1176L400.565 24.3883H436.048ZM422.481 57.5278C420.625 60.7413 415.987 60.7413 414.132 57.5278L396.39 26.7984C394.535 23.5849 396.854 19.568 400.565 19.568H436.048C439.758 19.568 442.078 23.5849 440.222 26.7984L422.481 57.5278Z" fill="#2B2B2B"/>
<path fill-rule="evenodd" clip-rule="evenodd" d="M436.048 424.472L418.306 455.202L400.565 424.472H436.048ZM422.481 457.612C420.625 460.826 415.987 460.826 414.132 457.612L396.39 426.883C394.535 423.669 396.854 419.652 400.565 419.652H436.048C439.758 419.652 442.078 423.669 440.222 426.883L422.481 457.612Z" fill="#2B2B2B"/>
<path fill-rule="evenodd" clip-rule="evenodd" d="M436.048 224.43L418.306 255.16L400.565 224.43H436.048ZM422.481 257.57C420.625 260.783 415.987 260.783 414.132 257.57L396.39 226.84C394.535 223.627 396.854 219.61 400.565 219.61H436.048C439.758 219.61 442.078 223.627 440.222 226.84L422.481 257.57Z" fill="#2B2B2B"/>
<path fill-rule="evenodd" clip-rule="evenodd" d="M436.048 624.515L418.306 655.244L400.565 624.515H436.048ZM422.481 657.654C420.625 660.868 415.987 660.868 414.132 657.654L396.39 626.925C394.535 623.711 396.854 619.694 400.565 619.694H436.048C439.758 619.694 442.078 623.711 440.222 626.925L422.481 657.654Z" fill="#2B2B2B"/>
<path fill-rule="evenodd" clip-rule="evenodd" d="M436.048 6.31201L418.306 -24.4174L400.565 6.31201H436.048ZM422.481 -26.8275C420.625 -30.041 415.987 -30.041 414.132 -26.8275L396.39 3.90186C394.535 7.11539 396.854 11.1323 400.565 11.1323H436.048C439.758 11.1323 442.078 7.11539 440.222 3.90186L422.481 -26.8275Z" fill="#2B2B2B"/>
<path fill-rule="evenodd" clip-rule="evenodd" d="M436.048 406.397L418.306 375.667L400.565 406.397H436.048ZM422.481 373.257C420.625 370.043 415.987 370.043 414.132 373.257L396.39 403.986C394.535 407.2 396.854 411.217 400.565 411.217H436.048C439.758 411.217 442.078 407.2 440.222 403.986L422.481 373.257Z" fill="#2B2B2B"/>
<path fill-rule="evenodd" clip-rule="evenodd" d="M436.048 206.354L418.306 175.625L400.565 206.354H436.048ZM422.481 173.215C420.625 170.001 415.987 170.001 414.132 173.215L396.39 203.944C394.535 207.158 396.854 211.175 400.565 211.175H436.048C439.758 211.175 442.078 207.158 440.222 203.944L422.481 173.215Z" fill="#2B2B2B"/>
<path fill-rule="evenodd" clip-rule="evenodd" d="M436.048 606.438L418.306 575.709L400.565 606.438H436.048ZM422.481 573.299C420.625 570.085 415.987 570.085 414.132 573.299L396.39 604.028C394.535 607.242 396.854 611.259 400.565 611.259H436.048C439.758 611.259 442.078 607.242 440.222 604.028L422.481 573.299Z" fill="#2B2B2B"/>
<path fill-rule="evenodd" clip-rule="evenodd" d="M436.048 107.538L418.306 76.8088L400.565 107.538H436.048ZM422.481 74.3986C420.625 71.1851 415.987 71.1851 414.132 74.3987L396.39 105.128C394.535 108.342 396.854 112.358 400.565 112.358H436.048C439.758 112.358 442.078 108.342 440.222 105.128L422.481 74.3986Z" fill="#2B2B2B"/>
<path fill-rule="evenodd" clip-rule="evenodd" d="M436.048 507.623L418.306 476.893L400.565 507.623H436.048ZM422.481 474.483C420.625 471.27 415.987 471.27 414.132 474.483L396.39 505.213C394.535 508.426 396.854 512.443 400.565 512.443H436.048C439.758 512.443 442.078 508.426 440.222 505.213L422.481 474.483Z" fill="#2B2B2B"/>
<path fill-rule="evenodd" clip-rule="evenodd" d="M436.048 307.58L418.306 276.851L400.565 307.58H436.048ZM422.481 274.441C420.625 271.227 415.987 271.227 414.132 274.441L396.39 305.17C394.535 308.384 396.854 312.401 400.565 312.401H436.048C439.758 312.401 442.078 308.384 440.222 305.17L422.481 274.441Z" fill="#2B2B2B"/>
<path fill-rule="evenodd" clip-rule="evenodd" d="M436.048 707.665L418.306 676.936L400.565 707.665H436.048ZM422.481 674.525C420.625 671.312 415.987 671.312 414.132 674.525L396.39 705.255C394.535 708.468 396.854 712.485 400.565 712.485H436.048C439.758 712.485 442.078 708.468 440.222 705.255L422.481 674.525Z" fill="#2B2B2B"/>
<path fill-rule="evenodd" clip-rule="evenodd" d="M50.4242 -76.8379L32.6826 -46.1085L14.941 -76.8379H50.4242ZM36.8571 -43.6984C35.0018 -40.4849 30.3634 -40.4849 28.5081 -43.6984L10.7665 -74.4278C8.91114 -77.6413 11.2303 -81.6582 14.941 -81.6582H50.4242C54.1349 -81.6582 56.454 -77.6413 54.5987 -74.4278L36.8571 -43.6984Z" fill="#2B2B2B"/>
<path fill-rule="evenodd" clip-rule="evenodd" d="M50.4242 323.247L32.6826 353.976L14.941 323.247H50.4242ZM36.8571 356.386C35.0018 359.6 30.3634 359.6 28.5081 356.386L10.7665 325.657C8.91114 322.443 11.2303 318.426 14.941 318.426H50.4242C54.1349 318.426 56.454 322.443 54.5987 325.657L36.8571 356.386Z" fill="#2B2B2B"/>
<path fill-rule="evenodd" clip-rule="evenodd" d="M50.4242 123.204L32.6826 153.934L14.941 123.204H50.4242ZM36.8571 156.344C35.0018 159.557 30.3634 159.557 28.5081 156.344L10.7665 125.614C8.91114 122.401 11.2303 118.384 14.941 118.384H50.4242C54.1349 118.384 56.454 122.401 54.5987 125.614L36.8571 156.344Z" fill="#2B2B2B"/>
<path fill-rule="evenodd" clip-rule="evenodd" d="M50.4242 523.289L32.6826 554.018L14.941 523.289H50.4242ZM36.8571 556.428C35.0018 559.642 30.3634 559.642 28.5081 556.428L10.7665 525.699C8.91114 522.485 11.2303 518.468 14.941 518.468H50.4242C54.1349 518.468 56.454 522.485 54.5987 525.699L36.8571 556.428Z" fill="#2B2B2B"/>
<path fill-rule="evenodd" clip-rule="evenodd" d="M50.4242 24.3883L32.6826 55.1176L14.941 24.3883H50.4242ZM36.8571 57.5278C35.0018 60.7413 30.3634 60.7413 28.5081 57.5278L10.7665 26.7984C8.91114 23.5849 11.2303 19.568 14.941 19.568H50.4242C54.1349 19.568 56.454 23.5849 54.5987 26.7984L36.8571 57.5278Z" fill="#2B2B2B"/>
<path fill-rule="evenodd" clip-rule="evenodd" d="M50.4242 424.472L32.6826 455.202L14.941 424.472H50.4242ZM36.8571 457.612C35.0018 460.826 30.3634 460.826 28.5081 457.612L10.7665 426.883C8.91114 423.669 11.2303 419.652 14.941 419.652H50.4242C54.1349 419.652 56.454 423.669 54.5987 426.883L36.8571 457.612Z" fill="#2B2B2B"/>
<path fill-rule="evenodd" clip-rule="evenodd" d="M50.4242 224.43L32.6826 255.16L14.941 224.43H50.4242ZM36.8571 257.57C35.0018 260.783 30.3634 260.783 28.5081 257.57L10.7665 226.84C8.91114 223.627 11.2303 219.61 14.941 219.61H50.4242C54.1349 219.61 56.454 223.627 54.5987 226.84L36.8571 257.57Z" fill="#2B2B2B"/>
<path fill-rule="evenodd" clip-rule="evenodd" d="M50.4242 624.515L32.6826 655.244L14.941 624.515H50.4242ZM36.8571 657.654C35.0018 660.868 30.3634 660.868 28.5081 657.654L10.7665 626.925C8.91114 623.711 11.2303 619.694 14.941 619.694H50.4242C54.1349 619.694 56.454 623.711 54.5987 626.925L36.8571 657.654Z" fill="#2B2B2B"/>
<path fill-rule="evenodd" clip-rule="evenodd" d="M50.4242 6.31201L32.6826 -24.4174L14.941 6.31201H50.4242ZM36.8571 -26.8275C35.0018 -30.041 30.3634 -30.041 28.5081 -26.8275L10.7665 3.90186C8.91114 7.11539 11.2303 11.1323 14.941 11.1323H50.4242C54.1349 11.1323 56.454 7.11539 54.5987 3.90186L36.8571 -26.8275Z" fill="#2B2B2B"/>
<path fill-rule="evenodd" clip-rule="evenodd" d="M50.4242 406.397L32.6826 375.667L14.941 406.397H50.4242ZM36.8571 373.257C35.0018 370.043 30.3634 370.043 28.5081 373.257L10.7665 403.986C8.91114 407.2 11.2303 411.217 14.941 411.217H50.4242C54.1349 411.217 56.454 407.2 54.5987 403.986L36.8571 373.257Z" fill="#2B2B2B"/>
<path fill-rule="evenodd" clip-rule="evenodd" d="M50.4242 206.354L32.6826 175.625L14.941 206.354H50.4242ZM36.8571 173.215C35.0018 170.001 30.3634 170.001 28.5081 173.215L10.7665 203.944C8.91114 207.158 11.2303 211.175 14.941 211.175H50.4242C54.1349 211.175 56.454 207.158 54.5987 203.944L36.8571 173.215Z" fill="#2B2B2B"/>
<path fill-rule="evenodd" clip-rule="evenodd" d="M50.4242 606.438L32.6826 575.709L14.941 606.438H50.4242ZM36.8571 573.299C35.0018 570.085 30.3634 570.085 28.5081 573.299L10.7665 604.028C8.91114 607.242 11.2303 611.259 14.941 611.259H50.4242C54.1349 611.259 56.454 607.242 54.5987 604.028L36.8571 573.299Z" fill="#2B2B2B"/>
<path fill-rule="evenodd" clip-rule="evenodd" d="M50.4242 107.538L32.6826 76.8088L14.941 107.538H50.4242ZM36.8571 74.3986C35.0018 71.1851 30.3634 71.1851 28.5081 74.3987L10.7665 105.128C8.91114 108.342 11.2303 112.358 14.941 112.358H50.4242C54.1349 112.358 56.454 108.342 54.5987 105.128L36.8571 74.3986Z" fill="#2B2B2B"/>
<path fill-rule="evenodd" clip-rule="evenodd" d="M50.4242 507.623L32.6826 476.893L14.941 507.623H50.4242ZM36.8571 474.483C35.0018 471.27 30.3634 471.27 28.5081 474.483L10.7665 505.213C8.91114 508.426 11.2303 512.443 14.941 512.443H50.4242C54.1349 512.443 56.454 508.426 54.5987 505.213L36.8571 474.483Z" fill="#2B2B2B"/>
<path fill-rule="evenodd" clip-rule="evenodd" d="M50.4242 307.58L32.6826 276.851L14.941 307.58H50.4242ZM36.8571 274.441C35.0018 271.227 30.3634 271.227 28.5081 274.441L10.7665 305.17C8.91114 308.384 11.2303 312.401 14.941 312.401H50.4242C54.1349 312.401 56.454 308.384 54.5987 305.17L36.8571 274.441Z" fill="#2B2B2B"/>
<path fill-rule="evenodd" clip-rule="evenodd" d="M50.4242 707.665L32.6826 676.936L14.941 707.665H50.4242ZM36.8571 674.525C35.0018 671.312 30.3634 671.312 28.5081 674.525L10.7665 705.255C8.91114 708.468 11.2303 712.485 14.941 712.485H50.4242C54.1349 712.485 56.454 708.468 54.5987 705.255L36.8571 674.525Z" fill="#2B2B2B"/>
<path fill-rule="evenodd" clip-rule="evenodd" d="M204.674 -76.8379L186.932 -46.1085L169.19 -76.8379H204.674ZM191.107 -43.6984C189.251 -40.4849 184.613 -40.4849 182.758 -43.6984L165.016 -74.4278C163.161 -77.6413 165.48 -81.6582 169.19 -81.6582H204.674C208.384 -81.6582 210.703 -77.6413 208.848 -74.4278L191.107 -43.6984Z" fill="#2B2B2B"/>
<path fill-rule="evenodd" clip-rule="evenodd" d="M204.674 323.247L186.932 353.976L169.19 323.247H204.674ZM191.107 356.386C189.251 359.6 184.613 359.6 182.758 356.386L165.016 325.657C163.161 322.443 165.48 318.426 169.19 318.426H204.674C208.384 318.426 210.703 322.443 208.848 325.657L191.107 356.386Z" fill="#2B2B2B"/>
<path fill-rule="evenodd" clip-rule="evenodd" d="M204.674 123.204L186.932 153.934L169.19 123.204H204.674ZM191.107 156.344C189.251 159.557 184.613 159.557 182.758 156.344L165.016 125.614C163.161 122.401 165.48 118.384 169.19 118.384H204.674C208.384 118.384 210.703 122.401 208.848 125.614L191.107 156.344Z" fill="#2B2B2B"/>
<path fill-rule="evenodd" clip-rule="evenodd" d="M204.674 523.289L186.932 554.018L169.19 523.289H204.674ZM191.107 556.428C189.251 559.642 184.613 559.642 182.758 556.428L165.016 525.699C163.161 522.485 165.48 518.468 169.19 518.468H204.674C208.384 518.468 210.703 522.485 208.848 525.699L191.107 556.428Z" fill="#2B2B2B"/>
<path fill-rule="evenodd" clip-rule="evenodd" d="M204.674 24.3883L186.932 55.1176L169.19 24.3883H204.674ZM191.107 57.5278C189.251 60.7413 184.613 60.7413 182.758 57.5278L165.016 26.7984C163.161 23.5849 165.48 19.568 169.19 19.568H204.674C208.384 19.568 210.703 23.5849 208.848 26.7984L191.107 57.5278Z" fill="#2B2B2B"/>
<path fill-rule="evenodd" clip-rule="evenodd" d="M204.674 424.472L186.932 455.202L169.19 424.472H204.674ZM191.107 457.612C189.251 460.826 184.613 460.826 182.758 457.612L165.016 426.883C163.161 423.669 165.48 419.652 169.19 419.652H204.674C208.384 419.652 210.703 423.669 208.848 426.883L191.107 457.612Z" fill="#2B2B2B"/>
<path fill-rule="evenodd" clip-rule="evenodd" d="M204.674 224.43L186.932 255.16L169.19 224.43H204.674ZM191.107 257.57C189.251 260.783 184.613 260.783 182.758 257.57L165.016 226.84C163.161 223.627 165.48 219.61 169.19 219.61H204.674C208.384 219.61 210.703 223.627 208.848 226.84L191.107 257.57Z" fill="#2B2B2B"/>
<path fill-rule="evenodd" clip-rule="evenodd" d="M204.674 624.515L186.932 655.244L169.19 624.515H204.674ZM191.107 657.654C189.251 660.868 184.613 660.868 182.758 657.654L165.016 626.925C163.161 623.711 165.48 619.694 169.19 619.694H204.674C208.384 619.694 210.703 623.711 208.848 626.925L191.107 657.654Z" fill="#2B2B2B"/>
<path fill-rule="evenodd" clip-rule="evenodd" d="M204.674 6.31201L186.932 -24.4174L169.19 6.31201H204.674ZM191.107 -26.8275C189.251 -30.041 184.613 -30.041 182.758 -26.8275L165.016 3.90186C163.161 7.11539 165.48 11.1323 169.19 11.1323H204.674C208.384 11.1323 210.703 7.11539 208.848 3.90186L191.107 -26.8275Z" fill="#2B2B2B"/>
<path fill-rule="evenodd" clip-rule="evenodd" d="M204.674 406.397L186.932 375.667L169.19 406.397H204.674ZM191.107 373.257C189.251 370.043 184.613 370.043 182.758 373.257L165.016 403.986C163.161 407.2 165.48 411.217 169.19 411.217H204.674C208.384 411.217 210.703 407.2 208.848 403.986L191.107 373.257Z" fill="#2B2B2B"/>
<path fill-rule="evenodd" clip-rule="evenodd" d="M204.674 206.354L186.932 175.625L169.19 206.354H204.674ZM191.107 173.215C189.251 170.001 184.613 170.001 182.758 173.215L165.016 203.944C163.161 207.158 165.48 211.175 169.19 211.175H204.674C208.384 211.175 210.703 207.158 208.848 203.944L191.107 173.215Z" fill="#2B2B2B"/>
<path fill-rule="evenodd" clip-rule="evenodd" d="M204.674 606.438L186.932 575.709L169.19 606.438H204.674ZM191.107 573.299C189.251 570.085 184.613 570.085 182.758 573.299L165.016 604.028C163.161 607.242 165.48 611.259 169.19 611.259H204.674C208.384 611.259 210.703 607.242 208.848 604.028L191.107 573.299Z" fill="#2B2B2B"/>
<path fill-rule="evenodd" clip-rule="evenodd" d="M204.674 107.538L186.932 76.8088L169.19 107.538H204.674ZM191.107 74.3986C189.251 71.1851 184.613 71.1851 182.758 74.3987L165.016 105.128C163.161 108.342 165.48 112.358 169.19 112.358H204.674C208.384 112.358 210.703 108.342 208.848 105.128L191.107 74.3986Z" fill="#2B2B2B"/>
<path fill-rule="evenodd" clip-rule="evenodd" d="M204.674 507.623L186.932 476.893L169.19 507.623H204.674ZM191.107 474.483C189.251 471.27 184.613 471.27 182.758 474.483L165.016 505.213C163.161 508.426 165.48 512.443 169.19 512.443H204.674C208.384 512.443 210.703 508.426 208.848 505.213L191.107 474.483Z" fill="#2B2B2B"/>
<path fill-rule="evenodd" clip-rule="evenodd" d="M204.674 307.58L186.932 276.851L169.19 307.58H204.674ZM191.107 274.441C189.251 271.227 184.613 271.227 182.758 274.441L165.016 305.17C163.161 308.384 165.48 312.401 169.19 312.401H204.674C208.384 312.401 210.703 308.384 208.848 305.17L191.107 274.441Z" fill="#2B2B2B"/>
<path fill-rule="evenodd" clip-rule="evenodd" d="M204.674 707.665L186.932 676.936L169.19 707.665H204.674ZM191.107 674.525C189.251 671.312 184.613 671.312 182.758 674.525L165.016 705.255C163.161 708.468 165.48 712.485 169.19 712.485H204.674C208.384 712.485 210.703 708.468 208.848 705.255L191.107 674.525Z" fill="#2B2B2B"/>
<path fill-rule="evenodd" clip-rule="evenodd" d="M358.923 -76.8379L341.182 -46.1085L323.44 -76.8379H358.923ZM345.356 -43.6984C343.501 -40.4849 338.862 -40.4849 337.007 -43.6984L319.265 -74.4278C317.41 -77.6413 319.729 -81.6582 323.44 -81.6582H358.923C362.634 -81.6582 364.953 -77.6413 363.098 -74.4278L345.356 -43.6984Z" fill="#2B2B2B"/>
<path fill-rule="evenodd" clip-rule="evenodd" d="M358.923 323.247L341.182 353.976L323.44 323.247H358.923ZM345.356 356.386C343.501 359.6 338.862 359.6 337.007 356.386L319.265 325.657C317.41 322.443 319.729 318.426 323.44 318.426H358.923C362.634 318.426 364.953 322.443 363.098 325.657L345.356 356.386Z" fill="#2B2B2B"/>
<path fill-rule="evenodd" clip-rule="evenodd" d="M358.923 123.204L341.182 153.934L323.44 123.204H358.923ZM345.356 156.344C343.501 159.557 338.862 159.557 337.007 156.344L319.265 125.614C317.41 122.401 319.729 118.384 323.44 118.384H358.923C362.634 118.384 364.953 122.401 363.098 125.614L345.356 156.344Z" fill="#2B2B2B"/>
<path fill-rule="evenodd" clip-rule="evenodd" d="M358.923 523.289L341.182 554.018L323.44 523.289H358.923ZM345.356 556.428C343.501 559.642 338.862 559.642 337.007 556.428L319.265 525.699C317.41 522.485 319.729 518.468 323.44 518.468H358.923C362.634 518.468 364.953 522.485 363.098 525.699L345.356 556.428Z" fill="#2B2B2B"/>
<path fill-rule="evenodd" clip-rule="evenodd" d="M358.923 24.3883L341.182 55.1176L323.44 24.3883H358.923ZM345.356 57.5278C343.501 60.7413 338.862 60.7413 337.007 57.5278L319.265 26.7984C317.41 23.5849 319.729 19.568 323.44 19.568H358.923C362.634 19.568 364.953 23.5849 363.098 26.7984L345.356 57.5278Z" fill="#2B2B2B"/>
<path fill-rule="evenodd" clip-rule="evenodd" d="M358.923 424.472L341.182 455.202L323.44 424.472H358.923ZM345.356 457.612C343.501 460.826 338.862 460.826 337.007 457.612L319.265 426.883C317.41 423.669 319.729 419.652 323.44 419.652H358.923C362.634 419.652 364.953 423.669 363.098 426.883L345.356 457.612Z" fill="#2B2B2B"/>
<path fill-rule="evenodd" clip-rule="evenodd" d="M358.923 224.43L341.182 255.16L323.44 224.43H358.923ZM345.356 257.57C343.501 260.783 338.862 260.783 337.007 257.57L319.265 226.84C317.41 223.627 319.729 219.61 323.44 219.61H358.923C362.634 219.61 364.953 223.627 363.098 226.84L345.356 257.57Z" fill="#2B2B2B"/>
<path fill-rule="evenodd" clip-rule="evenodd" d="M358.923 624.515L341.182 655.244L323.44 624.515H358.923ZM345.356 657.654C343.501 660.868 338.862 660.868 337.007 657.654L319.265 626.925C317.41 623.711 319.729 619.694 323.44 619.694H358.923C362.634 619.694 364.953 623.711 363.098 626.925L345.356 657.654Z" fill="#2B2B2B"/>
<path fill-rule="evenodd" clip-rule="evenodd" d="M358.923 6.31201L341.182 -24.4174L323.44 6.31201H358.923ZM345.356 -26.8275C343.501 -30.041 338.862 -30.041 337.007 -26.8275L319.265 3.90186C317.41 7.11539 319.729 11.1323 323.44 11.1323H358.923C362.634 11.1323 364.953 7.11539 363.098 3.90186L345.356 -26.8275Z" fill="#2B2B2B"/>
<path fill-rule="evenodd" clip-rule="evenodd" d="M358.923 406.397L341.182 375.667L323.44 406.397H358.923ZM345.356 373.257C343.501 370.043 338.862 370.043 337.007 373.257L319.265 403.986C317.41 407.2 319.729 411.217 323.44 411.217H358.923C362.634 411.217 364.953 407.2 363.098 403.986L345.356 373.257Z" fill="#2B2B2B"/>
<path fill-rule="evenodd" clip-rule="evenodd" d="M358.923 206.354L341.182 175.625L323.44 206.354H358.923ZM345.356 173.215C343.501 170.001 338.862 170.001 337.007 173.215L319.265 203.944C317.41 207.158 319.729 211.175 323.44 211.175H358.923C362.634 211.175 364.953 207.158 363.098 203.944L345.356 173.215Z" fill="#2B2B2B"/>
<path fill-rule="evenodd" clip-rule="evenodd" d="M358.923 606.438L341.182 575.709L323.44 606.438H358.923ZM345.356 573.299C343.501 570.085 338.862 570.085 337.007 573.299L319.265 604.028C317.41 607.242 319.729 611.259 323.44 611.259H358.923C362.634 611.259 364.953 607.242 363.098 604.028L345.356 573.299Z" fill="#2B2B2B"/>
<path fill-rule="evenodd" clip-rule="evenodd" d="M358.923 107.538L341.182 76.8088L323.44 107.538H358.923ZM345.356 74.3986C343.501 71.1851 338.862 71.1851 337.007 74.3987L319.265 105.128C317.41 108.342 319.729 112.358 323.44 112.358H358.923C362.634 112.358 364.953 108.342 363.098 105.128L345.356 74.3986Z" fill="#2B2B2B"/>
<path fill-rule="evenodd" clip-rule="evenodd" d="M358.923 507.623L341.182 476.893L323.44 507.623H358.923ZM345.356 474.483C343.501 471.27 338.862 471.27 337.007 474.483L319.265 505.213C317.41 508.426 319.729 512.443 323.44 512.443H358.923C362.634 512.443 364.953 508.426 363.098 505.213L345.356 474.483Z" fill="#2B2B2B"/>
<path fill-rule="evenodd" clip-rule="evenodd" d="M358.923 307.58L341.182 276.851L323.44 307.58H358.923ZM345.356 274.441C343.501 271.227 338.862 271.227 337.007 274.441L319.265 305.17C317.41 308.384 319.729 312.401 323.44 312.401H358.923C362.634 312.401 364.953 308.384 363.098 305.17L345.356 274.441Z" fill="#2B2B2B"/>
<path fill-rule="evenodd" clip-rule="evenodd" d="M358.923 707.665L341.182 676.936L323.44 707.665H358.923ZM345.356 674.525C343.501 671.312 338.862 671.312 337.007 674.525L319.265 705.255C317.41 708.468 319.729 712.485 323.44 712.485H358.923C362.634 712.485 364.953 708.468 363.098 705.255L345.356 674.525Z" fill="#2B2B2B"/>
<path fill-rule="evenodd" clip-rule="evenodd" d="M513.173 -76.8379L495.431 -46.1085L477.689 -76.8379H513.173ZM499.605 -43.6984C497.75 -40.4849 493.112 -40.4849 491.256 -43.6984L473.515 -74.4278C471.659 -77.6413 473.979 -81.6582 477.689 -81.6582H513.173C516.883 -81.6582 519.202 -77.6413 517.347 -74.4278L499.605 -43.6984Z" fill="#2B2B2B"/>
<path fill-rule="evenodd" clip-rule="evenodd" d="M513.173 323.247L495.431 353.976L477.689 323.247H513.173ZM499.605 356.386C497.75 359.6 493.112 359.6 491.256 356.386L473.515 325.657C471.659 322.443 473.979 318.426 477.689 318.426H513.173C516.883 318.426 519.202 322.443 517.347 325.657L499.605 356.386Z" fill="#2B2B2B"/>
<path fill-rule="evenodd" clip-rule="evenodd" d="M513.173 123.204L495.431 153.934L477.689 123.204H513.173ZM499.605 156.344C497.75 159.557 493.112 159.557 491.256 156.344L473.515 125.614C471.659 122.401 473.979 118.384 477.689 118.384H513.173C516.883 118.384 519.202 122.401 517.347 125.614L499.605 156.344Z" fill="#2B2B2B"/>
<path fill-rule="evenodd" clip-rule="evenodd" d="M513.173 523.289L495.431 554.018L477.689 523.289H513.173ZM499.605 556.428C497.75 559.642 493.112 559.642 491.256 556.428L473.515 525.699C471.659 522.485 473.979 518.468 477.689 518.468H513.173C516.883 518.468 519.202 522.485 517.347 525.699L499.605 556.428Z" fill="#2B2B2B"/>
<path fill-rule="evenodd" clip-rule="evenodd" d="M513.173 24.3883L495.431 55.1176L477.689 24.3883H513.173ZM499.605 57.5278C497.75 60.7413 493.112 60.7413 491.256 57.5278L473.515 26.7984C471.659 23.5849 473.979 19.568 477.689 19.568H513.173C516.883 19.568 519.202 23.5849 517.347 26.7984L499.605 57.5278Z" fill="#2B2B2B"/>
<path fill-rule="evenodd" clip-rule="evenodd" d="M513.173 424.472L495.431 455.202L477.689 424.472H513.173ZM499.605 457.612C497.75 460.826 493.112 460.826 491.256 457.612L473.515 426.883C471.659 423.669 473.979 419.652 477.689 419.652H513.173C516.883 419.652 519.202 423.669 517.347 426.883L499.605 457.612Z" fill="#2B2B2B"/>
<path fill-rule="evenodd" clip-rule="evenodd" d="M513.173 224.43L495.431 255.16L477.689 224.43H513.173ZM499.605 257.57C497.75 260.783 493.112 260.783 491.256 257.57L473.515 226.84C471.659 223.627 473.979 219.61 477.689 219.61H513.173C516.883 219.61 519.202 223.627 517.347 226.84L499.605 257.57Z" fill="#2B2B2B"/>
<path fill-rule="evenodd" clip-rule="evenodd" d="M513.173 624.515L495.431 655.244L477.689 624.515H513.173ZM499.605 657.654C497.75 660.868 493.112 660.868 491.256 657.654L473.515 626.925C471.659 623.711 473.979 619.694 477.689 619.694H513.173C516.883 619.694 519.202 623.711 517.347 626.925L499.605 657.654Z" fill="#2B2B2B"/>
<path fill-rule="evenodd" clip-rule="evenodd" d="M513.173 6.31201L495.431 -24.4174L477.689 6.31201H513.173ZM499.605 -26.8275C497.75 -30.041 493.112 -30.041 491.256 -26.8275L473.515 3.90186C471.659 7.11539 473.979 11.1323 477.689 11.1323H513.173C516.883 11.1323 519.202 7.11539 517.347 3.90186L499.605 -26.8275Z" fill="#2B2B2B"/>
<path fill-rule="evenodd" clip-rule="evenodd" d="M513.173 406.397L495.431 375.667L477.689 406.397H513.173ZM499.605 373.257C497.75 370.043 493.112 370.043 491.256 373.257L473.515 403.986C471.659 407.2 473.979 411.217 477.689 411.217H513.173C516.883 411.217 519.202 407.2 517.347 403.986L499.605 373.257Z" fill="#2B2B2B"/>
<path fill-rule="evenodd" clip-rule="evenodd" d="M513.173 206.354L495.431 175.625L477.689 206.354H513.173ZM499.605 173.215C497.75 170.001 493.112 170.001 491.256 173.215L473.515 203.944C471.659 207.158 473.979 211.175 477.689 211.175H513.173C516.883 211.175 519.202 207.158 517.347 203.944L499.605 173.215Z" fill="#2B2B2B"/>
<path fill-rule="evenodd" clip-rule="evenodd" d="M513.173 606.438L495.431 575.709L477.689 606.438H513.173ZM499.605 573.299C497.75 570.085 493.112 570.085 491.256 573.299L473.515 604.028C471.659 607.242 473.979 611.259 477.689 611.259H513.173C516.883 611.259 519.202 607.242 517.347 604.028L499.605 573.299Z" fill="#2B2B2B"/>
<path fill-rule="evenodd" clip-rule="evenodd" d="M513.173 107.538L495.431 76.8088L477.689 107.538H513.173ZM499.605 74.3986C497.75 71.1851 493.112 71.1851 491.256 74.3987L473.515 105.128C471.659 108.342 473.979 112.358 477.689 112.358H513.173C516.883 112.358 519.202 108.342 517.347 105.128L499.605 74.3986Z" fill="#2B2B2B"/>
<path fill-rule="evenodd" clip-rule="evenodd" d="M513.173 507.623L495.431 476.893L477.689 507.623H513.173ZM499.605 474.483C497.75 471.27 493.112 471.27 491.256 474.483L473.515 505.213C471.659 508.426 473.979 512.443 477.689 512.443H513.173C516.883 512.443 519.202 508.426 517.347 505.213L499.605 474.483Z" fill="#2B2B2B"/>
<path fill-rule="evenodd" clip-rule="evenodd" d="M513.173 307.58L495.431 276.851L477.689 307.58H513.173ZM499.605 274.441C497.75 271.227 493.112 271.227 491.256 274.441L473.515 305.17C471.659 308.384 473.979 312.401 477.689 312.401H513.173C516.883 312.401 519.202 308.384 517.347 305.17L499.605 274.441Z" fill="#2B2B2B"/>
<path fill-rule="evenodd" clip-rule="evenodd" d="M513.173 707.665L495.431 676.936L477.689 707.665H513.173ZM499.605 674.525C497.75 671.312 493.112 671.312 491.256 674.525L473.515 705.255C471.659 708.468 473.979 712.485 477.689 712.485H513.173C516.883 712.485 519.202 708.468 517.347 705.255L499.605 674.525Z" fill="#2B2B2B"/>
</g>
</svg>
