<svg width="345" height="567" viewBox="0 0 345 567" fill="none" xmlns="http://www.w3.org/2000/svg">
<mask id="mask0_25_5214" style="mask-type:alpha" maskUnits="userSpaceOnUse" x="0" y="0" width="345" height="567">
<rect x="0.5" y="0.5" width="344" height="566" fill="#2E2E2E" stroke="#3E3E3E"/>
</mask>
<g mask="url(#mask0_25_5214)">
<path fill-rule="evenodd" clip-rule="evenodd" d="M-19.3414 -66.4159L-38.9647 -86.0392C-40.2799 -87.3544 -42.4123 -87.3544 -43.7275 -86.0391L-63.3508 -66.4159C-64.666 -65.1007 -64.666 -62.9683 -63.3508 -61.653L-43.7275 -42.0298C-42.4123 -40.7145 -40.2799 -40.7145 -38.9647 -42.0298L-19.3414 -61.653C-18.0262 -62.9683 -18.0262 -65.1007 -19.3414 -66.4159ZM-36.243 -88.7608C-39.0614 -91.5791 -43.6308 -91.5791 -46.4491 -88.7608L-66.0724 -69.1375C-68.8907 -66.3192 -68.8907 -61.7497 -66.0724 -58.9314L-46.4491 -39.3081C-43.6308 -36.4898 -39.0614 -36.4898 -36.243 -39.3082L-16.6198 -58.9314C-13.8014 -61.7498 -13.8014 -66.3192 -16.6198 -69.1375L-36.243 -88.7608Z" fill="#2A2A2A"/>
<path fill-rule="evenodd" clip-rule="evenodd" d="M364.845 26.44L384.468 6.8167C385.783 5.50149 387.916 5.50149 389.231 6.81671L408.854 26.44C410.169 27.7552 410.169 29.8876 408.854 31.2028L389.231 50.8261C387.916 52.1413 385.783 52.1413 384.468 50.8261L364.845 31.2028C363.529 29.8876 363.529 27.7552 364.845 26.44ZM381.746 4.09509C384.565 1.27676 389.134 1.27677 391.952 4.09509L411.576 23.7184C414.394 26.5367 414.394 31.1061 411.576 33.9244L391.952 53.5477C389.134 56.366 384.565 56.366 381.746 53.5477L362.123 33.9244C359.305 31.1061 359.305 26.5367 362.123 23.7184L381.746 4.09509Z" fill="#2A2A2A"/>
<path fill-rule="evenodd" clip-rule="evenodd" d="M225.067 -66.4159L205.444 -86.0392C204.128 -87.3544 201.996 -87.3544 200.681 -86.0391L181.057 -66.4159C179.742 -65.1007 179.742 -62.9683 181.057 -61.653L200.681 -42.0298C201.996 -40.7145 204.128 -40.7145 205.444 -42.0298L225.067 -61.653C226.382 -62.9683 226.382 -65.1007 225.067 -66.4159ZM208.165 -88.7608C205.347 -91.5791 200.777 -91.5791 197.959 -88.7608L178.336 -69.1375C175.517 -66.3192 175.518 -61.7497 178.336 -58.9314L197.959 -39.3081C200.777 -36.4898 205.347 -36.4898 208.165 -39.3082L227.788 -58.9314C230.607 -61.7498 230.607 -66.3192 227.788 -69.1375L208.165 -88.7608Z" fill="#2A2A2A"/>
<path fill-rule="evenodd" clip-rule="evenodd" d="M120.436 26.44L140.06 6.8167C141.375 5.50149 143.507 5.50149 144.823 6.81671L164.446 26.44C165.761 27.7552 165.761 29.8876 164.446 31.2028L144.823 50.8261C143.507 52.1413 141.375 52.1413 140.06 50.8261L120.436 31.2028C119.121 29.8876 119.121 27.7552 120.436 26.44ZM137.338 4.09509C140.156 1.27676 144.726 1.27677 147.544 4.09509L167.167 23.7184C169.986 26.5367 169.986 31.1061 167.167 33.9244L147.544 53.5477C144.726 56.366 140.156 56.366 137.338 53.5477L117.715 33.9244C114.897 31.1061 114.897 26.5367 117.715 23.7184L137.338 4.09509Z" fill="#2A2A2A"/>
<path fill-rule="evenodd" clip-rule="evenodd" d="M102.863 -66.4159L83.2395 -86.0392C81.9243 -87.3544 79.7919 -87.3544 78.4766 -86.0391L58.8534 -66.4159C57.5381 -65.1007 57.5382 -62.9683 58.8534 -61.653L78.4766 -42.0298C79.7919 -40.7145 81.9243 -40.7145 83.2395 -42.0298L102.863 -61.653C104.178 -62.9683 104.178 -65.1007 102.863 -66.4159ZM85.9611 -88.7608C83.1427 -91.5791 78.5734 -91.5791 75.755 -88.7608L56.1318 -69.1375C53.3134 -66.3192 53.3134 -61.7497 56.1318 -58.9314L75.755 -39.3081C78.5734 -36.4898 83.1428 -36.4898 85.9611 -39.3082L105.584 -58.9314C108.403 -61.7498 108.403 -66.3192 105.584 -69.1375L85.9611 -88.7608Z" fill="#2A2A2A"/>
<path fill-rule="evenodd" clip-rule="evenodd" d="M242.641 26.44L262.264 6.8167C263.579 5.50149 265.711 5.50149 267.027 6.81671L286.65 26.44C287.965 27.7552 287.965 29.8876 286.65 31.2028L267.027 50.8261C265.711 52.1413 263.579 52.1413 262.264 50.8261L242.641 31.2028C241.325 29.8876 241.325 27.7552 242.641 26.44ZM259.542 4.09509C262.361 1.27676 266.93 1.27677 269.748 4.09509L289.372 23.7184C292.19 26.5367 292.19 31.1061 289.372 33.9244L269.748 53.5477C266.93 56.366 262.361 56.366 259.542 53.5477L239.919 33.9244C237.101 31.1061 237.101 26.5367 239.919 23.7184L259.542 4.09509Z" fill="#2A2A2A"/>
<path fill-rule="evenodd" clip-rule="evenodd" d="M347.271 -66.4159L327.648 -86.0392C326.332 -87.3544 324.2 -87.3544 322.885 -86.0391L303.262 -66.4159C301.946 -65.1007 301.946 -62.9683 303.262 -61.653L322.885 -42.0298C324.2 -40.7145 326.332 -40.7145 327.648 -42.0298L347.271 -61.653C348.586 -62.9683 348.586 -65.1007 347.271 -66.4159ZM330.369 -88.7608C327.551 -91.5791 322.982 -91.5791 320.163 -88.7608L300.54 -69.1375C297.722 -66.3192 297.722 -61.7497 300.54 -58.9314L320.163 -39.3081C322.982 -36.4898 327.551 -36.4898 330.369 -39.3082L349.993 -58.9314C352.811 -61.7498 352.811 -66.3192 349.993 -69.1375L330.369 -88.7608Z" fill="#2A2A2A"/>
<path fill-rule="evenodd" clip-rule="evenodd" d="M-1.76759 26.44L17.8557 6.8167C19.1709 5.50149 21.3033 5.50149 22.6185 6.81671L42.2418 26.44C43.557 27.7552 43.557 29.8876 42.2418 31.2028L22.6185 50.8261C21.3033 52.1413 19.1709 52.1413 17.8557 50.8261L-1.76759 31.2028C-3.08281 29.8876 -3.08282 27.7552 -1.76759 26.44ZM15.1341 4.09509C17.9524 1.27676 22.5218 1.27677 25.3401 4.09509L44.9634 23.7184C47.7817 26.5367 47.7817 31.1061 44.9634 33.9244L25.3401 53.5477C22.5218 56.366 17.9524 56.366 15.1341 53.5477L-4.48921 33.9244C-7.30754 31.1061 -7.30753 26.5367 -4.48921 23.7184L15.1341 4.09509Z" fill="#2A2A2A"/>
<path fill-rule="evenodd" clip-rule="evenodd" d="M-49.6518 -14.9845L-69.2751 4.63879C-70.5903 5.95401 -72.7227 5.95401 -74.0379 4.63879L-93.6612 -14.9845C-94.9764 -16.2997 -94.9764 -18.4321 -93.6612 -19.7473L-74.0379 -39.3706C-72.7227 -40.6858 -70.5903 -40.6858 -69.2751 -39.3706L-49.6518 -19.7473C-48.3366 -18.4321 -48.3366 -16.2997 -49.6518 -14.9845ZM-66.5535 7.36041C-69.3718 10.1787 -73.9412 10.1787 -76.7596 7.36041L-96.3828 -12.2629C-99.2012 -15.0812 -99.2012 -19.6506 -96.3828 -22.4689L-76.7596 -42.0922C-73.9412 -44.9105 -69.3718 -44.9105 -66.5535 -42.0922L-46.9302 -22.4689C-44.1119 -19.6506 -44.1119 -15.0812 -46.9302 -12.2629L-66.5535 7.36041Z" fill="#2A2A2A"/>
<path fill-rule="evenodd" clip-rule="evenodd" d="M395.155 77.8714L414.778 97.4947C416.094 98.8099 418.226 98.8099 419.541 97.4946L439.164 77.8714C440.48 76.5562 440.48 74.4238 439.164 73.1085L419.541 53.4853C418.226 52.17 416.094 52.17 414.778 53.4853L395.155 73.1085C393.84 74.4238 393.84 76.5562 395.155 77.8714ZM412.057 100.216C414.875 103.035 419.444 103.035 422.263 100.216L441.886 80.593C444.704 77.7747 444.704 73.2053 441.886 70.3869L422.263 50.7636C419.444 47.9453 414.875 47.9453 412.057 50.7636L392.433 70.3869C389.615 73.2053 389.615 77.7747 392.433 80.593L412.057 100.216Z" fill="#2A2A2A"/>
<path fill-rule="evenodd" clip-rule="evenodd" d="M194.756 -14.9845L175.133 4.63879C173.818 5.95401 171.685 5.95401 170.37 4.63879L150.747 -14.9845C149.432 -16.2997 149.432 -18.4321 150.747 -19.7473L170.37 -39.3706C171.685 -40.6858 173.818 -40.6858 175.133 -39.3706L194.756 -19.7473C196.072 -18.4321 196.072 -16.2997 194.756 -14.9845ZM177.855 7.36041C175.036 10.1787 170.467 10.1787 167.649 7.36041L148.025 -12.2629C145.207 -15.0812 145.207 -19.6506 148.025 -22.4689L167.649 -42.0922C170.467 -44.9105 175.036 -44.9105 177.855 -42.0922L197.478 -22.4689C200.296 -19.6506 200.296 -15.0812 197.478 -12.2629L177.855 7.36041Z" fill="#2A2A2A"/>
<path fill-rule="evenodd" clip-rule="evenodd" d="M150.747 77.8714L170.37 97.4947C171.685 98.8099 173.818 98.8099 175.133 97.4946L194.756 77.8714C196.072 76.5562 196.072 74.4238 194.756 73.1085L175.133 53.4853C173.818 52.17 171.685 52.17 170.37 53.4853L150.747 73.1085C149.432 74.4238 149.432 76.5562 150.747 77.8714ZM167.649 100.216C170.467 103.035 175.036 103.035 177.855 100.216L197.478 80.593C200.296 77.7747 200.296 73.2053 197.478 70.3869L177.855 50.7636C175.036 47.9453 170.467 47.9453 167.649 50.7636L148.025 70.3869C145.207 73.2053 145.207 77.7747 148.025 80.593L167.649 100.216Z" fill="#2A2A2A"/>
<path fill-rule="evenodd" clip-rule="evenodd" d="M72.5523 -14.9845L52.929 4.63879C51.6138 5.95401 49.4814 5.95401 48.1662 4.63879L28.5429 -14.9845C27.2277 -16.2997 27.2277 -18.4321 28.5429 -19.7473L48.1662 -39.3706C49.4814 -40.6858 51.6138 -40.6858 52.929 -39.3706L72.5523 -19.7473C73.8675 -18.4321 73.8675 -16.2997 72.5523 -14.9845ZM55.6506 7.36041C52.8323 10.1787 48.2629 10.1787 45.4446 7.36041L25.8213 -12.2629C23.003 -15.0812 23.003 -19.6506 25.8213 -22.4689L45.4446 -42.0922C48.2629 -44.9105 52.8323 -44.9105 55.6506 -42.0922L75.2739 -22.4689C78.0922 -19.6506 78.0922 -15.0812 75.2739 -12.2629L55.6506 7.36041Z" fill="#2A2A2A"/>
<path fill-rule="evenodd" clip-rule="evenodd" d="M272.951 77.8714L292.574 97.4947C293.89 98.8099 296.022 98.8099 297.337 97.4946L316.96 77.8714C318.276 76.5562 318.276 74.4238 316.96 73.1085L297.337 53.4853C296.022 52.17 293.89 52.17 292.574 53.4853L272.951 73.1085C271.636 74.4238 271.636 76.5562 272.951 77.8714ZM289.853 100.216C292.671 103.035 297.24 103.035 300.059 100.216L319.682 80.593C322.5 77.7747 322.5 73.2053 319.682 70.3869L300.059 50.7636C297.24 47.9453 292.671 47.9453 289.853 50.7636L270.229 70.3869C267.411 73.2053 267.411 77.7747 270.229 80.593L289.853 100.216Z" fill="#2A2A2A"/>
<path fill-rule="evenodd" clip-rule="evenodd" d="M316.96 -14.9845L297.337 4.63879C296.022 5.95401 293.89 5.95401 292.574 4.63879L272.951 -14.9845C271.636 -16.2997 271.636 -18.4321 272.951 -19.7473L292.574 -39.3706C293.89 -40.6858 296.022 -40.6858 297.337 -39.3706L316.96 -19.7473C318.276 -18.4321 318.276 -16.2997 316.96 -14.9845ZM300.059 7.36041C297.24 10.1787 292.671 10.1787 289.853 7.36041L270.229 -12.2629C267.411 -15.0812 267.411 -19.6506 270.229 -22.4689L289.853 -42.0922C292.671 -44.9105 297.24 -44.9105 300.059 -42.0922L319.682 -22.4689C322.5 -19.6506 322.5 -15.0812 319.682 -12.2629L300.059 7.36041Z" fill="#2A2A2A"/>
<path fill-rule="evenodd" clip-rule="evenodd" d="M28.5429 77.8714L48.1661 97.4947C49.4814 98.8099 51.6138 98.8099 52.929 97.4946L72.5523 77.8714C73.8675 76.5562 73.8675 74.4238 72.5522 73.1085L52.929 53.4853C51.6138 52.17 49.4814 52.17 48.1661 53.4853L28.5429 73.1085C27.2276 74.4238 27.2276 76.5562 28.5429 77.8714ZM45.4445 100.216C48.2629 103.035 52.8323 103.035 55.6506 100.216L75.2739 80.593C78.0922 77.7747 78.0922 73.2053 75.2739 70.3869L55.6506 50.7636C52.8323 47.9453 48.2629 47.9453 45.4445 50.7636L25.8212 70.3869C23.0029 73.2053 23.0029 77.7747 25.8212 80.593L45.4445 100.216Z" fill="#2A2A2A"/>
<path fill-rule="evenodd" clip-rule="evenodd" d="M41.7607 -61.653L22.1374 -42.0297C20.8222 -40.7145 18.6898 -40.7145 17.3746 -42.0297L-2.24867 -61.653C-3.56388 -62.9682 -3.56388 -65.1006 -2.24866 -66.4158L17.3746 -86.0391C18.6898 -87.3543 20.8222 -87.3543 22.1374 -86.0391L41.7607 -66.4158C43.0759 -65.1006 43.0759 -62.9682 41.7607 -61.653ZM24.859 -39.3081C22.0407 -36.4897 17.4713 -36.4898 14.653 -39.3081L-4.97029 -58.9314C-7.78862 -61.7497 -7.78861 -66.3191 -4.97028 -69.1374L14.653 -88.7607C17.4713 -91.579 22.0407 -91.579 24.8591 -88.7607L44.4823 -69.1374C47.3007 -66.3191 47.3007 -61.7497 44.4823 -58.9314L24.859 -39.3081Z" fill="#2A2A2A"/>
<path fill-rule="evenodd" clip-rule="evenodd" d="M303.743 31.2029L323.366 50.8262C324.681 52.1414 326.813 52.1414 328.129 50.8262L347.752 31.2029C349.067 29.8877 349.067 27.7553 347.752 26.44L328.129 6.81678C326.813 5.50156 324.681 5.50156 323.366 6.81678L303.743 26.4401C302.427 27.7553 302.427 29.8877 303.743 31.2029ZM320.644 53.5478C323.463 56.3661 328.032 56.3661 330.85 53.5478L350.474 33.9245C353.292 31.1062 353.292 26.5368 350.474 23.7184L330.85 4.09516C328.032 1.27683 323.463 1.27684 320.644 4.09516L301.021 23.7184C298.203 26.5368 298.203 31.1062 301.021 33.9245L320.644 53.5478Z" fill="#2A2A2A"/>
<path fill-rule="evenodd" clip-rule="evenodd" d="M286.169 -61.653L266.546 -42.0297C265.23 -40.7145 263.098 -40.7145 261.783 -42.0297L242.159 -61.653C240.844 -62.9682 240.844 -65.1006 242.159 -66.4158L261.783 -86.0391C263.098 -87.3543 265.23 -87.3543 266.546 -86.0391L286.169 -66.4158C287.484 -65.1006 287.484 -62.9682 286.169 -61.653ZM269.267 -39.3081C266.449 -36.4897 261.879 -36.4898 259.061 -39.3081L239.438 -58.9314C236.62 -61.7497 236.62 -66.3191 239.438 -69.1374L259.061 -88.7607C261.879 -91.579 266.449 -91.579 269.267 -88.7607L288.89 -69.1374C291.709 -66.3191 291.709 -61.7497 288.89 -58.9314L269.267 -39.3081Z" fill="#2A2A2A"/>
<path fill-rule="evenodd" clip-rule="evenodd" d="M59.3344 31.2029L78.9577 50.8262C80.2729 52.1414 82.4053 52.1414 83.7206 50.8262L103.344 31.2029C104.659 29.8877 104.659 27.7553 103.344 26.44L83.7206 6.81678C82.4053 5.50156 80.2729 5.50156 78.9577 6.81678L59.3344 26.4401C58.0192 27.7553 58.0192 29.8877 59.3344 31.2029ZM76.2361 53.5478C79.0544 56.3661 83.6238 56.3661 86.4422 53.5478L106.065 33.9245C108.884 31.1062 108.884 26.5368 106.065 23.7184L86.4422 4.09516C83.6238 1.27683 79.0544 1.27684 76.2361 4.09516L56.6128 23.7184C53.7945 26.5368 53.7945 31.1062 56.6128 33.9245L76.2361 53.5478Z" fill="#2A2A2A"/>
<path fill-rule="evenodd" clip-rule="evenodd" d="M163.965 -61.653L144.342 -42.0297C143.026 -40.7145 140.894 -40.7145 139.579 -42.0297L119.955 -61.653C118.64 -62.9682 118.64 -65.1006 119.955 -66.4158L139.579 -86.0391C140.894 -87.3543 143.026 -87.3543 144.342 -86.0391L163.965 -66.4158C165.28 -65.1006 165.28 -62.9682 163.965 -61.653ZM147.063 -39.3081C144.245 -36.4897 139.675 -36.4898 136.857 -39.3081L117.234 -58.9314C114.415 -61.7497 114.415 -66.3191 117.234 -69.1374L136.857 -88.7607C139.675 -91.579 144.245 -91.579 147.063 -88.7607L166.686 -69.1374C169.505 -66.3191 169.505 -61.7497 166.686 -58.9314L147.063 -39.3081Z" fill="#2A2A2A"/>
<path fill-rule="evenodd" clip-rule="evenodd" d="M181.539 31.2029L201.162 50.8262C202.477 52.1414 204.609 52.1414 205.925 50.8262L225.548 31.2029C226.863 29.8877 226.863 27.7553 225.548 26.44L205.925 6.81678C204.609 5.50156 202.477 5.50156 201.162 6.81678L181.539 26.4401C180.223 27.7553 180.223 29.8877 181.539 31.2029ZM198.44 53.5478C201.259 56.3661 205.828 56.3661 208.646 53.5478L228.27 33.9245C231.088 31.1062 231.088 26.5368 228.27 23.7184L208.646 4.09516C205.828 1.27683 201.258 1.27684 198.44 4.09516L178.817 23.7184C175.999 26.5368 175.999 31.1062 178.817 33.9245L198.44 53.5478Z" fill="#2A2A2A"/>
<path fill-rule="evenodd" clip-rule="evenodd" d="M408.373 -61.653L388.75 -42.0297C387.434 -40.7145 385.302 -40.7145 383.987 -42.0297L364.364 -61.653C363.048 -62.9682 363.048 -65.1006 364.364 -66.4158L383.987 -86.0391C385.302 -87.3543 387.434 -87.3543 388.75 -86.0391L408.373 -66.4158C409.688 -65.1006 409.688 -62.9682 408.373 -61.653ZM391.471 -39.3081C388.653 -36.4897 384.084 -36.4898 381.265 -39.3081L361.642 -58.9314C358.824 -61.7497 358.824 -66.3191 361.642 -69.1374L381.265 -88.7607C384.084 -91.579 388.653 -91.579 391.471 -88.7607L411.095 -69.1374C413.913 -66.3191 413.913 -61.7497 411.095 -58.9314L391.471 -39.3081Z" fill="#2A2A2A"/>
<path fill-rule="evenodd" clip-rule="evenodd" d="M-62.8696 31.2029L-43.2464 50.8262C-41.9311 52.1414 -39.7987 52.1414 -38.4835 50.8262L-18.8602 31.2029C-17.545 29.8877 -17.545 27.7553 -18.8603 26.44L-38.4835 6.81678C-39.7987 5.50156 -41.9311 5.50156 -43.2464 6.81678L-62.8696 26.4401C-64.1848 27.7553 -64.1849 29.8877 -62.8696 31.2029ZM-45.968 53.5478C-43.1496 56.3661 -38.5802 56.3661 -35.7619 53.5478L-16.1386 33.9245C-13.3203 31.1062 -13.3203 26.5368 -16.1386 23.7184L-35.7619 4.09516C-38.5802 1.27683 -43.1496 1.27684 -45.968 4.09516L-65.5912 23.7184C-68.4096 26.5368 -68.4096 31.1062 -65.5912 33.9245L-45.968 53.5478Z" fill="#2A2A2A"/>
<path fill-rule="evenodd" clip-rule="evenodd" d="M11.4502 -19.7474L-8.17308 -39.3707C-9.48829 -40.6859 -11.6207 -40.6859 -12.9359 -39.3707L-32.5592 -19.7474C-33.8744 -18.4322 -33.8744 -16.2998 -32.5592 -14.9845L-12.9359 4.63872C-11.6207 5.95394 -9.4883 5.95394 -8.17307 4.63872L11.4502 -14.9846C12.7654 -16.2998 12.7654 -18.4322 11.4502 -19.7474ZM-5.45146 -42.0923C-8.26979 -44.9106 -12.8392 -44.9106 -15.6575 -42.0923L-35.2808 -22.469C-38.0991 -19.6507 -38.0991 -15.0813 -35.2808 -12.2629L-15.6575 7.36034C-12.8392 10.1787 -8.26978 10.1787 -5.45146 7.36034L14.1718 -12.2629C16.9901 -15.0813 16.9901 -19.6507 14.1718 -22.469L-5.45146 -42.0923Z" fill="#2A2A2A"/>
<path fill-rule="evenodd" clip-rule="evenodd" d="M334.053 73.1085L353.676 53.4852C354.992 52.17 357.124 52.17 358.439 53.4852L378.062 73.1085C379.378 74.4237 379.378 76.5561 378.062 77.8713L358.439 97.4946C357.124 98.8098 354.992 98.8098 353.676 97.4946L334.053 77.8713C332.738 76.5561 332.738 74.4237 334.053 73.1085ZM350.955 50.7636C353.773 47.9453 358.342 47.9453 361.161 50.7636L380.784 70.3869C383.602 73.2052 383.602 77.7746 380.784 80.5929L361.161 100.216C358.342 103.035 353.773 103.035 350.955 100.216L331.331 80.5929C328.513 77.7746 328.513 73.2052 331.331 70.3869L350.955 50.7636Z" fill="#2A2A2A"/>
<path fill-rule="evenodd" clip-rule="evenodd" d="M255.858 -19.7474L236.235 -39.3707C234.92 -40.6859 232.788 -40.6859 231.472 -39.3707L211.849 -19.7474C210.534 -18.4322 210.534 -16.2998 211.849 -14.9845L231.472 4.63872C232.788 5.95394 234.92 5.95394 236.235 4.63872L255.858 -14.9846C257.174 -16.2998 257.174 -18.4322 255.858 -19.7474ZM238.957 -42.0923C236.138 -44.9106 231.569 -44.9106 228.751 -42.0923L209.127 -22.469C206.309 -19.6507 206.309 -15.0813 209.127 -12.2629L228.751 7.36034C231.569 10.1787 236.138 10.1787 238.957 7.36034L258.58 -12.2629C261.398 -15.0813 261.398 -19.6507 258.58 -22.469L238.957 -42.0923Z" fill="#2A2A2A"/>
<path fill-rule="evenodd" clip-rule="evenodd" d="M89.6449 73.1085L109.268 53.4852C110.583 52.17 112.716 52.17 114.031 53.4852L133.654 73.1085C134.97 74.4237 134.969 76.5561 133.654 77.8713L114.031 97.4946C112.716 98.8098 110.583 98.8098 109.268 97.4946L89.6449 77.8713C88.3297 76.5561 88.3297 74.4237 89.6449 73.1085ZM106.547 50.7636C109.365 47.9453 113.934 47.9453 116.753 50.7636L136.376 70.3869C139.194 73.2052 139.194 77.7746 136.376 80.5929L116.753 100.216C113.934 103.035 109.365 103.035 106.547 100.216L86.9233 80.5929C84.1049 77.7746 84.105 73.2052 86.9233 70.3869L106.547 50.7636Z" fill="#2A2A2A"/>
<path fill-rule="evenodd" clip-rule="evenodd" d="M133.654 -19.7474L114.031 -39.3707C112.716 -40.6859 110.583 -40.6859 109.268 -39.3707L89.6449 -19.7474C88.3297 -18.4322 88.3297 -16.2998 89.645 -14.9845L109.268 4.63872C110.583 5.95394 112.716 5.95394 114.031 4.63872L133.654 -14.9846C134.97 -16.2998 134.97 -18.4322 133.654 -19.7474ZM116.753 -42.0923C113.934 -44.9106 109.365 -44.9106 106.547 -42.0923L86.9233 -22.469C84.105 -19.6507 84.105 -15.0813 86.9233 -12.2629L106.547 7.36034C109.365 10.1787 113.934 10.1787 116.753 7.36034L136.376 -12.2629C139.194 -15.0813 139.194 -19.6507 136.376 -22.469L116.753 -42.0923Z" fill="#2A2A2A"/>
<path fill-rule="evenodd" clip-rule="evenodd" d="M211.849 73.1085L231.472 53.4852C232.787 52.17 234.92 52.17 236.235 53.4852L255.858 73.1085C257.174 74.4237 257.174 76.5561 255.858 77.8713L236.235 97.4946C234.92 98.8098 232.787 98.8098 231.472 97.4946L211.849 77.8713C210.534 76.5561 210.534 74.4237 211.849 73.1085ZM228.751 50.7636C231.569 47.9453 236.138 47.9453 238.957 50.7636L258.58 70.3869C261.398 73.2052 261.398 77.7746 258.58 80.5929L238.957 100.216C236.138 103.035 231.569 103.035 228.751 100.216L209.127 80.5929C206.309 77.7746 206.309 73.2052 209.127 70.3869L228.751 50.7636Z" fill="#2A2A2A"/>
<path fill-rule="evenodd" clip-rule="evenodd" d="M378.062 -19.7474L358.439 -39.3707C357.124 -40.6859 354.992 -40.6859 353.676 -39.3707L334.053 -19.7474C332.738 -18.4322 332.738 -16.2998 334.053 -14.9845L353.676 4.63872C354.992 5.95394 357.124 5.95394 358.439 4.63872L378.062 -14.9846C379.378 -16.2998 379.378 -18.4322 378.062 -19.7474ZM361.161 -42.0923C358.342 -44.9106 353.773 -44.9106 350.955 -42.0923L331.331 -22.469C328.513 -19.6507 328.513 -15.0813 331.331 -12.2629L350.955 7.36034C353.773 10.1787 358.342 10.1787 361.161 7.36034L380.784 -12.2629C383.602 -15.0813 383.602 -19.6507 380.784 -22.469L361.161 -42.0923Z" fill="#2A2A2A"/>
<path fill-rule="evenodd" clip-rule="evenodd" d="M-32.5592 73.1085L-12.9359 53.4852C-11.6207 52.17 -9.48829 52.17 -8.17307 53.4852L11.4502 73.1085C12.7654 74.4237 12.7654 76.5561 11.4502 77.8713L-8.17307 97.4946C-9.48829 98.8098 -11.6207 98.8098 -12.9359 97.4946L-32.5592 77.8713C-33.8744 76.5561 -33.8744 74.4237 -32.5592 73.1085ZM-15.6575 50.7636C-12.8392 47.9453 -8.26977 47.9453 -5.45144 50.7636L14.1718 70.3869C16.9902 73.2052 16.9902 77.7746 14.1718 80.5929L-5.45145 100.216C-8.26978 103.035 -12.8392 103.035 -15.6575 100.216L-35.2808 80.5929C-38.0991 77.7746 -38.0991 73.2052 -35.2808 70.3869L-15.6575 50.7636Z" fill="#2A2A2A"/>
<path fill-rule="evenodd" clip-rule="evenodd" d="M439.165 -19.7474L419.541 -39.3707C418.226 -40.6859 416.094 -40.6859 414.778 -39.3707L395.155 -19.7474C393.84 -18.4322 393.84 -16.2998 395.155 -14.9845L414.778 4.63872C416.094 5.95394 418.226 5.95394 419.541 4.63872L439.165 -14.9846C440.48 -16.2998 440.48 -18.4322 439.165 -19.7474ZM422.263 -42.0923C419.445 -44.9106 414.875 -44.9106 412.057 -42.0923L392.434 -22.469C389.615 -19.6507 389.615 -15.0813 392.434 -12.2629L412.057 7.36034C414.875 10.1787 419.445 10.1787 422.263 7.36034L441.886 -12.2629C444.704 -15.0813 444.704 -19.6507 441.886 -22.469L422.263 -42.0923Z" fill="#2A2A2A"/>
<path fill-rule="evenodd" clip-rule="evenodd" d="M-93.6611 73.1085L-74.0379 53.4852C-72.7227 52.17 -70.5903 52.17 -69.275 53.4852L-49.6518 73.1085C-48.3366 74.4237 -48.3365 76.5561 -49.6518 77.8713L-69.275 97.4946C-70.5903 98.8098 -72.7227 98.8098 -74.0379 97.4946L-93.6611 77.8713C-94.9764 76.5561 -94.9764 74.4237 -93.6611 73.1085ZM-76.7595 50.7636C-73.9412 47.9453 -69.3718 47.9453 -66.5534 50.7636L-46.9301 70.3869C-44.1118 73.2052 -44.1118 77.7746 -46.9302 80.5929L-66.5534 100.216C-69.3718 103.035 -73.9412 103.035 -76.7595 100.216L-96.3828 80.5929C-99.2011 77.7746 -99.2011 73.2052 -96.3828 70.3869L-76.7595 50.7636Z" fill="#2A2A2A"/>
<path fill-rule="evenodd" clip-rule="evenodd" d="M-19.3414 119.296L-38.9647 99.6725C-40.2799 98.3573 -42.4123 98.3573 -43.7275 99.6726L-63.3508 119.296C-64.666 120.611 -64.666 122.743 -63.3508 124.059L-43.7275 143.682C-42.4123 144.997 -40.2799 144.997 -38.9647 143.682L-19.3414 124.059C-18.0262 122.743 -18.0262 120.611 -19.3414 119.296ZM-36.243 96.951C-39.0614 94.1326 -43.6308 94.1326 -46.4491 96.951L-66.0724 116.574C-68.8907 119.393 -68.8907 123.962 -66.0724 126.78L-46.4491 146.404C-43.6308 149.222 -39.0614 149.222 -36.243 146.404L-16.6198 126.78C-13.8014 123.962 -13.8014 119.393 -16.6198 116.574L-36.243 96.951Z" fill="#2A2A2A"/>
<path fill-rule="evenodd" clip-rule="evenodd" d="M364.845 212.152L384.468 192.528C385.783 191.213 387.916 191.213 389.231 192.528L408.854 212.152C410.169 213.467 410.169 215.599 408.854 216.915L389.231 236.538C387.916 237.853 385.783 237.853 384.468 236.538L364.845 216.915C363.529 215.599 363.529 213.467 364.845 212.152ZM381.746 189.807C384.565 186.988 389.134 186.988 391.952 189.807L411.576 209.43C414.394 212.248 414.394 216.818 411.576 219.636L391.952 239.259C389.134 242.078 384.565 242.078 381.746 239.259L362.123 219.636C359.305 216.818 359.305 212.248 362.123 209.43L381.746 189.807Z" fill="#2A2A2A"/>
<path fill-rule="evenodd" clip-rule="evenodd" d="M225.067 119.296L205.444 99.6725C204.128 98.3573 201.996 98.3573 200.681 99.6726L181.057 119.296C179.742 120.611 179.742 122.743 181.057 124.059L200.681 143.682C201.996 144.997 204.128 144.997 205.444 143.682L225.067 124.059C226.382 122.743 226.382 120.611 225.067 119.296ZM208.165 96.951C205.347 94.1326 200.777 94.1326 197.959 96.951L178.336 116.574C175.517 119.393 175.518 123.962 178.336 126.78L197.959 146.404C200.777 149.222 205.347 149.222 208.165 146.404L227.788 126.78C230.607 123.962 230.607 119.393 227.788 116.574L208.165 96.951Z" fill="#2A2A2A"/>
<path fill-rule="evenodd" clip-rule="evenodd" d="M120.436 212.152L140.06 192.528C141.375 191.213 143.507 191.213 144.823 192.528L164.446 212.152C165.761 213.467 165.761 215.599 164.446 216.915L144.823 236.538C143.507 237.853 141.375 237.853 140.06 236.538L120.436 216.915C119.121 215.599 119.121 213.467 120.436 212.152ZM137.338 189.807C140.156 186.988 144.726 186.988 147.544 189.807L167.167 209.43C169.986 212.248 169.986 216.818 167.167 219.636L147.544 239.259C144.726 242.078 140.156 242.078 137.338 239.259L117.715 219.636C114.897 216.818 114.897 212.248 117.715 209.43L137.338 189.807Z" fill="#2A2A2A"/>
<path fill-rule="evenodd" clip-rule="evenodd" d="M102.863 119.296L83.2395 99.6725C81.9243 98.3573 79.7919 98.3573 78.4766 99.6726L58.8534 119.296C57.5381 120.611 57.5382 122.743 58.8534 124.059L78.4766 143.682C79.7919 144.997 81.9243 144.997 83.2395 143.682L102.863 124.059C104.178 122.743 104.178 120.611 102.863 119.296ZM85.9611 96.951C83.1427 94.1326 78.5734 94.1326 75.755 96.951L56.1318 116.574C53.3134 119.393 53.3134 123.962 56.1318 126.78L75.755 146.404C78.5734 149.222 83.1428 149.222 85.9611 146.404L105.584 126.78C108.403 123.962 108.403 119.393 105.584 116.574L85.9611 96.951Z" fill="#2A2A2A"/>
<path fill-rule="evenodd" clip-rule="evenodd" d="M242.641 212.152L262.264 192.528C263.579 191.213 265.711 191.213 267.027 192.528L286.65 212.152C287.965 213.467 287.965 215.599 286.65 216.915L267.027 236.538C265.711 237.853 263.579 237.853 262.264 236.538L242.641 216.915C241.325 215.599 241.325 213.467 242.641 212.152ZM259.542 189.807C262.361 186.988 266.93 186.988 269.748 189.807L289.372 209.43C292.19 212.248 292.19 216.818 289.372 219.636L269.748 239.259C266.93 242.078 262.361 242.078 259.542 239.259L239.919 219.636C237.101 216.818 237.101 212.248 239.919 209.43L259.542 189.807Z" fill="#2A2A2A"/>
<path fill-rule="evenodd" clip-rule="evenodd" d="M347.271 119.296L327.648 99.6725C326.332 98.3573 324.2 98.3573 322.885 99.6726L303.262 119.296C301.946 120.611 301.946 122.743 303.262 124.059L322.885 143.682C324.2 144.997 326.332 144.997 327.648 143.682L347.271 124.059C348.586 122.743 348.586 120.611 347.271 119.296ZM330.369 96.951C327.551 94.1326 322.982 94.1326 320.163 96.951L300.54 116.574C297.722 119.393 297.722 123.962 300.54 126.78L320.163 146.404C322.982 149.222 327.551 149.222 330.369 146.404L349.993 126.78C352.811 123.962 352.811 119.393 349.993 116.574L330.369 96.951Z" fill="#2A2A2A"/>
<path fill-rule="evenodd" clip-rule="evenodd" d="M-1.76759 212.152L17.8557 192.528C19.1709 191.213 21.3033 191.213 22.6185 192.528L42.2418 212.152C43.557 213.467 43.557 215.599 42.2418 216.915L22.6185 236.538C21.3033 237.853 19.1709 237.853 17.8557 236.538L-1.76759 216.915C-3.08281 215.599 -3.08282 213.467 -1.76759 212.152ZM15.1341 189.807C17.9524 186.988 22.5218 186.988 25.3401 189.807L44.9634 209.43C47.7817 212.248 47.7817 216.818 44.9634 219.636L25.3401 239.259C22.5218 242.078 17.9524 242.078 15.1341 239.259L-4.48921 219.636C-7.30754 216.818 -7.30753 212.248 -4.48921 209.43L15.1341 189.807Z" fill="#2A2A2A"/>
<path fill-rule="evenodd" clip-rule="evenodd" d="M-49.6518 170.727L-69.2751 190.351C-70.5903 191.666 -72.7227 191.666 -74.0379 190.351L-93.6612 170.727C-94.9764 169.412 -94.9764 167.28 -93.6612 165.964L-74.0379 146.341C-72.7227 145.026 -70.5903 145.026 -69.2751 146.341L-49.6518 165.964C-48.3366 167.28 -48.3366 169.412 -49.6518 170.727ZM-66.5535 193.072C-69.3718 195.89 -73.9412 195.89 -76.7596 193.072L-96.3828 173.449C-99.2012 170.631 -99.2012 166.061 -96.3828 163.243L-76.7596 143.62C-73.9412 140.801 -69.3718 140.801 -66.5535 143.62L-46.9302 163.243C-44.1119 166.061 -44.1119 170.631 -46.9302 173.449L-66.5535 193.072Z" fill="#2A2A2A"/>
<path fill-rule="evenodd" clip-rule="evenodd" d="M395.155 263.583L414.778 283.206C416.094 284.522 418.226 284.522 419.541 283.206L439.164 263.583C440.48 262.268 440.48 260.135 439.164 258.82L419.541 239.197C418.226 237.882 416.094 237.882 414.778 239.197L395.155 258.82C393.84 260.135 393.84 262.268 395.155 263.583ZM412.057 285.928C414.875 288.746 419.444 288.746 422.263 285.928L441.886 266.305C444.704 263.486 444.704 258.917 441.886 256.099L422.263 236.475C419.444 233.657 414.875 233.657 412.057 236.475L392.433 256.099C389.615 258.917 389.615 263.486 392.433 266.305L412.057 285.928Z" fill="#2A2A2A"/>
<path fill-rule="evenodd" clip-rule="evenodd" d="M194.756 170.727L175.133 190.351C173.818 191.666 171.685 191.666 170.37 190.351L150.747 170.727C149.432 169.412 149.432 167.28 150.747 165.964L170.37 146.341C171.685 145.026 173.818 145.026 175.133 146.341L194.756 165.964C196.072 167.28 196.072 169.412 194.756 170.727ZM177.855 193.072C175.036 195.89 170.467 195.89 167.649 193.072L148.025 173.449C145.207 170.631 145.207 166.061 148.025 163.243L167.649 143.62C170.467 140.801 175.036 140.801 177.855 143.62L197.478 163.243C200.296 166.061 200.296 170.631 197.478 173.449L177.855 193.072Z" fill="#2A2A2A"/>
<path fill-rule="evenodd" clip-rule="evenodd" d="M150.747 263.583L170.37 283.206C171.685 284.522 173.818 284.522 175.133 283.206L194.756 263.583C196.072 262.268 196.072 260.135 194.756 258.82L175.133 239.197C173.818 237.882 171.685 237.882 170.37 239.197L150.747 258.82C149.432 260.135 149.432 262.268 150.747 263.583ZM167.649 285.928C170.467 288.746 175.036 288.746 177.855 285.928L197.478 266.305C200.296 263.486 200.296 258.917 197.478 256.099L177.855 236.475C175.036 233.657 170.467 233.657 167.649 236.475L148.025 256.099C145.207 258.917 145.207 263.486 148.025 266.305L167.649 285.928Z" fill="#2A2A2A"/>
<path fill-rule="evenodd" clip-rule="evenodd" d="M72.5523 170.727L52.929 190.351C51.6138 191.666 49.4814 191.666 48.1662 190.351L28.5429 170.727C27.2277 169.412 27.2277 167.28 28.5429 165.964L48.1662 146.341C49.4814 145.026 51.6138 145.026 52.929 146.341L72.5523 165.964C73.8675 167.28 73.8675 169.412 72.5523 170.727ZM55.6506 193.072C52.8323 195.89 48.2629 195.89 45.4446 193.072L25.8213 173.449C23.003 170.631 23.003 166.061 25.8213 163.243L45.4446 143.62C48.2629 140.801 52.8323 140.801 55.6506 143.62L75.2739 163.243C78.0922 166.061 78.0922 170.631 75.2739 173.449L55.6506 193.072Z" fill="#2A2A2A"/>
<path fill-rule="evenodd" clip-rule="evenodd" d="M272.951 263.583L292.574 283.206C293.89 284.522 296.022 284.522 297.337 283.206L316.96 263.583C318.276 262.268 318.276 260.135 316.96 258.82L297.337 239.197C296.022 237.882 293.89 237.882 292.574 239.197L272.951 258.82C271.636 260.135 271.636 262.268 272.951 263.583ZM289.853 285.928C292.671 288.746 297.24 288.746 300.059 285.928L319.682 266.305C322.5 263.486 322.5 258.917 319.682 256.099L300.059 236.475C297.24 233.657 292.671 233.657 289.853 236.475L270.229 256.099C267.411 258.917 267.411 263.486 270.229 266.305L289.853 285.928Z" fill="#2A2A2A"/>
<path fill-rule="evenodd" clip-rule="evenodd" d="M316.96 170.727L297.337 190.351C296.022 191.666 293.89 191.666 292.574 190.351L272.951 170.727C271.636 169.412 271.636 167.28 272.951 165.964L292.574 146.341C293.89 145.026 296.022 145.026 297.337 146.341L316.96 165.964C318.276 167.28 318.276 169.412 316.96 170.727ZM300.059 193.072C297.24 195.89 292.671 195.89 289.853 193.072L270.229 173.449C267.411 170.631 267.411 166.061 270.229 163.243L289.853 143.62C292.671 140.801 297.24 140.801 300.059 143.62L319.682 163.243C322.5 166.061 322.5 170.631 319.682 173.449L300.059 193.072Z" fill="#2A2A2A"/>
<path fill-rule="evenodd" clip-rule="evenodd" d="M28.5429 263.583L48.1661 283.206C49.4814 284.522 51.6138 284.522 52.929 283.206L72.5523 263.583C73.8675 262.268 73.8675 260.135 72.5522 258.82L52.929 239.197C51.6138 237.882 49.4814 237.882 48.1661 239.197L28.5429 258.82C27.2276 260.135 27.2276 262.268 28.5429 263.583ZM45.4445 285.928C48.2629 288.746 52.8323 288.746 55.6506 285.928L75.2739 266.305C78.0922 263.486 78.0922 258.917 75.2739 256.099L55.6506 236.475C52.8323 233.657 48.2629 233.657 45.4445 236.475L25.8212 256.099C23.0029 258.917 23.0029 263.486 25.8212 266.305L45.4445 285.928Z" fill="#2A2A2A"/>
<path fill-rule="evenodd" clip-rule="evenodd" d="M41.7607 124.059L22.1374 143.682C20.8222 144.997 18.6898 144.997 17.3746 143.682L-2.24867 124.059C-3.56388 122.744 -3.56388 120.611 -2.24866 119.296L17.3746 99.6726C18.6898 98.3574 20.8222 98.3574 22.1374 99.6726L41.7607 119.296C43.0759 120.611 43.0759 122.744 41.7607 124.059ZM24.859 146.404C22.0407 149.222 17.4713 149.222 14.653 146.404L-4.97029 126.78C-7.78862 123.962 -7.78861 119.393 -4.97028 116.574L14.653 96.951C17.4713 94.1327 22.0407 94.1327 24.8591 96.951L44.4823 116.574C47.3007 119.393 47.3007 123.962 44.4823 126.78L24.859 146.404Z" fill="#2A2A2A"/>
<path fill-rule="evenodd" clip-rule="evenodd" d="M303.743 216.915L323.366 236.538C324.681 237.853 326.813 237.853 328.129 236.538L347.752 216.915C349.067 215.599 349.067 213.467 347.752 212.152L328.129 192.529C326.813 191.213 324.681 191.213 323.366 192.529L303.743 212.152C302.427 213.467 302.427 215.599 303.743 216.915ZM320.644 239.259C323.463 242.078 328.032 242.078 330.85 239.259L350.474 219.636C353.292 216.818 353.292 212.248 350.474 209.43L330.85 189.807C328.032 186.989 323.463 186.989 320.644 189.807L301.021 209.43C298.203 212.248 298.203 216.818 301.021 219.636L320.644 239.259Z" fill="#2A2A2A"/>
<path fill-rule="evenodd" clip-rule="evenodd" d="M286.169 124.059L266.546 143.682C265.23 144.997 263.098 144.997 261.783 143.682L242.159 124.059C240.844 122.744 240.844 120.611 242.159 119.296L261.783 99.6726C263.098 98.3574 265.23 98.3574 266.546 99.6726L286.169 119.296C287.484 120.611 287.484 122.744 286.169 124.059ZM269.267 146.404C266.449 149.222 261.879 149.222 259.061 146.404L239.438 126.78C236.62 123.962 236.62 119.393 239.438 116.574L259.061 96.951C261.879 94.1327 266.449 94.1327 269.267 96.951L288.89 116.574C291.709 119.393 291.709 123.962 288.89 126.78L269.267 146.404Z" fill="#2A2A2A"/>
<path fill-rule="evenodd" clip-rule="evenodd" d="M59.3344 216.915L78.9577 236.538C80.2729 237.853 82.4053 237.853 83.7206 236.538L103.344 216.915C104.659 215.599 104.659 213.467 103.344 212.152L83.7206 192.529C82.4053 191.213 80.2729 191.213 78.9577 192.529L59.3344 212.152C58.0192 213.467 58.0192 215.599 59.3344 216.915ZM76.2361 239.259C79.0544 242.078 83.6238 242.078 86.4422 239.259L106.065 219.636C108.884 216.818 108.884 212.248 106.065 209.43L86.4422 189.807C83.6238 186.989 79.0544 186.989 76.2361 189.807L56.6128 209.43C53.7945 212.248 53.7945 216.818 56.6128 219.636L76.2361 239.259Z" fill="#2A2A2A"/>
<path fill-rule="evenodd" clip-rule="evenodd" d="M163.965 124.059L144.342 143.682C143.026 144.997 140.894 144.997 139.579 143.682L119.955 124.059C118.64 122.744 118.64 120.611 119.955 119.296L139.579 99.6726C140.894 98.3574 143.026 98.3574 144.342 99.6726L163.965 119.296C165.28 120.611 165.28 122.744 163.965 124.059ZM147.063 146.404C144.245 149.222 139.675 149.222 136.857 146.404L117.234 126.78C114.415 123.962 114.415 119.393 117.234 116.574L136.857 96.951C139.675 94.1327 144.245 94.1327 147.063 96.951L166.686 116.574C169.505 119.393 169.505 123.962 166.686 126.78L147.063 146.404Z" fill="#2A2A2A"/>
<path fill-rule="evenodd" clip-rule="evenodd" d="M181.539 216.915L201.162 236.538C202.477 237.853 204.609 237.853 205.925 236.538L225.548 216.915C226.863 215.599 226.863 213.467 225.548 212.152L205.925 192.529C204.609 191.213 202.477 191.213 201.162 192.529L181.539 212.152C180.223 213.467 180.223 215.599 181.539 216.915ZM198.44 239.259C201.259 242.078 205.828 242.078 208.646 239.259L228.27 219.636C231.088 216.818 231.088 212.248 228.27 209.43L208.646 189.807C205.828 186.989 201.258 186.989 198.44 189.807L178.817 209.43C175.999 212.248 175.999 216.818 178.817 219.636L198.44 239.259Z" fill="#2A2A2A"/>
<path fill-rule="evenodd" clip-rule="evenodd" d="M408.373 124.059L388.75 143.682C387.434 144.997 385.302 144.997 383.987 143.682L364.364 124.059C363.048 122.744 363.048 120.611 364.364 119.296L383.987 99.6726C385.302 98.3574 387.434 98.3574 388.75 99.6726L408.373 119.296C409.688 120.611 409.688 122.744 408.373 124.059ZM391.471 146.404C388.653 149.222 384.084 149.222 381.265 146.404L361.642 126.78C358.824 123.962 358.824 119.393 361.642 116.574L381.265 96.951C384.084 94.1327 388.653 94.1327 391.471 96.951L411.095 116.574C413.913 119.393 413.913 123.962 411.095 126.78L391.471 146.404Z" fill="#2A2A2A"/>
<path fill-rule="evenodd" clip-rule="evenodd" d="M-62.8696 216.915L-43.2464 236.538C-41.9311 237.853 -39.7987 237.853 -38.4835 236.538L-18.8602 216.915C-17.545 215.599 -17.545 213.467 -18.8603 212.152L-38.4835 192.529C-39.7987 191.213 -41.9311 191.213 -43.2464 192.529L-62.8696 212.152C-64.1848 213.467 -64.1849 215.599 -62.8696 216.915ZM-45.968 239.259C-43.1496 242.078 -38.5802 242.078 -35.7619 239.259L-16.1386 219.636C-13.3203 216.818 -13.3203 212.248 -16.1386 209.43L-35.7619 189.807C-38.5802 186.989 -43.1496 186.989 -45.968 189.807L-65.5912 209.43C-68.4096 212.248 -68.4096 216.818 -65.5912 219.636L-45.968 239.259Z" fill="#2A2A2A"/>
<path fill-rule="evenodd" clip-rule="evenodd" d="M11.4502 165.964L-8.17308 146.341C-9.48829 145.026 -11.6207 145.026 -12.9359 146.341L-32.5592 165.964C-33.8744 167.28 -33.8744 169.412 -32.5592 170.727L-12.9359 190.35C-11.6207 191.666 -9.4883 191.666 -8.17307 190.35L11.4502 170.727C12.7654 169.412 12.7654 167.28 11.4502 165.964ZM-5.45146 143.619C-8.26979 140.801 -12.8392 140.801 -15.6575 143.619L-35.2808 163.243C-38.0991 166.061 -38.0991 170.63 -35.2808 173.449L-15.6575 193.072C-12.8392 195.89 -8.26978 195.89 -5.45146 193.072L14.1718 173.449C16.9901 170.63 16.9901 166.061 14.1718 163.243L-5.45146 143.619Z" fill="#2A2A2A"/>
<path fill-rule="evenodd" clip-rule="evenodd" d="M334.053 258.82L353.676 239.197C354.992 237.882 357.124 237.882 358.439 239.197L378.062 258.82C379.378 260.135 379.378 262.268 378.062 263.583L358.439 283.206C357.124 284.521 354.992 284.522 353.676 283.206L334.053 263.583C332.738 262.268 332.738 260.135 334.053 258.82ZM350.955 236.475C353.773 233.657 358.342 233.657 361.161 236.475L380.784 256.099C383.602 258.917 383.602 263.486 380.784 266.305L361.161 285.928C358.342 288.746 353.773 288.746 350.955 285.928L331.331 266.305C328.513 263.486 328.513 258.917 331.331 256.099L350.955 236.475Z" fill="#2A2A2A"/>
<path fill-rule="evenodd" clip-rule="evenodd" d="M255.858 165.964L236.235 146.341C234.92 145.026 232.788 145.026 231.472 146.341L211.849 165.964C210.534 167.28 210.534 169.412 211.849 170.727L231.472 190.35C232.788 191.666 234.92 191.666 236.235 190.35L255.858 170.727C257.174 169.412 257.174 167.28 255.858 165.964ZM238.957 143.619C236.138 140.801 231.569 140.801 228.751 143.619L209.127 163.243C206.309 166.061 206.309 170.63 209.127 173.449L228.751 193.072C231.569 195.89 236.138 195.89 238.957 193.072L258.58 173.449C261.398 170.63 261.398 166.061 258.58 163.243L238.957 143.619Z" fill="#2A2A2A"/>
<path fill-rule="evenodd" clip-rule="evenodd" d="M89.6449 258.82L109.268 239.197C110.583 237.882 112.716 237.882 114.031 239.197L133.654 258.82C134.97 260.135 134.969 262.268 133.654 263.583L114.031 283.206C112.716 284.521 110.583 284.522 109.268 283.206L89.6449 263.583C88.3297 262.268 88.3297 260.135 89.6449 258.82ZM106.547 236.475C109.365 233.657 113.934 233.657 116.753 236.475L136.376 256.099C139.194 258.917 139.194 263.486 136.376 266.305L116.753 285.928C113.934 288.746 109.365 288.746 106.547 285.928L86.9233 266.305C84.1049 263.486 84.105 258.917 86.9233 256.099L106.547 236.475Z" fill="#2A2A2A"/>
<path fill-rule="evenodd" clip-rule="evenodd" d="M133.654 165.964L114.031 146.341C112.716 145.026 110.583 145.026 109.268 146.341L89.6449 165.964C88.3297 167.28 88.3297 169.412 89.645 170.727L109.268 190.35C110.583 191.666 112.716 191.666 114.031 190.35L133.654 170.727C134.97 169.412 134.97 167.28 133.654 165.964ZM116.753 143.619C113.934 140.801 109.365 140.801 106.547 143.619L86.9233 163.243C84.105 166.061 84.105 170.63 86.9233 173.449L106.547 193.072C109.365 195.89 113.934 195.89 116.753 193.072L136.376 173.449C139.194 170.63 139.194 166.061 136.376 163.243L116.753 143.619Z" fill="#2A2A2A"/>
<path fill-rule="evenodd" clip-rule="evenodd" d="M211.849 258.82L231.472 239.197C232.787 237.882 234.92 237.882 236.235 239.197L255.858 258.82C257.174 260.135 257.174 262.268 255.858 263.583L236.235 283.206C234.92 284.521 232.787 284.522 231.472 283.206L211.849 263.583C210.534 262.268 210.534 260.135 211.849 258.82ZM228.751 236.475C231.569 233.657 236.138 233.657 238.957 236.475L258.58 256.099C261.398 258.917 261.398 263.486 258.58 266.305L238.957 285.928C236.138 288.746 231.569 288.746 228.751 285.928L209.127 266.305C206.309 263.486 206.309 258.917 209.127 256.099L228.751 236.475Z" fill="#2A2A2A"/>
<path fill-rule="evenodd" clip-rule="evenodd" d="M378.062 165.964L358.439 146.341C357.124 145.026 354.992 145.026 353.676 146.341L334.053 165.964C332.738 167.28 332.738 169.412 334.053 170.727L353.676 190.35C354.992 191.666 357.124 191.666 358.439 190.35L378.062 170.727C379.378 169.412 379.378 167.28 378.062 165.964ZM361.161 143.619C358.342 140.801 353.773 140.801 350.955 143.619L331.331 163.243C328.513 166.061 328.513 170.63 331.331 173.449L350.955 193.072C353.773 195.89 358.342 195.89 361.161 193.072L380.784 173.449C383.602 170.63 383.602 166.061 380.784 163.243L361.161 143.619Z" fill="#2A2A2A"/>
<path fill-rule="evenodd" clip-rule="evenodd" d="M-32.5592 258.82L-12.9359 239.197C-11.6207 237.882 -9.48829 237.882 -8.17307 239.197L11.4502 258.82C12.7654 260.135 12.7654 262.268 11.4502 263.583L-8.17307 283.206C-9.48829 284.521 -11.6207 284.522 -12.9359 283.206L-32.5592 263.583C-33.8744 262.268 -33.8744 260.135 -32.5592 258.82ZM-15.6575 236.475C-12.8392 233.657 -8.26977 233.657 -5.45144 236.475L14.1718 256.099C16.9902 258.917 16.9902 263.486 14.1718 266.305L-5.45145 285.928C-8.26978 288.746 -12.8392 288.746 -15.6575 285.928L-35.2808 266.305C-38.0991 263.486 -38.0991 258.917 -35.2808 256.099L-15.6575 236.475Z" fill="#2A2A2A"/>
<path fill-rule="evenodd" clip-rule="evenodd" d="M439.165 165.964L419.541 146.341C418.226 145.026 416.094 145.026 414.778 146.341L395.155 165.964C393.84 167.28 393.84 169.412 395.155 170.727L414.778 190.35C416.094 191.666 418.226 191.666 419.541 190.35L439.165 170.727C440.48 169.412 440.48 167.28 439.165 165.964ZM422.263 143.619C419.445 140.801 414.875 140.801 412.057 143.619L392.434 163.243C389.615 166.061 389.615 170.63 392.434 173.449L412.057 193.072C414.875 195.89 419.445 195.89 422.263 193.072L441.886 173.449C444.704 170.63 444.704 166.061 441.886 163.243L422.263 143.619Z" fill="#2A2A2A"/>
<path fill-rule="evenodd" clip-rule="evenodd" d="M-93.6611 258.82L-74.0379 239.197C-72.7227 237.882 -70.5903 237.882 -69.275 239.197L-49.6518 258.82C-48.3366 260.135 -48.3365 262.268 -49.6518 263.583L-69.275 283.206C-70.5903 284.521 -72.7227 284.522 -74.0379 283.206L-93.6611 263.583C-94.9764 262.268 -94.9764 260.135 -93.6611 258.82ZM-76.7595 236.475C-73.9412 233.657 -69.3718 233.657 -66.5534 236.475L-46.9301 256.099C-44.1118 258.917 -44.1118 263.486 -46.9302 266.305L-66.5534 285.928C-69.3718 288.746 -73.9412 288.746 -76.7595 285.928L-96.3828 266.305C-99.2011 263.486 -99.2011 258.917 -96.3828 256.099L-76.7595 236.475Z" fill="#2A2A2A"/>
<path fill-rule="evenodd" clip-rule="evenodd" d="M-19.3414 305.008L-38.9647 285.384C-40.2799 284.069 -42.4123 284.069 -43.7275 285.384L-63.3508 305.008C-64.666 306.323 -64.666 308.455 -63.3508 309.77L-43.7275 329.394C-42.4123 330.709 -40.2799 330.709 -38.9647 329.394L-19.3414 309.77C-18.0262 308.455 -18.0262 306.323 -19.3414 305.008ZM-36.243 282.663C-39.0614 279.844 -43.6308 279.844 -46.4491 282.663L-66.0724 302.286C-68.8907 305.104 -68.8907 309.674 -66.0724 312.492L-46.4491 332.115C-43.6308 334.934 -39.0614 334.934 -36.243 332.115L-16.6198 312.492C-13.8014 309.674 -13.8014 305.104 -16.6198 302.286L-36.243 282.663Z" fill="#2A2A2A"/>
<path fill-rule="evenodd" clip-rule="evenodd" d="M364.845 397.864L384.468 378.24C385.783 376.925 387.916 376.925 389.231 378.24L408.854 397.864C410.169 399.179 410.169 401.311 408.854 402.626L389.231 422.25C387.916 423.565 385.783 423.565 384.468 422.25L364.845 402.626C363.529 401.311 363.529 399.179 364.845 397.864ZM381.746 375.519C384.565 372.7 389.134 372.7 391.952 375.519L411.576 395.142C414.394 397.96 414.394 402.53 411.576 405.348L391.952 424.971C389.134 427.79 384.565 427.79 381.746 424.971L362.123 405.348C359.305 402.53 359.305 397.96 362.123 395.142L381.746 375.519Z" fill="#2A2A2A"/>
<path fill-rule="evenodd" clip-rule="evenodd" d="M225.067 305.008L205.444 285.384C204.128 284.069 201.996 284.069 200.681 285.384L181.057 305.008C179.742 306.323 179.742 308.455 181.057 309.77L200.681 329.394C201.996 330.709 204.128 330.709 205.444 329.394L225.067 309.77C226.382 308.455 226.382 306.323 225.067 305.008ZM208.165 282.663C205.347 279.844 200.777 279.844 197.959 282.663L178.336 302.286C175.517 305.104 175.518 309.674 178.336 312.492L197.959 332.115C200.777 334.934 205.347 334.934 208.165 332.115L227.788 312.492C230.607 309.674 230.607 305.104 227.788 302.286L208.165 282.663Z" fill="#2A2A2A"/>
<path fill-rule="evenodd" clip-rule="evenodd" d="M120.436 397.864L140.06 378.24C141.375 376.925 143.507 376.925 144.823 378.24L164.446 397.864C165.761 399.179 165.761 401.311 164.446 402.626L144.823 422.25C143.507 423.565 141.375 423.565 140.06 422.25L120.436 402.626C119.121 401.311 119.121 399.179 120.436 397.864ZM137.338 375.519C140.156 372.7 144.726 372.7 147.544 375.519L167.167 395.142C169.986 397.96 169.986 402.53 167.167 405.348L147.544 424.971C144.726 427.79 140.156 427.79 137.338 424.971L117.715 405.348C114.897 402.53 114.897 397.96 117.715 395.142L137.338 375.519Z" fill="#2A2A2A"/>
<path fill-rule="evenodd" clip-rule="evenodd" d="M102.863 305.008L83.2395 285.384C81.9243 284.069 79.7919 284.069 78.4766 285.384L58.8534 305.008C57.5381 306.323 57.5382 308.455 58.8534 309.77L78.4766 329.394C79.7919 330.709 81.9243 330.709 83.2395 329.394L102.863 309.77C104.178 308.455 104.178 306.323 102.863 305.008ZM85.9611 282.663C83.1427 279.844 78.5734 279.844 75.755 282.663L56.1318 302.286C53.3134 305.104 53.3134 309.674 56.1318 312.492L75.755 332.115C78.5734 334.934 83.1428 334.934 85.9611 332.115L105.584 312.492C108.403 309.674 108.403 305.104 105.584 302.286L85.9611 282.663Z" fill="#2A2A2A"/>
<path fill-rule="evenodd" clip-rule="evenodd" d="M242.641 397.864L262.264 378.24C263.579 376.925 265.711 376.925 267.027 378.24L286.65 397.864C287.965 399.179 287.965 401.311 286.65 402.626L267.027 422.25C265.711 423.565 263.579 423.565 262.264 422.25L242.641 402.626C241.325 401.311 241.325 399.179 242.641 397.864ZM259.542 375.519C262.361 372.7 266.93 372.7 269.748 375.519L289.372 395.142C292.19 397.96 292.19 402.53 289.372 405.348L269.748 424.971C266.93 427.79 262.361 427.79 259.542 424.971L239.919 405.348C237.101 402.53 237.101 397.96 239.919 395.142L259.542 375.519Z" fill="#2A2A2A"/>
<path fill-rule="evenodd" clip-rule="evenodd" d="M347.271 305.008L327.648 285.384C326.332 284.069 324.2 284.069 322.885 285.384L303.262 305.008C301.946 306.323 301.946 308.455 303.262 309.77L322.885 329.394C324.2 330.709 326.332 330.709 327.648 329.394L347.271 309.77C348.586 308.455 348.586 306.323 347.271 305.008ZM330.369 282.663C327.551 279.844 322.982 279.844 320.163 282.663L300.54 302.286C297.722 305.104 297.722 309.674 300.54 312.492L320.163 332.115C322.982 334.934 327.551 334.934 330.369 332.115L349.993 312.492C352.811 309.674 352.811 305.104 349.993 302.286L330.369 282.663Z" fill="#2A2A2A"/>
<path fill-rule="evenodd" clip-rule="evenodd" d="M-1.76759 397.864L17.8557 378.24C19.1709 376.925 21.3033 376.925 22.6185 378.24L42.2418 397.864C43.557 399.179 43.557 401.311 42.2418 402.626L22.6185 422.25C21.3033 423.565 19.1709 423.565 17.8557 422.25L-1.76759 402.626C-3.08281 401.311 -3.08282 399.179 -1.76759 397.864ZM15.1341 375.519C17.9524 372.7 22.5218 372.7 25.3401 375.519L44.9634 395.142C47.7817 397.96 47.7817 402.53 44.9634 405.348L25.3401 424.971C22.5218 427.79 17.9524 427.79 15.1341 424.971L-4.48921 405.348C-7.30754 402.53 -7.30753 397.96 -4.48921 395.142L15.1341 375.519Z" fill="#2A2A2A"/>
<path fill-rule="evenodd" clip-rule="evenodd" d="M-49.6518 356.439L-69.2751 376.062C-70.5903 377.377 -72.7227 377.377 -74.0379 376.062L-93.6612 356.439C-94.9764 355.124 -94.9764 352.991 -93.6612 351.676L-74.0379 332.053C-72.7227 330.738 -70.5903 330.737 -69.2751 332.053L-49.6518 351.676C-48.3366 352.991 -48.3366 355.124 -49.6518 356.439ZM-66.5535 378.784C-69.3718 381.602 -73.9412 381.602 -76.7596 378.784L-96.3828 359.16C-99.2012 356.342 -99.2012 351.773 -96.3828 348.954L-76.7596 329.331C-73.9412 326.513 -69.3718 326.513 -66.5535 329.331L-46.9302 348.954C-44.1119 351.773 -44.1119 356.342 -46.9302 359.16L-66.5535 378.784Z" fill="#2A2A2A"/>
<path fill-rule="evenodd" clip-rule="evenodd" d="M395.155 449.295L414.778 468.918C416.094 470.233 418.226 470.233 419.541 468.918L439.164 449.295C440.48 447.979 440.48 445.847 439.164 444.532L419.541 424.909C418.226 423.593 416.094 423.593 414.778 424.909L395.155 444.532C393.84 445.847 393.84 447.979 395.155 449.295ZM412.057 471.64C414.875 474.458 419.444 474.458 422.263 471.64L441.886 452.016C444.704 449.198 444.704 444.629 441.886 441.81L422.263 422.187C419.444 419.369 414.875 419.369 412.057 422.187L392.433 441.81C389.615 444.629 389.615 449.198 392.433 452.016L412.057 471.64Z" fill="#2A2A2A"/>
<path fill-rule="evenodd" clip-rule="evenodd" d="M194.756 356.439L175.133 376.062C173.818 377.377 171.685 377.377 170.37 376.062L150.747 356.439C149.432 355.124 149.432 352.991 150.747 351.676L170.37 332.053C171.685 330.738 173.818 330.737 175.133 332.053L194.756 351.676C196.072 352.991 196.072 355.124 194.756 356.439ZM177.855 378.784C175.036 381.602 170.467 381.602 167.649 378.784L148.025 359.16C145.207 356.342 145.207 351.773 148.025 348.954L167.649 329.331C170.467 326.513 175.036 326.513 177.855 329.331L197.478 348.954C200.296 351.773 200.296 356.342 197.478 359.16L177.855 378.784Z" fill="#2A2A2A"/>
<path fill-rule="evenodd" clip-rule="evenodd" d="M150.747 449.295L170.37 468.918C171.685 470.233 173.818 470.233 175.133 468.918L194.756 449.295C196.072 447.979 196.072 445.847 194.756 444.532L175.133 424.909C173.818 423.593 171.685 423.593 170.37 424.909L150.747 444.532C149.432 445.847 149.432 447.979 150.747 449.295ZM167.649 471.64C170.467 474.458 175.036 474.458 177.855 471.64L197.478 452.016C200.296 449.198 200.296 444.629 197.478 441.81L177.855 422.187C175.036 419.369 170.467 419.369 167.649 422.187L148.025 441.81C145.207 444.629 145.207 449.198 148.025 452.016L167.649 471.64Z" fill="#2A2A2A"/>
<path fill-rule="evenodd" clip-rule="evenodd" d="M72.5523 356.439L52.929 376.062C51.6138 377.377 49.4814 377.377 48.1662 376.062L28.5429 356.439C27.2277 355.124 27.2277 352.991 28.5429 351.676L48.1662 332.053C49.4814 330.738 51.6138 330.737 52.929 332.053L72.5523 351.676C73.8675 352.991 73.8675 355.124 72.5523 356.439ZM55.6506 378.784C52.8323 381.602 48.2629 381.602 45.4446 378.784L25.8213 359.16C23.003 356.342 23.003 351.773 25.8213 348.954L45.4446 329.331C48.2629 326.513 52.8323 326.513 55.6506 329.331L75.2739 348.954C78.0922 351.773 78.0922 356.342 75.2739 359.16L55.6506 378.784Z" fill="#2A2A2A"/>
<path fill-rule="evenodd" clip-rule="evenodd" d="M272.951 449.295L292.574 468.918C293.89 470.233 296.022 470.233 297.337 468.918L316.96 449.295C318.276 447.979 318.276 445.847 316.96 444.532L297.337 424.909C296.022 423.593 293.89 423.593 292.574 424.909L272.951 444.532C271.636 445.847 271.636 447.979 272.951 449.295ZM289.853 471.64C292.671 474.458 297.24 474.458 300.059 471.64L319.682 452.016C322.5 449.198 322.5 444.629 319.682 441.81L300.059 422.187C297.24 419.369 292.671 419.369 289.853 422.187L270.229 441.81C267.411 444.629 267.411 449.198 270.229 452.016L289.853 471.64Z" fill="#2A2A2A"/>
<path fill-rule="evenodd" clip-rule="evenodd" d="M316.96 356.439L297.337 376.062C296.022 377.377 293.89 377.377 292.574 376.062L272.951 356.439C271.636 355.124 271.636 352.991 272.951 351.676L292.574 332.053C293.89 330.738 296.022 330.737 297.337 332.053L316.96 351.676C318.276 352.991 318.276 355.124 316.96 356.439ZM300.059 378.784C297.24 381.602 292.671 381.602 289.853 378.784L270.229 359.16C267.411 356.342 267.411 351.773 270.229 348.954L289.853 329.331C292.671 326.513 297.24 326.513 300.059 329.331L319.682 348.954C322.5 351.773 322.5 356.342 319.682 359.16L300.059 378.784Z" fill="#2A2A2A"/>
<path fill-rule="evenodd" clip-rule="evenodd" d="M28.5429 449.295L48.1661 468.918C49.4814 470.233 51.6138 470.233 52.929 468.918L72.5523 449.295C73.8675 447.979 73.8675 445.847 72.5522 444.532L52.929 424.909C51.6138 423.593 49.4814 423.593 48.1661 424.909L28.5429 444.532C27.2276 445.847 27.2276 447.979 28.5429 449.295ZM45.4445 471.64C48.2629 474.458 52.8323 474.458 55.6506 471.64L75.2739 452.016C78.0922 449.198 78.0922 444.629 75.2739 441.81L55.6506 422.187C52.8323 419.369 48.2629 419.369 45.4445 422.187L25.8212 441.81C23.0029 444.629 23.0029 449.198 25.8212 452.016L45.4445 471.64Z" fill="#2A2A2A"/>
<path fill-rule="evenodd" clip-rule="evenodd" d="M41.7607 309.77L22.1374 329.394C20.8222 330.709 18.6898 330.709 17.3746 329.394L-2.24867 309.77C-3.56388 308.455 -3.56388 306.323 -2.24866 305.007L17.3746 285.384C18.6898 284.069 20.8222 284.069 22.1374 285.384L41.7607 305.008C43.0759 306.323 43.0759 308.455 41.7607 309.77ZM24.859 332.115C22.0407 334.934 17.4713 334.934 14.653 332.115L-4.97029 312.492C-7.78862 309.674 -7.78861 305.104 -4.97028 302.286L14.653 282.663C17.4713 279.844 22.0407 279.844 24.8591 282.663L44.4823 302.286C47.3007 305.104 47.3007 309.674 44.4823 312.492L24.859 332.115Z" fill="#2A2A2A"/>
<path fill-rule="evenodd" clip-rule="evenodd" d="M303.743 402.626L323.366 422.249C324.681 423.565 326.813 423.565 328.129 422.249L347.752 402.626C349.067 401.311 349.067 399.179 347.752 397.863L328.129 378.24C326.813 376.925 324.681 376.925 323.366 378.24L303.743 397.863C302.427 399.179 302.427 401.311 303.743 402.626ZM320.644 424.971C323.463 427.789 328.032 427.789 330.85 424.971L350.474 405.348C353.292 402.53 353.292 397.96 350.474 395.142L330.85 375.518C328.032 372.7 323.463 372.7 320.644 375.518L301.021 395.142C298.203 397.96 298.203 402.53 301.021 405.348L320.644 424.971Z" fill="#2A2A2A"/>
<path fill-rule="evenodd" clip-rule="evenodd" d="M286.169 309.77L266.546 329.394C265.23 330.709 263.098 330.709 261.783 329.394L242.159 309.77C240.844 308.455 240.844 306.323 242.159 305.007L261.783 285.384C263.098 284.069 265.23 284.069 266.546 285.384L286.169 305.008C287.484 306.323 287.484 308.455 286.169 309.77ZM269.267 332.115C266.449 334.934 261.879 334.934 259.061 332.115L239.438 312.492C236.62 309.674 236.62 305.104 239.438 302.286L259.061 282.663C261.879 279.844 266.449 279.844 269.267 282.663L288.89 302.286C291.709 305.104 291.709 309.674 288.89 312.492L269.267 332.115Z" fill="#2A2A2A"/>
<path fill-rule="evenodd" clip-rule="evenodd" d="M59.3344 402.626L78.9577 422.249C80.2729 423.565 82.4053 423.565 83.7206 422.249L103.344 402.626C104.659 401.311 104.659 399.179 103.344 397.863L83.7206 378.24C82.4053 376.925 80.2729 376.925 78.9577 378.24L59.3344 397.863C58.0192 399.179 58.0192 401.311 59.3344 402.626ZM76.2361 424.971C79.0544 427.789 83.6238 427.789 86.4422 424.971L106.065 405.348C108.884 402.53 108.884 397.96 106.065 395.142L86.4422 375.518C83.6238 372.7 79.0544 372.7 76.2361 375.518L56.6128 395.142C53.7945 397.96 53.7945 402.53 56.6128 405.348L76.2361 424.971Z" fill="#2A2A2A"/>
<path fill-rule="evenodd" clip-rule="evenodd" d="M163.965 309.77L144.342 329.394C143.026 330.709 140.894 330.709 139.579 329.394L119.955 309.77C118.64 308.455 118.64 306.323 119.955 305.007L139.579 285.384C140.894 284.069 143.026 284.069 144.342 285.384L163.965 305.008C165.28 306.323 165.28 308.455 163.965 309.77ZM147.063 332.115C144.245 334.934 139.675 334.934 136.857 332.115L117.234 312.492C114.415 309.674 114.415 305.104 117.234 302.286L136.857 282.663C139.675 279.844 144.245 279.844 147.063 282.663L166.686 302.286C169.505 305.104 169.505 309.674 166.686 312.492L147.063 332.115Z" fill="#2A2A2A"/>
<path fill-rule="evenodd" clip-rule="evenodd" d="M181.539 402.626L201.162 422.249C202.477 423.565 204.609 423.565 205.925 422.249L225.548 402.626C226.863 401.311 226.863 399.179 225.548 397.863L205.925 378.24C204.609 376.925 202.477 376.925 201.162 378.24L181.539 397.863C180.223 399.179 180.223 401.311 181.539 402.626ZM198.44 424.971C201.259 427.789 205.828 427.789 208.646 424.971L228.27 405.348C231.088 402.53 231.088 397.96 228.27 395.142L208.646 375.518C205.828 372.7 201.258 372.7 198.44 375.518L178.817 395.142C175.999 397.96 175.999 402.53 178.817 405.348L198.44 424.971Z" fill="#2A2A2A"/>
<path fill-rule="evenodd" clip-rule="evenodd" d="M408.373 309.77L388.75 329.394C387.434 330.709 385.302 330.709 383.987 329.394L364.364 309.77C363.048 308.455 363.048 306.323 364.364 305.007L383.987 285.384C385.302 284.069 387.434 284.069 388.75 285.384L408.373 305.008C409.688 306.323 409.688 308.455 408.373 309.77ZM391.471 332.115C388.653 334.934 384.084 334.934 381.265 332.115L361.642 312.492C358.824 309.674 358.824 305.104 361.642 302.286L381.265 282.663C384.084 279.844 388.653 279.844 391.471 282.663L411.095 302.286C413.913 305.104 413.913 309.674 411.095 312.492L391.471 332.115Z" fill="#2A2A2A"/>
<path fill-rule="evenodd" clip-rule="evenodd" d="M-62.8696 402.626L-43.2464 422.249C-41.9311 423.565 -39.7987 423.565 -38.4835 422.249L-18.8602 402.626C-17.545 401.311 -17.545 399.179 -18.8603 397.863L-38.4835 378.24C-39.7987 376.925 -41.9311 376.925 -43.2464 378.24L-62.8696 397.863C-64.1848 399.179 -64.1849 401.311 -62.8696 402.626ZM-45.968 424.971C-43.1496 427.789 -38.5802 427.789 -35.7619 424.971L-16.1386 405.348C-13.3203 402.53 -13.3203 397.96 -16.1386 395.142L-35.7619 375.518C-38.5802 372.7 -43.1496 372.7 -45.968 375.518L-65.5912 395.142C-68.4096 397.96 -68.4096 402.53 -65.5912 405.348L-45.968 424.971Z" fill="#2A2A2A"/>
<path fill-rule="evenodd" clip-rule="evenodd" d="M11.4502 351.676L-8.17308 332.053C-9.48829 330.738 -11.6207 330.738 -12.9359 332.053L-32.5592 351.676C-33.8744 352.991 -33.8744 355.124 -32.5592 356.439L-12.9359 376.062C-11.6207 377.377 -9.4883 377.377 -8.17307 376.062L11.4502 356.439C12.7654 355.124 12.7654 352.991 11.4502 351.676ZM-5.45146 329.331C-8.26979 326.513 -12.8392 326.513 -15.6575 329.331L-35.2808 348.954C-38.0991 351.773 -38.0991 356.342 -35.2808 359.16L-15.6575 378.784C-12.8392 381.602 -8.26978 381.602 -5.45146 378.784L14.1718 359.16C16.9901 356.342 16.9901 351.773 14.1718 348.954L-5.45146 329.331Z" fill="#2A2A2A"/>
<path fill-rule="evenodd" clip-rule="evenodd" d="M334.053 444.532L353.676 424.909C354.992 423.594 357.124 423.594 358.439 424.909L378.062 444.532C379.378 445.847 379.378 447.98 378.062 449.295L358.439 468.918C357.124 470.233 354.992 470.233 353.676 468.918L334.053 449.295C332.738 447.98 332.738 445.847 334.053 444.532ZM350.955 422.187C353.773 419.369 358.342 419.369 361.161 422.187L380.784 441.81C383.602 444.629 383.602 449.198 380.784 452.016L361.161 471.64C358.342 474.458 353.773 474.458 350.955 471.64L331.331 452.016C328.513 449.198 328.513 444.629 331.331 441.81L350.955 422.187Z" fill="#2A2A2A"/>
<path fill-rule="evenodd" clip-rule="evenodd" d="M255.858 351.676L236.235 332.053C234.92 330.738 232.788 330.738 231.472 332.053L211.849 351.676C210.534 352.991 210.534 355.124 211.849 356.439L231.472 376.062C232.788 377.377 234.92 377.377 236.235 376.062L255.858 356.439C257.174 355.124 257.174 352.991 255.858 351.676ZM238.957 329.331C236.138 326.513 231.569 326.513 228.751 329.331L209.127 348.954C206.309 351.773 206.309 356.342 209.127 359.16L228.751 378.784C231.569 381.602 236.138 381.602 238.957 378.784L258.58 359.16C261.398 356.342 261.398 351.773 258.58 348.954L238.957 329.331Z" fill="#2A2A2A"/>
<path fill-rule="evenodd" clip-rule="evenodd" d="M89.6449 444.532L109.268 424.909C110.583 423.594 112.716 423.594 114.031 424.909L133.654 444.532C134.97 445.847 134.969 447.98 133.654 449.295L114.031 468.918C112.716 470.233 110.583 470.233 109.268 468.918L89.6449 449.295C88.3297 447.98 88.3297 445.847 89.6449 444.532ZM106.547 422.187C109.365 419.369 113.934 419.369 116.753 422.187L136.376 441.81C139.194 444.629 139.194 449.198 136.376 452.016L116.753 471.64C113.934 474.458 109.365 474.458 106.547 471.64L86.9233 452.016C84.1049 449.198 84.105 444.629 86.9233 441.81L106.547 422.187Z" fill="#2A2A2A"/>
<path fill-rule="evenodd" clip-rule="evenodd" d="M133.654 351.676L114.031 332.053C112.716 330.738 110.583 330.738 109.268 332.053L89.6449 351.676C88.3297 352.991 88.3297 355.124 89.645 356.439L109.268 376.062C110.583 377.377 112.716 377.377 114.031 376.062L133.654 356.439C134.97 355.124 134.97 352.991 133.654 351.676ZM116.753 329.331C113.934 326.513 109.365 326.513 106.547 329.331L86.9233 348.954C84.105 351.773 84.105 356.342 86.9233 359.16L106.547 378.784C109.365 381.602 113.934 381.602 116.753 378.784L136.376 359.16C139.194 356.342 139.194 351.773 136.376 348.954L116.753 329.331Z" fill="#2A2A2A"/>
<path fill-rule="evenodd" clip-rule="evenodd" d="M211.849 444.532L231.472 424.909C232.787 423.594 234.92 423.594 236.235 424.909L255.858 444.532C257.174 445.847 257.174 447.98 255.858 449.295L236.235 468.918C234.92 470.233 232.787 470.233 231.472 468.918L211.849 449.295C210.534 447.98 210.534 445.847 211.849 444.532ZM228.751 422.187C231.569 419.369 236.138 419.369 238.957 422.187L258.58 441.81C261.398 444.629 261.398 449.198 258.58 452.016L238.957 471.64C236.138 474.458 231.569 474.458 228.751 471.64L209.127 452.016C206.309 449.198 206.309 444.629 209.127 441.81L228.751 422.187Z" fill="#2A2A2A"/>
<path fill-rule="evenodd" clip-rule="evenodd" d="M378.062 351.676L358.439 332.053C357.124 330.738 354.992 330.738 353.676 332.053L334.053 351.676C332.738 352.991 332.738 355.124 334.053 356.439L353.676 376.062C354.992 377.377 357.124 377.377 358.439 376.062L378.062 356.439C379.378 355.124 379.378 352.991 378.062 351.676ZM361.161 329.331C358.342 326.513 353.773 326.513 350.955 329.331L331.331 348.954C328.513 351.773 328.513 356.342 331.331 359.16L350.955 378.784C353.773 381.602 358.342 381.602 361.161 378.784L380.784 359.16C383.602 356.342 383.602 351.773 380.784 348.954L361.161 329.331Z" fill="#2A2A2A"/>
<path fill-rule="evenodd" clip-rule="evenodd" d="M-32.5592 444.532L-12.9359 424.909C-11.6207 423.594 -9.48829 423.594 -8.17307 424.909L11.4502 444.532C12.7654 445.847 12.7654 447.98 11.4502 449.295L-8.17307 468.918C-9.48829 470.233 -11.6207 470.233 -12.9359 468.918L-32.5592 449.295C-33.8744 447.98 -33.8744 445.847 -32.5592 444.532ZM-15.6575 422.187C-12.8392 419.369 -8.26977 419.369 -5.45144 422.187L14.1718 441.81C16.9902 444.629 16.9902 449.198 14.1718 452.016L-5.45145 471.64C-8.26978 474.458 -12.8392 474.458 -15.6575 471.64L-35.2808 452.016C-38.0991 449.198 -38.0991 444.629 -35.2808 441.81L-15.6575 422.187Z" fill="#2A2A2A"/>
<path fill-rule="evenodd" clip-rule="evenodd" d="M439.165 351.676L419.541 332.053C418.226 330.738 416.094 330.738 414.778 332.053L395.155 351.676C393.84 352.991 393.84 355.124 395.155 356.439L414.778 376.062C416.094 377.377 418.226 377.377 419.541 376.062L439.165 356.439C440.48 355.124 440.48 352.991 439.165 351.676ZM422.263 329.331C419.445 326.513 414.875 326.513 412.057 329.331L392.434 348.954C389.615 351.773 389.615 356.342 392.434 359.16L412.057 378.784C414.875 381.602 419.445 381.602 422.263 378.784L441.886 359.16C444.704 356.342 444.704 351.773 441.886 348.954L422.263 329.331Z" fill="#2A2A2A"/>
<path fill-rule="evenodd" clip-rule="evenodd" d="M-93.6611 444.532L-74.0379 424.909C-72.7227 423.594 -70.5903 423.594 -69.275 424.909L-49.6518 444.532C-48.3366 445.847 -48.3365 447.98 -49.6518 449.295L-69.275 468.918C-70.5903 470.233 -72.7227 470.233 -74.0379 468.918L-93.6611 449.295C-94.9764 447.98 -94.9764 445.847 -93.6611 444.532ZM-76.7595 422.187C-73.9412 419.369 -69.3718 419.369 -66.5534 422.187L-46.9301 441.81C-44.1118 444.629 -44.1118 449.198 -46.9302 452.016L-66.5534 471.64C-69.3718 474.458 -73.9412 474.458 -76.7595 471.64L-96.3828 452.016C-99.2011 449.198 -99.2011 444.629 -96.3828 441.81L-76.7595 422.187Z" fill="#2A2A2A"/>
<path fill-rule="evenodd" clip-rule="evenodd" d="M-19.3414 490.719L-38.9647 471.096C-40.2799 469.781 -42.4123 469.781 -43.7275 471.096L-63.3508 490.719C-64.666 492.035 -64.666 494.167 -63.3508 495.482L-43.7275 515.106C-42.4123 516.421 -40.2799 516.421 -38.9647 515.106L-19.3414 495.482C-18.0262 494.167 -18.0262 492.035 -19.3414 490.719ZM-36.243 468.375C-39.0614 465.556 -43.6308 465.556 -46.4491 468.375L-66.0724 487.998C-68.8907 490.816 -68.8907 495.386 -66.0724 498.204L-46.4491 517.827C-43.6308 520.645 -39.0614 520.645 -36.243 517.827L-16.6198 498.204C-13.8014 495.386 -13.8014 490.816 -16.6198 487.998L-36.243 468.375Z" fill="#2A2A2A"/>
<path fill-rule="evenodd" clip-rule="evenodd" d="M364.845 583.575L384.468 563.952C385.783 562.637 387.916 562.637 389.231 563.952L408.854 583.575C410.169 584.89 410.169 587.023 408.854 588.338L389.231 607.961C387.916 609.277 385.783 609.277 384.468 607.961L364.845 588.338C363.529 587.023 363.529 584.89 364.845 583.575ZM381.746 561.23C384.565 558.412 389.134 558.412 391.952 561.23L411.576 580.854C414.394 583.672 414.394 588.241 411.576 591.06L391.952 610.683C389.134 613.501 384.565 613.501 381.746 610.683L362.123 591.06C359.305 588.241 359.305 583.672 362.123 580.854L381.746 561.23Z" fill="#2A2A2A"/>
<path fill-rule="evenodd" clip-rule="evenodd" d="M225.067 490.719L205.444 471.096C204.128 469.781 201.996 469.781 200.681 471.096L181.057 490.719C179.742 492.035 179.742 494.167 181.057 495.482L200.681 515.106C201.996 516.421 204.128 516.421 205.444 515.106L225.067 495.482C226.382 494.167 226.382 492.035 225.067 490.719ZM208.165 468.375C205.347 465.556 200.777 465.556 197.959 468.375L178.336 487.998C175.517 490.816 175.518 495.386 178.336 498.204L197.959 517.827C200.777 520.645 205.347 520.645 208.165 517.827L227.788 498.204C230.607 495.386 230.607 490.816 227.788 487.998L208.165 468.375Z" fill="#2A2A2A"/>
<path fill-rule="evenodd" clip-rule="evenodd" d="M120.436 583.575L140.06 563.952C141.375 562.637 143.507 562.637 144.823 563.952L164.446 583.575C165.761 584.89 165.761 587.023 164.446 588.338L144.823 607.961C143.507 609.277 141.375 609.277 140.06 607.961L120.436 588.338C119.121 587.023 119.121 584.89 120.436 583.575ZM137.338 561.23C140.156 558.412 144.726 558.412 147.544 561.23L167.167 580.854C169.986 583.672 169.986 588.241 167.167 591.06L147.544 610.683C144.726 613.501 140.156 613.501 137.338 610.683L117.715 591.06C114.897 588.241 114.897 583.672 117.715 580.854L137.338 561.23Z" fill="#2A2A2A"/>
<path fill-rule="evenodd" clip-rule="evenodd" d="M102.863 490.719L83.2395 471.096C81.9243 469.781 79.7919 469.781 78.4766 471.096L58.8534 490.719C57.5381 492.035 57.5382 494.167 58.8534 495.482L78.4766 515.106C79.7919 516.421 81.9243 516.421 83.2395 515.106L102.863 495.482C104.178 494.167 104.178 492.035 102.863 490.719ZM85.9611 468.375C83.1427 465.556 78.5734 465.556 75.755 468.375L56.1318 487.998C53.3134 490.816 53.3134 495.386 56.1318 498.204L75.755 517.827C78.5734 520.645 83.1428 520.645 85.9611 517.827L105.584 498.204C108.403 495.386 108.403 490.816 105.584 487.998L85.9611 468.375Z" fill="#2A2A2A"/>
<path fill-rule="evenodd" clip-rule="evenodd" d="M242.641 583.575L262.264 563.952C263.579 562.637 265.711 562.637 267.027 563.952L286.65 583.575C287.965 584.89 287.965 587.023 286.65 588.338L267.027 607.961C265.711 609.277 263.579 609.277 262.264 607.961L242.641 588.338C241.325 587.023 241.325 584.89 242.641 583.575ZM259.542 561.23C262.361 558.412 266.93 558.412 269.748 561.23L289.372 580.854C292.19 583.672 292.19 588.241 289.372 591.06L269.748 610.683C266.93 613.501 262.361 613.501 259.542 610.683L239.919 591.06C237.101 588.241 237.101 583.672 239.919 580.854L259.542 561.23Z" fill="#2A2A2A"/>
<path fill-rule="evenodd" clip-rule="evenodd" d="M347.271 490.719L327.648 471.096C326.332 469.781 324.2 469.781 322.885 471.096L303.262 490.719C301.946 492.035 301.946 494.167 303.262 495.482L322.885 515.106C324.2 516.421 326.332 516.421 327.648 515.106L347.271 495.482C348.586 494.167 348.586 492.035 347.271 490.719ZM330.369 468.375C327.551 465.556 322.982 465.556 320.163 468.375L300.54 487.998C297.722 490.816 297.722 495.386 300.54 498.204L320.163 517.827C322.982 520.645 327.551 520.645 330.369 517.827L349.993 498.204C352.811 495.386 352.811 490.816 349.993 487.998L330.369 468.375Z" fill="#2A2A2A"/>
<path fill-rule="evenodd" clip-rule="evenodd" d="M-1.76759 583.575L17.8557 563.952C19.1709 562.637 21.3033 562.637 22.6185 563.952L42.2418 583.575C43.557 584.89 43.557 587.023 42.2418 588.338L22.6185 607.961C21.3033 609.277 19.1709 609.277 17.8557 607.961L-1.76759 588.338C-3.08281 587.023 -3.08282 584.89 -1.76759 583.575ZM15.1341 561.23C17.9524 558.412 22.5218 558.412 25.3401 561.23L44.9634 580.854C47.7817 583.672 47.7817 588.241 44.9634 591.06L25.3401 610.683C22.5218 613.501 17.9524 613.501 15.1341 610.683L-4.48921 591.06C-7.30754 588.241 -7.30753 583.672 -4.48921 580.854L15.1341 561.23Z" fill="#2A2A2A"/>
<path fill-rule="evenodd" clip-rule="evenodd" d="M-49.6518 542.151L-69.2751 561.774C-70.5903 563.089 -72.7227 563.089 -74.0379 561.774L-93.6612 542.151C-94.9764 540.835 -94.9764 538.703 -93.6612 537.388L-74.0379 517.764C-72.7227 516.449 -70.5903 516.449 -69.2751 517.764L-49.6518 537.388C-48.3366 538.703 -48.3366 540.835 -49.6518 542.151ZM-66.5535 564.495C-69.3718 567.314 -73.9412 567.314 -76.7596 564.495L-96.3828 544.872C-99.2012 542.054 -99.2012 537.484 -96.3828 534.666L-76.7596 515.043C-73.9412 512.225 -69.3718 512.225 -66.5535 515.043L-46.9302 534.666C-44.1119 537.484 -44.1119 542.054 -46.9302 544.872L-66.5535 564.495Z" fill="#2A2A2A"/>
<path fill-rule="evenodd" clip-rule="evenodd" d="M395.155 635.006L414.778 654.63C416.094 655.945 418.226 655.945 419.541 654.63L439.164 635.006C440.48 633.691 440.48 631.559 439.164 630.244L419.541 610.62C418.226 609.305 416.094 609.305 414.778 610.62L395.155 630.244C393.84 631.559 393.84 633.691 395.155 635.006ZM412.057 657.351C414.875 660.17 419.444 660.17 422.263 657.351L441.886 637.728C444.704 634.91 444.704 630.34 441.886 627.522L422.263 607.899C419.444 605.08 414.875 605.08 412.057 607.899L392.433 627.522C389.615 630.34 389.615 634.91 392.433 637.728L412.057 657.351Z" fill="#2A2A2A"/>
<path fill-rule="evenodd" clip-rule="evenodd" d="M194.756 542.151L175.133 561.774C173.818 563.089 171.685 563.089 170.37 561.774L150.747 542.151C149.432 540.835 149.432 538.703 150.747 537.388L170.37 517.764C171.685 516.449 173.818 516.449 175.133 517.764L194.756 537.388C196.072 538.703 196.072 540.835 194.756 542.151ZM177.855 564.495C175.036 567.314 170.467 567.314 167.649 564.495L148.025 544.872C145.207 542.054 145.207 537.484 148.025 534.666L167.649 515.043C170.467 512.225 175.036 512.225 177.855 515.043L197.478 534.666C200.296 537.484 200.296 542.054 197.478 544.872L177.855 564.495Z" fill="#2A2A2A"/>
<path fill-rule="evenodd" clip-rule="evenodd" d="M150.747 635.006L170.37 654.63C171.685 655.945 173.818 655.945 175.133 654.63L194.756 635.006C196.072 633.691 196.072 631.559 194.756 630.244L175.133 610.62C173.818 609.305 171.685 609.305 170.37 610.62L150.747 630.244C149.432 631.559 149.432 633.691 150.747 635.006ZM167.649 657.351C170.467 660.17 175.036 660.17 177.855 657.351L197.478 637.728C200.296 634.91 200.296 630.34 197.478 627.522L177.855 607.899C175.036 605.08 170.467 605.08 167.649 607.899L148.025 627.522C145.207 630.34 145.207 634.91 148.025 637.728L167.649 657.351Z" fill="#2A2A2A"/>
<path fill-rule="evenodd" clip-rule="evenodd" d="M72.5523 542.151L52.929 561.774C51.6138 563.089 49.4814 563.089 48.1662 561.774L28.5429 542.151C27.2277 540.835 27.2277 538.703 28.5429 537.388L48.1662 517.764C49.4814 516.449 51.6138 516.449 52.929 517.764L72.5523 537.388C73.8675 538.703 73.8675 540.835 72.5523 542.151ZM55.6506 564.495C52.8323 567.314 48.2629 567.314 45.4446 564.495L25.8213 544.872C23.003 542.054 23.003 537.484 25.8213 534.666L45.4446 515.043C48.2629 512.225 52.8323 512.225 55.6506 515.043L75.2739 534.666C78.0922 537.484 78.0922 542.054 75.2739 544.872L55.6506 564.495Z" fill="#2A2A2A"/>
<path fill-rule="evenodd" clip-rule="evenodd" d="M272.951 635.006L292.574 654.63C293.89 655.945 296.022 655.945 297.337 654.63L316.96 635.006C318.276 633.691 318.276 631.559 316.96 630.244L297.337 610.62C296.022 609.305 293.89 609.305 292.574 610.62L272.951 630.244C271.636 631.559 271.636 633.691 272.951 635.006ZM289.853 657.351C292.671 660.17 297.24 660.17 300.059 657.351L319.682 637.728C322.5 634.91 322.5 630.34 319.682 627.522L300.059 607.899C297.24 605.08 292.671 605.08 289.853 607.899L270.229 627.522C267.411 630.34 267.411 634.91 270.229 637.728L289.853 657.351Z" fill="#2A2A2A"/>
<path fill-rule="evenodd" clip-rule="evenodd" d="M316.96 542.151L297.337 561.774C296.022 563.089 293.89 563.089 292.574 561.774L272.951 542.151C271.636 540.835 271.636 538.703 272.951 537.388L292.574 517.764C293.89 516.449 296.022 516.449 297.337 517.764L316.96 537.388C318.276 538.703 318.276 540.835 316.96 542.151ZM300.059 564.495C297.24 567.314 292.671 567.314 289.853 564.495L270.229 544.872C267.411 542.054 267.411 537.484 270.229 534.666L289.853 515.043C292.671 512.225 297.24 512.225 300.059 515.043L319.682 534.666C322.5 537.484 322.5 542.054 319.682 544.872L300.059 564.495Z" fill="#2A2A2A"/>
<path fill-rule="evenodd" clip-rule="evenodd" d="M28.5429 635.006L48.1661 654.63C49.4814 655.945 51.6138 655.945 52.929 654.63L72.5523 635.006C73.8675 633.691 73.8675 631.559 72.5522 630.244L52.929 610.62C51.6138 609.305 49.4814 609.305 48.1661 610.62L28.5429 630.244C27.2276 631.559 27.2276 633.691 28.5429 635.006ZM45.4445 657.351C48.2629 660.17 52.8323 660.17 55.6506 657.351L75.2739 637.728C78.0922 634.91 78.0922 630.34 75.2739 627.522L55.6506 607.899C52.8323 605.08 48.2629 605.08 45.4445 607.899L25.8212 627.522C23.0029 630.34 23.0029 634.91 25.8212 637.728L45.4445 657.351Z" fill="#2A2A2A"/>
<path fill-rule="evenodd" clip-rule="evenodd" d="M41.7607 495.482L22.1374 515.105C20.8222 516.421 18.6898 516.421 17.3746 515.105L-2.24867 495.482C-3.56388 494.167 -3.56388 492.034 -2.24866 490.719L17.3746 471.096C18.6898 469.781 20.8222 469.781 22.1374 471.096L41.7607 490.719C43.0759 492.034 43.0759 494.167 41.7607 495.482ZM24.859 517.827C22.0407 520.645 17.4713 520.645 14.653 517.827L-4.97029 498.204C-7.78862 495.385 -7.78861 490.816 -4.97028 487.998L14.653 468.374C17.4713 465.556 22.0407 465.556 24.8591 468.374L44.4823 487.998C47.3007 490.816 47.3007 495.385 44.4823 498.204L24.859 517.827Z" fill="#2A2A2A"/>
<path fill-rule="evenodd" clip-rule="evenodd" d="M303.743 588.338L323.366 607.961C324.681 609.276 326.813 609.276 328.129 607.961L347.752 588.338C349.067 587.023 349.067 584.89 347.752 583.575L328.129 563.952C326.813 562.637 324.681 562.637 323.366 563.952L303.743 583.575C302.427 584.89 302.427 587.023 303.743 588.338ZM320.644 610.683C323.463 613.501 328.032 613.501 330.85 610.683L350.474 591.06C353.292 588.241 353.292 583.672 350.474 580.853L330.85 561.23C328.032 558.412 323.463 558.412 320.644 561.23L301.021 580.853C298.203 583.672 298.203 588.241 301.021 591.06L320.644 610.683Z" fill="#2A2A2A"/>
<path fill-rule="evenodd" clip-rule="evenodd" d="M286.169 495.482L266.546 515.105C265.23 516.421 263.098 516.421 261.783 515.105L242.159 495.482C240.844 494.167 240.844 492.034 242.159 490.719L261.783 471.096C263.098 469.781 265.23 469.781 266.546 471.096L286.169 490.719C287.484 492.034 287.484 494.167 286.169 495.482ZM269.267 517.827C266.449 520.645 261.879 520.645 259.061 517.827L239.438 498.204C236.62 495.385 236.62 490.816 239.438 487.998L259.061 468.374C261.879 465.556 266.449 465.556 269.267 468.374L288.89 487.998C291.709 490.816 291.709 495.385 288.89 498.204L269.267 517.827Z" fill="#2A2A2A"/>
<path fill-rule="evenodd" clip-rule="evenodd" d="M59.3344 588.338L78.9577 607.961C80.2729 609.276 82.4053 609.276 83.7206 607.961L103.344 588.338C104.659 587.023 104.659 584.89 103.344 583.575L83.7206 563.952C82.4053 562.637 80.2729 562.637 78.9577 563.952L59.3344 583.575C58.0192 584.89 58.0192 587.023 59.3344 588.338ZM76.2361 610.683C79.0544 613.501 83.6238 613.501 86.4422 610.683L106.065 591.06C108.884 588.241 108.884 583.672 106.065 580.853L86.4422 561.23C83.6238 558.412 79.0544 558.412 76.2361 561.23L56.6128 580.853C53.7945 583.672 53.7945 588.241 56.6128 591.06L76.2361 610.683Z" fill="#2A2A2A"/>
<path fill-rule="evenodd" clip-rule="evenodd" d="M163.965 495.482L144.342 515.105C143.026 516.421 140.894 516.421 139.579 515.105L119.955 495.482C118.64 494.167 118.64 492.034 119.955 490.719L139.579 471.096C140.894 469.781 143.026 469.781 144.342 471.096L163.965 490.719C165.28 492.034 165.28 494.167 163.965 495.482ZM147.063 517.827C144.245 520.645 139.675 520.645 136.857 517.827L117.234 498.204C114.415 495.385 114.415 490.816 117.234 487.998L136.857 468.374C139.675 465.556 144.245 465.556 147.063 468.374L166.686 487.998C169.505 490.816 169.505 495.385 166.686 498.204L147.063 517.827Z" fill="#2A2A2A"/>
<path fill-rule="evenodd" clip-rule="evenodd" d="M181.539 588.338L201.162 607.961C202.477 609.276 204.609 609.276 205.925 607.961L225.548 588.338C226.863 587.023 226.863 584.89 225.548 583.575L205.925 563.952C204.609 562.637 202.477 562.637 201.162 563.952L181.539 583.575C180.223 584.89 180.223 587.023 181.539 588.338ZM198.44 610.683C201.259 613.501 205.828 613.501 208.646 610.683L228.27 591.06C231.088 588.241 231.088 583.672 228.27 580.853L208.646 561.23C205.828 558.412 201.258 558.412 198.44 561.23L178.817 580.853C175.999 583.672 175.999 588.241 178.817 591.06L198.44 610.683Z" fill="#2A2A2A"/>
<path fill-rule="evenodd" clip-rule="evenodd" d="M408.373 495.482L388.75 515.105C387.434 516.421 385.302 516.421 383.987 515.105L364.364 495.482C363.048 494.167 363.048 492.034 364.364 490.719L383.987 471.096C385.302 469.781 387.434 469.781 388.75 471.096L408.373 490.719C409.688 492.034 409.688 494.167 408.373 495.482ZM391.471 517.827C388.653 520.645 384.084 520.645 381.265 517.827L361.642 498.204C358.824 495.385 358.824 490.816 361.642 487.998L381.265 468.374C384.084 465.556 388.653 465.556 391.471 468.374L411.095 487.998C413.913 490.816 413.913 495.385 411.095 498.204L391.471 517.827Z" fill="#2A2A2A"/>
<path fill-rule="evenodd" clip-rule="evenodd" d="M-62.8696 588.338L-43.2464 607.961C-41.9311 609.276 -39.7987 609.276 -38.4835 607.961L-18.8602 588.338C-17.545 587.023 -17.545 584.89 -18.8603 583.575L-38.4835 563.952C-39.7987 562.637 -41.9311 562.637 -43.2464 563.952L-62.8696 583.575C-64.1848 584.89 -64.1849 587.023 -62.8696 588.338ZM-45.968 610.683C-43.1496 613.501 -38.5802 613.501 -35.7619 610.683L-16.1386 591.06C-13.3203 588.241 -13.3203 583.672 -16.1386 580.853L-35.7619 561.23C-38.5802 558.412 -43.1496 558.412 -45.968 561.23L-65.5912 580.853C-68.4096 583.672 -68.4096 588.241 -65.5912 591.06L-45.968 610.683Z" fill="#2A2A2A"/>
<path fill-rule="evenodd" clip-rule="evenodd" d="M11.4502 537.388L-8.17308 517.765C-9.48829 516.449 -11.6207 516.449 -12.9359 517.765L-32.5592 537.388C-33.8744 538.703 -33.8744 540.836 -32.5592 542.151L-12.9359 561.774C-11.6207 563.089 -9.4883 563.089 -8.17307 561.774L11.4502 542.151C12.7654 540.836 12.7654 538.703 11.4502 537.388ZM-5.45146 515.043C-8.26979 512.225 -12.8392 512.225 -15.6575 515.043L-35.2808 534.666C-38.0991 537.485 -38.0991 542.054 -35.2808 544.872L-15.6575 564.496C-12.8392 567.314 -8.26978 567.314 -5.45146 564.496L14.1718 544.872C16.9901 542.054 16.9901 537.485 14.1718 534.666L-5.45146 515.043Z" fill="#2A2A2A"/>
<path fill-rule="evenodd" clip-rule="evenodd" d="M334.053 630.244L353.676 610.62C354.992 609.305 357.124 609.305 358.439 610.62L378.062 630.244C379.378 631.559 379.378 633.691 378.062 635.007L358.439 654.63C357.124 655.945 354.992 655.945 353.676 654.63L334.053 635.007C332.738 633.691 332.738 631.559 334.053 630.244ZM350.955 607.899C353.773 605.081 358.342 605.081 361.161 607.899L380.784 627.522C383.602 630.34 383.602 634.91 380.784 637.728L361.161 657.351C358.342 660.17 353.773 660.17 350.955 657.351L331.331 637.728C328.513 634.91 328.513 630.34 331.331 627.522L350.955 607.899Z" fill="#2A2A2A"/>
<path fill-rule="evenodd" clip-rule="evenodd" d="M255.858 537.388L236.235 517.765C234.92 516.449 232.788 516.449 231.472 517.765L211.849 537.388C210.534 538.703 210.534 540.836 211.849 542.151L231.472 561.774C232.788 563.089 234.92 563.089 236.235 561.774L255.858 542.151C257.174 540.836 257.174 538.703 255.858 537.388ZM238.957 515.043C236.138 512.225 231.569 512.225 228.751 515.043L209.127 534.666C206.309 537.485 206.309 542.054 209.127 544.872L228.751 564.496C231.569 567.314 236.138 567.314 238.957 564.496L258.58 544.872C261.398 542.054 261.398 537.485 258.58 534.666L238.957 515.043Z" fill="#2A2A2A"/>
<path fill-rule="evenodd" clip-rule="evenodd" d="M89.6449 630.244L109.268 610.62C110.583 609.305 112.716 609.305 114.031 610.62L133.654 630.244C134.97 631.559 134.969 633.691 133.654 635.007L114.031 654.63C112.716 655.945 110.583 655.945 109.268 654.63L89.6449 635.007C88.3297 633.691 88.3297 631.559 89.6449 630.244ZM106.547 607.899C109.365 605.081 113.934 605.081 116.753 607.899L136.376 627.522C139.194 630.34 139.194 634.91 136.376 637.728L116.753 657.351C113.934 660.17 109.365 660.17 106.547 657.351L86.9233 637.728C84.1049 634.91 84.105 630.34 86.9233 627.522L106.547 607.899Z" fill="#2A2A2A"/>
<path fill-rule="evenodd" clip-rule="evenodd" d="M133.654 537.388L114.031 517.765C112.716 516.449 110.583 516.449 109.268 517.765L89.6449 537.388C88.3297 538.703 88.3297 540.836 89.645 542.151L109.268 561.774C110.583 563.089 112.716 563.089 114.031 561.774L133.654 542.151C134.97 540.836 134.97 538.703 133.654 537.388ZM116.753 515.043C113.934 512.225 109.365 512.225 106.547 515.043L86.9233 534.666C84.105 537.485 84.105 542.054 86.9233 544.872L106.547 564.496C109.365 567.314 113.934 567.314 116.753 564.496L136.376 544.872C139.194 542.054 139.194 537.485 136.376 534.666L116.753 515.043Z" fill="#2A2A2A"/>
<path fill-rule="evenodd" clip-rule="evenodd" d="M211.849 630.244L231.472 610.62C232.787 609.305 234.92 609.305 236.235 610.62L255.858 630.244C257.174 631.559 257.174 633.691 255.858 635.007L236.235 654.63C234.92 655.945 232.787 655.945 231.472 654.63L211.849 635.007C210.534 633.691 210.534 631.559 211.849 630.244ZM228.751 607.899C231.569 605.081 236.138 605.081 238.957 607.899L258.58 627.522C261.398 630.34 261.398 634.91 258.58 637.728L238.957 657.351C236.138 660.17 231.569 660.17 228.751 657.351L209.127 637.728C206.309 634.91 206.309 630.34 209.127 627.522L228.751 607.899Z" fill="#2A2A2A"/>
<path fill-rule="evenodd" clip-rule="evenodd" d="M378.062 537.388L358.439 517.765C357.124 516.449 354.992 516.449 353.676 517.765L334.053 537.388C332.738 538.703 332.738 540.836 334.053 542.151L353.676 561.774C354.992 563.089 357.124 563.089 358.439 561.774L378.062 542.151C379.378 540.836 379.378 538.703 378.062 537.388ZM361.161 515.043C358.342 512.225 353.773 512.225 350.955 515.043L331.331 534.666C328.513 537.485 328.513 542.054 331.331 544.872L350.955 564.496C353.773 567.314 358.342 567.314 361.161 564.496L380.784 544.872C383.602 542.054 383.602 537.485 380.784 534.666L361.161 515.043Z" fill="#2A2A2A"/>
<path fill-rule="evenodd" clip-rule="evenodd" d="M-32.5592 630.244L-12.9359 610.62C-11.6207 609.305 -9.48829 609.305 -8.17307 610.62L11.4502 630.244C12.7654 631.559 12.7654 633.691 11.4502 635.007L-8.17307 654.63C-9.48829 655.945 -11.6207 655.945 -12.9359 654.63L-32.5592 635.007C-33.8744 633.691 -33.8744 631.559 -32.5592 630.244ZM-15.6575 607.899C-12.8392 605.081 -8.26977 605.081 -5.45144 607.899L14.1718 627.522C16.9902 630.34 16.9902 634.91 14.1718 637.728L-5.45145 657.351C-8.26978 660.17 -12.8392 660.17 -15.6575 657.351L-35.2808 637.728C-38.0991 634.91 -38.0991 630.34 -35.2808 627.522L-15.6575 607.899Z" fill="#2A2A2A"/>
<path fill-rule="evenodd" clip-rule="evenodd" d="M439.165 537.388L419.541 517.765C418.226 516.449 416.094 516.449 414.778 517.765L395.155 537.388C393.84 538.703 393.84 540.836 395.155 542.151L414.778 561.774C416.094 563.089 418.226 563.089 419.541 561.774L439.165 542.151C440.48 540.836 440.48 538.703 439.165 537.388ZM422.263 515.043C419.445 512.225 414.875 512.225 412.057 515.043L392.434 534.666C389.615 537.485 389.615 542.054 392.434 544.872L412.057 564.496C414.875 567.314 419.445 567.314 422.263 564.496L441.886 544.872C444.704 542.054 444.704 537.485 441.886 534.666L422.263 515.043Z" fill="#2A2A2A"/>
<path fill-rule="evenodd" clip-rule="evenodd" d="M-93.6611 630.244L-74.0379 610.62C-72.7227 609.305 -70.5903 609.305 -69.275 610.62L-49.6518 630.244C-48.3366 631.559 -48.3365 633.691 -49.6518 635.007L-69.275 654.63C-70.5903 655.945 -72.7227 655.945 -74.0379 654.63L-93.6611 635.007C-94.9764 633.691 -94.9764 631.559 -93.6611 630.244ZM-76.7595 607.899C-73.9412 605.081 -69.3718 605.081 -66.5534 607.899L-46.9301 627.522C-44.1118 630.34 -44.1118 634.91 -46.9302 637.728L-66.5534 657.351C-69.3718 660.17 -73.9412 660.17 -76.7595 657.351L-96.3828 637.728C-99.2011 634.91 -99.2011 630.34 -96.3828 627.522L-76.7595 607.899Z" fill="#2A2A2A"/>
</g>
</svg>
