<svg width="82" height="83" viewBox="0 0 82 83" fill="none" xmlns="http://www.w3.org/2000/svg">
<g clip-path="url(#clip0_30_5266)">
<path d="M62.7858 0.422852H19.3501C8.76674 0.422852 0.187256 9.00233 0.187256 19.5857V63.0214C0.187256 73.6047 8.76674 82.1842 19.3501 82.1842H62.7858C73.3691 82.1842 81.9486 73.6047 81.9486 63.0214V19.5857C81.9486 9.00233 73.3691 0.422852 62.7858 0.422852Z" fill="#001E36"/>
<path d="M18.5835 57.2856V22.2304C18.5835 21.9918 18.6857 21.8558 18.9243 21.8558C19.5033 21.8558 20.0485 21.8558 20.8319 21.8216C21.6495 21.7874 22.5013 21.7874 23.4211 21.7536C24.341 21.7194 25.3288 21.7194 26.385 21.6852C27.4409 21.6514 28.4629 21.6514 29.4849 21.6514C32.2785 21.6514 34.595 21.9918 36.503 22.7072C38.2131 23.288 39.7725 24.2423 41.0679 25.5009C42.1656 26.6022 43.0138 27.9267 43.5549 29.3845C44.0659 30.8153 44.3383 32.2803 44.3383 33.8134C44.3383 36.743 43.6571 39.1617 42.2943 41.0697C40.9315 42.9773 39.0238 44.4082 36.8096 45.2258C34.4928 46.0776 31.9377 46.3842 29.1444 46.3842C28.3268 46.3842 27.7816 46.3842 27.4409 46.35C27.1004 46.3158 26.6233 46.3158 25.9762 46.3158V57.2514C26.01 57.49 25.8398 57.6944 25.6012 57.7286H18.9923C18.7199 57.7286 18.5835 57.5922 18.5835 57.2856ZM26.01 28.4305V39.8771C26.4872 39.9113 26.9299 39.9455 27.3387 39.9455H29.1444C30.4731 39.9455 31.8017 39.7411 33.062 39.3323C34.1523 39.0256 35.106 38.3783 35.8556 37.5265C36.571 36.675 36.9118 35.5166 36.9118 34.0178C36.9438 32.9531 36.6719 31.9014 36.128 30.9856C35.549 30.0999 34.7314 29.4187 33.7435 29.0437C32.4829 28.5327 31.1201 28.3283 29.7235 28.3625C28.8378 28.3625 28.0541 28.3625 27.407 28.3967C26.7255 28.3625 26.2486 28.3967 26.01 28.4305ZM65.5963 37.7992C64.5742 37.254 63.4842 36.8794 62.3258 36.6408C61.0652 36.3684 59.8049 36.1979 58.5102 36.1979C57.8289 36.164 57.1135 36.2662 56.4661 36.4364C56.0235 36.5386 55.6485 36.7772 55.4103 37.1177C55.2397 37.3904 55.1375 37.7309 55.1375 38.0375C55.1375 38.3441 55.2739 38.6507 55.4783 38.9234C55.7849 39.2981 56.1937 39.6047 56.6367 39.8433C57.4265 40.2523 58.2335 40.6274 59.0554 40.9675C60.895 41.5807 62.6666 42.4322 64.3018 43.4542C65.426 44.1696 66.3458 45.1236 66.9929 46.282C67.5381 47.372 67.8105 48.5643 67.7767 49.7907C67.8105 51.392 67.3337 52.9931 66.448 54.3217C65.4978 55.6816 64.1719 56.7352 62.6324 57.3536C60.963 58.069 58.919 58.444 56.4661 58.444C54.8993 58.444 53.3662 58.3076 51.8332 58.001C50.6317 57.7935 49.4631 57.4269 48.3584 56.9109C48.1198 56.7746 47.9495 56.536 47.9834 56.2636V50.3359C47.9834 50.2337 48.0176 50.0973 48.1198 50.0293C48.222 49.9612 48.3242 49.9951 48.4264 50.0634C49.755 50.8469 51.1517 51.392 52.6508 51.7325C53.9453 52.0733 55.3081 52.2435 56.6705 52.2435C57.9653 52.2435 58.8851 52.0733 59.4983 51.7667C60.0432 51.5281 60.4181 50.9491 60.4181 50.3359C60.4181 49.859 60.1454 49.416 59.6005 48.9731C59.0554 48.5304 57.9311 48.0194 56.2617 47.372C54.5493 46.7686 52.9231 45.944 51.4244 44.9192C50.3569 44.1583 49.4724 43.169 48.8352 42.0234C48.29 40.9333 48.0176 39.7411 48.0518 38.5485C48.0518 37.0838 48.4606 35.6868 49.2098 34.4266C50.0616 33.0638 51.3222 31.9737 52.7869 31.2922C54.3882 30.4746 56.3981 30.0999 58.8168 30.0999C60.2137 30.0999 61.6446 30.2021 63.0412 30.4065C64.0632 30.5429 65.0511 30.8153 65.9709 31.19C66.1073 31.2241 66.2436 31.3605 66.3117 31.4966C66.3458 31.633 66.3797 31.7693 66.3797 31.9054V37.4584C66.3797 37.5948 66.3117 37.7309 66.2095 37.7992C65.9029 37.8673 65.7326 37.8673 65.5963 37.7992Z" fill="#31A8FF"/>
</g>
<defs>
<clipPath id="clip0_30_5266">
<rect width="81.7613" height="81.7613" fill="white" transform="translate(0.187256 0.422852)"/>
</clipPath>
</defs>
</svg>
