<svg width="81" height="82" viewBox="0 0 81 82" fill="none" xmlns="http://www.w3.org/2000/svg">
<g clip-path="url(#clip0_30_5274)">
<path d="M62.0044 0.915527H19.0165C8.5423 0.915527 0.0512695 9.40656 0.0512695 19.8808V62.8687C0.0512695 73.3429 8.5423 81.834 19.0165 81.834H62.0044C72.4787 81.834 80.9697 73.3429 80.9697 62.8687V19.8808C80.9697 9.40656 72.4787 0.915527 62.0044 0.915527Z" fill="#470137"/>
<path d="M42.4827 26.2704L33 41.9168L43.1148 58.5114C43.178 58.6378 43.2097 58.7642 43.178 58.8907C43.1464 59.0171 43.02 58.9223 42.8304 58.9539H35.5919C35.0862 58.9539 34.7385 58.9223 34.5172 58.6062C33.8535 57.2786 33.1581 55.9827 32.4943 54.6551C31.8305 53.3591 31.1035 52.0316 30.3449 50.6724C29.5863 49.3132 28.8277 47.954 28.0691 46.5633H28.0058C27.3421 47.9224 26.6151 49.2816 25.8881 50.6408C25.1611 52 24.4341 53.3592 23.7387 54.6867C23.0117 56.0143 22.2847 57.3735 21.5577 58.6694C21.4312 58.9855 21.1784 59.0171 20.8307 59.0171H13.8767C13.7503 59.0171 13.6555 59.0803 13.6555 58.9223C13.6239 58.7959 13.6555 58.6694 13.7187 58.5746L23.549 42.4541L13.9716 26.2388C13.8767 26.1124 13.8451 25.986 13.9083 25.9227C13.9716 25.8279 14.098 25.7963 14.2244 25.7963H21.3996C21.5577 25.7963 21.7157 25.8279 21.8421 25.8595C21.9686 25.9227 22.0634 26.0176 22.1582 26.144C22.7588 27.5032 23.4542 28.8624 24.1812 30.2215C24.9398 31.5807 25.6668 32.9083 26.457 34.2358C27.2156 35.5634 27.911 36.891 28.5748 38.2502H28.638C29.3018 36.8594 29.9972 35.5002 30.6926 34.1726C31.388 32.8451 32.115 31.5175 32.842 30.1899C33.569 28.8624 34.2644 27.5032 34.9598 26.2072C34.9914 26.0808 35.0546 25.9544 35.1494 25.8911C35.2759 25.8279 35.4023 25.7963 35.5603 25.8279H42.2298C42.3878 25.7963 42.5459 25.8911 42.5775 26.0492C42.6091 26.0808 42.5459 26.2072 42.4827 26.2704ZM57.0859 59.618C54.7469 59.6496 52.4078 59.1755 50.29 58.1956C48.2987 57.279 46.655 55.7617 45.5171 53.8968C44.3476 51.9687 43.7786 49.5664 43.7786 46.69C43.747 44.351 44.3476 42.0435 45.5171 40.0206C46.7182 37.966 48.4567 36.2591 50.5429 35.1212C52.7555 33.8885 55.4106 33.2879 58.5399 33.2879C58.698 33.2879 58.9192 33.2879 59.2037 33.3195C59.4882 33.3511 59.8043 33.3511 60.1836 33.3827V23.3944C60.1836 23.1731 60.2784 23.0467 60.4996 23.0467H66.9162C67.0743 23.0151 67.2007 23.1415 67.2323 23.2679V53.4227C67.2323 53.9916 67.2639 54.6238 67.2955 55.3192C67.3587 55.983 67.3904 56.6152 67.422 57.1525C67.422 57.3738 67.3271 57.5634 67.1059 57.6583C65.4622 58.3537 63.7237 58.8594 61.9537 59.1755C60.3416 59.46 58.7296 59.618 57.0859 59.618ZM60.1836 53.2962V39.3884C59.8991 39.3252 59.6146 39.262 59.3301 39.2303C58.9824 39.1987 58.6347 39.1671 58.287 39.1671C57.0543 39.1671 55.8216 39.42 54.7152 39.989C53.6405 40.5263 52.7239 41.3165 52.0285 42.328C51.3331 43.3395 50.9854 44.6987 50.9854 46.3423C50.9538 47.4486 51.1435 48.5549 51.5228 49.598C51.8389 50.4515 52.313 51.2101 52.9452 51.8422C53.5457 52.4112 54.2727 52.8537 55.0946 53.1066C55.948 53.3911 56.833 53.5175 57.7181 53.5175C58.1922 53.5175 58.6347 53.4859 59.0456 53.4543C59.4566 53.4859 59.8043 53.4227 60.1836 53.2962Z" fill="#FF61F6"/>
</g>
<defs>
<clipPath id="clip0_30_5274">
<rect width="80.9184" height="80.9184" fill="white" transform="translate(0.0512695 0.915527)"/>
</clipPath>
</defs>
</svg>
