<svg width="100" height="35" viewBox="0 0 100 35" fill="none" xmlns="http://www.w3.org/2000/svg">
<path d="M81.9936 1.86411e-05C77.8956 1.86411e-05 74.1364 1.43761 71.1869 3.8336C68.1341 1.34845 64.3165 -0.00579512 60.3801 1.86411e-05C56.2822 1.86411e-05 52.5229 1.43761 49.5734 3.8336C46.5206 1.34845 42.7031 -0.00579512 38.7666 1.86411e-05C34.6687 1.86411e-05 30.9094 1.43761 27.9599 3.8336C25.4433 1.79135 22.3995 0.503925 19.1812 0.120481C15.963 -0.262963 12.7019 0.273268 9.77589 1.66705C6.84986 3.06083 4.37862 5.25512 2.64845 7.9957C0.918278 10.7363 0 13.911 0 17.152C0 20.393 0.918278 23.5677 2.64845 26.3083C4.37862 29.0489 6.84986 31.2432 9.77589 32.637C12.7019 34.0308 15.963 34.567 19.1812 34.1835C22.3995 33.8001 25.4433 32.5127 27.9599 30.4704C30.9094 32.8664 34.6687 34.304 38.7666 34.304C42.8646 34.304 46.6238 32.8664 49.5734 30.4704C52.5229 32.8664 56.2822 34.304 60.3801 34.304C64.4781 34.304 68.2373 32.8664 71.1869 30.4704C73.3187 32.2004 75.8348 33.3934 78.5235 33.9491C81.2122 34.5047 83.995 34.4068 86.638 33.6636C89.281 32.9203 91.7069 31.5535 93.712 29.6779C95.717 27.8024 97.2425 25.4729 98.1602 22.8853C99.0779 20.2977 99.3611 17.5276 98.9858 14.8079C98.6106 12.0881 97.588 9.49817 96.0039 7.25574C94.4198 5.01331 92.3205 3.18391 89.8825 1.92132C87.4446 0.658726 84.7391 -0.000167381 81.9936 1.86411e-05ZM71.1869 24.8605C69.5771 22.6128 68.7131 19.9167 68.7165 17.152C68.7165 14.2768 69.6336 11.6164 71.1869 9.44353C72.7401 11.6164 73.6572 14.2768 73.6572 17.152C73.6572 20.0272 72.7401 22.6876 71.1869 24.8605ZM49.5734 24.8605C47.9636 22.6128 47.0996 19.9167 47.103 17.152C47.103 14.2768 48.0201 11.6164 49.5734 9.44353C51.1267 11.6164 52.0437 14.2768 52.0437 17.152C52.0437 20.0272 51.1267 22.6876 49.5734 24.8605ZM27.9599 24.8605C26.3501 22.6128 25.4861 19.9167 25.4895 17.152C25.4895 14.2768 26.4066 11.6164 27.9599 9.44353C29.5132 11.6164 30.4302 14.2768 30.4302 17.152C30.4302 20.0272 29.5132 22.6876 27.9599 24.8605ZM3.87606 17.152C3.87703 14.6746 4.57115 12.2468 5.8799 10.1433C7.18866 8.0398 9.05985 6.34441 11.2819 5.24886C13.5039 4.15332 15.9881 3.70133 18.4537 3.94399C20.9192 4.18666 23.2676 5.11431 25.2334 6.62204C22.8847 9.62919 21.6107 13.3363 21.6147 17.152C21.6147 21.1219 22.9696 24.7779 25.2334 27.682C23.2676 29.1897 20.9192 30.1174 18.4537 30.36C15.9881 30.6027 13.5039 30.1507 11.2819 29.0552C9.05985 27.9596 7.18866 26.2642 5.8799 24.1607C4.57115 22.0572 3.87703 19.6294 3.87606 17.152ZM30.6864 27.682C33.0351 24.6748 34.3091 20.9677 34.3051 17.152C34.3051 13.1821 32.9502 9.52615 30.6864 6.62204C33.0024 4.83899 35.8437 3.87301 38.7666 3.87492C41.8071 3.87492 44.6079 4.89941 46.8469 6.62204C44.497 9.62858 43.2229 13.3361 43.2281 17.152C43.2281 21.1219 44.5831 24.7779 46.8469 27.682C44.5308 29.465 41.6896 30.431 38.7666 30.4291C35.8434 30.4332 33.0014 29.467 30.6864 27.682ZM52.2999 27.682C54.6497 24.6754 55.9239 20.9679 55.9186 17.152C55.9186 13.1821 54.5637 9.52615 52.2999 6.61791C54.5389 4.89941 57.3397 3.87078 60.3801 3.87078C63.4206 3.87078 66.2214 4.89528 68.4604 6.61791C66.1105 9.62444 64.8364 13.332 64.8416 17.1479C64.8416 21.1178 66.1966 24.7737 68.4604 27.6778C66.1443 29.4609 63.303 30.4269 60.3801 30.425C57.457 30.4321 54.6145 29.4672 52.2999 27.682ZM81.9936 30.4291C79.0703 30.4332 76.2284 29.467 73.9133 27.682C76.2615 24.6745 77.5355 20.9676 77.5321 17.152C77.5321 13.1821 76.1771 9.52615 73.9133 6.62204C75.5872 5.33655 77.5433 4.46859 79.6196 4.09013C81.6958 3.71167 83.8324 3.83363 85.8521 4.44588C87.8718 5.05813 89.7165 6.14304 91.2332 7.61064C92.7498 9.07825 93.8948 10.8863 94.5731 12.8848C95.2514 14.8833 95.4435 17.0147 95.1335 19.1023C94.8235 21.1899 94.0203 23.1735 92.7905 24.8886C91.5607 26.6038 89.9398 28.0011 88.0621 28.9646C86.1844 29.9281 84.1041 30.4302 81.9936 30.4291Z" fill="white"/>
</svg>
