<svg width="62" height="62" viewBox="0 0 62 62" fill="none" xmlns="http://www.w3.org/2000/svg">
<path fill-rule="evenodd" clip-rule="evenodd" d="M62 31C62 35.071 61.1982 39.1021 59.6403 42.8632C58.0824 46.6243 55.7989 50.0417 52.9203 52.9203C50.0417 55.7989 46.6243 58.0824 42.8632 59.6403C39.1021 61.1982 35.071 62 31 62C26.929 62 22.8979 61.1982 19.1368 59.6403C15.3757 58.0824 11.9583 55.7989 9.07969 52.9203C6.20107 50.0417 3.91763 46.6243 2.35973 42.8632C0.801838 39.1021 -6.06623e-08 35.071 0 31C1.22513e-07 22.7783 3.26606 14.8933 9.07969 9.07969C14.8933 3.26606 22.7783 0 31 0C39.2217 0 47.1067 3.26606 52.9203 9.07969C58.7339 14.8933 62 22.7783 62 31ZM6.88889 31C6.88889 37.3947 9.42916 43.5274 13.9509 48.0491C18.4726 52.5708 24.6053 55.1111 31 55.1111V31H55.1111C55.1111 24.6053 52.5708 18.4726 48.0491 13.9509C43.5274 9.42916 37.3947 6.88889 31 6.88889V31H6.88889Z" fill="white"/>
</svg>
