<svg width="20" height="21" viewBox="0 0 20 21" fill="none" xmlns="http://www.w3.org/2000/svg">
<path d="M19.6173 15.69C19.3882 15.446 18.5792 14.7244 17.0921 13.7697C15.5941 12.8067 14.4893 12.2063 14.1724 12.0663C14.1445 12.0539 14.1137 12.0493 14.0834 12.0531C14.0531 12.0569 14.0244 12.0689 14.0004 12.0878C13.4899 12.4859 12.6305 13.2171 12.5844 13.2566C12.2868 13.5116 12.2868 13.5116 12.0432 13.4322C11.6148 13.2917 10.284 12.5851 9.12434 11.4228C7.9647 10.2605 7.2216 8.89679 7.08114 8.46884C7.00082 8.2248 7.00082 8.2248 7.25671 7.92721C7.29622 7.88112 8.0279 7.02171 8.42601 6.51167C8.44489 6.48766 8.45687 6.45895 8.46066 6.42863C8.46445 6.39832 8.4599 6.36754 8.44752 6.33962C8.3075 6.02227 7.70705 4.91794 6.74405 3.41989C5.78807 1.93325 5.06735 1.12431 4.82331 0.895192C4.80092 0.874059 4.77324 0.859358 4.74319 0.852638C4.71314 0.845917 4.68183 0.847426 4.65257 0.857006C3.79951 1.15016 2.97644 1.52421 2.19459 1.97407C1.43983 2.41283 0.725263 2.91736 0.0592218 3.48178C0.0359719 3.50154 0.0185408 3.52726 0.00879795 3.55618C-0.00094494 3.5851 -0.00263208 3.61613 0.00391734 3.64593C0.0956526 4.07345 0.534139 5.85812 1.89481 8.33014C3.28312 10.8531 4.24525 12.1457 6.28405 14.1775C8.32286 16.2093 9.65631 17.2293 12.1819 18.6177C14.6539 19.9783 16.4395 20.4173 16.8661 20.5081C16.896 20.5146 16.927 20.5129 16.956 20.5031C16.985 20.4934 17.0108 20.476 17.0307 20.4528C17.595 19.7868 18.0994 19.0722 18.538 18.3174C18.9877 17.5355 19.3618 16.7125 19.655 15.8595C19.6644 15.8304 19.6659 15.7994 19.6592 15.7696C19.6526 15.7398 19.6381 15.7123 19.6173 15.69Z" fill="white"/>
</svg>
