<svg width="76" height="62" viewBox="0 0 76 62" fill="none" xmlns="http://www.w3.org/2000/svg">
<path d="M75.3132 14.6011C74.2734 4.46163 67.5306 2.32849 61.5944 1.35487C58.6136 0.850734 53.3076 0.409613 49.8857 0.283578C46.905 0.0945258 39.9038 0 37.8021 0C35.732 0 28.6961 0.0945258 25.7186 0.283578C22.3282 0.409613 16.9907 0.850734 14.0099 1.35487C8.07686 2.36 1.32455 4.48684 0.291065 14.6011C0.0389953 17.3644 -0.0240221 20.9753 0.0074866 24.8351C0.102013 31.2346 0.63766 35.567 0.952747 38.5824C1.17331 40.6525 2.01774 46.8377 3.11739 50.0389C4.62351 54.4344 6.00359 55.72 7.60423 57.0402C10.5566 59.4254 15.39 60.1784 16.3952 60.3675C21.8556 61.3442 32.9057 61.527 37.7706 61.527C42.6356 61.527 53.6825 61.3695 59.1461 60.3675C60.1828 60.1784 65.0162 59.4537 67.937 57.0402C69.5377 55.72 70.9178 54.4344 72.4239 50.0389C73.5267 46.8377 74.4026 40.6525 74.6232 38.5824C74.9383 35.567 75.5023 31.2346 75.5653 24.8351C75.6913 20.9753 75.5968 17.3644 75.3132 14.6011ZM71.6078 31.6158C71.0091 39.7135 70.2907 44.547 69.2541 48.0633C68.3404 51.1386 67.247 53.1772 65.5833 54.655C62.8515 57.1347 59.0831 57.6672 56.887 57.9823C52.1165 58.707 44.1102 58.9275 37.8021 58.9275C31.4941 58.9275 23.4878 58.6755 18.7173 57.9823C16.5212 57.6672 12.7527 57.1347 10.0209 54.655C8.38879 53.1772 7.26078 51.1071 6.38169 48.0602C5.34506 44.5785 4.62351 39.7104 4.02799 31.6127C3.6814 26.7509 3.74442 18.839 4.28006 14.598C5.09299 8.26158 8.2344 5.08865 14.9521 3.89762C18.0903 3.33047 22.3251 2.92085 26.3141 2.7318C29.5154 2.51124 34.8214 2.41672 37.7706 2.44822C40.7198 2.41672 46.0259 2.54275 49.2272 2.7318C53.2446 2.92085 57.451 3.33047 60.5892 3.89762C67.3384 5.08865 70.4798 8.29308 71.2644 14.6011C71.8914 18.839 71.9828 26.7509 71.6078 31.6158ZM55.2201 5.18003C53.4935 12.9375 52.8034 16.4853 51.3887 22.1002C50.0401 27.5039 48.972 32.4917 47.1823 34.9085C45.3327 37.3567 42.8813 37.8923 41.2177 38.0782C40.3386 38.1728 39.7116 38.2043 37.8589 38.2358C36.7276 38.2572 35.5961 38.2046 34.4717 38.0782C32.808 37.8892 30.3283 37.3567 28.5102 34.9085C26.689 32.4917 25.6524 27.5039 24.3038 22.1033C22.8229 16.5169 22.1675 12.9343 20.4094 5.18318C20.4094 5.18318 18.6827 5.24619 17.8981 5.30921C16.8615 5.37223 16.0454 5.46676 15.1663 5.59279C16.2471 22.5193 17.3467 40.5013 18.7142 56.4163C21.2128 56.7306 23.7268 56.9083 26.2448 56.9488C27.2846 52.9598 28.6016 47.4332 30.0479 45.0795C31.2389 43.1637 33.0916 42.9463 34.1282 42.8203C35.7604 42.5997 37.1405 42.5682 37.799 42.5682C38.4292 42.5367 39.8061 42.5682 41.4698 42.8203C42.5095 42.9778 44.3591 43.1669 45.5501 45.0795C47.031 47.4332 48.3134 52.9566 49.3501 56.9456C49.3501 56.9456 50.4781 56.9141 53.0208 56.7881C54.3127 56.7314 55.6045 56.6053 56.8838 56.41C58.3269 39.4268 59.3572 22.6075 60.4317 5.59279C59.5494 5.46676 58.7365 5.37223 57.6999 5.30921C56.9752 5.24619 55.2201 5.18003 55.2201 5.18003Z" fill="white"/>
</svg>
