<svg width="96" height="43" viewBox="0 0 96 43" fill="none" xmlns="http://www.w3.org/2000/svg">
<path d="M20.7927 0.00449756C20.405 0.00952359 20.0175 0.02275 19.6303 0.0441698C19.6303 0.0441698 13.2826 0.329816 11.2989 3.21009C11.2989 3.21009 10.9617 3.59889 11.1521 4.01546C11.1521 4.01546 11.1918 4.13448 11.1125 4.21383C11.1125 4.21383 10.0413 5.16598 9.50174 6.01896C9.31131 6.32841 9.09707 6.84813 9.50174 7.20915C9.50174 7.20915 9.68027 7.34801 9.75168 7.46703C9.9064 7.72094 10.0492 8.09783 10.2397 8.32C10.5174 8.65326 11.0768 9.22455 11.8663 9.0857C12.1559 9.03412 12.2233 8.927 12.2233 8.927C12.6201 9.31977 13.2548 9.30787 13.2548 9.30787C13.1755 9.05396 12.8978 8.56201 12.8581 8.26446C12.836 8.04839 12.8562 7.83008 12.9176 7.62176C13.0275 7.22523 13.2239 6.85803 13.4929 6.54661C13.7071 6.33238 14.2546 6.09037 14.695 6.39585C15.0441 6.6458 15.4646 7.45909 15.1155 8.61755C15.1155 8.70483 14.7188 9.53004 14.3022 9.64906C14.3022 9.64906 14.2625 9.66492 14.1832 9.66492C13.9055 9.66492 13.3897 9.37531 13.3897 9.37531C13.3897 9.37531 13.3897 9.44672 13.4492 9.74824C13.4968 9.91883 13.5563 10.1053 13.6079 10.2521C13.6079 10.2521 13.5087 10.4346 13.4413 10.5377C13.3421 10.7163 13.2588 11.0575 13.481 11.2122C13.481 11.2122 14.3934 11.835 15.2861 11.8906C15.8971 11.9303 16.1272 11.5137 16.1272 11.5137C16.5794 10.8948 16.9206 10.3632 17.3967 9.93074C18.694 8.74054 20.515 8.42315 20.515 8.42315C20.634 8.40728 22.6296 7.85186 26.0137 10.5615C25.0457 10.6409 23.8952 10.871 23.0144 11.0257C20.5071 11.474 18.9003 13.8425 18.4322 14.8026C17.2142 17.3139 19.7017 18.1788 19.7017 18.1788C19.7414 18.155 22.0821 17.9725 23.2168 15.4691C23.2168 15.4691 23.6294 14.3622 24.7363 14.7233C25.4583 14.9573 31.8378 17.183 33.2739 17.5639C33.2739 17.5639 37.5467 18.6747 39.1535 16.7109C41.7283 17.5559 44.1404 17.9646 50.4604 17.1473C51.5593 17.0045 52.4242 17.0402 52.4242 17.0402C53.9 17.1473 55.2489 18.1431 55.6576 18.7937C57.3238 21.4558 59.4265 26.7403 66.7502 26.0976L70.0629 25.7961C72.0862 25.677 73.7287 25.5977 75.399 26.4784C76.125 26.8593 76.5296 26.9982 77.7635 28.1765C79.4496 29.7792 81.0008 31.5169 83.0638 30.5687C83.7978 30.2315 84.623 28.9223 84.623 28.9223C84.5824 28.5901 84.472 28.2703 84.299 27.9838C84.126 27.6973 83.8943 27.4506 83.6193 27.26C85.4958 27.7083 89.7289 27.994 91.3635 25.1335C91.788 24.467 91.8316 23.8719 91.6729 23.5148C91.2246 22.5111 89.9828 22.8404 89.9828 22.8404C89.3957 22.9594 88.7252 23.6339 87.7294 23.9274C85.595 24.5622 83.889 23.8243 83.889 23.8243C80.6001 22.4 70.0312 16.3499 64.6555 13.7076C64.6555 13.7076 58.4863 10.6131 49.4249 7.02666C49.4249 7.02666 32.9684 -0.205771 20.8126 0.00449756H20.7927ZM20.7927 0.544052C32.6947 0.341719 49.0123 7.44323 49.175 7.51861C50.6349 8.09784 52.0156 8.66913 53.3129 9.20868L51.4284 8.46283C49.0304 7.55576 46.6124 6.70256 44.1761 5.9039C38.0506 3.78932 35.3687 3.41639 35.1822 3.39259C34.8449 3.33443 34.5063 3.28417 34.1666 3.24183L33.0637 3.11488L33.6746 4.10274C29.3503 1.04394 24.1729 0.889209 23.919 0.881275C22.8756 0.881275 21.9671 1.17882 21.2609 1.51605L21.614 0.861438L20.757 0.821765C19.5653 0.760655 18.3708 0.78452 17.1825 0.893178C18.3704 0.669427 19.576 0.552584 20.7848 0.544052H20.7927ZM19.5272 1.32958C19.9041 1.32958 20.3087 1.34149 20.7451 1.36132L20.6023 1.62713C20.2968 2.20636 19.0749 3.40449 17.0635 2.96015C17.0635 2.96015 17.0635 3.85677 19.2653 4.17812C19.2653 4.17812 21.2371 4.52725 24.5855 7.22106C24.5855 7.22106 22.9867 4.03926 20.2691 3.21406C20.2691 3.21406 19.9279 3.14265 20.0945 2.92841C20.0945 2.92841 21.6973 1.42083 23.9309 1.42083C23.9309 1.42083 30.8896 1.57159 35.3131 6.19749C35.3131 6.19749 35.1148 5.39212 34.4205 4.2535L34.1309 3.77742C34.1309 3.77742 34.3967 3.80916 35.1227 3.92818C35.1227 3.92818 37.7808 4.25747 44.0214 6.41172C44.0214 6.41172 48.6989 7.95104 51.2578 8.96271C55.1061 10.4981 64.7388 14.2273 70.8841 17.5797C71.9791 18.1748 83.0916 23.9671 83.0916 23.9671C86.1663 25.3517 88.2967 24.5106 88.2967 24.5106C88.991 24.2488 90.2486 23.2808 90.7961 23.8283C91.0778 24.1099 91.1175 24.4908 90.9826 24.8598C90.8239 25.4152 90.0304 26.1611 89.0664 26.5856C88.0547 27.0378 85.9441 27.1568 84.7261 26.9585C84.7261 26.9585 82.3616 26.7204 80.2946 24.5583C79.64 23.8759 78.8386 23.1022 78.0967 22.3405C77.4557 21.6272 76.5857 21.1599 75.637 21.0194C74.2484 20.8329 70.8564 20.7417 69.5829 20.3172C68.7299 20.0315 67.7024 19.4563 66.3336 17.429C65.675 16.4609 65.2109 16.1951 64.3143 15.6238C64.3143 15.6238 65.0006 16.1713 65.3894 16.8616C65.9528 17.8614 66.2344 18.5874 66.5399 19.123C66.8454 19.6586 67.1906 20.1307 67.7103 20.5513C68.3609 21.071 68.7656 21.1702 69.4678 21.2852C70.1423 21.3963 72.4116 21.3765 74.3556 21.3487C76.2718 21.317 77.1287 21.9359 77.7556 22.4675C78.3388 22.9594 79.3425 24.3599 79.9534 24.9748C80.6834 25.7048 81.223 26.4507 82.6671 27.1807C83.171 27.4346 83.9922 28.0614 83.9485 28.6644C83.2979 29.3151 82.4925 29.4857 80.5565 28.9659C80.6953 29.1008 81.707 30.168 83.4407 29.6642C83.0156 30.0613 82.4512 30.2751 81.8697 30.2593C80.0526 30.1561 78.2753 27.9186 77.2755 27.0934C76.5217 26.4665 76.4305 26.3118 75.1451 25.4192C73.1892 24.0663 68.8053 24.4472 68.8053 24.4472L65.5838 24.6138C59.3154 25.0899 56.6811 19.5356 55.9869 18.3772C55.7855 18.033 55.5629 17.7018 55.3203 17.3853C55.003 16.9569 53.2891 14.7352 51.5554 14.0052C51.5554 14.0052 53.2613 15.4731 53.1582 16.4411C53.1582 16.4411 52.452 16.1118 50.5318 16.3856C42.2758 17.5639 39.463 15.4969 39.463 15.4969C39.8478 13.8425 38.6933 12.1445 38.6933 12.1445C39.3281 12.3429 43.3906 13.7156 47.2429 12.938C47.2429 12.938 40.9705 12.9697 36.5708 9.45862C36.5708 9.45862 39.3082 12.8904 38.6576 15.1359C38.6576 15.1359 38.2093 17.5282 33.4366 16.5641C32.9248 16.4649 32.3257 16.2943 25.1846 14.3107C23.5024 13.8068 22.9232 14.6082 22.6177 15.0922C22.6177 15.7984 21.7727 16.6236 21.3561 16.8775C19.1423 16.4808 20.0231 14.4297 20.0231 14.4297C18.6345 16.4213 20.0905 17.302 20.5507 17.3655C20.273 17.4964 20.0151 17.5956 19.7969 17.6749C19.7969 17.6749 17.9839 16.5998 18.9955 14.8383C20.4039 12.3786 21.8401 11.5891 24.4704 11.3471C25.621 11.24 26.5771 11.1566 27.3071 11.2598C29.2114 11.5216 30.4095 12.6007 33.266 12.8745C27.2039 11.0892 27.1881 7.57812 27.1682 7.51067V7.5067C26.831 8.66516 27.0175 9.64112 27.315 10.4663C27.2357 10.4346 25.9066 9.56178 25.3988 9.25629C23.2247 7.92724 21.5029 7.69317 21.5029 7.69317C20.7808 7.60192 20.4476 6.72514 20.4476 6.72514C20.4079 6.6815 20.396 6.63786 20.3682 6.59819C19.3685 4.8843 18.3766 4.85256 18.3766 4.85256C18.6721 5.29419 18.8572 5.80034 18.9162 6.32841C18.9559 6.54661 18.9717 6.95128 18.9717 7.0703C18.9717 8.9032 16.8294 9.47846 16.8294 9.47846C15.3535 11.355 15.4289 11.3947 15.0996 11.4423C14.7703 11.4899 14.0483 11.1249 14.0483 11.1249C13.9927 11.0932 13.9769 11.0098 13.9848 10.9583C13.9848 10.8432 14.0959 10.7718 14.0959 10.7718C14.3736 10.5536 14.5997 10.3354 14.5997 10.3354C16.1629 8.73657 16.3493 7.95501 16.1589 6.91954C15.7622 4.84066 14.2784 5.08267 14.2784 5.08267C13.5563 5.15408 13.2628 5.74918 13.2628 5.74918C12.9802 6.25494 12.722 6.77393 12.4891 7.30437C12.1717 8.00262 11.8385 8.15734 11.6679 8.18908C11.5824 8.20012 11.4962 8.2041 11.41 8.20098C10.9062 8.18115 10.5253 7.72094 10.5253 7.72094C10.4856 7.69713 10.4856 7.66936 10.4618 7.64953C10.0016 7.15758 10.3349 6.5109 10.3349 6.5109C10.9538 5.07077 12.1598 4.8605 12.3185 4.84066L13.0406 4.73751C14.568 4.47964 15.2901 2.88874 15.2901 2.88874C14.7789 2.87423 14.2674 2.89278 13.7587 2.94428C12.743 3.12281 12.3979 4.31698 12.3979 4.31301C11.5409 4.51138 11.5647 3.77345 11.7155 3.54731C11.8504 3.34101 12.3503 2.4563 15.6471 1.69458C15.6471 1.69458 16.8929 1.31768 19.5272 1.32958ZM18.8964 1.80566C18.1029 1.80566 17.6863 2.25 17.6863 2.29364C17.6863 2.31745 17.7934 2.32935 17.964 2.33332L18.2417 2.34522C18.6834 2.32622 19.1161 2.214 19.5113 2.01593C19.6411 1.96273 19.7637 1.89342 19.8763 1.80963L18.9043 1.80169L18.8964 1.80566ZM19.547 3.2458V3.26167C19.666 3.58302 19.9755 3.69807 20.1143 3.73775V3.73378C20.761 3.93214 21.3402 4.28127 21.848 4.6899C20.3008 3.82503 19.4161 3.65443 19.3566 3.64253C19.147 3.61058 18.9391 3.56821 18.7337 3.51558C19.0179 3.45652 19.2947 3.36604 19.5589 3.2458H19.547ZM14.1356 3.44416C14.1356 3.44416 13.9372 4.07894 13.1556 4.21383C13.1556 4.21383 12.8502 4.28524 12.7272 4.28921L12.8105 4.05117C12.8105 4.00356 13.0128 3.50368 13.4651 3.45607C13.4651 3.45607 13.7269 3.44416 14.1356 3.44416ZM11.4259 4.36855C11.4886 4.44305 11.5638 4.50613 11.6481 4.55502C11.1125 4.78115 9.72391 6.2689 9.72391 6.2689C10.4261 5.22946 11.3426 4.45187 11.3505 4.44393C11.3505 4.43203 11.3902 4.42013 11.3902 4.40822C11.3902 4.39632 11.4259 4.38045 11.4259 4.36855ZM14.3498 5.61826C14.5006 5.59842 15.2107 5.57065 15.54 6.68943C15.4251 6.39881 15.233 6.14505 14.9846 5.95548C14.8392 5.85462 14.6754 5.78342 14.5025 5.74598C14.3295 5.70854 14.1509 5.70558 13.9769 5.73728C14.0893 5.66708 14.2175 5.62616 14.3498 5.61826ZM9.2637 34.9685V38.432C9.2637 39.4436 9.04153 40.1221 8.54958 40.614C7.89497 41.2567 6.81586 41.5186 5.21703 41.5186H0V42.5342H5.66534C8.35121 42.5342 10.2516 42.1692 11.2394 41.1575C11.8068 40.5783 12.0805 39.8523 12.0805 38.6581V34.9685H9.2637ZM19.9279 34.9685L13.3699 42.5382H15.0044L16.385 40.9274H24.7323L26.1209 42.5382H29.2788L22.709 34.9725L19.9279 34.9685ZM36.1383 34.9685C34.2221 34.9685 33.0756 35.1907 32.052 35.762C31.5205 36.0526 31.0794 36.4841 30.7771 37.009C30.4748 37.5339 30.3229 38.1319 30.3381 38.7375C30.3381 40.2649 31.0324 41.3797 32.5479 41.9907C33.4564 42.3596 34.6585 42.5342 36.1859 42.5342H44.3388V39.0628H41.5339V41.5225H37.0389C35.5869 41.5225 34.7379 41.3123 34.115 40.8362C33.5199 40.3799 33.2065 39.6896 33.2065 38.7533C33.2065 37.8448 33.504 37.1664 34.0595 36.7181C34.6863 36.2103 35.5075 35.9802 37.0151 35.9802H44.0531V34.9685H36.1383ZM58.5775 34.9685V38.6343C58.5775 39.5865 58.4585 40.1935 58.0935 40.6973C57.4825 41.5582 56.5185 41.8677 54.5388 41.8677H54.3007C52.4123 41.8677 51.361 41.5582 50.75 40.7013C50.389 40.1935 50.266 39.6182 50.266 38.6343V34.9725H47.4492V38.7414C47.4492 39.7174 47.5563 40.487 48.0443 41.1337C48.8457 42.1811 50.3215 42.7841 54.392 42.7841H54.4356C58.5299 42.7841 59.9978 42.1811 60.7992 41.1337C61.2912 40.487 61.3943 39.7174 61.3943 38.7414V34.9725L58.5775 34.9685ZM69.198 34.9685L62.6361 42.5342H64.2706L65.6552 40.9235H73.9985L75.3871 42.5342H78.5451L71.9752 34.9685H69.198ZM81.0445 34.9685V42.5382H83.8613V39.9158H87.5628L91.784 42.5342H95.2157L90.7842 39.8642C91.8395 39.8285 92.7401 39.6658 93.4304 39.2969C93.7622 39.1124 94.0366 38.84 94.2235 38.5096C94.4104 38.1792 94.5025 37.8036 94.4897 37.4243C94.4897 36.4126 94.0374 35.7659 93.2162 35.4009C92.4823 35.0836 91.5777 34.9725 89.7805 34.9725L81.0445 34.9685ZM83.8613 35.9207H89.4115C90.4669 35.9207 90.935 36.0238 91.2564 36.2619C91.5618 36.492 91.6729 36.8411 91.6729 37.3846V37.5274C91.6729 38.0154 91.5539 38.4121 91.1968 38.6621C90.8398 38.9081 90.3478 38.9596 89.4473 38.9596H83.8613V35.9207ZM20.5507 36.0714L23.8833 39.9475H17.2261L20.5507 36.0714ZM69.8209 36.0714L73.1535 39.9475H66.4884L69.8209 36.0714Z" fill="white"/>
</svg>
