<svg width="112" height="59" viewBox="0 0 112 59" fill="none" xmlns="http://www.w3.org/2000/svg">
<path d="M47.2397 26.9557H50.5662L53.4659 18.3725L55.1594 26.9557H58.4905L63.028 13.6959L59.5483 13.7005L57.1265 20.9104L55.7393 13.7005H51.0534L50.9374 14.0439L51.1694 14.2665C51.4153 14.5124 51.4013 14.7955 51.1926 15.4079L47.2397 26.9557ZM64.6333 15.4079L60.6758 26.9603H66.5169C69.0223 26.9603 70.4466 26.4036 71.6111 25.1648C73.0633 23.6245 74.3948 19.6206 74.3484 17.4168C74.3067 15.1666 72.8545 13.7052 69.8017 13.7052H64.4894L64.3781 14.0439L64.6101 14.2665C64.8513 14.5124 64.8467 14.7955 64.6333 15.4079ZM67.8067 16.8461H69.2589C70.2471 16.8461 70.7899 17.1755 70.8038 17.9411C70.8131 18.4328 70.6786 19.1102 70.1682 20.5624C69.7135 21.8615 69.3517 22.6177 68.8367 23.1698C68.4284 23.6059 67.8763 23.7961 66.619 23.7961H65.4081L67.8067 16.8461ZM86.671 18.456H77.8513L76.7053 21.6109H82.8202L75.8748 23.9724L75.4434 25.0998L85.4508 21.8058L86.671 18.456ZM23.3971 26.9603H32.4442L33.5392 23.7961H28.2779L31.7576 13.7005H27.2155L27.1041 14.0439L27.3315 14.2665C27.5774 14.5124 27.5681 14.7955 27.3547 15.4079L23.3971 26.9603ZM33.386 26.9557H37.2369L38.9024 24.0235H42.8878L42.9249 26.9557H46.4185L45.6669 13.7005H40.4381L40.3221 14.0439L40.4892 14.2109C40.7675 14.48 40.6515 14.8697 39.6355 16.4842L33.386 26.9557ZM42.6465 17.3658H42.7672L42.8321 21.3743H40.3871L42.6465 17.3658ZM37.1626 29.8275H31.4374L31.3215 30.1709L31.5534 30.4028C31.7993 30.6394 31.7854 30.9271 31.572 31.5395L27.5727 43.0919H31.2287L32.7922 38.5034H34.0309L35.4042 43.0873H39.0787L37.3528 38.4014C38.1014 38.3234 38.8053 38.008 39.3618 37.5013C40.053 36.8703 40.5309 35.9888 40.9253 34.6851C41.5006 32.7968 41.1526 31.7158 40.7815 31.1591C40.2711 30.3982 39.1947 29.8275 37.1626 29.8275ZM37.4781 34.6434C37.2461 35.2094 36.9956 35.3439 36.6662 35.4785C36.2952 35.574 35.9123 35.6146 35.5295 35.5991H33.7758L34.7269 32.8571H36.8379C37.4688 32.8571 37.7286 33.1819 37.7379 33.5624C37.7076 33.9344 37.6184 34.2993 37.4735 34.6434M85.8916 29.8275H80.1711L80.0597 30.1709L80.2917 30.4028C80.5376 30.6394 80.5237 30.9271 80.3149 31.5395L76.311 43.0919H79.9715L81.5304 38.5081H82.7692L84.1471 43.0873H87.8124L86.0957 38.4014C86.8412 38.3222 87.5418 38.0068 88.0954 37.5013C88.7913 36.8703 89.2692 35.9888 89.6635 34.6851C90.2388 32.7968 89.8955 31.7158 89.5243 31.1591C89.014 30.3982 87.9283 29.8275 85.8916 29.8275ZM86.2164 34.6434C85.9844 35.2094 85.7338 35.3439 85.4091 35.4785C85.0381 35.5737 84.6551 35.6144 84.2724 35.5991H82.5279L83.4697 32.8571H85.5807C86.2117 32.8571 86.4715 33.1819 86.4762 33.5624C86.4483 33.9343 86.3606 34.2994 86.2164 34.6434ZM92.5586 12.6427C81.5861 6.97321 67.9227 4.80191 55.6743 4.80191C43.426 4.80191 29.7626 6.97321 18.7901 12.6427C12.6195 15.8301 4.80191 21.5738 4.80191 29.3172C4.80191 37.0606 12.6242 42.8043 18.7901 45.9916C29.7626 51.6612 43.426 53.8325 55.6743 53.8325C67.9227 53.8325 81.5861 51.6658 92.5586 45.9916C98.7245 42.8043 106.547 37.0606 106.547 29.3172C106.547 21.5692 98.7292 15.8301 92.5586 12.6427ZM92.0018 44.906C81.1917 50.4873 67.751 52.6076 55.6743 52.6076C43.5977 52.6076 30.1569 50.4873 19.3468 44.906C13.6356 41.9413 6.03139 36.4899 6.03139 29.3172C6.03139 22.1352 13.6309 16.6884 19.3468 13.733C30.1569 8.15165 43.6023 6.03139 55.6743 6.03139C67.751 6.03139 81.1917 8.14701 92.0018 13.733C97.7224 16.6884 105.317 22.1306 105.317 29.3218C105.317 36.4992 97.7177 41.946 92.0018 44.906ZM94.7624 8.37899C84.3049 2.97394 70.428 0 55.6743 0C40.9253 0 27.0485 2.97394 16.5863 8.37899C10.3925 11.5803 0 18.5581 0 29.3172C0 40.0762 10.3925 47.0541 16.5863 50.2554C27.0438 55.6604 40.9253 58.639 55.6743 58.639C70.428 58.639 84.3049 55.6651 94.7624 50.26C100.956 47.0541 111.349 40.0809 111.349 29.3172C111.349 18.5535 100.956 11.5803 94.7624 8.37899ZM93.403 47.6294C83.3584 52.8117 69.9641 55.6697 55.6743 55.6697C41.3846 55.6697 27.9949 52.8118 17.9457 47.6201C8.2862 42.6326 2.96002 36.128 2.96002 29.3172C2.96002 22.5017 8.2862 16.0017 17.9457 11.0096C27.9949 5.82261 41.3892 2.96466 55.6743 2.96466C69.9641 2.96466 83.3584 5.82725 93.403 11.0142C103.067 16.0017 108.389 22.5064 108.389 29.3218C108.389 36.1327 103.067 42.6373 93.403 47.6294ZM49.745 29.6744H49.3228C46.8221 29.6744 45.3978 30.3425 44.224 31.5859C42.7672 33.1309 41.3985 37.2925 41.4263 39.5009C41.4542 41.7465 42.911 43.3054 45.9638 43.3054H46.4092C48.9145 43.3054 50.3435 42.6326 51.5127 41.3892C52.9695 39.8443 54.3103 35.6826 54.2825 33.4742C54.2546 31.2287 52.7978 29.6698 49.7404 29.6698M49.9538 36.6987C49.4991 38.0024 49.1419 38.8421 48.6176 39.3942C48.2001 39.8303 47.6572 40.1412 46.3906 40.1412C45.4071 40.1412 44.8596 39.7376 44.8596 38.9767C44.8503 38.4802 44.9849 37.7333 45.5138 36.2765C45.9684 34.9774 46.3257 34.133 46.8546 33.5809C47.2629 33.1448 47.815 32.8339 49.0723 32.8339C50.0605 32.8339 50.608 33.2376 50.6033 33.9938C50.6173 34.4949 50.4827 35.2465 49.9538 36.6987ZM27.9996 31.5442L17.9921 34.8336L16.7719 38.188H25.5963L26.7469 35.0284H20.6273L27.5727 32.6762L27.9996 31.5442ZM64.4013 29.8322L59.5483 39.3664H59.4463L59.2004 29.8322H55.1408L54.9831 30.1755L55.331 30.3889C55.6697 30.6255 55.7625 30.8668 55.8042 31.5302L56.3564 43.0919H60.8799L68.1779 29.8322H64.4013ZM75.5176 37.775L76.5337 35.0052H71.8663L72.5901 32.885H77.6379L78.7514 29.8229H69.2218L69.0872 30.2126L69.3192 30.4399C69.5651 30.6766 69.5512 30.9596 69.3377 31.5813L65.371 43.0873H74.2788L75.3552 40.0113H70.1589L70.9198 37.775H75.5176Z" fill="white"/>
</svg>
