<svg width="74" height="74" viewBox="0 0 74 74" fill="none" xmlns="http://www.w3.org/2000/svg">
<path d="M37 0C57.4209 0 74 16.5791 74 37C74 57.4209 57.4209 74 37 74C16.5791 74 0 57.4209 0 37C0 16.5791 16.5791 0 37 0ZM10.0054 54.0786C12.8855 58.6325 16.8711 62.3836 21.591 64.9826C26.3109 67.5817 31.6118 68.9442 37 68.9433C48.3498 68.9433 58.3274 63.011 63.9946 54.0786L37 43.7926L10.0054 54.0786ZM42.883 33.6022L65.2896 51.8401C67.6966 47.2643 68.9508 42.1703 68.9433 37C68.9433 19.8042 55.3242 5.76275 38.295 5.08133L42.883 33.6022ZM35.705 5.08133C18.6758 5.76275 5.05667 19.8042 5.05667 37C5.05667 42.3557 6.37633 47.4032 8.71042 51.8401L31.117 33.6022L35.705 5.08133Z" fill="white"/>
</svg>
