<svg width="86" height="72" viewBox="0 0 86 72" fill="none" xmlns="http://www.w3.org/2000/svg">
<path d="M73.7307 46.5654L73.6949 46.6658C69.2265 59.7199 56.907 68.474 43.0179 68.474C29.1289 68.474 16.7879 59.702 12.3374 46.6515L12.3016 46.5475H2.54417V47.7265L6.60409 48.203C9.11242 48.4897 9.63917 49.6005 10.3236 50.998L10.4956 51.342C16.3651 63.8658 29.1433 71.9534 43.0323 71.9534C56.9249 71.9534 69.703 63.8658 75.5726 51.36L75.7446 51.0195C76.4254 49.622 76.9557 48.5112 79.4641 48.221L83.5276 47.7408V46.5654H73.7307ZM12.3374 25.2697C16.8058 12.2156 29.1289 3.44717 43.0179 3.44717C56.907 3.44717 69.2444 12.2156 73.6985 25.2697L73.7343 25.37H83.5096V24.1947L79.4461 23.7181C76.9378 23.4279 76.4111 22.3206 75.7266 20.9195L75.5582 20.5755C69.6887 8.08759 56.9034 0 43.0179 0C29.111 0 16.3472 8.08759 10.4777 20.6113L10.3057 20.9518C9.62484 22.3493 9.09451 23.4601 6.58617 23.7504L2.52625 24.2269V25.4059H12.2873L12.3374 25.2697ZM62.0096 30.9529L55.7639 40.9683H58.4585L59.5694 39.1766H66.8543L67.9651 40.9683H70.6419L64.3961 30.9529H62.0096ZM65.7112 37.281H60.7125L63.2208 33.2534L65.7112 37.281ZM75.7804 33.4612L83.2015 40.9683H86.0001V30.9529H83.7999V38.4241L76.411 30.9529H73.5623V40.9683H75.7804V33.4612ZM0 40.9683H2.21809V33.4612L9.65709 40.9683H12.4557V30.9529H10.2376V38.4241L2.84875 30.9529H0V40.9683ZM17.3541 30.9529H19.5722V40.9683H17.3505L17.3541 30.9529ZM33.4289 38.8505C33.3573 38.8684 33.0849 38.8684 32.9846 38.8684H24.1624V40.9181H33.1208C33.1889 40.9181 33.7192 40.9181 33.8195 40.9002C35.647 40.7282 36.4819 39.2089 36.4819 37.8794C36.4819 36.5142 35.6112 35.0486 33.9557 34.8945C33.6332 34.8587 33.3609 34.8587 33.239 34.8587H27.3874C27.1701 34.8657 26.9526 34.8489 26.7389 34.8085C26.2766 34.6867 26.1082 34.2782 26.1082 33.9378C26.1082 33.6296 26.2766 33.2211 26.7532 33.0849C26.9557 33.0421 27.1628 33.0253 27.3695 33.0348H35.8154V31.0209H27.2334C26.875 31.0209 26.6027 31.0353 26.3805 31.0711C25.6815 31.1572 25.0394 31.5001 24.5791 32.0332C24.1189 32.5663 23.8733 33.2516 23.8901 33.9557C23.8901 35.1848 24.6569 36.6181 26.3447 36.8582C26.6529 36.8904 27.0793 36.8904 27.2692 36.8904H32.9667C33.0706 36.8904 33.325 36.8904 33.3752 36.9084C34.0238 36.9908 34.2459 37.4709 34.2459 37.8974C34.2514 38.1291 34.171 38.3546 34.0202 38.5306C33.8694 38.7066 33.6588 38.8205 33.4289 38.8505ZM50.1165 38.8505C50.0449 38.8684 49.7725 38.8684 49.6543 38.8684H40.85V40.9181H49.8084C49.8765 40.9181 50.4068 40.9181 50.5071 40.9002C52.3346 40.7282 53.1695 39.2089 53.1695 37.8794C53.1695 36.5142 52.2988 35.0486 50.6433 34.8945C50.3208 34.8587 50.0485 34.8587 49.9266 34.8587H44.075C43.8577 34.8657 43.6402 34.8489 43.4264 34.8085C42.9642 34.6867 42.7958 34.2782 42.7958 33.9378C42.7958 33.6296 42.9642 33.2211 43.4408 33.0849C43.6433 33.0421 43.8504 33.0253 44.0571 33.0348H52.503V31.0209H43.9209C43.5626 31.0209 43.2903 31.0353 43.0681 31.0711C42.3691 31.1572 41.727 31.5001 41.2667 32.0332C40.8064 32.5663 40.5609 33.2516 40.5777 33.9557C40.5777 35.1848 41.3445 36.6181 43.0359 36.8582C43.3405 36.8904 43.7669 36.8904 43.9568 36.8904H49.6543C49.7582 36.8904 50.0126 36.8904 50.0628 36.9084C50.7114 36.9908 50.9335 37.4709 50.9335 37.8974C50.9351 38.128 50.8534 38.3515 50.7032 38.5267C50.5531 38.7018 50.3447 38.8168 50.1165 38.8505Z" fill="white"/>
</svg>
