<svg width="59" height="76" viewBox="0 0 59 76" fill="none" xmlns="http://www.w3.org/2000/svg">
<path d="M29.4101 0C27.2604 0.0101599 25.1119 0.105904 22.9698 0.287005C18.4549 0.660655 13.9756 1.38295 9.57209 2.44743C6.38045 3.25406 3.24592 4.27186 0.189234 5.49409L0 5.56348C0 5.56348 0.37216 28.4072 0.662319 39.7234C0.737071 43.055 1.34287 46.3534 2.45689 49.4941C3.7461 53.0674 5.46385 56.4711 7.57251 59.6308C9.77862 62.8937 12.4474 65.8185 15.4951 68.3135C16.6865 69.3128 17.9423 70.2325 19.2546 71.0668C21.3126 72.3102 23.4612 73.3972 25.6822 74.3185C26.4171 74.6276 27.0573 74.924 27.6376 75.1227C28.2443 75.3546 28.866 75.5454 29.4984 75.6936C30.1309 75.5443 30.7526 75.3526 31.3592 75.1196C31.9332 74.9209 32.5798 74.6276 33.3146 74.3153C35.5345 73.3938 37.6821 72.3069 39.7391 71.0637C41.0534 70.2295 42.3114 69.3097 43.5049 68.3103C46.5514 65.8162 49.2191 62.8925 51.4243 59.6308C53.5333 56.4712 55.251 53.0675 56.54 49.4941C57.655 46.3536 58.2619 43.0552 58.3377 39.7234C58.6247 28.4072 59 5.57609 59 5.57609C58.9415 5.54582 58.8815 5.51845 58.8202 5.49409C55.7625 4.27172 52.6269 3.25392 49.4342 2.44743C45.0306 1.38399 40.5513 0.662747 36.0365 0.290159C33.8943 0.109277 31.7459 0.0124832 29.5962 0H29.4101ZM29.4101 1.13856H29.5899C31.7314 1.16379 33.6521 1.23317 35.781 1.42241C40.1223 1.78375 44.4288 2.48288 48.6615 3.51344C51.7318 4.29623 54.7463 5.2835 57.6848 6.46865C57.746 6.4919 57.806 6.51821 57.8646 6.5475L57.7447 13.7195C57.7258 13.7071 57.7058 13.6965 57.6848 13.6879C54.7473 12.5031 51.7338 11.5158 48.6647 10.7327C44.4308 9.70337 40.1232 9.0053 35.781 8.64484C33.6521 8.4556 31.7408 8.32945 29.5993 8.30422H29.4164C27.2749 8.3326 25.3479 8.4556 23.219 8.64484C18.8776 9.00855 14.571 9.70978 10.3385 10.7422C7.26816 11.5262 4.25367 12.5145 1.31518 13.7005C1.29318 13.709 1.27206 13.7196 1.2521 13.7321L1.13225 6.53803L1.31518 6.46865C4.25266 5.28361 7.2661 4.29634 10.3353 3.51344C14.57 2.48144 18.8786 1.78126 23.2222 1.41925C25.351 1.23002 27.2686 1.16694 29.4101 1.13856ZM30.3184 1.8198C29.3701 1.80249 28.4215 1.8109 27.4736 1.84503C27.092 1.8608 26.5653 2.18881 26.559 2.57043L26.5369 4.61416C26.5306 5.03047 27.0794 5.35848 27.4988 5.36794C28.9559 5.39948 30.2427 5.37424 31.6557 5.46255C31.7598 5.47202 31.8512 5.53509 31.8512 5.63917L31.8418 6.04918C31.8437 6.06843 31.8413 6.08786 31.8349 6.10611C31.8285 6.12436 31.8182 6.14098 31.8046 6.15481C31.7911 6.16864 31.7747 6.17934 31.7566 6.18615C31.7385 6.19297 31.7191 6.19573 31.6998 6.19426C30.0567 6.19426 28.3378 6.11541 26.6757 6.24787C26.5874 6.25418 26.5905 6.2321 26.5874 6.32041L26.5117 7.53151L26.5054 7.62613C28.4823 7.51194 30.4641 7.51194 32.441 7.62613C32.6716 7.61911 32.8929 7.53328 33.068 7.38292C33.243 7.23256 33.3612 7.02676 33.4029 6.79981L33.4219 4.82231C33.4219 4.41546 32.9236 4.11584 32.5987 4.09692C31.2047 4.00861 29.6183 4.05591 28.2022 4.01807C28.1825 4.01729 28.1633 4.01253 28.1455 4.00409C28.1278 3.99565 28.112 3.98369 28.099 3.96895C28.086 3.9542 28.0762 3.93698 28.0701 3.91831C28.0639 3.89965 28.0617 3.87994 28.0634 3.86037L28.0918 3.40306C28.0918 3.31475 28.1517 3.28952 28.24 3.28636C29.6403 3.2359 31.7314 3.30213 33.1664 3.34629C33.2188 3.33744 33.2664 3.3105 33.301 3.27016C33.3356 3.22982 33.3549 3.17864 33.3556 3.12551V2.12573C33.3556 2.07211 33.2547 1.91442 33.1569 1.91126C32.2112 1.86896 31.265 1.83637 30.3184 1.8198ZM24.3891 2.02165C23.055 2.04688 20.1597 2.41589 18.5165 2.62089L18.5071 8.32629V8.39883L19.9894 8.2096C19.9957 8.2089 20.0018 8.20684 20.0072 8.20358C20.0127 8.20031 20.0174 8.19591 20.021 8.19068C20.0281 8.18178 20.0314 8.17048 20.0304 8.15914V6.50965L23.0172 6.18795C23.2789 6.14064 23.5849 6.33303 23.8246 6.72096C24.0163 7.04898 24.1387 7.41289 24.1841 7.79013L25.657 7.67974C25.6885 7.67974 25.7516 7.67974 25.7453 7.64821C25.7016 6.85308 25.3551 6.10486 24.777 5.55717C24.9696 5.47926 25.1329 5.34315 25.2443 5.16786C25.3557 4.99257 25.4096 4.78685 25.3983 4.57946C25.4138 3.98565 25.3907 3.39146 25.329 2.80066C25.2786 2.58498 25.1587 2.39187 24.9877 2.25109C24.8167 2.11031 24.6041 2.02969 24.3828 2.02165H24.3891ZM35.7116 2.08157C35.4048 2.06986 35.104 2.16935 34.8647 2.36174C34.6253 2.55413 34.4635 2.82647 34.409 3.12867L34.3775 6.89758C34.3875 7.1111 34.4669 7.31555 34.6034 7.48C34.74 7.64445 34.9264 7.75996 35.1344 7.80906C37.0583 7.98883 38.9507 8.16229 41.0953 8.48714C41.13 8.48714 41.1962 8.46507 41.1962 8.43353V7.1215C41.1962 7.09312 41.1332 7.0332 41.1111 7.02689C39.6792 6.84712 37.79 6.5948 36.0995 6.41819C36.0493 6.40602 36.0044 6.37795 35.9714 6.33816C35.9385 6.29838 35.9192 6.24901 35.9166 6.19741V3.63645C35.9166 3.52921 36.0743 3.47244 36.1815 3.47875C37.8499 3.61752 39.5121 3.9203 41.1773 4.10007C41.2215 4.10638 41.2908 4.07799 41.294 4.03384L41.3255 2.82905C41.3234 2.8042 41.3134 2.78069 41.2969 2.76196C41.2805 2.74323 41.2584 2.73027 41.2341 2.72497C39.3998 2.46598 37.5563 2.25145 35.7116 2.08157ZM41.9563 2.82905C41.9185 2.82905 41.8869 2.8732 41.8869 2.9079C41.868 3.77206 41.745 7.50313 41.7198 8.4966V8.58176C42.2086 8.66692 42.7479 8.73315 43.1485 8.81515C43.1926 8.82146 43.2589 8.78992 43.2589 8.74576C43.2526 8.09291 43.2589 7.33282 43.2463 6.73988C43.2463 6.69888 43.2652 6.69573 43.3093 6.70204C44.4719 6.91257 45.6306 7.14389 46.7849 7.39589C46.8102 7.39589 46.9489 7.41797 46.9489 7.49051C46.9395 8.17491 46.9269 8.75207 46.9079 9.43647C46.907 9.4638 46.9147 9.49073 46.93 9.5134C46.9453 9.53607 46.9674 9.5533 46.9931 9.56262C47.4504 9.6667 47.8857 9.77393 48.3177 9.87801C48.4344 9.90324 48.4534 9.88117 48.4565 9.84017C48.5259 8.41776 48.5511 6.13749 48.5701 4.21361C48.5701 4.18838 48.5606 4.15053 48.5385 4.14422C48.056 4.03384 47.6018 3.91714 47.1098 3.81306C47.0656 3.8036 47.0404 3.87614 47.0373 3.92345C46.9899 4.62677 47.0089 5.27963 46.9553 5.97979C46.9553 6.00502 46.9552 6.01764 46.9269 6.01133C45.7599 5.77164 44.5141 5.51302 43.3567 5.2954C43.3251 5.28909 43.3377 5.23232 43.3409 5.19763L43.3503 3.13813C43.3488 3.1156 43.34 3.09418 43.3252 3.07711C43.3104 3.06004 43.2904 3.04825 43.2683 3.04351C42.8306 2.96803 42.3954 2.89654 41.9563 2.82905ZM16.6747 2.90159C16.6358 2.89921 16.5968 2.89921 16.558 2.90159C14.8454 3.17282 13.1234 3.53552 11.3856 3.91084C11.1069 3.99158 10.8559 4.14764 10.6602 4.36184C10.4774 4.53067 10.3629 4.76074 10.3385 5.00839L10.3511 8.53445C10.3644 8.84387 10.4823 9.13962 10.6854 9.37339C10.7546 9.48083 10.85 9.569 10.9625 9.62967C11.075 9.69033 11.201 9.72152 11.3288 9.72032C13.038 9.34369 14.7552 9.00404 16.4791 8.70161C16.8102 8.62344 17.1069 8.43968 17.3244 8.17806C17.5103 7.98064 17.6198 7.7235 17.6334 7.45266L17.6271 3.78468C17.616 3.66217 17.5794 3.54333 17.5196 3.4358C17.4599 3.32826 17.3783 3.23439 17.2802 3.16021C17.1153 3.00797 16.902 2.91865 16.6778 2.9079L16.6747 2.90159ZM23.4776 3.52291C23.5397 3.51938 23.6007 3.5401 23.6478 3.58071C23.6949 3.62131 23.7243 3.67861 23.7299 3.74052L23.7394 4.33661C23.7372 4.46134 23.6921 4.58151 23.6117 4.67688C23.5313 4.77224 23.4204 4.83697 23.2979 4.86016L19.9484 5.18816L19.92 5.16293V3.8793L19.9484 3.86668L23.4524 3.52606C23.4608 3.52562 23.4692 3.52562 23.4776 3.52606V3.52291ZM15.5298 4.43754C15.6163 4.44011 15.7007 4.46395 15.7758 4.50692C15.8315 4.54233 15.8767 4.59202 15.9066 4.65082C15.9366 4.70962 15.9502 4.77537 15.9461 4.84124L15.9177 7.06158C15.9206 7.12515 15.9081 7.18848 15.8811 7.24615C15.8542 7.30382 15.8138 7.35411 15.7632 7.39274C15.6497 7.46982 15.5204 7.52047 15.3847 7.54097C14.3383 7.74941 13.2901 7.94917 12.2403 8.14021C12.1929 8.15209 12.1435 8.15345 12.0956 8.14418C12.0476 8.13492 12.0023 8.11526 11.9627 8.0866C11.9265 8.04313 11.8995 7.99278 11.8832 7.93858C11.8669 7.88437 11.8618 7.82744 11.8681 7.77121V5.48148C11.8699 5.3672 11.915 5.25786 11.9943 5.17555C12.1002 5.0782 12.2313 5.01263 12.3727 4.98631C13.2874 4.816 14.4859 4.57946 15.4257 4.44384C15.4601 4.4383 15.495 4.43619 15.5298 4.43754ZM49.6235 4.43754L49.6203 4.44069C49.5951 4.44069 49.5951 4.47854 49.5951 4.50061C49.5509 6.41188 49.5005 8.18122 49.4847 10.0925C49.4847 10.1335 49.5036 10.1871 49.5415 10.1966C51.8462 10.8162 54.1179 11.5531 56.3476 12.4043C56.4485 12.439 56.4453 12.3633 56.4453 12.3349C56.4548 11.8997 56.4769 11.4581 56.4548 11.0229C56.4521 11.0001 56.4433 10.9784 56.4295 10.9602C56.4156 10.9419 56.3971 10.9276 56.376 10.9188C54.6619 10.2586 52.9144 9.68907 51.1405 9.21254C51.1233 9.2067 51.1083 9.19569 51.0976 9.18102C51.0868 9.16634 51.0809 9.14871 51.0806 9.13054L51.1058 8.56284C51.1058 8.53761 51.1499 8.5313 51.1752 8.53761C52.953 9.03661 54.7101 9.60687 56.4422 10.247C56.4737 10.2565 56.4737 10.2155 56.4737 10.1871C56.4962 9.69534 56.4962 9.20282 56.4737 8.71107C56.4727 8.69263 56.4662 8.67493 56.4549 8.66029C56.4436 8.64566 56.4282 8.63477 56.4106 8.62907C54.7113 8.01044 52.9879 7.46016 51.2446 6.97958C51.2193 6.97327 51.1878 6.94804 51.1878 6.92281V6.31726C51.1878 6.29203 51.2288 6.27626 51.254 6.28572C53.0328 6.73988 54.9882 7.42113 56.3476 7.9226C56.4674 7.96675 56.5368 7.94783 56.5368 7.83744C56.5368 7.34228 56.5557 7.30758 56.5305 6.81558C56.5242 6.7525 56.5179 6.68942 56.4611 6.66734C54.2221 5.80288 51.9386 5.05855 49.6203 4.43754H49.6235ZM8.71738 4.63939C8.62827 4.63856 8.53936 4.64809 8.45245 4.66777C6.40242 5.19132 4.34292 5.97349 2.28342 6.72411C2.25525 6.74142 2.23185 6.76548 2.21532 6.79412C2.1988 6.82276 2.18969 6.85507 2.18881 6.88812V11.5117L2.19827 12.5525C2.19827 12.5525 3.68375 11.9943 4.00545 11.8902C4.04645 11.8776 4.04645 11.8366 4.04645 11.7924L4.01491 10.1524C4.01491 10.1051 4.02122 10.0357 4.06538 10.0262L9.19046 8.44299C9.36287 8.38033 9.51384 8.26983 9.6257 8.12444C9.73733 7.98527 9.79551 7.81076 9.7897 7.63244L9.73609 5.47832C9.72275 5.35362 9.68223 5.23336 9.61738 5.12601C9.55254 5.01866 9.46494 4.92684 9.36077 4.85701C9.17271 4.72253 8.94851 4.6478 8.71738 4.64254V4.63939ZM7.81536 6.20372C7.9289 6.17218 8.03614 6.30149 8.04244 6.40242C8.07275 6.66409 8.08539 6.92751 8.08029 7.19089C8.07714 7.33282 7.87213 7.49682 7.73336 7.53782L3.99914 8.75523C3.96445 8.76784 3.90137 8.75522 3.90137 8.71738L3.90768 7.58828C3.90768 7.53467 3.97076 7.49051 4.02122 7.47474C5.25993 6.97706 6.52683 6.55265 7.81536 6.20372ZM29.7886 9.2977C31.8481 9.32923 33.7183 9.39231 35.781 9.57524C40.1212 9.93682 44.4267 10.6359 48.6584 11.6663C51.7287 12.4488 54.7432 13.4361 57.6817 14.6215C57.6969 14.6277 57.7117 14.6351 57.7258 14.6436C57.7173 15.1145 57.7099 15.5855 57.7037 16.0565H29.7886V9.2977ZM28.7888 9.304L28.7856 23.8687H19.4911C19.3555 23.8561 19.4438 23.7962 19.5384 23.7047C20.2042 23.2073 20.976 22.8706 21.7934 22.7207C21.8628 22.7144 21.8818 22.6765 21.784 22.5504C21.4072 22.1747 20.9323 21.9127 20.4135 21.7944C19.8948 21.6762 19.3532 21.7064 18.8509 21.8818C18.3994 22.0274 17.9873 22.2746 17.6461 22.6043C17.305 22.9339 17.0439 23.3373 16.8828 23.7836C16.8763 23.8119 16.8602 23.8371 16.8372 23.8549C16.8142 23.8727 16.7857 23.8821 16.7567 23.8813C16.2632 23.9122 15.7688 23.9259 15.2743 23.9223C15.1955 23.9223 15.1576 23.8214 15.1639 23.7457C15.2287 23.4302 15.3583 23.1316 15.5445 22.8688C15.7307 22.606 15.9695 22.3848 16.2457 22.2192C16.7352 21.8968 17.2983 21.7037 17.8826 21.6578C17.9023 21.6519 17.9202 21.6413 17.9349 21.6269C17.9495 21.6125 17.9604 21.5947 17.9667 21.5751C17.9729 21.5556 17.9742 21.5348 17.9706 21.5145C17.9669 21.4943 17.9584 21.4753 17.9457 21.4591C17.8492 21.3467 17.7378 21.248 17.6145 21.1658C17.1286 20.9038 16.567 20.8179 16.025 20.923C15.249 20.9982 14.5242 21.3441 13.9776 21.8999C13.431 22.4558 13.0973 23.1862 13.0351 23.9633C13.0035 24.1526 13.054 24.1967 12.8679 24.2598C12.5147 24.3796 11.8524 24.4616 11.4991 24.5373C11.436 24.5468 11.3414 24.4017 11.3572 24.3386C11.4882 23.7395 11.7511 23.1771 12.1267 22.6923C12.4125 22.309 12.7813 21.9953 13.2054 21.7745C13.2874 21.7335 13.3631 21.6357 13.2874 21.5727C12.4894 20.8788 10.8557 21.6105 10.1966 22.3328C9.57416 23.1553 9.26651 24.1733 9.32923 25.2028C9.32923 25.2533 9.37339 25.3321 9.32923 25.351C8.91573 25.5268 8.49482 25.6847 8.06767 25.8241C8.02983 25.8336 8.02352 25.7358 8.01721 25.698C7.891 24.9531 8.05708 24.1882 8.48083 23.5628C8.66601 23.2461 8.93146 22.9839 9.25039 22.8027C9.28193 22.7838 9.27562 22.7459 9.25039 22.7144C8.88769 22.2445 7.45582 22.5819 7.01743 23.0109C6.00818 23.9949 6.08072 24.9505 6.03341 26.4707C6.03026 26.5432 5.93879 26.8208 5.85679 26.8586C5.67762 26.9653 5.48125 27.04 5.27647 27.0794C5.21024 27.0983 5.20393 27.1235 5.18816 27.0573C5.13369 26.8799 5.03977 26.7171 4.91344 26.5811C4.78712 26.4452 4.63167 26.3396 4.45873 26.2722C4.28579 26.2049 4.09986 26.1775 3.91485 26.1922C3.72984 26.2069 3.55056 26.2633 3.39044 26.3571C3.25525 26.4441 3.1403 26.559 3.05336 26.6942C2.96641 26.8294 2.90951 26.9816 2.88648 27.1407C2.86346 27.2998 2.87486 27.4619 2.9199 27.6162C2.96495 27.7705 3.0426 27.9133 3.14759 28.035C3.1949 28.0886 3.21067 28.1422 3.13813 28.1643C2.96946 28.2162 2.81286 28.3013 2.67753 28.4146C2.5422 28.5278 2.43087 28.667 2.35007 28.8239C2.26927 28.9808 2.22064 29.1523 2.20703 29.3282C2.19342 29.5042 2.2151 29.681 2.27081 29.8485C2.34668 30.0367 2.47498 30.1991 2.64047 30.3165C2.80596 30.434 3.00167 30.5014 3.20436 30.5108C3.61943 30.5224 4.02764 30.4033 4.3713 30.1702C4.3858 30.1598 4.40219 30.1524 4.41955 30.1484C4.4369 30.1444 4.45488 30.1438 4.47246 30.1468C4.49003 30.1497 4.50685 30.1561 4.52197 30.1655C4.53708 30.1749 4.55019 30.1872 4.56054 30.2017C4.731 30.4754 5.00306 30.6703 5.31703 30.7436C5.63099 30.8169 5.96122 30.7627 6.23526 30.5928C6.74619 30.2554 6.97327 29.7318 6.5948 28.8298C6.57273 28.7793 6.65788 28.6847 6.70204 28.6595C9.72352 26.9204 13.1326 25.9662 16.6179 25.8841C17.1092 25.9266 17.5928 26.0337 18.0561 26.2026C18.0812 26.2078 18.1056 26.2163 18.1286 26.2278L18.1349 29.1956C18.1022 29.2258 18.0662 29.2523 18.0277 29.2745C17.3805 29.6709 16.897 30.2864 16.6652 31.0091C16.6526 31.0628 16.6463 31.0754 16.5548 31.0848C15.9461 31.1448 15.2964 31.2331 14.6909 31.2804C14.6562 31.2867 14.5899 31.2204 14.6026 31.1858C15.0413 30.0126 15.8422 29.0096 16.8891 28.322C16.9163 28.2948 16.934 28.2596 16.9397 28.2216C16.9454 28.1835 16.9387 28.1447 16.9207 28.1107C16.7725 27.9686 16.5899 27.8675 16.3908 27.8174C15.8642 27.7774 15.3354 27.8596 14.8457 28.0577C14.3561 28.2557 13.9188 28.5642 13.5681 28.9591C12.9395 29.7424 12.5929 30.7145 12.5841 31.7188C12.5809 31.7882 12.5935 31.9017 12.5241 31.9238C12.1331 32.0468 11.701 32.1572 11.2941 32.2707C11.2468 32.2833 11.1837 32.236 11.1743 32.1855C11.0716 31.5526 11.1631 30.9034 11.4367 30.3235C11.7103 29.7436 12.1532 29.2602 12.7071 28.937C12.8679 28.8109 12.5872 28.6153 12.3854 28.6153C11.7948 28.5833 11.2077 28.7244 10.6961 29.0214C10.1846 29.3183 9.77093 29.7582 9.50585 30.2869C9.21462 31.0904 9.18154 31.9647 9.41124 32.7879C9.4207 32.8605 9.47116 32.9866 9.39231 33.0056C9.14315 33.0655 8.55653 33.2894 8.3736 33.3462C8.30737 33.3683 8.26322 33.3367 8.22537 33.2516C8.08154 32.751 8.05884 32.2235 8.15914 31.7125C8.302 31.1299 8.59319 30.5943 9.00438 30.1576C9.02961 30.126 9.03907 30.0567 9.00438 30.0409C8.62955 29.8715 8.20608 29.8435 7.81221 29.962C7.49069 30.0434 7.19021 30.1924 6.9308 30.3991C6.67139 30.6058 6.459 30.8653 6.3078 31.1605C5.80633 32.0972 5.93564 32.9993 6.46865 34.3302C6.49388 34.3933 6.52542 34.5131 6.46865 34.551L6.03656 34.8033C5.98295 34.8443 5.93564 34.8096 5.89779 34.756C5.72433 34.51 5.50671 34.1189 5.23547 33.999C5.0218 33.8926 4.78308 33.8466 4.54515 33.8661C4.30722 33.8855 4.07915 33.9697 3.8856 34.1094C3.69631 34.274 3.55952 34.4906 3.49224 34.7323C3.42496 34.9739 3.43014 35.23 3.50714 35.4688C3.59532 35.6391 3.70102 35.7997 3.82253 35.9481C3.85406 35.9923 3.81937 36.0617 3.78153 36.0964C3.59545 36.2604 3.33998 36.3802 3.18859 36.5379C3.02449 36.7493 2.93281 37.0079 2.92713 37.2755C2.92145 37.543 3.00207 37.8053 3.15705 38.0234C3.31115 38.2436 3.53741 38.4029 3.79662 38.4737C4.05583 38.5446 4.33166 38.5225 4.57631 38.4113C4.83018 38.303 5.07488 38.1743 5.30801 38.0266C5.39317 37.9698 5.44994 37.8657 5.52879 37.9477C5.71993 38.1654 5.96292 38.3314 6.23526 38.4303C6.42439 38.4808 6.62225 38.4894 6.81507 38.4557C7.00789 38.4219 7.19104 38.3465 7.35174 38.2347C7.54689 38.1423 7.70526 37.9869 7.80137 37.7935C7.89749 37.6002 7.92574 37.3801 7.88159 37.1687C7.78236 36.8606 7.6297 36.5724 7.43059 36.3172C7.32651 36.2068 7.3202 36.2131 7.43059 36.1468C9.07618 35.1752 10.8344 34.4084 12.6661 33.8634C14.3927 33.3441 16.1952 33.1233 17.9961 33.2106H18.1412L18.1507 39.3575H1.76303C1.59272 32.6302 1.39718 21.9795 1.27102 14.6436C1.28521 14.6352 1.29996 14.6278 1.31518 14.6215C4.25257 13.4362 7.26602 12.4489 10.3353 11.6663C14.568 10.6358 18.8746 9.93665 23.2159 9.57524C25.0705 9.41447 26.9305 9.324 28.7919 9.304H28.7888ZM19.0496 11.8776C18.2639 11.8958 17.5021 12.1508 16.8639 12.6093C15.9619 13.2022 15.4257 15.0473 15.3185 15.7064C15.313 15.7366 15.2976 15.7642 15.2748 15.7847C15.252 15.8053 15.223 15.8177 15.1923 15.82C14.4747 15.9105 13.7629 16.0421 13.0603 16.2142C13.0382 16.2174 13.0224 16.1827 13.0224 16.1606C13.0771 15.4665 13.3637 14.8111 13.8362 14.2998C14.3158 13.8375 14.8362 13.4195 15.391 13.0508C15.432 13.0161 15.4036 12.9089 15.3532 12.89C14.9525 12.7298 14.524 12.6507 14.0926 12.6572C13.6611 12.6637 13.2352 12.7557 12.8395 12.9278C12.2812 13.1646 11.7926 13.5401 11.42 14.0186C11.0474 14.4971 10.8033 15.0629 10.7106 15.6623C10.6372 16.0892 10.6065 16.5224 10.6192 16.9554C10.6255 17.009 10.5246 17.0121 10.4773 17.0279C9.70139 17.2708 8.88769 17.5546 8.23798 17.7722C8.20645 17.7848 8.11498 17.7785 8.11498 17.7407C8.09067 17.0127 8.28274 16.2938 8.66691 15.6749C9.04538 15.0599 9.7487 14.7129 10.2596 14.1957C10.2943 14.1579 10.3479 14.0569 10.2943 14.0349C9.00123 13.5145 7.78067 14.0475 6.74935 15.2176C6.40015 15.7306 6.16342 16.3116 6.0547 16.9226C5.94599 17.5335 5.96775 18.1606 6.11856 18.7625C6.14695 18.8761 6.11856 18.9991 6.05864 19.0243C5.82352 19.1343 5.58116 19.2281 5.33324 19.305C5.32226 19.3089 5.31057 19.3102 5.299 19.309C5.28743 19.3078 5.27627 19.3041 5.26633 19.298C5.25638 19.292 5.24789 19.2838 5.24146 19.2741C5.23504 19.2645 5.23084 19.2535 5.22916 19.2419C4.93585 18.3084 3.84145 18.4913 3.34629 18.7752C3.08459 18.9225 2.89169 19.1672 2.80958 19.456C2.72748 19.7449 2.76281 20.0545 2.9079 20.3174C2.91533 20.3285 2.92042 20.3409 2.92286 20.3541C2.9253 20.3672 2.92503 20.3806 2.92208 20.3936C2.91913 20.4066 2.91355 20.4189 2.90568 20.4296C2.89782 20.4404 2.88784 20.4494 2.87636 20.4562C2.70942 20.536 2.56003 20.6482 2.4369 20.7863C2.31377 20.9244 2.21936 21.0856 2.15918 21.2606C2.099 21.4355 2.07425 21.6207 2.08638 21.8053C2.0985 21.99 2.14726 22.1703 2.22981 22.3359C2.36917 22.554 2.58034 22.7165 2.82682 22.7954C3.07329 22.8743 3.33959 22.8646 3.57968 22.768C3.85308 22.6627 4.11342 22.5261 4.35553 22.3611C4.37076 22.3536 4.38791 22.3507 4.40478 22.353C4.42164 22.3552 4.43745 22.3624 4.45015 22.3738C4.54769 22.5115 4.67235 22.6279 4.81647 22.7158C4.9606 22.8037 5.12115 22.8612 5.2883 22.8848C5.45544 22.9085 5.62565 22.8977 5.78849 22.8532C5.95133 22.8087 6.10336 22.7314 6.23526 22.6261C6.59796 22.3675 6.73988 22.3233 6.87865 21.8565C6.8993 21.6878 6.88474 21.5165 6.83589 21.3537C6.78703 21.1908 6.70494 21.0399 6.5948 20.9104C6.55696 20.8788 6.59165 20.7842 6.6358 20.7621C10.7353 18.6503 15.2595 17.4934 19.8696 17.378C21.5431 17.4276 23.1506 18.0423 24.4301 19.1221C24.4518 19.1535 24.4812 19.179 24.5153 19.1961C24.5495 19.2131 24.5875 19.2213 24.6256 19.2199C24.6646 19.2036 24.6998 19.1796 24.7291 19.1492C24.7584 19.1188 24.7811 19.0828 24.796 19.0432C24.9029 18.6625 24.8992 18.2592 24.7853 17.8805C24.6713 17.5018 24.4519 17.1634 24.1526 16.9049C23.6305 16.3604 22.9589 15.9829 22.2224 15.82C22.1845 15.8105 22.1593 15.7285 22.1908 15.7033C22.4908 15.4008 22.8507 15.1645 23.2474 15.0094C23.8778 14.903 24.5162 14.8503 25.1555 14.8517C25.1997 14.8486 25.2659 14.8044 25.2501 14.7634C25.1251 14.4147 24.9015 14.1098 24.6064 13.8858C24.3113 13.6618 23.9575 13.5284 23.588 13.5018C22.8444 13.4091 22.0895 13.518 21.4024 13.8172C20.6926 14.2011 20.136 14.8167 19.8254 15.5613C19.8161 15.5802 19.8017 15.596 19.7839 15.6072C19.7661 15.6183 19.7455 15.6243 19.7245 15.6244C19.1003 15.6018 18.4756 15.5944 17.8511 15.6023C17.8069 15.6023 17.7407 15.6023 17.7407 15.5582C17.832 14.944 18.1132 14.3739 18.5449 13.9276C19.1722 13.3839 19.9012 12.9701 20.6896 12.7102C20.7495 12.6913 20.8157 12.5967 20.781 12.5494C20.6163 12.3219 20.3988 12.1379 20.1471 12.0132C19.7903 11.9185 19.4218 11.875 19.0527 11.8839L19.0496 11.8776ZM29.7886 16.9459H57.6848C57.647 19.1095 57.606 21.4654 57.5587 23.8687H29.7886V16.9459ZM19.0306 24.6036L40.0545 24.613C40.0669 24.612 40.0793 24.6157 40.0892 24.6232C40.0991 24.6308 40.1058 24.6418 40.1081 24.654L40.1018 40.8588C40.0861 41.6814 39.9336 42.4957 39.6508 43.2683C38.8137 45.5537 37.2082 47.4769 35.1092 48.7088C33.449 49.7011 31.5554 50.2355 29.6214 50.2574C26.9993 50.2255 24.4736 49.2644 22.4936 47.545C21.4238 46.652 20.5588 45.539 19.9575 44.2819C19.3561 43.0248 19.0325 41.6529 19.0086 40.2595L18.9865 24.6635C18.9865 24.6225 18.9896 24.6036 19.0306 24.6036ZM41.089 24.8748H57.5429C57.5051 26.9091 57.4641 28.9623 57.4357 30.9492H41.089V24.8748ZM19.5195 25.0987C19.4785 25.0987 19.4753 25.1145 19.4753 25.1555L19.4974 40.146C19.5175 41.4853 19.8247 42.8048 20.3981 44.0154C20.9716 45.2259 21.798 46.2994 22.8216 47.1634C24.7025 48.8132 27.1102 49.7381 29.612 49.7717C31.4589 49.7501 33.2665 49.2351 34.8474 48.2799C36.855 47.0896 38.3867 45.239 39.1809 43.0444C39.4501 42.3016 39.595 41.5194 39.6098 40.7295L39.6161 25.1492C39.6157 25.143 39.6141 25.1369 39.6113 25.1313C39.6086 25.1257 39.6048 25.1207 39.6001 25.1166C39.5954 25.1125 39.5899 25.1094 39.584 25.1074C39.5781 25.1054 39.5719 25.1046 39.5657 25.105L19.5195 25.0987ZM33.5102 26.0575C33.5718 26.0668 33.633 26.0924 33.6813 26.1318C33.7295 26.1712 33.7663 26.2229 33.7877 26.2814L34.551 28.5365C34.5665 28.5715 34.5737 28.6097 34.572 28.648C34.5704 28.6863 34.56 28.7237 34.5415 28.7573C34.521 28.7822 34.4949 28.8021 34.4653 28.8152C34.4357 28.8284 34.4035 28.8344 34.3712 28.8329C34.3276 28.8339 34.2849 28.821 34.2491 28.7961C34.2134 28.7711 34.1866 28.7354 34.1725 28.6942L34.0527 28.2999H33.0119L32.8983 28.7036C32.8668 28.8298 32.7722 28.8424 32.6744 28.8424C32.6463 28.8385 32.6194 28.8285 32.5954 28.8133C32.5715 28.7981 32.5511 28.7779 32.5356 28.7541C32.5175 28.7314 32.5051 28.7046 32.4997 28.676C32.4942 28.6474 32.4957 28.6179 32.5041 28.5901L33.2358 26.2941C33.2521 26.2314 33.2871 26.1752 33.3361 26.133C33.3851 26.0907 33.4458 26.0644 33.5102 26.0575ZM31.1038 26.0796C31.1279 26.0784 31.1521 26.0784 31.1763 26.0796C31.3371 26.069 31.497 26.1118 31.631 26.2013C31.765 26.2908 31.8657 26.4221 31.9175 26.5748C31.9238 26.5934 31.9262 26.6131 31.9247 26.6327C31.9231 26.6523 31.9176 26.6714 31.9085 26.6888C31.8993 26.7062 31.8867 26.7215 31.8715 26.7339C31.8562 26.7463 31.8386 26.7555 31.8197 26.7608C31.7818 26.7805 31.7378 26.7849 31.6968 26.7732C31.6557 26.7615 31.6207 26.7345 31.5989 26.6978C31.559 26.6192 31.4999 26.5521 31.4272 26.5025C31.3544 26.4528 31.2703 26.4224 31.1826 26.4139C31.0895 26.4196 31.0001 26.4525 30.9255 26.5086C30.8509 26.5647 30.7945 26.6414 30.7631 26.7293C30.6518 26.9461 30.5924 27.1858 30.5897 27.4295C30.5835 27.677 30.6331 27.9228 30.7347 28.1486C30.7721 28.2461 30.839 28.3295 30.9261 28.3872C31.0132 28.4448 31.1161 28.4739 31.2204 28.4703C31.3826 28.4222 31.5232 28.3198 31.6185 28.1802C31.7139 28.0406 31.7582 27.8723 31.744 27.7039V27.5809H31.3182C31.2924 27.5819 31.2667 27.5774 31.2428 27.5676C31.2189 27.5578 31.1973 27.543 31.1797 27.5241C31.162 27.5053 31.1486 27.4828 31.1404 27.4583C31.1322 27.4338 31.1294 27.4078 31.1321 27.3822C31.1321 27.3096 31.1542 27.2245 31.3182 27.2245H31.9238C32.1256 27.2245 32.154 27.3758 32.154 27.5083C32.1579 27.6689 32.1463 27.8294 32.1193 27.9877C32.0566 28.2848 31.8885 28.5491 31.6462 28.732C31.5032 28.818 31.34 28.8648 31.1731 28.8676C31.0232 28.8651 30.8769 28.821 30.7505 28.7403C30.6241 28.6596 30.5225 28.5453 30.4572 28.4103C30.2964 28.1101 30.217 27.773 30.227 27.4326C30.2207 27.0958 30.3081 26.7639 30.4793 26.4738C30.5374 26.3574 30.6264 26.259 30.7365 26.1895C30.8466 26.12 30.9736 26.082 31.1038 26.0796ZM21.6799 26.0859C21.6841 26.0859 21.6883 26.0859 21.6925 26.0859C22.2697 26.0922 22.4589 26.436 22.4589 26.559C22.4589 26.6694 22.2665 26.8113 22.1593 26.682C22.0978 26.6118 22.0214 26.5562 21.9358 26.5191C21.8502 26.482 21.7574 26.4644 21.6641 26.4675C21.5627 26.4571 21.4606 26.4813 21.3747 26.5363C21.2888 26.5913 21.224 26.6738 21.191 26.7703C21.1815 26.8178 21.1817 26.8668 21.1916 26.9142C21.2015 26.9617 21.2208 27.0066 21.2485 27.0464C21.2762 27.0862 21.3117 27.1199 21.3527 27.1456C21.3938 27.1714 21.4396 27.1885 21.4875 27.1961C21.7839 27.2141 22.0721 27.3004 22.3296 27.4484H22.3265C22.414 27.5133 22.4835 27.5995 22.5282 27.6989C22.573 27.7983 22.5915 27.9075 22.5819 28.0161C22.5867 28.2207 22.5108 28.4189 22.3706 28.568C22.2669 28.6655 22.1442 28.7405 22.0101 28.7883C21.8761 28.8361 21.7336 28.8556 21.5916 28.8456C21.4267 28.8515 21.2631 28.8139 21.1175 28.7363C20.9718 28.6588 20.8492 28.5442 20.7621 28.404C20.7495 28.3725 20.7306 28.2053 20.8694 28.158C20.9158 28.1471 20.9644 28.149 21.01 28.1634C21.0555 28.1778 21.0963 28.2043 21.128 28.24C21.2625 28.3637 21.4373 28.4343 21.62 28.4387C21.7895 28.4441 21.9553 28.3881 22.0868 28.281C22.1347 28.2347 22.1676 28.1751 22.1811 28.1098C22.1946 28.0445 22.1881 27.9767 22.1624 27.9152C22.0965 27.8153 22.0057 27.7343 21.899 27.6802C21.7922 27.626 21.6733 27.6005 21.5537 27.6061C21.3513 27.6049 21.157 27.5258 21.0113 27.3853C20.9328 27.3039 20.8727 27.2066 20.8352 27.0999C20.7977 26.9932 20.7835 26.8798 20.7937 26.7671C20.8039 26.6632 20.8376 26.5629 20.8923 26.4739C20.9469 26.3848 21.021 26.3093 21.109 26.2531C21.2781 26.1409 21.4771 26.0826 21.6799 26.0859ZM26.8807 26.0859C26.887 26.0856 26.8965 26.0856 26.9028 26.0859H28.0224C28.0726 26.0859 28.1207 26.1058 28.1562 26.1413C28.1917 26.1768 28.2116 26.2249 28.2116 26.2751C28.2116 26.3253 28.1917 26.3735 28.1562 26.4089C28.1207 26.4444 28.0726 26.4644 28.0224 26.4644L27.6629 26.4707V28.6216C27.6568 28.6696 27.6334 28.7137 27.5971 28.7457C27.5608 28.7777 27.5141 28.7953 27.4657 28.7953C27.4174 28.7953 27.3707 28.7777 27.3344 28.7457C27.2981 28.7137 27.2747 28.6696 27.2686 28.6216V26.4675H26.9028C26.8526 26.4705 26.8033 26.4533 26.7657 26.4199C26.7282 26.3865 26.7054 26.3395 26.7025 26.2893C26.6996 26.2391 26.7167 26.1898 26.7501 26.1523C26.7835 26.1147 26.8305 26.092 26.8807 26.0891V26.0859ZM28.6469 26.0859H28.65C28.6563 26.0856 28.6626 26.0856 28.6689 26.0859H29.7854C29.8356 26.0859 29.8837 26.1058 29.9192 26.1413C29.9547 26.1768 29.9747 26.2249 29.9747 26.2751C29.9747 26.3253 29.9547 26.3735 29.9192 26.4089C29.8837 26.4444 29.8356 26.4644 29.7854 26.4644L29.4259 26.4707V28.6216C29.4198 28.6696 29.3964 28.7137 29.3601 28.7457C29.3238 28.7777 29.2771 28.7953 29.2288 28.7953C29.1804 28.7953 29.1337 28.7777 29.0974 28.7457C29.0611 28.7137 29.0377 28.6696 29.0316 28.6216V26.4675H28.6689C28.6188 26.4705 28.5695 26.4533 28.5319 26.4199C28.4943 26.3865 28.4716 26.3395 28.4687 26.2893C28.4657 26.2391 28.4829 26.1898 28.5163 26.1523C28.5497 26.1147 28.5967 26.092 28.6469 26.0891V26.0859ZM37.2886 26.0859C37.2907 26.0859 37.2928 26.0859 37.2949 26.0859C37.3012 26.0856 37.3075 26.0856 37.3138 26.0859H38.4271C38.4773 26.0859 38.5254 26.1058 38.5609 26.1413C38.5964 26.1768 38.6163 26.2249 38.6163 26.2751C38.6163 26.3253 38.5964 26.3735 38.5609 26.4089C38.5254 26.4444 38.4773 26.4644 38.4271 26.4644L38.0739 26.4707V28.6216C38.0678 28.6696 38.0444 28.7137 38.0081 28.7457C37.9718 28.7777 37.9251 28.7953 37.8768 28.7953C37.8284 28.7953 37.7817 28.7777 37.7454 28.7457C37.7091 28.7137 37.6857 28.6696 37.6796 28.6216V26.4675H37.3138C37.2636 26.4705 37.2143 26.4533 37.1767 26.4199C37.1392 26.3865 37.1164 26.3395 37.1135 26.2893C37.1106 26.2391 37.1277 26.1898 37.1611 26.1523C37.1945 26.1147 37.2415 26.092 37.2917 26.0891L37.2886 26.0859ZM35.1534 26.0985C35.166 26.0973 35.1786 26.0973 35.1912 26.0985H35.7905C36.0226 26.0917 36.2513 26.1555 36.4465 26.2814C36.5468 26.3587 36.6292 26.4568 36.688 26.569C36.7468 26.6811 36.7806 26.8047 36.7871 26.9311C36.8008 27.0455 36.7878 27.1614 36.7489 27.2698C36.71 27.3782 36.6464 27.4761 36.5632 27.5556C36.46 27.6618 36.3337 27.7428 36.1941 27.7922L36.1311 27.8142L36.6294 28.445C36.6742 28.4932 36.7 28.5559 36.7019 28.6216C36.6956 28.7226 36.6294 28.7793 36.5127 28.7793C36.4785 28.7807 36.4445 28.7737 36.4137 28.7589C36.3829 28.744 36.3563 28.7218 36.3361 28.6942L35.7463 27.8805H35.3773V28.6059C35.3811 28.6334 35.3788 28.6615 35.3703 28.688C35.3619 28.7146 35.3476 28.7389 35.3286 28.7591C35.3095 28.7794 35.2861 28.7951 35.2602 28.8052C35.2342 28.8152 35.2063 28.8193 35.1786 28.8172C35.1512 28.8183 35.124 28.8134 35.0987 28.803C35.0734 28.7925 35.0507 28.7767 35.0321 28.7566C35.0135 28.7365 34.9995 28.7127 34.991 28.6866C34.9826 28.6606 34.9798 28.633 34.9831 28.6059V26.3161C34.9797 26.2591 34.9977 26.2029 35.0335 26.1584C35.0653 26.1252 35.1077 26.104 35.1534 26.0985ZM22.9478 26.1048C22.9509 26.1047 22.9541 26.1047 22.9572 26.1048H24.0832C24.1338 26.1048 24.1823 26.1249 24.2181 26.1607C24.2539 26.1965 24.274 26.245 24.274 26.2956C24.274 26.3462 24.2539 26.3948 24.2181 26.4306C24.1823 26.4663 24.1338 26.4864 24.0832 26.4864H23.7173V28.6437C23.7112 28.6917 23.6879 28.7358 23.6516 28.7678C23.6153 28.7998 23.5686 28.8174 23.5202 28.8174C23.4718 28.8174 23.4251 28.7998 23.3888 28.7678C23.3525 28.7358 23.3292 28.6917 23.3231 28.6437V26.4864H22.9572C22.907 26.4877 22.8584 26.469 22.822 26.4344C22.7857 26.3998 22.7645 26.3521 22.7633 26.3019C22.762 26.2518 22.7807 26.2031 22.8153 26.1668C22.8499 26.1304 22.8976 26.1061 22.9478 26.1048ZM24.7865 26.1048C24.7886 26.1048 24.7907 26.1048 24.7928 26.1048C24.8197 26.104 24.8465 26.1086 24.8715 26.1184C24.8966 26.1282 24.9194 26.143 24.9385 26.1618C24.9577 26.1807 24.9728 26.2033 24.983 26.2282C24.9932 26.2531 24.9982 26.2798 24.9978 26.3067V27.7922C24.9868 27.9591 25.0276 28.1254 25.1145 28.2684C25.1614 28.3288 25.2225 28.3765 25.2924 28.4074C25.3624 28.4382 25.4389 28.4511 25.515 28.445C25.5904 28.4524 25.6665 28.4401 25.7356 28.4091C25.8048 28.3781 25.8646 28.3296 25.9093 28.2684C25.9921 28.1251 26.0305 27.9605 26.0197 27.7953V26.3035C26.0258 26.2555 26.0523 26.2114 26.0886 26.1794C26.1249 26.1475 26.1716 26.1298 26.2199 26.1298C26.2683 26.1298 26.315 26.1475 26.3513 26.1794C26.3876 26.2114 26.411 26.2555 26.4171 26.3035V27.666C26.4389 27.9527 26.3776 28.2396 26.2404 28.4923C26.16 28.6054 26.0512 28.6953 25.925 28.7529C25.7987 28.8105 25.6595 28.8338 25.5214 28.8203C25.3825 28.8318 25.2431 28.8077 25.1162 28.7503C24.9893 28.6929 24.8791 28.6041 24.796 28.4923C24.6502 28.2425 24.5831 27.9545 24.6036 27.666V26.3035C24.6034 26.2534 24.6222 26.2052 24.6561 26.1683C24.69 26.1315 24.7366 26.1088 24.7865 26.1048ZM35.3647 26.4675V27.502H35.7747C35.8528 27.5108 35.9319 27.5032 36.0069 27.4798C36.0819 27.4564 36.1513 27.4177 36.2106 27.3661C36.2699 27.3146 36.3178 27.2512 36.3514 27.1801C36.3849 27.1091 36.4033 27.0318 36.4055 26.9532C36.4038 26.8879 36.3887 26.8237 36.361 26.7645C36.3333 26.7053 36.2937 26.6525 36.2446 26.6095C36.1891 26.5598 36.1243 26.5216 36.0539 26.4973C35.9835 26.4729 35.9089 26.4628 35.8346 26.4675H35.3647ZM33.5228 26.5148L33.0939 27.994H33.9706L33.5228 26.5148ZM29.9273 29.6845C29.962 29.6845 29.9936 29.6908 29.9967 29.7192C30.003 29.776 29.9463 29.8107 29.8643 29.8517C29.742 29.9035 29.6385 29.9915 29.5678 30.104C29.4804 30.2608 29.4378 30.4387 29.4448 30.6181C29.4568 30.672 29.4809 30.7224 29.5153 30.7656C29.5498 30.8088 29.5936 30.8435 29.6435 30.8672C29.7833 30.933 29.9371 30.9633 30.0914 30.9555C30.3295 30.9412 30.5613 30.8733 30.7694 30.7568C31.0503 30.666 31.3489 30.6444 31.6399 30.6938C31.8594 30.696 32.0729 30.7653 32.2518 30.8924C32.3275 30.9461 32.3149 31.0123 32.2865 31.0186C32.2423 31.0344 32.195 30.9808 32.1477 30.9871C31.9954 31.0024 31.8453 31.0341 31.6998 31.0817C31.5106 31.1668 31.4255 31.1984 31.334 31.3655C31.2974 31.4366 31.2895 31.519 31.3119 31.5958C31.3435 31.6715 31.4223 31.7219 31.4381 31.7755C31.4841 31.9168 31.5522 32.0498 31.6399 32.1698C31.6692 32.1968 31.7008 32.2211 31.7345 32.2423C32.0485 32.4768 32.3457 32.7328 32.6239 33.0087C32.6848 33.0973 32.7277 33.1969 32.7501 33.302C32.7596 33.3399 32.728 33.3966 32.6933 33.3809C32.6528 33.3539 32.6148 33.3233 32.5798 33.2894C32.5322 33.2384 32.4755 33.1967 32.4126 33.1664C32.2368 33.0952 32.0462 33.0681 31.8575 33.0876C31.7724 33.0876 31.6021 33.1633 31.6998 33.2011C31.8669 33.2865 32.01 33.4122 32.1162 33.567C32.3534 33.8355 32.4747 34.187 32.4536 34.5447C32.4536 34.5636 32.4158 34.5762 32.4063 34.5636C32.3244 34.4277 32.2148 34.3106 32.0846 34.2198C31.8932 34.0797 31.6591 34.0106 31.4223 34.0243C31.375 34.0274 31.2331 34.0243 31.2488 34.0684C31.3971 34.2564 31.527 34.4581 31.6368 34.6708C31.7502 34.946 31.7925 35.2454 31.7598 35.5413C31.7566 35.5571 31.6967 35.5728 31.6872 35.5571C31.6135 35.4701 31.5323 35.3899 31.4444 35.3174C31.3563 35.2388 31.2562 35.1749 31.1479 35.1281C30.9299 35.0779 30.701 35.1093 30.5045 35.2164C30.3303 35.3125 30.1879 35.4571 30.0945 35.6328C29.9826 35.8313 29.9159 36.052 29.899 36.2793C29.8641 36.5566 29.9101 36.8381 30.0314 37.0899C30.1644 37.3272 30.3765 37.5102 30.6307 37.6071C30.9708 37.7154 31.3275 37.7624 31.6841 37.7459C32.1225 37.7616 32.5609 37.6954 32.9992 37.6828C33.4148 37.6434 33.8333 37.6466 34.2482 37.6923C34.5842 37.7589 34.905 37.8872 35.1944 38.0707C35.4305 38.2509 35.6569 38.4435 35.8725 38.6479C35.8977 38.6668 35.9545 38.6384 35.9828 38.6195C36.19 38.4206 36.3337 38.165 36.396 37.8846C36.4369 37.613 36.3738 37.336 36.2194 37.1088C36.0711 36.8407 35.8535 36.5411 35.6832 36.2572C35.4522 35.9592 35.2395 35.6474 35.0461 35.3237C34.9415 35.1063 34.9223 34.8575 34.9925 34.6267C35.0526 34.4558 35.1725 34.3124 35.33 34.223C35.3647 34.2009 35.3994 34.2419 35.3836 34.2892C35.3386 34.4014 35.3298 34.5249 35.3584 34.6424C35.4115 34.8117 35.5083 34.964 35.6391 35.084C35.6801 35.1155 35.7873 35.0682 35.8125 35.0177C35.8693 34.8821 35.8346 34.6708 35.8851 34.532C35.9488 34.2737 36.0648 34.0312 36.2257 33.8193C36.5734 33.5612 36.9556 33.3531 37.3611 33.2011C37.4652 33.1412 37.5314 32.8699 37.6481 32.9141C37.7648 32.9551 37.7017 33.2295 37.6134 33.3619C37.4872 33.5575 37.339 33.6773 37.2002 33.854C37.0108 34.0973 36.845 34.3581 36.7051 34.633C36.6288 34.7634 36.5967 34.9149 36.6136 35.0651C36.6279 35.1284 36.6559 35.1877 36.6957 35.239C36.7355 35.2902 36.7861 35.3321 36.8439 35.3615C36.9132 35.3931 37.0015 35.33 37.0646 35.2827C37.1858 35.1942 37.2895 35.0841 37.3706 34.9578C37.4431 34.838 37.4021 34.6771 37.4715 34.5541C37.4904 34.5257 37.5661 34.532 37.5882 34.5541C37.6641 34.6234 37.7132 34.7172 37.7269 34.819C37.7337 34.9387 37.7231 35.0588 37.6954 35.1754C37.6859 35.2007 37.6197 35.2606 37.5976 35.3174C37.5805 35.3613 37.5594 35.4035 37.5346 35.4435C37.421 35.6422 37.2886 35.8094 37.1403 35.8409C37.1088 35.8441 37.0867 35.9071 37.1088 35.9355C37.1948 36.0993 37.3167 36.2416 37.4652 36.3518C37.539 36.3885 37.6194 36.4101 37.7017 36.4156C37.784 36.421 37.8665 36.41 37.9446 36.3834C38.0297 36.3582 38.096 36.2982 38.1937 36.2667C38.2347 36.2541 38.2095 36.2793 38.2095 36.3203C38.2085 36.4127 38.1926 36.5043 38.1622 36.5915C38.1114 36.7006 38.029 36.7918 37.9256 36.8533C37.765 36.944 37.5861 36.9979 37.4021 37.011C37.3169 37.0268 37.1876 37.0899 37.2192 37.1719C37.2462 37.2687 37.2912 37.3596 37.3516 37.4399C37.4172 37.5112 37.5074 37.5552 37.6039 37.5629C37.7442 37.5689 37.8826 37.529 37.9982 37.4494C38.1243 37.3674 38.1906 37.216 38.301 37.1088C38.323 37.0899 38.383 37.1088 38.383 37.1403C38.3786 37.3141 38.3343 37.4846 38.2536 37.6386C38.148 37.8081 38.011 37.9558 37.8499 38.0739C37.8026 38.1149 37.7459 38.1653 37.7459 38.2284C37.7702 38.3266 37.8178 38.4174 37.8846 38.4933C37.947 38.5815 38.0406 38.6424 38.1464 38.6637C38.2506 38.6834 38.3576 38.6834 38.4618 38.6637C38.5028 38.6637 38.4933 38.7362 38.4586 38.7614C38.3574 38.8651 38.2298 38.9392 38.0896 38.9759C37.9596 39.0193 37.8204 39.028 37.6859 39.0011C37.4305 38.938 37.2633 38.8434 37.011 38.7709C36.8751 38.7189 36.7268 38.7091 36.5852 38.7425C36.4499 38.7939 36.3333 38.8852 36.2509 39.0043C36.2018 39.0618 36.1691 39.1315 36.1563 39.2061C36.1374 39.4048 36.2352 39.6161 36.1721 39.8117C36.1086 40.0647 36.0232 40.3116 35.9166 40.5497C35.8092 40.7322 35.6879 40.9061 35.5539 41.0701C35.4278 41.2404 35.2606 41.3035 35.1754 41.4895C35.1393 41.558 35.0993 41.6244 35.0556 41.6882C34.9395 41.9116 34.8769 42.1588 34.8727 42.4105C34.9049 42.6493 34.9971 42.8761 35.1407 43.0697L35.6233 43.8171C35.6575 43.8999 35.6674 43.9907 35.6517 44.0789C35.6484 44.1243 35.634 44.1681 35.6098 44.2066C35.5856 44.2451 35.5523 44.2771 35.5129 44.2997C34.8724 44.6601 34.3982 45.2565 34.1914 45.9618L34.1851 46.0028V46.0154C34.1732 46.0639 34.1506 46.1092 34.1189 46.1479C33.9575 46.3114 33.7471 46.4178 33.5196 46.4506C33.3462 46.4979 33.1727 46.5421 32.9992 46.5957C32.9427 46.6105 32.8935 46.6453 32.8605 46.6935C32.8309 46.7405 32.8176 46.796 32.8227 46.8513C32.8279 46.9066 32.8511 46.9587 32.8889 46.9994C32.9412 47.0635 32.974 47.1412 32.9835 47.2233C32.9862 47.271 32.9716 47.318 32.9425 47.3558C32.9171 47.3837 32.8872 47.4071 32.8542 47.4252C32.6405 47.5469 32.4113 47.6392 32.1729 47.6996C32.0152 47.7343 31.9017 47.6933 31.9522 47.5135C32.0396 47.2005 32.1428 46.8921 32.2612 46.5894C32.3649 46.4116 32.5085 46.2605 32.6807 46.1479C32.8935 45.9647 33.1167 45.7941 33.3493 45.6369C33.5013 45.5326 33.6292 45.3972 33.7246 45.2395C33.9096 44.9405 34.1096 44.651 34.3239 44.3722C34.3667 44.3145 34.397 44.2486 34.4127 44.1785C34.4285 44.1084 34.4294 44.0358 34.4153 43.9654C34.3948 43.8386 34.3431 43.719 34.265 43.6172C34.1868 43.5153 34.0846 43.4345 33.9675 43.3819C33.8797 43.3423 33.7903 43.3065 33.6994 43.2747C33.3931 43.1691 33.1237 42.9775 32.9236 42.7227C32.9017 42.6891 32.873 42.6604 32.8393 42.6387C32.8056 42.6169 32.7677 42.6026 32.728 42.5966C32.5293 42.6029 32.4725 42.8804 32.4662 43.0318C32.4502 43.2546 32.4544 43.4784 32.4789 43.7004C32.4983 43.7745 32.5026 43.8517 32.4915 43.9275C32.4813 43.9541 32.4648 43.9778 32.4434 43.9965C32.4219 44.0152 32.3962 44.0283 32.3685 44.0347C31.7426 44.2586 31.1447 44.5538 30.5865 44.9147C30.5064 44.9744 30.4388 45.0495 30.3878 45.1355L30.3342 45.2269C30.2641 45.3437 30.1558 45.4327 30.0276 45.4787C29.8994 45.5247 29.7592 45.5249 29.6309 45.4792C29.5852 45.4656 29.5389 45.454 29.4921 45.4445C29.4206 45.4373 29.3488 45.4564 29.2903 45.4982C29.241 45.5284 29.1973 45.5668 29.161 45.6117C29.1469 45.6296 29.1362 45.6499 29.1294 45.6716V45.6905C29.1288 45.6989 29.1288 45.7074 29.1294 45.7158C29.1314 45.7341 29.1356 45.7521 29.142 45.7694L29.2114 45.9586C29.227 45.9858 29.2363 46.0161 29.2385 46.0473C29.2408 46.0785 29.236 46.1098 29.2244 46.1389C29.2129 46.168 29.195 46.1941 29.172 46.2153C29.149 46.2365 29.1215 46.2523 29.0916 46.2614C28.8858 46.3446 28.6709 46.4028 28.4513 46.4349C28.3252 46.4506 28.2148 46.4033 28.2463 46.2551C28.2916 45.9984 28.3657 45.7477 28.4671 45.5076C28.4806 45.4644 28.5039 45.4249 28.535 45.3921C28.5662 45.3593 28.6044 45.3341 28.6469 45.3184C28.8553 45.1992 29.0455 45.0505 29.2114 44.8768C29.356 44.7391 29.545 44.6575 29.7444 44.6466C30.0438 44.6204 30.33 44.5112 30.5707 44.3312C30.8234 44.156 31.0608 43.9598 31.2804 43.7446C31.4414 43.5361 31.5272 43.2793 31.5238 43.0159C31.5204 42.7525 31.4279 42.498 31.2614 42.2938L31.1984 42.1834C31.1384 42.0888 31.1038 41.9532 31.0533 41.8554C30.9872 41.7572 30.9451 41.6448 30.9303 41.5274C30.9303 41.3129 31.0154 41.1079 31.0281 40.8935C31.0297 40.8766 31.0256 40.8596 31.0165 40.8453C31.0073 40.831 30.9936 40.8202 30.9776 40.8146C30.8389 40.7624 30.6933 40.7306 30.5455 40.72C29.9591 40.788 29.3671 40.7944 28.7793 40.7389C28.343 40.613 27.9282 40.4216 27.5493 40.1712C27.3822 40.0671 27.2812 39.9504 27.1109 39.8527C27.0668 39.8274 27.0636 39.8369 27.0226 39.8716C26.6043 40.1751 26.0894 40.3153 25.575 40.2658H25.5687C25.2532 40.2117 24.9429 40.1304 24.6414 40.023C24.4112 39.9378 24.0422 39.7896 23.8214 39.9757C23.7299 40.0545 23.752 40.1649 23.752 40.269C23.781 40.5897 23.7704 40.9128 23.7205 41.2309C23.7146 41.2474 23.7124 41.265 23.714 41.2824C23.7156 41.2999 23.7211 41.3167 23.7299 41.3319C23.7356 41.3388 23.742 41.3451 23.7489 41.3508C23.7833 41.3774 23.8216 41.3987 23.8624 41.4139L23.8939 41.4265C23.9822 41.458 23.998 41.499 24.0516 41.6094C24.0791 41.6714 24.0961 41.7374 24.1021 41.8049C24.1118 41.8701 24.1086 41.9366 24.0926 42.0005C24.0847 42.0418 24.0752 42.0828 24.0643 42.1235C24.0248 42.2642 24.0336 42.4142 24.0895 42.5493C24.1159 42.617 24.162 42.6752 24.2219 42.7164C24.2321 42.7214 24.2427 42.7256 24.2535 42.729C24.2637 42.7331 24.2743 42.7362 24.285 42.7385C24.2955 42.7393 24.3061 42.7393 24.3166 42.7385H24.3481C24.3702 42.7332 24.3915 42.7247 24.4112 42.7133L24.4238 42.707C24.4544 42.6807 24.4939 42.6671 24.5342 42.6691C24.545 42.6711 24.5556 42.6742 24.5657 42.6786C24.6199 42.6903 24.6687 42.7195 24.7046 42.7616C24.7405 42.8038 24.7615 42.8566 24.7644 42.912C24.7717 43.1525 24.722 43.3913 24.6193 43.609C24.6098 43.6312 24.5958 43.6514 24.5784 43.6682C24.5609 43.6851 24.5403 43.6983 24.5177 43.7071C24.4951 43.7159 24.471 43.7201 24.4467 43.7195C24.4225 43.7189 24.3986 43.7135 24.3765 43.7036L24.3197 43.6815C24.1486 43.5903 23.9983 43.4647 23.8782 43.3125C23.7892 43.215 23.7348 43.0908 23.7236 42.9593C23.7274 42.8651 23.6959 42.7728 23.6353 42.7006C23.6054 42.6772 23.5711 42.6601 23.5344 42.6502C23.4481 42.6248 23.3712 42.5743 23.3136 42.5051C23.2378 42.4088 23.1839 42.2971 23.1556 42.1778C23.1273 42.0585 23.1252 41.9345 23.1496 41.8144C23.2474 41.139 23.1979 40.4504 23.0045 39.7959C22.964 39.6856 22.9662 39.564 23.0108 39.4553L23.0613 39.3197C23.0677 39.3024 23.075 39.2856 23.0834 39.2692C23.0963 39.2434 23.115 39.2209 23.1379 39.2034C23.1609 39.1859 23.1875 39.1739 23.2159 39.1683C23.246 39.1625 23.2766 39.1593 23.3073 39.1588C23.7888 39.1571 24.2673 39.0827 24.7266 38.938C24.7888 38.914 24.8554 38.9033 24.9221 38.9065C24.9987 38.9118 25.0755 38.9139 25.1523 38.9128C25.247 38.9128 25.3416 38.8277 25.228 38.7551C25.1333 38.6701 25.0448 38.5784 24.9631 38.4807C24.9474 38.4526 24.9227 38.4305 24.893 38.4179C24.8633 38.4053 24.8303 38.403 24.7991 38.4113C24.7882 38.4158 24.7777 38.421 24.7676 38.4271L24.7392 38.4429C24.7038 38.474 24.6618 38.4966 24.6164 38.509C24.571 38.5214 24.5234 38.5232 24.4771 38.5144C24.4309 38.5056 24.3873 38.4863 24.3496 38.4581C24.3119 38.4298 24.2812 38.3933 24.2598 38.3514C24.1403 38.1523 24.048 37.938 23.9854 37.7143C23.9323 37.4403 23.8144 37.1829 23.6416 36.9637C23.5625 36.8885 23.4678 36.8317 23.3642 36.7974C23.2606 36.763 23.1507 36.752 23.0424 36.765C22.8706 36.8106 22.7235 36.9215 22.6324 37.0741L22.4337 37.3516C22.3833 37.4124 22.3496 37.4852 22.3359 37.5629C22.3347 37.5797 22.3347 37.5966 22.3359 37.6134C22.3403 37.6479 22.3488 37.6818 22.3611 37.7143C22.3956 37.7977 22.4023 37.8901 22.3801 37.9776C22.358 38.0651 22.3082 38.1431 22.2381 38.2L21.9417 38.4366C21.9142 38.4603 21.8916 38.4892 21.8754 38.5217C21.8592 38.5542 21.8495 38.5896 21.8471 38.6258C21.8381 38.6896 21.8255 38.7528 21.8092 38.815C21.7978 38.8614 21.7946 38.9095 21.7998 38.957C21.801 38.9697 21.8031 38.9824 21.8061 38.9948C21.8243 39.0462 21.8586 39.0904 21.9038 39.121C21.9182 39.1328 21.9319 39.1454 21.9448 39.1588C21.9599 39.1748 21.9727 39.1929 21.9827 39.2124C22.0007 39.2485 22.0067 39.2893 21.9999 39.329C21.9931 39.3687 21.9738 39.4052 21.9448 39.4332C21.9212 39.4571 21.8959 39.4792 21.8691 39.4994C21.687 39.6415 21.4851 39.7563 21.2699 39.8401C21.2436 39.8501 21.216 39.8564 21.1879 39.859C21.068 39.8684 21.0302 39.777 21.0239 39.6697C21.0144 39.531 21.0144 39.389 21.0144 39.2471C21.0189 39.0858 21.0829 38.9319 21.1942 38.815C21.3476 38.6108 21.4276 38.3608 21.4213 38.1054C21.4133 37.9581 21.458 37.8128 21.5474 37.6954C21.6236 37.6121 21.6844 37.516 21.7272 37.4116C21.7576 37.3364 21.799 37.2662 21.8502 37.2034C22.1702 36.8183 22.4662 36.4138 22.7365 35.9923C22.9068 35.7211 23.2253 35.3868 23.4839 35.7621C23.5511 35.863 23.6342 35.9525 23.7299 36.027C23.9909 36.2167 24.2637 36.3894 24.5468 36.5442C24.8433 36.7114 24.8906 36.4118 24.941 36.1626V36.1531C24.9661 36.0509 25.0065 35.9531 25.0609 35.863C25.2394 35.5774 25.4535 35.3156 25.698 35.084C25.8336 34.9641 26.0291 34.8443 26.1711 34.7276C26.2278 34.6771 26.2436 34.6708 26.2657 34.6014C26.2941 34.532 26.3414 34.4437 26.3729 34.3554C26.4044 34.2703 26.4202 34.182 26.4486 34.1157C26.5108 34.0206 26.5576 33.9163 26.5874 33.8066V33.7972C26.5879 33.7919 26.5879 33.7867 26.5874 33.7814V33.7593L26.5779 33.7373C26.5647 33.7055 26.5414 33.6789 26.5117 33.6616C26.415 33.6028 26.303 33.5742 26.19 33.5796H26.1805C26.02 33.5809 25.8613 33.6141 25.7137 33.6773C25.6378 33.711 25.5771 33.7717 25.5434 33.8476C25.5108 33.9209 25.466 33.988 25.411 34.0463C25.3568 34.0991 25.2851 34.1302 25.2096 34.1337C25.134 34.1372 25.0598 34.1128 25.001 34.0653C24.9253 34.0148 24.9568 33.9297 25.001 33.8666C25.0416 33.8168 25.0785 33.7641 25.1113 33.7089C25.1246 33.6849 25.1302 33.6573 25.1271 33.63V33.6174L25.1208 33.6016C25.1164 33.5947 25.1111 33.5883 25.105 33.5827C25.0853 33.567 25.0619 33.5568 25.037 33.5529C25.0121 33.549 24.9867 33.5517 24.9631 33.5606C24.8746 33.5851 24.7873 33.6135 24.7013 33.6458C24.6728 33.6614 24.6408 33.6699 24.6083 33.6704C24.5757 33.671 24.5435 33.6637 24.5144 33.6492C24.4852 33.6346 24.4601 33.6132 24.441 33.5868C24.4219 33.5604 24.4095 33.5298 24.4049 33.4976C24.3925 33.4406 24.3893 33.3821 24.3954 33.3241C24.3973 33.2879 24.4105 33.2533 24.4332 33.225C24.4558 33.1967 24.4867 33.1762 24.5216 33.1664C24.5846 33.1475 24.6793 33.1128 24.6666 33.0339C24.6631 33.0099 24.6631 32.9855 24.6666 32.9614C24.6724 32.9333 24.6855 32.9072 24.7045 32.8857C24.7322 32.8551 24.764 32.8286 24.7991 32.8069C25.1479 32.5783 25.4848 32.3319 25.8084 32.0689C25.8328 32.0405 25.8665 32.0218 25.9035 32.016C25.9405 32.0102 25.9783 32.0178 26.0102 32.0373L26.0417 32.0562C26.1882 32.1325 26.3568 32.1548 26.518 32.1193C26.5464 32.118 26.5739 32.1083 26.5969 32.0915C26.6199 32.0746 26.6374 32.0514 26.6473 32.0247C26.6478 32.0195 26.6478 32.0142 26.6473 32.0089V31.9932L26.641 31.9742L26.6315 31.9616C26.602 31.9292 26.5636 31.9062 26.5211 31.8954L26.3382 31.8292C26.2809 31.8088 26.2259 31.7824 26.1742 31.7503C26.1426 31.7321 26.1177 31.7041 26.1035 31.6705C26.0892 31.6369 26.0864 31.5996 26.0954 31.5642C26.1679 31.2078 26.559 31.2047 26.8555 31.2331H26.8681C27.0178 31.2308 27.1664 31.2074 27.3096 31.1637C27.4988 31.0974 27.6439 30.9524 27.8237 30.8672C28.0035 30.7821 28.1927 30.6874 28.3788 30.6149C28.4356 30.596 28.4829 30.6086 28.5333 30.5865C28.5759 30.5694 28.6137 30.5424 28.6437 30.5077C28.7733 30.3201 28.9235 30.1476 29.0916 29.9936C29.3232 29.859 29.5743 29.7611 29.8359 29.7034C29.8664 29.6926 29.8982 29.6862 29.9305 29.6845H29.9273ZM28.5869 31.4412C28.4714 31.4404 28.3576 31.4686 28.2558 31.5232C28.2274 31.539 28.2085 31.5737 28.2306 31.5989C28.2873 31.6652 28.3851 31.6935 28.4513 31.7566C28.4966 31.7979 28.534 31.847 28.5617 31.9017C28.5901 31.9616 28.6374 32.0278 28.6658 32.0909C28.7196 32.2178 28.767 32.3472 28.8077 32.4789C28.8795 32.6935 28.9322 32.9141 28.9654 33.138C28.997 33.3178 28.9875 33.507 28.9969 33.69V33.9454C28.9938 34.018 28.9938 34.0937 28.9875 34.1662C28.9789 34.269 28.9747 34.3721 28.9749 34.4753V34.7276C28.9812 34.9484 29.0159 35.1061 29.1136 35.1061C29.2055 35.1078 29.2964 35.0872 29.3786 35.0461C29.4594 34.9977 29.5264 34.9293 29.5734 34.8476C29.6203 34.7659 29.6455 34.6736 29.6467 34.5794C29.73 33.9764 29.7269 33.3647 29.6372 32.7627C29.6222 32.5418 29.5619 32.3264 29.4598 32.13C29.3578 31.9335 29.2163 31.7603 29.0443 31.621C28.9198 31.5078 28.7552 31.4438 28.5869 31.4412ZM41.0764 31.949H57.4041C57.3505 34.551 57.2969 36.9952 57.2464 39.0863H41.0669L41.0795 33.2137L41.0764 31.949ZM41.0575 39.9725H57.2149C57.1154 43.1028 56.5357 46.1992 55.496 49.1535C54.2576 52.6175 52.6056 55.9193 50.5759 58.9874C48.4582 62.1474 45.8925 64.983 42.9593 67.4051C41.8136 68.3753 40.6052 69.2688 39.3417 70.0796C37.3634 71.2839 35.297 72.3372 33.1601 73.2304C32.4536 73.5332 31.8418 73.817 31.2804 74.0094C30.6717 74.2144 30.1513 74.4036 29.7854 74.5014L29.7949 51.131C30.128 51.1217 30.4606 51.0975 30.7915 51.0585C30.8073 51.1058 30.842 51.2383 30.8893 51.3739C30.9605 51.5053 31.059 51.6199 31.1781 51.7102C31.2972 51.8005 31.4342 51.8643 31.58 51.8974C31.7563 51.9332 31.9391 51.9208 32.1089 51.8614C32.2788 51.802 32.4295 51.6978 32.5451 51.5599C32.709 51.7058 32.9105 51.8029 33.1268 51.8402C33.343 51.8776 33.5654 51.8537 33.7688 51.7713C33.9269 51.7295 34.0667 51.6367 34.1665 51.5072C34.2664 51.3777 34.3206 51.2188 34.3207 51.0553C34.341 50.8314 34.3052 50.606 34.2167 50.3993L34.1031 50.1912C34.9298 49.8463 35.7165 49.4127 36.4496 48.8981L36.5127 48.8791C37.6891 48.5827 42.4168 46.889 45.3152 46.8512C47.1033 46.8107 48.8712 47.2345 50.4466 48.0812C51.2527 48.5522 51.9788 49.1484 52.5976 49.8474C52.6165 49.8758 52.6386 49.9357 52.7143 49.9483C52.737 49.9488 52.7595 49.9425 52.7786 49.9301C52.7977 49.9177 52.8127 49.8999 52.8215 49.8789C53.0294 49.363 53.1147 48.806 53.0707 48.2515C53.0076 47.3621 52.1245 46.7187 51.8627 46.4538C51.8533 46.4443 51.8312 46.3876 51.9258 46.3245C52.0269 46.2242 52.1379 46.1344 52.257 46.0564C52.7636 45.654 53.3833 45.4202 54.0295 45.3878C54.1241 45.3972 54.0925 45.2616 54.0673 45.1481C53.8844 44.3596 52.7584 43.8487 51.5757 44.0316C51.1825 44.1122 50.8093 44.2699 50.4774 44.4957C50.1456 44.7214 49.8617 45.0107 49.6424 45.3468C49.6203 45.3815 49.5099 45.4319 49.4658 45.3878C49.0856 45.2499 48.6969 45.1372 48.302 45.0503C48.16 45.0188 48.2357 44.9115 48.242 44.8926C48.4762 44.4697 48.8042 44.1061 49.2008 43.8297C49.6548 43.4707 50.1897 43.2282 50.7589 43.1233C50.8282 43.1233 50.8282 43.0287 50.8093 42.9971C50.6973 42.7591 50.5326 42.5496 50.3277 42.3846C50.1228 42.2196 49.8831 42.1033 49.6266 42.0446C49.2117 41.9112 48.7705 41.8817 48.3415 41.9587C47.9126 42.0357 47.5091 42.2168 47.1666 42.4862C46.5002 43.0403 46.012 43.7786 45.7631 44.6088C45.7189 44.6718 45.7063 44.7223 45.6495 44.7097C45.3373 44.6466 44.5614 44.6876 44.4921 44.6403C44.4447 44.6182 44.4542 44.5457 44.4637 44.4984C44.5955 44.0476 44.8359 43.6361 45.1638 43.2999C45.4594 42.9024 45.8557 42.591 46.3119 42.3979C46.3392 42.3853 46.3628 42.3659 46.3803 42.3415C46.3978 42.3171 46.4087 42.2885 46.4119 42.2586C46.4151 42.2287 46.4104 42.1985 46.3984 42.1709C46.3864 42.1434 46.3675 42.1194 46.3434 42.1014C45.7056 41.771 44.9726 41.6731 44.2704 41.8245C43.5682 41.9758 42.9407 42.367 42.4956 42.9309C42.0508 43.6012 41.7263 44.3441 41.5369 45.126C41.5305 45.1544 41.4832 45.2395 41.4233 45.2395L39.8211 45.5928L39.5594 45.6527L39.49 45.7252C40.4655 44.1607 41.0066 42.3644 41.0575 40.5213V39.9725ZM1.79141 40.2406H18.1602V40.5245C18.1903 42.9809 19.131 45.3387 20.8 47.1413H2.86689C2.24617 44.8896 1.88744 42.5744 1.79141 40.2406ZM3.10028 47.9456H21.5916C21.7062 48.0541 21.824 48.1593 21.9448 48.261C23.8806 49.8863 26.2705 50.8753 28.7888 51.0932V54.9094H6.01764C5.03861 53.0521 4.19537 51.1263 3.49452 49.1472C3.35544 48.7503 3.224 48.3507 3.10028 47.9487V47.9456ZM36.4812 48.8602L36.4496 48.8981H36.4433L36.437 48.8918C36.4528 48.8813 36.4686 48.8708 36.4843 48.8602H36.4812ZM41.9626 49.4437C41.3929 49.4445 40.8364 49.6147 40.3636 49.9325C39.8274 50.225 39.3954 50.6769 39.1273 51.2256C38.8247 52.0085 38.6419 52.8325 38.5848 53.6699C38.5738 53.6957 38.5574 53.7189 38.5367 53.7379C38.5161 53.757 38.4916 53.7714 38.465 53.7803C38.1076 53.8506 37.7548 53.9422 37.4084 54.0547C37.3912 54.0531 37.3749 54.0462 37.3619 54.0349C37.3489 54.0236 37.3398 54.0084 37.3359 53.9916C37.2244 53.1956 37.3916 52.3856 37.8089 51.6987C37.9822 51.3802 38.2157 51.0985 38.4965 50.8692C38.517 50.856 38.5329 50.8368 38.5419 50.8141C38.5509 50.7914 38.5525 50.7665 38.5466 50.7428C38.5407 50.7191 38.5275 50.6979 38.5089 50.6821C38.4903 50.6663 38.4672 50.6568 38.4429 50.6548C37.7406 50.5355 37.0186 50.6625 36.3992 51.0143C36.0125 51.2277 35.6818 51.5296 35.434 51.8952C35.1863 52.2608 35.0285 52.6798 34.9736 53.118C34.8993 53.7452 34.9442 54.3808 35.1061 54.9914C35.1061 55.0103 35.125 55.0765 35.0556 55.0892C34.8159 55.2059 34.1662 55.5465 33.936 55.6569C33.9202 55.6632 33.876 55.6726 33.8666 55.6379C33.8074 55.4032 33.7022 55.1825 33.5571 54.9887C33.4121 54.7948 33.2299 54.6317 33.0213 54.5088C32.7961 54.4165 32.5534 54.3749 32.3103 54.3869C32.0672 54.3989 31.8297 54.4642 31.6147 54.5782C31.3241 54.7429 31.0875 54.9883 30.9334 55.2847C30.8255 55.5336 30.8064 55.812 30.8794 56.0732C30.9523 56.3345 31.1128 56.5627 31.334 56.7197C31.3529 56.7387 31.3876 56.7828 31.334 56.7986C31.0501 56.9531 31.0438 56.9878 30.8294 57.3064C30.7212 57.5346 30.6792 57.7886 30.7082 58.0395C30.7372 58.2903 30.836 58.5281 30.9934 58.7256C31.1115 58.9005 31.266 59.0478 31.4463 59.1574C31.6265 59.2671 31.8283 59.3366 32.0379 59.3612C32.2475 59.3857 32.4599 59.3647 32.6607 59.2997C32.8614 59.2346 33.0457 59.127 33.2011 58.9842C33.2137 58.9748 33.2579 59 33.2799 59.0473C33.3985 59.2334 33.5516 59.395 33.731 59.5235C33.9499 59.6471 34.1971 59.712 34.4485 59.712C34.6999 59.712 34.947 59.6471 35.166 59.5235C35.3951 59.3971 35.5808 59.2047 35.6989 58.9712C35.817 58.7377 35.8621 58.4741 35.8283 58.2147C35.8237 57.9042 35.6981 57.6077 35.4782 57.3884C35.4372 57.3379 35.4782 57.3127 35.5854 57.2433C37.4914 56.1513 39.5904 55.4381 41.7671 55.1428C42.8938 54.9692 44.042 54.9927 45.1607 55.2122C45.8903 55.3791 46.5701 55.7163 47.1445 56.1962C47.6128 56.5747 48.0418 56.9995 48.425 57.464C48.5535 57.4852 48.6853 57.457 48.794 57.3852C48.9107 57.1304 48.9748 56.8546 48.9824 56.5744C48.99 56.2942 48.9409 56.0154 48.8381 55.7546C48.5772 55.0523 48.1635 54.4168 47.627 53.8938C47.6176 53.8875 47.6176 53.8528 47.6176 53.8308C47.605 53.7361 47.6649 53.6888 47.7816 53.5816C48.2785 53.1171 48.8904 52.7937 49.5541 52.6449C49.6392 52.6386 49.6739 52.5755 49.6171 52.4777C49.3772 52.04 48.9871 51.7038 48.5188 51.5311C48.0505 51.3584 47.5355 51.3608 47.0688 51.5379C46.4544 51.7969 45.9454 52.2604 45.6338 52.8499C45.6148 52.8846 45.5644 53.0076 45.5171 52.9697C45.2332 52.9445 44.7538 52.8688 44.4731 52.8436C44.3438 52.8373 44.3943 52.7206 44.3974 52.7017C44.514 52.3231 44.7245 51.9803 45.0093 51.705C45.3909 51.2655 45.8706 50.9219 46.4096 50.7021C46.4204 50.7008 46.4308 50.697 46.4397 50.6908C46.4487 50.6846 46.456 50.6763 46.4609 50.6667C46.4659 50.657 46.4685 50.6463 46.4683 50.6354C46.4682 50.6245 46.4653 50.6138 46.4601 50.6043C46.2813 50.3863 46.0579 50.2091 45.8049 50.0846C45.552 49.96 45.2753 49.8909 44.9935 49.8821C44.6346 49.8633 44.2758 49.9204 43.9405 50.0497C43.6051 50.1791 43.3009 50.3777 43.0476 50.6327C42.4441 51.2712 42.0702 52.0922 41.9847 52.9666C41.9563 53.0391 41.9216 53.077 41.868 53.077C41.5779 53.1236 41.285 53.15 40.9912 53.1558C40.9439 53.1432 40.9471 53.0927 40.9471 53.0423C40.9524 52.5965 41.0614 52.1581 41.2656 51.7618C41.6656 51.0032 42.2655 50.3685 43.0003 49.9262C43.1138 49.8474 43.1201 49.6865 43.0823 49.6676C42.7278 49.5188 42.3471 49.4427 41.9626 49.4437ZM6.49703 55.7988H28.7919V62.7058H11.2468C10.2217 61.528 9.27559 60.2837 8.4146 58.9811C7.73648 57.9426 7.09583 56.8801 6.49388 55.7956L6.49703 55.7988ZM38.2757 59.5078C37.9737 59.4958 37.6747 59.5714 37.4147 59.7254C36.7057 60.0982 36.1688 60.7313 35.9166 61.4916C35.7689 62.0846 35.782 62.7062 35.9545 63.2925C35.9639 63.3145 35.9923 63.3681 35.9481 63.3871C35.7021 63.4817 35.5192 63.5921 35.2764 63.6898C35.2637 63.6898 35.2007 63.7056 35.1881 63.6741C34.9835 63.3074 34.9002 62.8853 34.9501 62.4684C34.9999 62.0515 35.1804 61.661 35.4656 61.3528C35.5192 61.3055 35.5508 61.2424 35.4404 61.2046C35.1326 61.1573 34.8178 61.1882 34.5251 61.2946C34.2324 61.401 33.9712 61.5794 33.7656 61.8133C33.5293 62.098 33.371 62.4393 33.3063 62.8037C33.2416 63.1681 33.2728 63.543 33.3966 63.8917C33.4583 64.1803 33.5636 64.4579 33.7089 64.7149C33.7183 64.7306 33.8035 64.7811 33.753 64.8032L33.2799 65.1659C33.2705 65.1753 33.2358 65.1911 33.22 65.1659C33.1249 64.9864 32.9951 64.8276 32.8381 64.6987C32.681 64.5699 32.5 64.4735 32.3054 64.4152C32.1289 64.3734 31.9446 64.3769 31.7698 64.4255C31.595 64.474 31.4353 64.5659 31.3056 64.6928C31.1654 64.831 31.0634 65.0033 31.0097 65.1927C30.9559 65.3822 30.9522 65.5823 30.9989 65.7736C31.0457 65.9649 31.1412 66.1408 31.2762 66.2841C31.4112 66.4275 31.5811 66.5334 31.7692 66.5914C31.7913 66.6009 31.8228 66.6293 31.785 66.6545C31.5334 66.8248 31.3276 67.0545 31.1858 67.3231C31.1003 67.5394 31.0802 67.776 31.1279 68.0036C31.1755 68.2312 31.2888 68.4398 31.4538 68.6036C31.5778 68.7124 31.7234 68.7936 31.8811 68.842C32.0387 68.8904 32.2048 68.9048 32.3685 68.8843C32.613 68.8042 32.8388 68.6754 33.0323 68.5058C33.2258 68.3362 33.383 68.1291 33.4944 67.8971C33.5007 67.8877 33.5606 67.8435 33.5922 67.8782C33.7954 68.1719 34.0871 68.3929 34.4248 68.509C34.5974 68.5691 34.783 68.5817 34.9622 68.5457C35.1413 68.5096 35.3076 68.4261 35.4435 68.304C35.6288 68.1586 35.7628 67.9577 35.8258 67.7307C35.8888 67.5037 35.8775 67.2626 35.7936 67.0424C35.6412 66.7669 35.4235 66.533 35.1597 66.3612C35.1187 66.3297 35.1502 66.2508 35.2322 66.1877C36.5098 65.1605 38.0344 64.4862 39.654 64.2323C40.7596 64.0857 41.8839 64.2678 42.8867 64.7559C43.2785 64.9857 43.6362 65.2691 43.9496 65.598C43.9906 65.62 44.1073 65.661 44.1483 65.6232C44.3858 65.4048 44.5299 65.1032 44.5505 64.7812C44.571 64.4592 44.4665 64.1417 44.2587 63.8949C44.0797 63.679 43.8587 63.502 43.609 63.3745C43.5986 63.3603 43.5911 63.3442 43.5869 63.3271C43.7821 62.8339 44.1108 62.4047 44.5362 62.0877C44.8274 61.9009 45.1397 61.7495 45.4666 61.6367C45.536 61.6177 45.5234 61.5736 45.4887 61.4884C45.085 60.5643 43.486 60.5296 42.7322 61.0153C42.2718 61.3362 41.8971 61.765 41.6409 62.2643C41.6252 62.2958 41.6031 62.3904 41.5621 62.3621L40.8903 62.1602C40.8777 62.1602 40.8777 62.0845 40.884 62.0719C41.1067 61.6391 41.4167 61.2573 41.7946 60.9506C42.1724 60.6439 42.6098 60.4189 43.0791 60.2899C43.1264 60.271 43.1106 60.2269 43.1012 60.2016C42.7543 59.3564 41.0165 59.4289 40.1681 59.9682C39.3796 60.4911 38.8228 61.2976 38.6132 62.2201C38.6037 62.2832 38.6321 62.3368 38.5911 62.3463C38.3554 62.4271 38.1125 62.4852 37.8657 62.5197C37.8473 62.5182 37.8301 62.51 37.8173 62.4966C37.8045 62.4833 37.797 62.4657 37.7963 62.4472C37.7341 62.0231 37.8081 61.5902 38.0076 61.2109C38.2907 60.7392 38.6342 60.3066 39.0295 59.9241C39.0426 59.9108 39.0528 59.8949 39.0594 59.8774C39.0661 59.86 39.069 59.8413 39.0681 59.8227C39.0673 59.804 39.0625 59.7858 39.0542 59.769C39.046 59.7523 39.0343 59.7374 39.02 59.7254C38.7944 59.5906 38.5384 59.5178 38.2757 59.5078ZM28.7951 63.5952V74.3721C28.486 74.2712 28.1202 74.1387 27.7165 74.0031C27.1551 73.8139 26.5401 73.5269 25.8336 73.2241C23.6966 72.3299 21.6302 71.2756 19.6519 70.0702C18.3887 69.2603 17.1802 68.3679 16.0344 67.3988C14.6187 66.223 13.2847 64.9522 12.0416 63.5952H28.7951Z" fill="white"/>
</svg>
