<svg width="70" height="70" viewBox="0 0 70 70" fill="none" xmlns="http://www.w3.org/2000/svg">
<path d="M34.8806 0.000215288C15.5519 0.0672986 -0.066868 15.794 0.000215288 35.1227C0.0672986 54.4515 15.794 70.0644 35.1198 70.0002C54.4485 69.9331 70.0673 54.2094 70.0002 34.8806C69.9331 15.5519 54.2094 -0.0668681 34.8806 0.000215288ZM35.0002 6.22438C38.7806 6.21423 42.5254 6.954 46.0179 8.40088C49.5104 9.84774 52.6812 11.973 55.3469 14.6536C58.0276 17.3191 60.1529 20.4899 61.5998 23.9825C63.0467 27.475 63.7864 31.2198 63.776 35.0002C63.7864 38.7806 63.0467 42.5254 61.5998 46.018C60.1529 49.5105 58.0276 52.6813 55.3469 55.3469C52.6812 58.0275 49.5104 60.1527 46.0179 61.5996C42.5254 63.0464 38.7806 63.7862 35.0002 63.7761C31.2199 63.786 27.4751 63.0462 23.9826 61.5993C20.4901 60.1525 17.3193 58.0273 14.6535 55.3469C11.9728 52.6813 9.84753 49.5105 8.40065 46.018C6.95377 42.5254 6.21407 38.7806 6.22438 35.0002C6.21407 31.2198 6.95377 27.475 8.40065 23.9825C9.84753 20.4899 11.9728 17.3191 14.6535 14.6536C17.3193 11.9731 20.4901 9.84796 23.9826 8.4011C27.4751 6.95424 31.2199 6.21439 35.0002 6.22438ZM35.3327 9.70688C32.8404 9.70485 30.3613 10.0674 27.974 10.7831C27.7788 10.8341 27.5988 10.9311 27.449 11.066C27.3359 11.1736 27.2664 11.3189 27.2535 11.4744C27.2331 11.769 27.411 12.049 27.6706 12.2706C29.9369 14.2102 32.979 17.1152 35.1285 20.7173C33.924 20.7406 32.9731 20.0756 32.1535 19.2881C29.6407 16.9266 26.8446 14.8859 23.8294 13.2127C23.3948 12.9706 22.9252 12.8569 22.4673 13.1194C19.973 14.5146 17.7556 16.3553 15.9252 18.5502C15.7269 18.7806 15.6773 19.0198 15.7502 19.2211C15.8365 19.4153 15.9912 19.571 16.1848 19.6585C18.4306 20.8544 21.9423 23.1119 25.1856 26.0344C24.8665 26.2356 24.483 26.3085 24.1123 26.2385C23.5931 26.1627 22.9544 25.9206 22.1902 25.521C19.6491 24.2096 16.9643 23.1975 14.1898 22.5052C13.6852 22.374 13.1223 22.5198 12.8481 22.9894C11.451 25.419 10.4856 28.321 10.0335 31.264C9.98996 31.5627 10.066 31.8666 10.2451 32.1096C10.4242 32.3526 10.692 32.5151 10.9902 32.5619C13.5131 33.0052 17.016 33.816 20.0698 35.8081C23.1206 37.7944 25.7223 40.9502 26.466 46.1127C26.4969 46.3014 26.477 46.4948 26.4083 46.6732C26.3396 46.8516 26.2246 47.0085 26.0752 47.1277C25.7865 47.3494 25.3635 47.4194 24.8502 47.1802L20.2944 45.0423C20.1175 44.9534 19.9235 44.9036 19.7256 44.8965H12.5594C12.011 44.8965 11.5969 45.1648 11.4277 45.5498C11.2585 45.9348 11.3344 46.4248 11.6902 46.8331C13.411 48.8106 14.986 50.9456 16.3335 53.209C16.392 53.3147 16.4785 53.4022 16.5834 53.4618C16.6884 53.5215 16.8078 53.5511 16.9285 53.5473H20.0581C20.2841 53.5493 20.5061 53.4887 20.6998 53.3723L23.6515 51.6456C23.8031 51.5523 23.9519 51.5552 24.1677 51.5552H47.7461C47.8773 51.5552 47.9911 51.5961 48.0698 51.6661C48.1107 51.7013 48.1432 51.7453 48.1649 51.7947C48.1866 51.8442 48.197 51.8979 48.1952 51.9519V53.1127C48.1952 53.6086 48.6444 53.9877 49.1315 53.9119C52.0557 53.4443 54.7725 52.1103 56.9306 50.0823C57.023 49.9961 57.0967 49.8918 57.147 49.7759C57.1974 49.6599 57.2234 49.5349 57.2234 49.4086C57.2234 49.2822 57.1974 49.1572 57.147 49.0412C57.0967 48.9253 57.023 48.821 56.9306 48.7348C54.7736 46.7069 52.0578 45.3729 49.1344 44.9052C49.0185 44.8871 48.9 44.8943 48.7872 44.9263C48.6743 44.9583 48.5697 45.0143 48.4805 45.0905C48.3913 45.1666 48.3196 45.2612 48.2704 45.3677C48.2211 45.4741 48.1955 45.59 48.1952 45.7073V46.769C48.1915 46.9063 48.1445 47.039 48.0611 47.1481C47.9794 47.2531 47.8744 47.3173 47.7606 47.3173C47.5302 47.3173 47.3027 47.3231 47.0752 47.3173C46.7165 47.3115 46.5298 47.1073 46.4219 46.8127C46.3221 46.508 46.312 46.181 46.3927 45.8706C48.131 39.6348 48.5569 35.8431 48.5365 33.081C48.516 30.1556 48.4402 27.2185 47.119 23.3481C45.8502 19.6381 44.669 15.969 38.5235 10.401C38.122 10.0247 37.6002 9.80251 37.0506 9.77397C36.479 9.73141 35.9059 9.70709 35.3327 9.70688ZM39.7894 38.0102C40.641 38.046 41.4459 38.4095 42.0358 39.0248C42.6258 39.6401 42.9552 40.4595 42.9552 41.3119C42.9552 42.1643 42.6258 42.9837 42.0358 43.599C41.4459 44.2142 40.641 44.5777 39.7894 44.6135C38.9137 44.6135 38.0739 44.2657 37.4548 43.6465C36.8356 43.0273 36.4877 42.1875 36.4877 41.3119C36.4877 40.4362 36.8356 39.5964 37.4548 38.9772C38.0739 38.3581 38.9137 38.0102 39.7894 38.0102Z" fill="white"/>
</svg>
