<svg width="78" height="53" viewBox="0 0 78 53" fill="none" xmlns="http://www.w3.org/2000/svg">
<path d="M31.7753 24.6145C32.4017 20.3239 32.3206 18.0812 26.0371 18.4284C18.8222 18.8309 11.5099 19.2885 0.562535 21.7617C0.226381 23.1551 0.0553524 24.5832 0.0529785 26.0166C0.0529785 30.9499 2.05875 35.7209 5.85284 39.8233C9.29316 43.5363 14.1486 46.6228 19.8932 48.7552C22.0264 49.5384 24.2103 50.176 26.4299 50.6636C26.8518 48.9532 29.5424 37.9831 31.6747 25.2734L31.7721 24.6178M77.4375 21.7617C66.4934 19.2885 59.1843 18.8341 51.9726 18.4317C45.6859 18.0844 45.6048 20.3271 46.2344 24.6178L46.3837 25.5849C48.4933 38.074 51.1158 48.8233 51.5702 50.6409C66.8958 47.1389 77.947 37.4281 77.947 26.0166C77.947 24.5788 77.7718 23.1605 77.4375 21.7617ZM75.8439 17.4645C74.8595 15.5513 73.6143 13.7839 72.1439 12.2131C68.7036 8.50019 63.8514 5.41364 58.1068 3.28129C52.3166 1.13271 45.7086 0 39 0C32.2881 0 25.6834 1.13595 19.8932 3.27804C14.1486 5.41364 9.29316 8.50344 5.85284 12.2131C4.38358 13.7853 3.13948 15.5537 2.15612 17.4677C9.63395 15.66 22.4248 13.2712 34.3004 13.0213C35.4461 12.9953 36.2348 13.3621 36.7541 14.0177C37.3902 14.8226 37.3383 17.6787 37.322 18.9575L36.9845 51.9975C38.3299 52.0428 39.6765 52.0428 41.022 51.9975L40.6845 18.9575C40.6682 17.6787 40.6196 14.8226 41.2524 14.0177C41.7717 13.3621 42.5604 12.9953 43.7061 13.018C55.5785 13.2712 68.3628 15.6567 75.8439 17.4645Z" fill="white"/>
</svg>
