<svg width="92" height="68" viewBox="0 0 92 68" fill="none" xmlns="http://www.w3.org/2000/svg">
<path fill-rule="evenodd" clip-rule="evenodd" d="M21.7969 6.06911C29.1412 2.66165 37.7019 0.857178 46.4286 0.857178C55.1791 0.857178 63.7626 2.67149 71.1203 6.09697C71.2744 6.15859 71.4264 6.2301 71.5756 6.31176C73.8859 7.41597 76.0715 8.68085 78.0988 10.1C86.6844 16.1099 92 24.6366 92 34C92 43.3635 86.6844 51.8902 78.0988 57.9001C69.5273 63.9002 58.1271 67.1429 46.4286 67.1429C34.7301 67.1429 23.3299 63.9002 14.7584 57.9001C6.1728 51.8902 0.857178 43.3635 0.857178 34C0.857178 24.6366 6.1728 16.1099 14.7584 10.1C16.7821 8.68342 18.9634 7.42055 21.2691 6.31776C21.4415 6.22135 21.6178 6.13858 21.7969 6.06911ZM14.2147 21.5811C10.8191 25.4632 9.14289 29.7823 9.14289 34C9.14289 40.0192 12.5568 46.245 19.51 51.1122C23.6761 54.0285 28.8104 56.2264 34.4626 57.5223C34.2434 57.0695 34.0334 56.6075 33.8322 56.138C31.3136 50.2613 29.8572 42.4314 29.8572 34C29.8572 33.3106 29.8669 32.6252 29.8862 31.9445C27.8777 31.4011 26.0014 30.7579 24.2906 30.0247C21.3596 28.7686 18.723 27.1665 16.7589 25.1763C15.7332 24.1371 14.8389 22.9331 14.2147 21.5811ZM30.6381 23.5363C29.5308 23.1917 28.4997 22.814 27.5544 22.4089C25.2375 21.416 23.6272 20.34 22.6563 19.3562C21.703 18.3903 21.5715 17.7436 21.5715 17.4283C21.5715 16.9298 22.024 15.4709 25.106 13.669C27.9838 12.3173 31.1334 11.2411 34.4626 10.4778C34.2434 10.9306 34.0334 11.3925 33.8322 11.862C32.3997 15.2045 31.3108 19.1788 30.6381 23.5363ZM38.1447 33.5166C38.1435 33.6773 38.1429 33.8385 38.1429 34C38.1429 41.5849 39.4684 48.2551 41.448 52.8742C42.4409 55.1912 43.5169 56.8015 44.5007 57.7724C45.4666 58.7257 46.1133 58.8572 46.4286 58.8572C46.7439 58.8572 47.3906 58.7257 48.3566 57.7724C49.3403 56.8015 50.4163 55.1912 51.4093 52.8742C53.3888 48.2551 54.7143 41.5849 54.7143 34C54.7143 33.8385 54.7137 33.6773 54.7125 33.5166C52.0545 33.8336 49.2759 33.9997 46.4286 33.9997C43.5814 33.9997 40.8027 33.8336 38.1447 33.5166ZM54.0972 25.2445C51.6896 25.5475 49.1165 25.714 46.4286 25.714C43.7407 25.714 41.1677 25.5475 38.7601 25.2445C39.3343 21.3104 40.2766 17.8591 41.448 15.1258C42.4409 12.8089 43.5169 11.1986 44.5007 10.2277C45.4666 9.27441 46.1133 9.14289 46.4286 9.14289C46.7439 9.14289 47.3906 9.27441 48.3566 10.2277C49.3403 11.1986 50.4163 12.8089 51.4093 15.1258C52.5806 17.8591 53.5229 21.3104 54.0972 25.2445ZM62.9711 31.9445C62.9903 32.6252 63 33.3106 63 34C63 42.4314 61.5436 50.2613 59.0251 56.1381C58.8239 56.6075 58.6138 57.0695 58.3946 57.5223C64.0468 56.2264 69.1811 54.0285 73.3473 51.1122C80.3004 46.245 83.7143 40.0192 83.7143 34C83.7143 29.7824 82.0381 25.4632 78.6425 21.5811C78.0183 22.9331 77.124 24.1371 76.0984 25.1763C74.1343 27.1665 71.4977 28.7686 68.5666 30.0247C66.8558 30.7579 64.9795 31.4011 62.9711 31.9445ZM67.7466 13.6668C70.8334 15.4684 71.2858 16.9285 71.2858 17.4283C71.2858 17.7436 71.1543 18.3903 70.201 19.3562C69.2301 20.34 67.6198 21.416 65.3028 22.4089C64.3576 22.814 63.3264 23.1917 62.2191 23.5363C61.5464 19.1788 60.4575 15.2045 59.0251 11.862C58.8239 11.3925 58.6138 10.9306 58.3946 10.4778C61.7221 11.2407 64.87 12.3162 67.7466 13.6668Z" fill="white"/>
</svg>
