<svg width="64" height="64" viewBox="0 0 64 64" fill="none" xmlns="http://www.w3.org/2000/svg">
<path d="M10.0506 16.4433C9.46701 14.9518 7.78479 14.2158 6.29329 14.7994C4.80179 15.383 4.06581 17.0653 4.64944 18.5568L10.0506 16.4433ZM20.4 50.85L17.6994 51.9067C18.1102 52.9564 19.092 53.673 20.2169 53.7442C21.3419 53.8153 22.4062 53.2282 22.9459 52.2386L20.4 50.85ZM29.1 34.9V32C28.0388 32 27.0623 32.5797 26.5541 33.5113L29.1 34.9ZM34.9 34.9L37.4459 33.5113C36.9377 32.5797 35.9613 32 34.9 32V34.9ZM43.6 50.85L41.0541 52.2386C41.5939 53.2282 42.6581 53.8153 43.7831 53.7442C44.9081 53.673 45.8899 52.9564 46.3006 51.9067L43.6 50.85ZM59.3506 18.5568C59.9342 17.0653 59.1982 15.383 57.7067 14.7994C56.2152 14.2158 54.533 14.9518 53.9494 16.4433L59.3506 18.5568ZM23.0331 4.68492C22.3619 3.23071 20.639 2.59593 19.1848 3.26711C17.7306 3.93828 17.0958 5.66125 17.767 7.11546L23.0331 4.68492ZM29.1 24.7502L26.4669 25.9654C26.941 26.9925 27.9689 27.6502 29.1 27.6502V24.7502ZM34.9 24.7502V27.6502C36.0312 27.6502 37.0591 26.9925 37.5331 25.9654L34.9 24.7502ZM46.2331 7.11546C46.9043 5.66125 46.2695 3.93828 44.8153 3.26711C43.3611 2.59593 41.6381 3.23071 40.9669 4.68492L46.2331 7.11546ZM51.1835 10.25L49.2622 12.4223L49.2675 12.427L51.1835 10.25ZM12.8165 10.25L14.7325 12.427L14.7378 12.4223L12.8165 10.25ZM32 63.9C49.6183 63.9 63.9 49.6183 63.9 32H58.1C58.1 46.4151 46.4151 58.1 32 58.1V63.9ZM63.9 32C63.9 14.3817 49.6183 0.100036 32 0.100036V5.90003C46.4151 5.90003 58.1 17.5849 58.1 32H63.9ZM32 0.100036C14.3817 0.100036 0.100053 14.3817 0.100053 32H5.90005C5.90005 17.5849 17.585 5.90003 32 5.90003V0.100036ZM0.100053 32C0.100053 49.6183 14.3817 63.9 32 63.9V58.1C17.585 58.1 5.90005 46.4151 5.90005 32H0.100053ZM4.64944 18.5568L17.6994 51.9067L23.1006 49.7932L10.0506 16.4433L4.64944 18.5568ZM22.9459 52.2386L31.6459 36.2887L26.5541 33.5113L17.8541 49.4613L22.9459 52.2386ZM29.1 37.8H34.9V32H29.1V37.8ZM32.3541 36.2887L41.0541 52.2386L46.1459 49.4613L37.4459 33.5113L32.3541 36.2887ZM46.3006 51.9067L59.3506 18.5568L53.9494 16.4433L40.8994 49.7932L46.3006 51.9067ZM17.767 7.11546L26.4669 25.9654L31.7331 23.5349L23.0331 4.68492L17.767 7.11546ZM29.1 27.6502H34.9V21.8502H29.1V27.6502ZM37.5331 25.9654L46.2331 7.11546L40.9669 4.68492L32.2669 23.5349L37.5331 25.9654ZM63.9 32.0033C63.9051 27.4759 62.9444 22.9994 61.0819 18.8728L55.7954 21.2588C57.3185 24.6334 58.1042 28.2942 58.1 31.9967L63.9 32.0033ZM61.0819 18.8728C59.2195 14.7462 56.4981 11.0643 53.0995 8.07311L49.2675 12.427C52.0468 14.8731 54.2723 17.8841 55.7954 21.2588L61.0819 18.8728ZM53.1048 8.07781C47.2808 2.92657 39.7709 0.088342 31.9957 0.100039L32.0044 5.90003C38.361 5.89046 44.5008 8.21086 49.2622 12.4223L53.1048 8.07781ZM32.0044 0.100039C24.2292 0.088342 16.7192 2.92657 10.8952 8.07781L14.7378 12.4223C19.4993 8.21086 25.639 5.89046 31.9957 5.90003L32.0044 0.100039ZM10.9006 8.07311C7.50197 11.0643 4.78059 14.7462 2.9181 18.8728L8.2046 21.2588C9.72771 17.8841 11.9532 14.8731 14.7325 12.427L10.9006 8.07311ZM2.9181 18.8728C1.05562 22.9994 0.0948884 27.4759 0.100055 32.0033L5.90004 31.9967C5.89582 28.2942 6.68149 24.6334 8.2046 21.2588L2.9181 18.8728Z" fill="white"/>
</svg>
