<svg viewbox="0 0 23 26" width="23" height="26" viewBox="0 0 23 26" fill="none" xmlns="http://www.w3.org/2000/svg">
<path d="M5.6875 14.625C5.47201 14.625 5.26535 14.7106 5.11298 14.863C4.9606 15.0153 4.875 15.222 4.875 15.4375V18.6875C4.875 18.903 4.9606 19.1097 5.11298 19.262C5.26535 19.4144 5.47201 19.5 5.6875 19.5C5.90299 19.5 6.10965 19.4144 6.26202 19.262C6.4144 19.1097 6.5 18.903 6.5 18.6875V18.4177H7.04275C7.5457 18.4177 8.02805 18.218 8.38369 17.8623C8.73933 17.5067 8.93913 17.0243 8.93913 16.5214C8.93913 16.0184 8.73933 15.5361 8.38369 15.1804C8.02805 14.8248 7.5457 14.625 7.04275 14.625H5.6875ZM7.04275 16.7927H6.5V16.25H7.04112C7.1131 16.25 7.18212 16.2786 7.23302 16.3295C7.28391 16.3804 7.3125 16.4494 7.3125 16.5214C7.3125 16.5933 7.28391 16.6624 7.23302 16.7133C7.18212 16.7642 7.11472 16.7927 7.04275 16.7927ZM14.625 15.4359C14.6254 15.2207 14.7112 15.0144 14.8635 14.8624C15.0159 14.7104 15.2223 14.625 15.4375 14.625H17.0609C17.2764 14.625 17.483 14.7106 17.6354 14.863C17.7878 15.0153 17.8734 15.222 17.8734 15.4375C17.8734 15.653 17.7878 15.8597 17.6354 16.012C17.483 16.1644 17.2764 16.25 17.0609 16.25H16.25V16.7944H17.0625C17.278 16.7944 17.4847 16.88 17.637 17.0324C17.7894 17.1847 17.875 17.3914 17.875 17.6069C17.875 17.8224 17.7894 18.029 17.637 18.1814C17.4847 18.3338 17.278 18.4194 17.0625 18.4194H16.25L16.2516 18.6859C16.2518 18.7926 16.231 18.8983 16.1904 18.9969C16.1498 19.0956 16.0901 19.1853 16.0148 19.2609C15.8627 19.4136 15.6562 19.4996 15.4407 19.5C15.2253 19.5004 15.0184 19.4152 14.8657 19.2632C14.7131 19.1111 14.6271 18.9046 14.6266 18.6891L14.625 17.6052V15.4359ZM10.5625 14.625C10.347 14.625 10.1403 14.7106 9.98797 14.863C9.8356 15.0153 9.75 15.222 9.75 15.4375V18.6875C9.75 18.903 9.8356 19.1097 9.98797 19.262C10.1403 19.4144 10.347 19.5 10.5625 19.5H11.3782C12.0247 19.5 12.6447 19.2432 13.1018 18.7861C13.5589 18.329 13.8157 17.709 13.8157 17.0625C13.8157 16.416 13.5589 15.796 13.1018 15.3389C12.6447 14.8818 12.0247 14.625 11.3782 14.625H10.5625ZM11.375 17.875V16.25H11.3782C11.5937 16.25 11.8004 16.3356 11.9528 16.488C12.1051 16.6403 12.1907 16.847 12.1907 17.0625C12.1907 17.278 12.1051 17.4847 11.9528 17.637C11.8004 17.7894 11.5937 17.875 11.3782 17.875H11.375ZM1.62662 3.25C1.62662 2.38805 1.96903 1.5614 2.57853 0.951903C3.18802 0.34241 4.01467 0 4.87662 0H12.3272C12.6475 6.83161e-05 12.9646 0.0632499 13.2605 0.185934C13.5563 0.308617 13.8251 0.488398 14.0514 0.715L20.4116 7.07525C20.8689 7.53193 21.1261 8.1515 21.1266 8.79775V11.5082C21.6012 11.6768 22.0119 11.9882 22.3023 12.3996C22.5927 12.8111 22.7485 13.3024 22.7484 13.806V20.3109C22.7485 20.8145 22.5927 21.3058 22.3023 21.7172C22.0119 22.1287 21.6012 22.4401 21.1266 22.6086V22.75C21.1266 23.612 20.7842 24.4386 20.1747 25.0481C19.5652 25.6576 18.7386 26 17.8766 26H4.875C4.01305 26 3.1864 25.6576 2.5769 25.0481C1.96741 24.4386 1.625 23.612 1.625 22.75V22.6086C1.15008 22.4407 0.738851 22.1298 0.447858 21.7186C0.156866 21.3075 0.000407593 20.8162 0 20.3125V13.8076C7.17591e-05 13.3036 0.156374 12.812 0.44739 12.4005C0.738405 11.989 1.14982 11.6779 1.625 11.5099L1.62662 3.25ZM19.5016 9.75H13.8141C13.4939 9.75021 13.1768 9.68732 12.8808 9.56492C12.5849 9.44252 12.316 9.26301 12.0895 9.03665C11.863 8.81028 11.6833 8.5415 11.5607 8.24567C11.4381 7.94983 11.375 7.63273 11.375 7.3125V1.625H4.875C4.44402 1.625 4.0307 1.7962 3.72595 2.10095C3.4212 2.4057 3.25 2.81902 3.25 3.25V11.3685H19.5V9.75H19.5016ZM3.25 22.7484C3.24979 22.9619 3.29166 23.1734 3.37323 23.3707C3.4548 23.5681 3.57446 23.7474 3.72538 23.8985C3.87629 24.0495 4.0555 24.1694 4.25276 24.2511C4.45002 24.3329 4.66146 24.375 4.875 24.375H17.875C18.0885 24.375 18.3 24.3329 18.4972 24.2511C18.6945 24.1694 18.8737 24.0495 19.0246 23.8985C19.1755 23.7474 19.2952 23.5681 19.3768 23.3707C19.4583 23.1734 19.5002 22.9619 19.5 22.7484H3.25ZM13 1.96138V7.3125C13 7.52799 13.0856 7.73465 13.238 7.88702C13.3903 8.0394 13.597 8.125 13.8125 8.125H19.162L13 1.96138ZM2.44075 12.9935C2.22526 12.9935 2.0186 13.0791 1.86623 13.2315C1.71385 13.3838 1.62825 13.5905 1.62825 13.806V20.3109C1.62825 20.5264 1.71385 20.733 1.86623 20.8854C2.0186 21.0378 2.22526 21.1234 2.44075 21.1234H20.3109C20.5264 21.1234 20.733 21.0378 20.8854 20.8854C21.0378 20.733 21.1234 20.5264 21.1234 20.3109V13.806C21.1234 13.5905 21.0378 13.3838 20.8854 13.2315C20.733 13.0791 20.5264 12.9935 20.3109 12.9935H2.44075Z" fill="black"/>
</svg>
